<svg xmlns="http://www.w3.org/2000/svg" width="71.658" height="24.466" viewBox="0 0 71.658 24.466"><defs><style>.a{fill:#fff;fill-rule:evenodd;}</style></defs><path class="a" d="M113.28,98.437a1.45,1.45,0,1,1-1.981-.531A1.45,1.45,0,0,1,113.28,98.437Zm1.311-.7a2.93,2.93,0,1,1-4-1.073A2.931,2.931,0,0,1,114.59,97.734Zm-1.3,10.175a1.45,1.45,0,1,0-1.981-.531A1.45,1.45,0,0,0,113.293,107.909Zm.731,1.293a2.931,2.931,0,1,0-4-1.073A2.931,2.931,0,0,0,114.024,109.2Zm-.231,4.166a1.45,1.45,0,1,1-1.981-.531A1.45,1.45,0,0,1,113.793,113.368Zm1.3-.729a2.93,2.93,0,1,1-4-1.073A2.931,2.931,0,0,1,115.095,112.639Zm-7.964-1.226a1.45,1.45,0,1,0-1.981-.531A1.45,1.45,0,0,0,107.13,111.413Zm.781,1.318a2.931,2.931,0,1,0-4-1.073A2.931,2.931,0,0,0,107.911,112.731Zm-6.835-7.225a1.45,1.45,0,1,1-1.981-.531A1.45,1.45,0,0,1,101.076,105.505Zm1.311-.713a2.93,2.93,0,1,1-4-1.073A2.931,2.931,0,0,1,102.387,104.792Zm4.26-.811a1.45,1.45,0,1,0-1.981-.531A1.45,1.45,0,0,0,106.647,103.982Zm.758,1.285a2.931,2.931,0,1,0-4-1.073A2.931,2.931,0,0,0,107.405,105.267Zm56.566-2.4v7.369h1.908v-3.358a2.709,2.709,0,0,1,.268-1.322,1.54,1.54,0,0,1,.775-.669,3.039,3.039,0,0,1,1.118-.193h.537v-2.006a3.021,3.021,0,0,0-2.727,1.56l-.179-1.382Zm-5.18,1.367a2.01,2.01,0,0,0-1.237.4,1.794,1.794,0,0,0-.686,1.189h3.681a1.6,1.6,0,0,0-.537-1.159A1.788,1.788,0,0,0,158.791,104.238Zm-.015,6.18a4.046,4.046,0,0,1-1.982-.475,3.447,3.447,0,0,1-1.356-1.337,3.945,3.945,0,0,1-.492-1.991,4.247,4.247,0,0,1,.477-2.035,3.526,3.526,0,0,1,1.341-1.382,3.945,3.945,0,0,1,2.027-.505,3.816,3.816,0,0,1,1.923.475,3.352,3.352,0,0,1,1.3,1.307,3.558,3.558,0,0,1,.477,1.827q0,.163-.015.342t-.015.371h-5.619a1.853,1.853,0,0,0,1.923,1.842,1.739,1.739,0,0,0,.969-.253,1.645,1.645,0,0,0,.6-.683h1.937a3.513,3.513,0,0,1-.7,1.278,3.366,3.366,0,0,1-1.192.891A3.73,3.73,0,0,1,158.776,110.418Zm-15.457-.178a2.881,2.881,0,0,1-1.863-.565,2.451,2.451,0,0,1-.7-2.006v-3.209h-1.267v-1.59h1.267l.224-1.976h1.684v1.976h2v1.59h-2v3.224a.991.991,0,0,0,.224.743,1.3,1.3,0,0,0,.8.193h.924v1.619Zm-7.486-1.842a1.559,1.559,0,0,1-1.267.535,1.44,1.44,0,0,1-.864-.238.778.778,0,0,1-.328-.668.829.829,0,0,1,.328-.669,1.665,1.665,0,0,1,1.088-.282h1.625A2.559,2.559,0,0,1,135.833,108.4Zm-3.264,1.723a3.582,3.582,0,0,0,1.565.3,2.672,2.672,0,0,0,1.505-.386,2.729,2.729,0,0,0,.924-.981l.179,1.188h1.625v-4.531a2.789,2.789,0,0,0-.909-2.228,3.675,3.675,0,0,0-2.489-.787,4.113,4.113,0,0,0-1.669.327,3.043,3.043,0,0,0-1.222.906,2.618,2.618,0,0,0-.537,1.4H133.4a1.158,1.158,0,0,1,.537-.8,1.811,1.811,0,0,1,1.013-.282,1.63,1.63,0,0,1,1.073.357,1.362,1.362,0,0,1,.432,1.114v.178h-1.878a3.836,3.836,0,0,0-2.414.639,2.025,2.025,0,0,0-.8,1.664,2.087,2.087,0,0,0,1.207,1.931Zm-10.484-.371a4.876,4.876,0,0,0,2.578.669,4.133,4.133,0,0,0,1.937-.4,3.493,3.493,0,0,0,1.267-1.144l.149,1.367h1.759v-5.72h-4.561v1.426h2.638a3.443,3.443,0,0,1-.879,2.02,2.8,2.8,0,0,1-2.131.758,2.946,2.946,0,0,1-2.3-.936,3.922,3.922,0,0,1-.835-2.674,3.994,3.994,0,0,1,.85-2.7,3,3,0,0,1,2.414-1,2.855,2.855,0,0,1,1.61.416,2.059,2.059,0,0,1,.864,1.129h2.131a4,4,0,0,0-1.565-2.422,5.041,5.041,0,0,0-3.04-.877,5.364,5.364,0,0,0-2.787.7,4.671,4.671,0,0,0-1.8,1.916,6.683,6.683,0,0,0-.015,5.616A4.561,4.561,0,0,0,122.085,109.75ZM146.3,99.543v10.7h1.908v-3.8a2.233,2.233,0,0,1,.522-1.575,1.774,1.774,0,0,1,1.341-.565,1.383,1.383,0,0,1,1.192.505,2.355,2.355,0,0,1,.388,1.456v3.981h1.893v-4.16a3.71,3.71,0,0,0-.76-2.526,2.647,2.647,0,0,0-2.116-.862,2.953,2.953,0,0,0-1.461.357,2.626,2.626,0,0,0-1,.951V99.543ZM99.872,93.66a.727.727,0,1,1,1.26-.727l1.544,2.675.06.013,3.554.952a.727.727,0,0,1-.376,1.405l-3.209-.86-.859,3.206a.727.727,0,0,1-1.405-.377l.952-3.554q.009-.033.02-.064Z" transform="translate(-96.918 -92.569)"/></svg>