<svg xmlns="http://www.w3.org/2000/svg" width="60.963" height="13.61" viewBox="0 0 60.963 13.61"><defs><style>.a{fill:#fff;}</style></defs><g transform="translate(-84.55 -85.039)"><path class="a" d="M103.586,87.164a2.435,2.435,0,0,0-1.719-1.719c-1.516-.406-7.6-.406-7.6-.406s-6.08,0-7.6.406a2.435,2.435,0,0,0-1.719,1.719,27.161,27.161,0,0,0,0,9.359,2.435,2.435,0,0,0,1.719,1.719c1.516.406,7.6.406,7.6.406s6.08,0,7.6-.406a2.435,2.435,0,0,0,1.719-1.719,27.162,27.162,0,0,0,0-9.359Zm-11.259,7.6V88.927l5.051,2.917Z" transform="translate(0 0)"/><g transform="translate(105.915 85.574)"><g transform="translate(0 0)"><path class="a" d="M255.3,118.108a2.117,2.117,0,0,1-.82-1.21,7.91,7.91,0,0,1-.243-2.183v-1.237a7.172,7.172,0,0,1,.278-2.211,2.218,2.218,0,0,1,.869-1.217,2.815,2.815,0,0,1,1.55-.382,2.644,2.644,0,0,1,1.516.389,2.232,2.232,0,0,1,.834,1.216,7.46,7.46,0,0,1,.264,2.2v1.237a7.589,7.589,0,0,1-.257,2.19,2.151,2.151,0,0,1-.834,1.21,3.42,3.42,0,0,1-3.156-.007Zm2.155-1.335a4.159,4.159,0,0,0,.16-1.363v-2.656a4.11,4.11,0,0,0-.16-1.342.572.572,0,0,0-.563-.424.564.564,0,0,0-.549.424,4.1,4.1,0,0,0-.16,1.342v2.656a4.328,4.328,0,0,0,.153,1.363.559.559,0,0,0,.556.417A.571.571,0,0,0,257.458,116.774Z" transform="translate(-248.448 -106.262)"/><path class="a" d="M435.554,114.769v.431a11.345,11.345,0,0,0,.049,1.231,1.167,1.167,0,0,0,.2.6.574.574,0,0,0,.473.188.6.6,0,0,0,.591-.334,2.9,2.9,0,0,0,.174-1.112l1.655.1a2.6,2.6,0,0,1,.014.306,2.261,2.261,0,0,1-.647,1.766,2.633,2.633,0,0,1-1.828.584,2.177,2.177,0,0,1-1.988-.89,5.211,5.211,0,0,1-.57-2.753v-1.488a5.153,5.153,0,0,1,.591-2.8,2.253,2.253,0,0,1,2.023-.883,2.674,2.674,0,0,1,1.516.362,1.941,1.941,0,0,1,.744,1.126,8.147,8.147,0,0,1,.216,2.113v1.46Zm.243-3.587a1.173,1.173,0,0,0-.195.591,11.523,11.523,0,0,0-.049,1.244v.612h1.4v-.612a10.381,10.381,0,0,0-.056-1.244,1.192,1.192,0,0,0-.2-.6.557.557,0,0,0-.452-.174A.547.547,0,0,0,435.8,111.182Z" transform="translate(-399.169 -106.295)"/><path class="a" d="M220.235,98.958l-2.183-7.883h1.9l.765,3.573q.292,1.321.431,2.252h.056q.1-.667.431-2.238l.792-3.587h1.9l-2.211,7.883v3.782h-1.891Z" transform="translate(-218.052 -90.644)"/><path class="a" d="M298.844,110.711v8.523h-1.5l-.167-1.043h-.042a1.963,1.963,0,0,1-1.835,1.182,1.442,1.442,0,0,1-1.251-.556,2.985,2.985,0,0,1-.4-1.738v-6.368h1.919v6.257a1.91,1.91,0,0,0,.125.813.433.433,0,0,0,.417.243.851.851,0,0,0,.48-.153.947.947,0,0,0,.341-.389v-6.771Z" transform="translate(-281.546 -107.138)"/><path class="a" d="M360.34,110.711v8.523h-1.5l-.167-1.043h-.042a1.963,1.963,0,0,1-1.835,1.182,1.441,1.441,0,0,1-1.251-.556,2.984,2.984,0,0,1-.4-1.738v-6.368h1.919v6.257a1.91,1.91,0,0,0,.125.813.433.433,0,0,0,.417.243.851.851,0,0,0,.48-.153.947.947,0,0,0,.341-.389v-6.771Z" transform="translate(-333.201 -107.138)"/><path class="a" d="M328.868,92.62h-1.9v10.122h-1.877V92.62h-1.9V91.077h5.686Z" transform="translate(-306.357 -90.646)"/><path class="a" d="M400.055,93.319a2.192,2.192,0,0,0-.563-1.168,1.513,1.513,0,0,0-1.07-.362,1.776,1.776,0,0,0-.987.3,2.031,2.031,0,0,0-.709.786h-.014V88.383h-1.849v12.1h1.585l.195-.806h.042a1.627,1.627,0,0,0,.667.681,1.977,1.977,0,0,0,.987.25,1.511,1.511,0,0,0,1.432-.9,6.455,6.455,0,0,0,.459-2.8V95.557A11.2,11.2,0,0,0,400.055,93.319ZM398.3,96.8a10.777,10.777,0,0,1-.077,1.46,1.577,1.577,0,0,1-.257.751.594.594,0,0,1-.487.222.888.888,0,0,1-.438-.111.837.837,0,0,1-.327-.334V93.945a1.21,1.21,0,0,1,.334-.57.738.738,0,0,1,.514-.222.519.519,0,0,1,.452.229,1.764,1.764,0,0,1,.222.772A14.43,14.43,0,0,1,398.3,95.7Z" transform="translate(-366.566 -88.383)"/></g></g></g></svg>