<svg xmlns="http://www.w3.org/2000/svg" width="207.322" height="41.63" viewBox="0 0 207.322 41.63"><defs><style>.a{fill:#226bb4;}</style></defs><path class="a" d="M2.3,43.056l5.336,5.152H29.808l5.382-5.152V14.214L29.808,8.74H7.636L2.3,14.214ZM16.054,21.62h5.382V35.6H16.054ZM48.9,48.07H77.05l4.508-4.324v-16.7L77.05,23H61.962V20.378H80.73V8.648H48.99V33.212H66.976v2.806H48.9ZM95.726,47.1v2.3h9.384l12.6-39.33v-2.3H108.33ZM159.16,8.6H132.2V22.448h14.674V24.1L131.79,39.238V48.07h31.372V35.788h-9.8v-.552l9.246-8.464V12.926Zm45.678.184H181.424L176.64,13.57v16.7l3.542,3.266H195.96V36.2h-18.4v11.96h26.082l5.98-5.612V13.57ZM189.658,23.92V20.24h6.3v3.68Z" transform="translate(-2.3 -7.774)"/></svg>