<svg xmlns="http://www.w3.org/2000/svg" width="341.24" height="34.44" viewBox="0 0 341.24 34.44"><defs><style>.a{fill:#226bb4;}</style></defs><path class="a" d="M115.46,41.68l4.84-4.8V23.32l-4.04-3.52H105.22V17.64h14.2V8.28H97.78l-4.84,4.8V26l4.04,3.52h10.2v2.16H92.9v10ZM127.54,8.16V41.72h13.92V8.16Zm47.64.2H148.26V19.92h6.84V41.6h13.24V19.92h6.84Zm20.24,21.28V20.6h14.36V8.32h-22.4l-5.52,5.6V36.2l5.52,5.52h22.8V29.64ZM221.94,8.2l-4.92,5.32V36.48l4.92,5.28h20.68l4.92-5.28V13.56L242.62,8.2Zm7.68,23.36V18.64h5.32V31.56ZM272.94,8.52V19.8h-.88L265.38,8.52h-10.6V41.56h11.84V30.24h.84l6.88,11.36h10.24V8.52Zm60.92-1.04H310.42V19.52h12.76v1.44L310.06,34.12V41.8h27.28V31.12h-8.52v-.48l8.04-7.36V11.24Zm11.28,29.96,4.64,4.48h19.28l4.68-4.48V12.36L369.06,7.6H349.78l-4.64,4.76ZM357.1,18.8h4.68V30.96H357.1ZM405.34,7.48H381.9V19.52h12.76v1.44L381.54,34.12V41.8h27.28V31.12H400.3v-.48l8.04-7.36V11.24Zm16.8.28L416.3,13.2v7.96h3.28V41.64h14.56V7.76Z" transform="translate(-92.9 -7.48)"/></svg>