<svg xmlns="http://www.w3.org/2000/svg" width="368.34" height="56.46" viewBox="0 0 368.34 56.46"><defs><style>.a{fill:#226bb4;}</style></defs><path class="a" d="M91.6,10.62H80.5V8.58H65.86v2.04H56.44V22.5H91.6ZM55.18,38.1v2.88l-1.86-2.22V36.6h2.16V23.46H53.32V20.58l1.74-1.2V9.72H36.7V21.36H40v2.1H36.52V36.6h3.06l-3.54,5.64V59.58h2.28L40,56.52v8.22H53.32V53.4h1.86V64.74H67.6V48.18H79.36v8.94l-1.32,1.14V49.62H68.92v12.6h5.82v2.52h17.4V38.1ZM90.4,36.72V23.94H57.1V36.72ZM69.7,29.76h7.56v1.8H69.7Zm4.86,27.3H72.64v-2.1h1.92Zm83.22-18.6h-7.92v-9.3h7.38V13.38h-7.38V9.18h-13.5v4.2h-2.4v-3h-8.1l-2.94,5.76V29.16h8.7v9.3h-8.76V54.48h8.76V64.92h18.24V54.48h7.92ZM101.8,23.1V43.68h3.3V64.74h16.02V9.6H108.88Zm97.56-3.72h-1.38V8.88h-8.1v10.5h-1.44V9.9h-4.92V27.66h20.64V9.9h-4.8Zm22.5,26.52,1.8-3.36V11.4h-7.08V9.06H208.6l-3.18,4.14V26.7h8.46v6l-2.4-4.26h-6.06V41.7l1.74,3.06-2.22,3.12v17.1h6.84l2.58-4.38,2.34,4.38h7.14V49.8ZM182.14,19.92V9.66h-8.82l-5.7,4.02V29.22h2.7ZM167.62,33.06V46.8h1.74V65.04H182.2V23.7h-2.58Zm15.9,4.26H204.1V29.1H183.52Zm.18,9.06h4.14v1.56h-3.96v7.14h3.96V56.7h-4.2v8.16h19.98V56.7H200.2V55.08h3.36V47.94H200.2v-2.1l3.6-.84V38.76H183.7ZM287.74,12.96l-.9-3.54H273.58v3.54h-1.86V8.82H251.56v4.14H234.52V26.4h17.94V55.5l-1.62,1.8V43.62H238.9l-4.38,5.4V61.86h13.92v3.06h23.28V26.4h18.36V12.96Zm-36.9,29.1V27.84H234.88v8.88l4.08,5.34Zm38.34-14.22h-15.9V42.06H285.1l4.08-5.34Zm-15.9,15.78V61.86h16.2V49.02l-4.32-5.4ZM355.42,13.2H338.86V9.06H316.9V13.2H300.64V56.16H316.9v8.76h21.96V56.16h16.56ZM315.7,27.72h3.6V42.3h-3.6ZM340.06,42.3h-3.6V27.72h3.6Zm44.22-31.32V45.72H398.8l5.58-7.44V10.98Zm.36,38.28V63.78h18.24V49.26Z" transform="translate(-36.04 -8.58)"/></svg>