<svg xmlns="http://www.w3.org/2000/svg" width="244.23" height="28.26" viewBox="0 0 244.23 28.26"><defs><style>.a{fill:#226bb4;}</style></defs><path class="a" d="M167.03,8.85l1.26.72h2.19V7.59l-.87-.48.87-.45V4.71h-2.19l-1.26.69-1.26-.69h-2.19V6.66l.87.45-.87.48V9.57h2.19ZM179.24,21.9h1.83V15.63h-.66V4.86h-9.45V9.3h2.82v.6h-2.73v2.31h2.73v.57h-2.73v2.25h2.73v.6H160.31v-.6h2.76V12.78h-2.76v-.57h2.76V9.9h-2.76V9.3h.99l1.77-.48V4.86h-9.36V15.63h-.66v6.33h1.32v2.1H166.4v.15l-1.29.48H153.2V29.4h9.45v.12l-2.28,1.29V32.4h12.18v-3h8.31V24.69h-4.32l2.7-1.14Zm-12.21-7.5,1.26.72h2.19V13.14l-.9-.48.9-.51V10.08h-2.19l-1.26.69-1.26-.69h-2.19v2.07l.9.51-.9.48v1.98h2.19Zm-7.29,6.18v-.63h14.79v.63Zm49.02,4.29V22.65h7.53V16.14h-7.53V14.13h7.95V6.87h-7.95V4.29h-9.75V6.87h-1.65V5.22h-5.61L189.2,8.67v5.46h8.79v2.01h-8.16v6.51h8.16v2.22h-8.7v7.32h27.6V24.87ZM235.4,4.53h-7.77v1.2h-2.4v6.75h12.75V5.73H235.4Zm17.79,7.2h-2.76V4.56h-9.15v7.17H238.7v9.18h2.58V32.46h9.15V20.91h2.76Zm-15.42,1.44H225.41v4.35h12.36Zm-12.36,9.21h12.36V18.21H225.41Zm-.12,9.96h12.66V23.13H225.29Zm5.16-5.1h2.25v1.11h-2.25Zm36.3-16.26,1.17,1.53h6.18V11.25l-1.38-1.41h1.68V5.34h-5.04V4.59h-5.91l-2.37,3.57v4.35h4.71Zm14.22-.03,1.2,1.56h6.39V11.22l-1.35-1.38h1.65V5.34h-5.34V4.59h-6.15L275,8.16v4.35h4.95Zm8.07,14.28h-3.21v-.72h2.61V13.17H261.68V24.51h3.09v.72h-3.72v4.89h2.67l-.51,1.08v1.17h9.33l.66-2.25h3.6v2.22h9.03V30.12h3.21Zm-8.91-8.94v.63H269.99v-.63Zm0,2.97H269.99v-.69h10.14ZM269.99,21.6v-.63h10.14v.63Zm3.78,3.63v-.72h3.03v.72Zm49.98,2.76.99-1.29V23.76h-3.9l-.48.57-.78-1.23h5.16V17.64h-.69l-.15-.66h.63V13.62h-1.26v-.15l1.26-1.77V9.03h-1.26V8.88l1.26-1.77V4.95h-3.6l-1.8,2.55V4.47h-5.82V17.64H306.8v8.73l-1.02,2.37V32.4h4.71l.69-1.56.75,1.05h1.23V26.28l-.69-1.23V23.61h.81v1.14l1.8,2.79-1.35,1.86v2.97h4.2l.96-1.23.99,1.38h5.1V29.79Zm-17.7-2.22V16.89l-.96-1.32V14.46h1.05V6.99h-1.05V4.65h-6.15V6.99h-1.71v7.47h1.59l-1.8,3.51V29.49h1.23l.69-1.56v4.44h6.15v-6.6Zm6.66-12.15h-1.26v-.15l1.26-1.77V9.03h-1.26V8.88l1.26-1.77V4.95h-4.02l-1.92,2.79v3.84h1.08v.09l-1.08,1.53v3.78h5.94Zm7.32-2.04v.09l-.9,1.26V11.58Zm-.9,5.4h1.05v.66h-1.05Zm41.76,5.58h-6.96V20.97h6.15V14.46h-6.15V13.11h6.54V5.94H343.7V4.68h-7.02l-2.91,3.87v4.56h10.35v1.35H334.7v8.1h-1.59v7.11h11.01v2.79h9.81V29.67h6.96Zm-18.75,0V20.97h1.98v1.59ZM397.28,7.8l-8.46-3.54H377.21L368.78,7.8v6.87h.78v7.17h26.88V14.67h.84ZM383.93,9.45l1.65.63h-5.13l1.65-.63Zm-9.6,3.51,2.73-1.14v.51h11.85v-.54l2.79,1.17Zm1.89,3.09h4.29v2.7h-.6V16.53h-3.09v1.56l.6.66h-1.2Zm13.47,2.7h-1.2l.63-.66V16.53H386v2.22h-.57v-2.7h4.26ZM370.07,32.37h25.89V22.5H370.07Zm17.76-6.87v.66h-9.54V25.5Zm-9.54,3.75v-.63h9.54v.63Z" transform="translate(-153.05 -4.26)"/></svg>