<svg xmlns="http://www.w3.org/2000/svg" width="515.34" height="84.51" viewBox="0 0 515.34 84.51"><defs><style>.a{fill:#226bb4;}</style></defs><path class="a" d="M34.25,32.94l3.51,4.59H56.3V33.75l-4.14-4.23H57.2V16.02H42.08V13.77H24.35L17.24,24.48V37.53H31.37Zm42.66-.09,3.6,4.68H99.68V33.66l-4.05-4.14h4.95V16.02H84.56V13.77H66.11L59,24.48V37.53H73.85Zm24.21,42.84H91.49V73.53h7.83V39.51H19.04V73.53h9.27v2.16H17.15V90.36h8.01L23.63,93.6v3.51H51.62l1.98-6.75H64.4v6.66H91.49V90.36h9.63ZM74.39,48.87v1.89H43.97V48.87Zm0,8.91H43.97V55.71H74.39ZM43.97,64.8V62.91H74.39V64.8ZM55.31,75.69V73.53H64.4v2.16Zm72-12.24H142.7V58.5l2.61,2.7h4.32v2.25h17.01V16.47H154.31V13.41H134.24l-6.93,7.65v16.2h-2.16V53.55h2.16ZM187.16,32.4V28.62h1.98V32.4l2.52,3.33H208.4V20.97h-3.42v-7.2H171.23v6.57h-2.7V35.73h15.84Zm-37.53-4.23v3.6l-1.8-2.07H142.7V28.17Zm0,12.06H142.7V36.18l2.34,2.43h4.59Zm40.5,8.37-2.52,1.44-2.43-1.35H168.89v4.95l2.88,1.71-3.24,1.8v6.21h16.2l3.33-2.79,3.69,2.79h17.1V56.61l-4.23-2.43,3.06-2.07V37.26H168.44v9.99h21.69Zm-42.3,3.51H142.7V50.58h6.93v3.15ZM206.87,80.1V65.25H127.4V80.1h-2.34V97.29h84.06V80.1Zm-54.36-2.25v5.67h-3.06V77.85Zm16.02,5.67h-3.15V77.85h3.15Zm16.2,0h-3.15V77.85h3.15ZM261.5,13.59H241.25l-7.83,10.53V96.75h39.69V21.24H261.5Zm40.23,4.32V13.59H282.47l-6.57,9V42.03h16.92V76.14l-13.32,9V97.11h36.9V17.91ZM256.01,42.75v9.72h-4.77V42.75Zm34.11,33.12V45H276.26V69.75l4.68,6.12Zm-38.88,2.79V68.58h4.77V78.66Zm169.11-.9,3.51-3.96V56.61H388.85V54.72H424.4V28.26h-7.74L405.59,38.52h-2.88L421.07,21.6V15.39H403.34l-14.58,13.5h-2.88l10.98-10.17V14.4H376.43l-8.55,7.92v15.3h6.03l-6.03,5.49V54.72h4.23l-4.23,4.32V82.35h3.06l4.41-4.14,1.8,1.71-9.36,8.73V97.2H392l5.49-6.12,6.48,6.12h20.97V81.81ZM365.72,30.42V14.76H349.79l-9.36,7.38V48.15h3.69Zm-25.29,23.4V74.7h3.24V97.56h22.14V38.79h-7.02Zm53.19,16.47h9.09v.36l-4.23,4.23-4.86-4.32ZM505.85,16.74V13.05h-29.7v3.69H449.33V31.59h8.91l-8.19,4.5V51.84h11.79l5.85-5.31v5.31H498.2l3.96-2.97,3.69,2.97h25.74V43.65l-5.67-3.6,3.96-3.06V33.48H497.3l-4.32,3.42V31.59h39.51V16.74ZM449.96,97.11h23.13V69.3h5.76v1.98h-3.6v6.48h14.67V69.3h2.16v8.46h15.21V71.28h-3.6V69.3h5.76V84.6l-1.98,1.26V79.83H475.25V94.14h25.56v2.97h31.05V53.82h-81.9Zm44.73-8.91h-6.66V85.95h6.66Z" transform="translate(-17.15 -13.05)"/></svg>