<svg xmlns="http://www.w3.org/2000/svg" width="227.174" height="97.912" viewBox="0 0 227.174 97.912"><defs><style>.a{fill:#226bb4;}</style></defs><path class="a" d="M44.022,10.12h-12.7V6.946H14.49V10.12H2.024V43.056H14.49v6.716H31.326V43.056h12.7ZM13.57,21.252h2.76V32.43H13.57ZM32.246,32.43h-2.76V21.252h2.76Zm58.282-4.186H88.136V10.074H76.774V6.716H61.318v3.358H50v18.17H47.518V39.468H52.67l-3.772,5.2v4.968h14.95l4.14-9.062h2.576l4.186,9.062h14.9V44.666l-3.772-5.2h4.646ZM61.042,21.068h2.346v7.176H61.042ZM77,28.244H74.7V21.068H77Zm59.34-3.312h-1.472V18.124h1.242V7.544H110.86v10.58h1.656v6.808H110.86v10.9h1.656l-1.61,9.246v4.692h10.212l1.334-13.938h1.886V49.726h10.534V35.834h1.472ZM94.3,17.618h3.542v.23l-4.554,7.866V40.2H94.76v9.338H109.8V23.276h-3.174v-.184l3.174-5.474V8.05H94.3Zm28.152,7.314V18.124h1.886v6.808ZM102.81,41.492h-1.334V31.97h1.334Zm75.118-2.53V30.5h-15.18V28.842h-4.876l2.346-2.346V19.044h1.38V26.5l2.714,2.714h17.02v-6.3h-10.58V19.044h1.38v2.622h10.442V8.6H168.5V6.578h-15.41V8.6H139.656V21.666H149.73V19.044h1.38v3.864h-10.3v6.3h7.866V30.5H140.76V39.79h4.554l-5.382,6.44v3.542h15.64l5.152-9.982h3.91v9.982h18.078V38.962Zm26.358-11.638H226.6v-4.6h1.61V8.51h-7.59V6.578H209.438V8.51h-6.9V22.816h1.748Zm-18.216,22.4h11.27V45.08h4.094V28.75l-1.472-2.3,1.472-3.22V7.728H186.07Zm8.556-33.4v7.682h-1.288V16.33Zm24.518,1.242V19h-8.05V17.572ZM224.3,38.5l-.828,1.84h-1.012V37.26h5.75V28.612H202.584V37.26h2.208l-2.622,8.05v4.462h9.292l1.38-12.512H213.9V49.772h14.444V38.5Zm-29.67-.644h-1.288V30.636h1.288ZM1.17,104.31H9.3l5.19-9.57h1.02l5.34,9.57h8.04V98.13l-8.7-11.37V76.74H9.51V86.76L1.17,98.13ZM50.31,78.03V76.29H39.63v1.74H31.14v8.49H58.83V78.03Zm7.53,13.92V87.27H48.18l-3.15,3.6-3.18-3.6H32.19v4.68l3.36,3.18-4.26,3.39v5.88h9.03l4.71-4.59,4.68,4.59h9.03V98.52l-4.26-3.39Zm27.24,3.87V88.56h3.21V80.49H85.08V76.47h-9v4.02H72.96v8.07h3.12v7.26H72.42v8.34H88.89V95.82ZM70.11,76.62H63v1.53H61.29v6.72h3.24v.21l-3.48,3.3V99.12h1.32v5.34h8.1V99.12h1.14V89.76l-1.14-.96,1.59-1.47V78.15H70.11Zm49.17,3.18-8.46-3.54H99.21L90.78,79.8v6.87h.78v7.17h26.88V86.67h.84Zm-13.35,1.65,1.65.63h-5.13l1.65-.63Zm-9.6,3.51,2.73-1.14v.51h11.85v-.54l2.79,1.17Zm1.89,3.09h4.29v2.7h-.6V88.53H98.82v1.56l.6.66h-1.2Zm13.47,2.7h-1.2l.63-.66V88.53H108v2.22h-.57v-2.7h4.26ZM92.07,104.37h25.89V94.5H92.07Zm17.76-6.87v.66h-9.54V97.5Zm-9.54,3.75v-.63h9.54v.63Zm31.8-18.45,1.8-1.02V76.86H121.53v6.33h2.76v1.17h-3v6.63h2.67l-2.88,2.91v8.34h1.8l1.41-1.74v3.87h7.8v-4.05h1.77V94.44l-1.77-2.07V90.99h1.83V84.36h-1.83Zm17.01,9.72h-.81V76.86h-7.44V94.32l-.63.21V87.99l-5.01-2.04h-.6v8.43l3,1.11-3.06,1.11v6.93h1.83l3.06-1.02v1.98h8.85V99.57l.81-.27Zm-8.88-5.49V79.41l-4.65-1.98h-.96v7.53l4.98,2.07Zm24.81-6.18,1.26.72h2.19V79.59l-.87-.48.87-.45V76.71h-2.19l-1.26.69-1.26-.69h-2.19v1.95l.87.45-.87.48v1.98h2.19ZM177.24,93.9h1.83V87.63h-.66V76.86h-9.45V81.3h2.82v.6h-2.73v2.31h2.73v.57h-2.73v2.25h2.73v.6H158.31v-.6h2.76V84.78h-2.76v-.57h2.76V81.9h-2.76v-.6h.99l1.77-.48V76.86h-9.36V87.63h-.66v6.33h1.32v2.1H164.4v.15l-1.29.48H151.2v4.71h9.45v.12l-2.28,1.29v1.59h12.18v-3h8.31V96.69h-4.32l2.7-1.14Zm-12.21-7.5,1.26.72h2.19V85.14l-.9-.48.9-.51V82.08h-2.19l-1.26.69-1.26-.69h-2.19v2.07l.9.51-.9.48v1.98h2.19Zm-7.29,6.18v-.63h14.79v.63Zm50.43.99V86.61h.9V77.55h-4.44V76.29h-6.99v1.26h-4.41v7.62h-4.02V83.85l.93.72h2.46V78.96l-3.78-2.46h-4.14l-3.78,2.46v5.61h2.52l.96-.75v1.35h-3.09v19.29h6.12l1.11-1.44,1.23,1.41h3.54V97.71h-5.31v1.11h-.99V96.99h6.3V86.61h.75V104.4h14.43V94.41h-8.52v-.84ZM187.29,82.5l.96.66h-3.03l.9-.66Zm15.69,1.05v.84h-4.02v-.84Zm-.69,6.18h-2.34V88.71h2.34Zm-16.05-.81h2.52v.78h-2.52Zm0,4.02V92.1h2.52v.84Zm16.35,5.34v1.08h-2.64V98.28Z" transform="translate(-1.17 -6.578)"/></svg>