<svg xmlns="http://www.w3.org/2000/svg" width="601.693" height="646.665" viewBox="0 0 601.693 646.665"><defs><style>.a{fill:#226bb4;}</style></defs><path class="a" d="M33.76,37.2a8.888,8.888,0,0,0-4.12-2.84,14.766,14.766,0,0,0-4.92-.92,12.891,12.891,0,0,0-2.8.32,10.731,10.731,0,0,0-2.72,1,5.929,5.929,0,0,0-2.08,1.8,4.557,4.557,0,0,0-.8,2.72,4.509,4.509,0,0,0,1.92,3.92,18.181,18.181,0,0,0,4.84,2.32q2.92.96,6.28,1.92a25.876,25.876,0,0,1,6.28,2.72,14.868,14.868,0,0,1,4.84,4.72A14.386,14.386,0,0,1,42.4,62.8a18.209,18.209,0,0,1-1.76,8.24,16.721,16.721,0,0,1-4.76,5.84,20.255,20.255,0,0,1-6.96,3.44,30.58,30.58,0,0,1-8.36,1.12,30.328,30.328,0,0,1-10.24-1.68,25.66,25.66,0,0,1-8.8-5.44l8.88-9.76a12.963,12.963,0,0,0,4.84,3.96,13.816,13.816,0,0,0,6.04,1.4,13.665,13.665,0,0,0,3.08-.36,10.032,10.032,0,0,0,2.8-1.08,6.038,6.038,0,0,0,2-1.84A4.588,4.588,0,0,0,29.92,64a4.79,4.79,0,0,0-1.96-4.04,18.064,18.064,0,0,0-4.92-2.52q-2.96-1.04-6.4-2.08a28.741,28.741,0,0,1-6.4-2.8,15.424,15.424,0,0,1-4.92-4.64,13.276,13.276,0,0,1-1.96-7.6,17.014,17.014,0,0,1,1.8-8,17.356,17.356,0,0,1,4.8-5.76,20.867,20.867,0,0,1,6.92-3.48,28.326,28.326,0,0,1,8.08-1.16,31.77,31.77,0,0,1,9.28,1.36,21.4,21.4,0,0,1,8.08,4.56ZM80.64,50.72H70.08V63.68a24.393,24.393,0,0,0,.16,2.92,5.884,5.884,0,0,0,.72,2.28,3.637,3.637,0,0,0,1.72,1.48,7.627,7.627,0,0,0,3.08.52,20.741,20.741,0,0,0,2.52-.2,4.271,4.271,0,0,0,2.36-.92v10a18.156,18.156,0,0,1-4.16.96,38.383,38.383,0,0,1-4.24.24,23.066,23.066,0,0,1-5.6-.64,12.772,12.772,0,0,1-4.48-2.04,9.555,9.555,0,0,1-3-3.64,12.444,12.444,0,0,1-1.08-5.44V50.72H50.4v-9.6h7.68V29.6h12V41.12H80.64ZM128.16,80H116.64V74.72h-.16a13.284,13.284,0,0,1-1.64,2.24,10.762,10.762,0,0,1-2.44,2,14.18,14.18,0,0,1-3.28,1.44,13.681,13.681,0,0,1-4,.56,16.793,16.793,0,0,1-7.4-1.4,10.59,10.59,0,0,1-4.4-3.88,15.209,15.209,0,0,1-2.08-5.84,47.691,47.691,0,0,1-.52-7.28V41.12h12V60.16q0,1.68.12,3.48a10.979,10.979,0,0,0,.72,3.32,5.161,5.161,0,0,0,5.4,3.44,7.408,7.408,0,0,0,3.76-.84,5.725,5.725,0,0,0,2.2-2.24,9.157,9.157,0,0,0,1-3.16,27.232,27.232,0,0,0,.24-3.68V41.12h12Zm53.28,0H170.4V74.88h-.16A13.259,13.259,0,0,1,168.36,77a14.224,14.224,0,0,1-2.72,1.96,16.65,16.65,0,0,1-3.44,1.44,13.519,13.519,0,0,1-3.88.56,20.039,20.039,0,0,1-7.84-1.48,17.482,17.482,0,0,1-6.04-4.16,18.55,18.55,0,0,1-3.88-6.36,23.145,23.145,0,0,1-1.36-8.08,24.5,24.5,0,0,1,1.24-7.8,21.466,21.466,0,0,1,3.52-6.6,17.2,17.2,0,0,1,5.56-4.6,15.778,15.778,0,0,1,7.44-1.72,20.619,20.619,0,0,1,7,1.16,11.2,11.2,0,0,1,5.32,3.96h.16V19.52h12ZM170.4,60.56a10.06,10.06,0,0,0-2.52-7.12,10.574,10.574,0,0,0-14.16,0,10.059,10.059,0,0,0-2.52,7.12,10.059,10.059,0,0,0,2.52,7.12,10.574,10.574,0,0,0,14.16,0A10.06,10.06,0,0,0,170.4,60.56Zm61.44,12.72a19.148,19.148,0,0,1-7.28,5.68,21.807,21.807,0,0,1-9.12,2A24.506,24.506,0,0,1,207,79.52a20.315,20.315,0,0,1-6.88-4.12,19.336,19.336,0,0,1-4.6-6.44,21.84,21.84,0,0,1,0-16.8,19.336,19.336,0,0,1,4.6-6.44A20.315,20.315,0,0,1,207,41.6a24.506,24.506,0,0,1,8.44-1.44A19.2,19.2,0,0,1,223,41.6a15.741,15.741,0,0,1,5.76,4.12,18.763,18.763,0,0,1,3.64,6.44,25.957,25.957,0,0,1,1.28,8.4v3.76H205.84a9.5,9.5,0,0,0,3.12,5.48,8.826,8.826,0,0,0,5.92,2.04,9.013,9.013,0,0,0,5-1.32,13.444,13.444,0,0,0,3.56-3.4ZM221.68,56.16a6.947,6.947,0,0,0-2-5.2,7.112,7.112,0,0,0-5.36-2.16,9.012,9.012,0,0,0-3.52.64,8.822,8.822,0,0,0-2.6,1.64,7.189,7.189,0,0,0-1.68,2.32,7.638,7.638,0,0,0-.68,2.76Zm23.28-15.04h11.52V46.4h.16a9.724,9.724,0,0,1,1.6-2.24,11.637,11.637,0,0,1,2.48-2A14.179,14.179,0,0,1,264,40.72a13.681,13.681,0,0,1,4-.56,16.527,16.527,0,0,1,7.36,1.4,10.643,10.643,0,0,1,4.36,3.88,15.693,15.693,0,0,1,2.12,5.84,44.352,44.352,0,0,1,.56,7.28V80h-12V60.96q0-1.68-.12-3.48a10.98,10.98,0,0,0-.72-3.32,5.161,5.161,0,0,0-5.4-3.44,7.408,7.408,0,0,0-3.76.84,5.726,5.726,0,0,0-2.2,2.24,9.156,9.156,0,0,0-1,3.16,27.231,27.231,0,0,0-.24,3.68V80h-12Zm76.4,9.6H310.8V63.68a24.394,24.394,0,0,0,.16,2.92,5.884,5.884,0,0,0,.72,2.28,3.637,3.637,0,0,0,1.72,1.48,7.627,7.627,0,0,0,3.08.52,20.742,20.742,0,0,0,2.52-.2,4.271,4.271,0,0,0,2.36-.92v10a18.156,18.156,0,0,1-4.16.96,38.383,38.383,0,0,1-4.24.24,23.066,23.066,0,0,1-5.6-.64,12.772,12.772,0,0,1-4.48-2.04,9.555,9.555,0,0,1-3-3.64,12.444,12.444,0,0,1-1.08-5.44V50.72h-7.68v-9.6h7.68V29.6h12V41.12h10.56Zm32.08,1.84a8.5,8.5,0,0,0-6.96-3.28,6.546,6.546,0,0,0-2.96.72,2.546,2.546,0,0,0-1.44,2.48,2.23,2.23,0,0,0,1.48,2.12,19.575,19.575,0,0,0,3.76,1.2q2.28.52,4.88,1.12a18.336,18.336,0,0,1,4.88,1.88,10.922,10.922,0,0,1,3.76,3.48,10.38,10.38,0,0,1,1.48,5.88,10.889,10.889,0,0,1-1.64,6.2,12.579,12.579,0,0,1-4.2,3.92,18.063,18.063,0,0,1-5.76,2.08,34.238,34.238,0,0,1-6.32.6,30.572,30.572,0,0,1-8.24-1.16,15.394,15.394,0,0,1-7.04-4.12l7.28-8.08a12.076,12.076,0,0,0,3.72,3.16,10.029,10.029,0,0,0,4.76,1.08,11.123,11.123,0,0,0,3.76-.6,2.213,2.213,0,0,0,1.68-2.2,2.437,2.437,0,0,0-1.48-2.28,16.207,16.207,0,0,0-3.76-1.28q-2.28-.52-4.88-1.12a20.162,20.162,0,0,1-4.88-1.8,10.211,10.211,0,0,1-3.76-3.4,10.38,10.38,0,0,1-1.48-5.88,11.856,11.856,0,0,1,1.4-5.92,12.3,12.3,0,0,1,3.68-4.08,15.922,15.922,0,0,1,5.24-2.36,24.033,24.033,0,0,1,6-.76,28.147,28.147,0,0,1,7.76,1.12,14.392,14.392,0,0,1,6.64,4Zm28.16-6.64H371.36l5.92-22.56H388.8ZM5.6,143.36H18.08V200H5.6Zm26.32,17.76H43.44v5.28h.16a9.724,9.724,0,0,1,1.6-2.24,11.637,11.637,0,0,1,2.48-2,14.18,14.18,0,0,1,3.28-1.44,13.681,13.681,0,0,1,4-.56,16.527,16.527,0,0,1,7.36,1.4,10.643,10.643,0,0,1,4.36,3.88,15.693,15.693,0,0,1,2.12,5.84,44.351,44.351,0,0,1,.56,7.28V200h-12V180.96q0-1.68-.12-3.48a10.979,10.979,0,0,0-.72-3.32,5.161,5.161,0,0,0-5.4-3.44,7.408,7.408,0,0,0-3.76.84,5.725,5.725,0,0,0-2.2,2.24,9.157,9.157,0,0,0-1,3.16,27.23,27.23,0,0,0-.24,3.68V200h-12ZM86,170.72H78.08v-9.6H86v-6.88a31.192,31.192,0,0,1,.56-6.04,12.263,12.263,0,0,1,2.16-5,10.578,10.578,0,0,1,4.6-3.4,20.936,20.936,0,0,1,7.88-1.24q1.84,0,3.6.16a24.352,24.352,0,0,1,3.44.56l-.56,10.16a14.113,14.113,0,0,0-1.92-.6,9.064,9.064,0,0,0-2-.2,6.474,6.474,0,0,0-4.32,1.24Q98,151.12,98,154.96v6.16h8.88v9.6H98V200H86Zm28,9.84a20.369,20.369,0,0,1,1.68-8.4,19.336,19.336,0,0,1,4.6-6.44,20.315,20.315,0,0,1,6.88-4.12,25.454,25.454,0,0,1,16.88,0,20.315,20.315,0,0,1,6.88,4.12,19.336,19.336,0,0,1,4.6,6.44,21.84,21.84,0,0,1,0,16.8,19.336,19.336,0,0,1-4.6,6.44,20.315,20.315,0,0,1-6.88,4.12,25.454,25.454,0,0,1-16.88,0,20.315,20.315,0,0,1-6.88-4.12,19.336,19.336,0,0,1-4.6-6.44A20.369,20.369,0,0,1,114,180.56Zm12,0a10.059,10.059,0,0,0,2.52,7.12,10.574,10.574,0,0,0,14.16,0,11.318,11.318,0,0,0,0-14.24,10.574,10.574,0,0,0-14.16,0A10.06,10.06,0,0,0,126,180.56Zm42.24-19.44h12v6.24h.16a14.75,14.75,0,0,1,4.56-5.4,11.527,11.527,0,0,1,6.64-1.8q1.04,0,2.08.08a10.3,10.3,0,0,1,1.92.32v10.96a18.124,18.124,0,0,0-2.52-.6,16.318,16.318,0,0,0-2.6-.2,12.751,12.751,0,0,0-5.44.96,7.223,7.223,0,0,0-3.08,2.68,10.186,10.186,0,0,0-1.4,4.12,40.118,40.118,0,0,0-.32,5.28V200h-12Zm38,0h11.52v5.28h.16a9.724,9.724,0,0,1,1.6-2.24,11.637,11.637,0,0,1,2.48-2,14.18,14.18,0,0,1,3.28-1.44,13.681,13.681,0,0,1,4-.56,15.188,15.188,0,0,1,7.24,1.68,10.636,10.636,0,0,1,4.76,5.28,12.974,12.974,0,0,1,5.04-5.36,15.147,15.147,0,0,1,7.28-1.6,14.852,14.852,0,0,1,6.6,1.32,10.8,10.8,0,0,1,4.24,3.6,15.183,15.183,0,0,1,2.24,5.36,30.573,30.573,0,0,1,.68,6.6V200h-12V177.36a9.026,9.026,0,0,0-1.16-4.68q-1.16-1.96-4.12-1.96a7.936,7.936,0,0,0-3.48.68,5.732,5.732,0,0,0-2.24,1.88,7.818,7.818,0,0,0-1.2,2.8,15.267,15.267,0,0,0-.36,3.36V200h-12V179.44q0-1.04-.08-2.56a10.222,10.222,0,0,0-.56-2.88,5.51,5.51,0,0,0-1.56-2.32,4.617,4.617,0,0,0-3.16-.96,7.408,7.408,0,0,0-3.76.84,5.725,5.725,0,0,0-2.2,2.24,9.157,9.157,0,0,0-1,3.16,27.229,27.229,0,0,0-.24,3.68V200h-12Zm98,34h-.16a11.285,11.285,0,0,1-5.32,4.48,18.288,18.288,0,0,1-7,1.36,18.048,18.048,0,0,1-5.24-.76,13.223,13.223,0,0,1-4.44-2.28,11.01,11.01,0,0,1-3.04-3.76,11.484,11.484,0,0,1-1.12-5.2,11.923,11.923,0,0,1,1.24-5.68,11.1,11.1,0,0,1,3.36-3.84,16.685,16.685,0,0,1,4.84-2.36,35.332,35.332,0,0,1,5.64-1.24,53.871,53.871,0,0,1,5.84-.48q2.92-.08,5.4-.08a6.24,6.24,0,0,0-2.28-5.08,8.223,8.223,0,0,0-5.4-1.88,11.745,11.745,0,0,0-5.4,1.24,14.751,14.751,0,0,0-4.36,3.4l-6.4-6.56a22.021,22.021,0,0,1,7.84-4.68,28.02,28.02,0,0,1,9.28-1.56,24.262,24.262,0,0,1,8.68,1.32,12.622,12.622,0,0,1,5.44,3.88,14.952,14.952,0,0,1,2.84,6.28,41.214,41.214,0,0,1,.8,8.6V200H304.24Zm-2.96-12.16q-1.36,0-3.4.12a17.228,17.228,0,0,0-3.92.68,8.724,8.724,0,0,0-3.2,1.68,3.87,3.87,0,0,0-1.32,3.12,3.433,3.433,0,0,0,1.84,3.2,7.7,7.7,0,0,0,3.84,1.04,12.042,12.042,0,0,0,3.4-.48,10.14,10.14,0,0,0,2.92-1.36,6.574,6.574,0,0,0,2.04-2.24,6.455,6.455,0,0,0,.76-3.2v-2.56Zm52-12.24H342.72v12.96a24.4,24.4,0,0,0,.16,2.92,5.884,5.884,0,0,0,.72,2.28,3.637,3.637,0,0,0,1.72,1.48,7.627,7.627,0,0,0,3.08.52,20.742,20.742,0,0,0,2.52-.2,4.271,4.271,0,0,0,2.36-.92v10a18.157,18.157,0,0,1-4.16.96,38.381,38.381,0,0,1-4.24.24,23.066,23.066,0,0,1-5.6-.64,12.773,12.773,0,0,1-4.48-2.04,9.555,9.555,0,0,1-3-3.64,12.444,12.444,0,0,1-1.08-5.44V170.72h-7.68v-9.6h7.68V149.6h12v11.52h10.56Zm10.24-9.6h12V200h-12Zm-.96-12.24a6.965,6.965,0,1,1,2.04,4.92A6.705,6.705,0,0,1,362.56,148.88Zm24.16,31.68a20.368,20.368,0,0,1,1.68-8.4,19.336,19.336,0,0,1,4.6-6.44,20.315,20.315,0,0,1,6.88-4.12,25.454,25.454,0,0,1,16.88,0,20.315,20.315,0,0,1,6.88,4.12,19.336,19.336,0,0,1,4.6,6.44,21.84,21.84,0,0,1,0,16.8,19.336,19.336,0,0,1-4.6,6.44,20.315,20.315,0,0,1-6.88,4.12,25.454,25.454,0,0,1-16.88,0A20.315,20.315,0,0,1,393,195.4a19.336,19.336,0,0,1-4.6-6.44A20.368,20.368,0,0,1,386.72,180.56Zm12,0a10.059,10.059,0,0,0,2.52,7.12,10.574,10.574,0,0,0,14.16,0,11.318,11.318,0,0,0,0-14.24,10.574,10.574,0,0,0-14.16,0A10.059,10.059,0,0,0,398.72,180.56Zm42.24-19.44h11.52v5.28h.16a9.724,9.724,0,0,1,1.6-2.24,11.637,11.637,0,0,1,2.48-2,14.18,14.18,0,0,1,3.28-1.44,13.681,13.681,0,0,1,4-.56,16.527,16.527,0,0,1,7.36,1.4,10.643,10.643,0,0,1,4.36,3.88,15.693,15.693,0,0,1,2.12,5.84,44.352,44.352,0,0,1,.56,7.28V200h-12V180.96q0-1.68-.12-3.48a10.979,10.979,0,0,0-.72-3.32,5.161,5.161,0,0,0-5.4-3.44,7.408,7.408,0,0,0-3.76.84,5.725,5.725,0,0,0-2.2,2.24,9.156,9.156,0,0,0-1,3.16,27.231,27.231,0,0,0-.24,3.68V200h-12ZM16.72,274.4H.56V263.36h44.8V274.4H29.2V320H16.72Zm65.36,38.88a19.148,19.148,0,0,1-7.28,5.68,21.807,21.807,0,0,1-9.12,2,24.506,24.506,0,0,1-8.44-1.44,20.315,20.315,0,0,1-6.88-4.12,19.336,19.336,0,0,1-4.6-6.44,21.84,21.84,0,0,1,0-16.8,19.336,19.336,0,0,1,4.6-6.44,20.315,20.315,0,0,1,6.88-4.12,24.506,24.506,0,0,1,8.44-1.44,19.2,19.2,0,0,1,7.56,1.44A15.741,15.741,0,0,1,79,285.72a18.762,18.762,0,0,1,3.64,6.44,25.957,25.957,0,0,1,1.28,8.4v3.76H56.08a9.5,9.5,0,0,0,3.12,5.48,8.826,8.826,0,0,0,5.92,2.04,9.013,9.013,0,0,0,5-1.32,13.443,13.443,0,0,0,3.56-3.4ZM71.92,296.16a6.947,6.947,0,0,0-2-5.2,7.112,7.112,0,0,0-5.36-2.16,9.012,9.012,0,0,0-3.52.64,8.822,8.822,0,0,0-2.6,1.64,7.189,7.189,0,0,0-1.68,2.32,7.638,7.638,0,0,0-.68,2.76Zm49.6-2.48a6.724,6.724,0,0,0-2.48-2.12,7.291,7.291,0,0,0-3.44-.84,9.173,9.173,0,0,0-7.08,2.72,11.318,11.318,0,0,0,0,14.24,9.173,9.173,0,0,0,7.08,2.72,6.47,6.47,0,0,0,3.44-.88,10.49,10.49,0,0,0,2.48-2.08l7.92,8.32a15.3,15.3,0,0,1-6.6,4.04,24.8,24.8,0,0,1-7.24,1.16,24.506,24.506,0,0,1-8.44-1.44,20.315,20.315,0,0,1-6.88-4.12,19.336,19.336,0,0,1-4.6-6.44,21.84,21.84,0,0,1,0-16.8,19.336,19.336,0,0,1,4.6-6.44,20.315,20.315,0,0,1,6.88-4.12,24.506,24.506,0,0,1,8.44-1.44,24.8,24.8,0,0,1,7.24,1.16,15.3,15.3,0,0,1,6.6,4.04Zm28.24-34.16V286.4h.16a7.211,7.211,0,0,1,1.36-2.24,10.64,10.64,0,0,1,2.32-2,12.633,12.633,0,0,1,3.2-1.44,13.682,13.682,0,0,1,4-.56,16.527,16.527,0,0,1,7.36,1.4,10.642,10.642,0,0,1,4.36,3.88,15.693,15.693,0,0,1,2.12,5.84,44.351,44.351,0,0,1,.56,7.28V320h-12V300.96q0-1.68-.12-3.48a10.979,10.979,0,0,0-.72-3.32,5.161,5.161,0,0,0-5.4-3.44,7.408,7.408,0,0,0-3.76.84,5.725,5.725,0,0,0-2.2,2.24,9.157,9.157,0,0,0-1,3.16,27.229,27.229,0,0,0-.24,3.68V320h-12V259.52Zm37.92,21.6H199.2v5.28h.16a9.724,9.724,0,0,1,1.6-2.24,11.636,11.636,0,0,1,2.48-2,14.179,14.179,0,0,1,3.28-1.44,13.682,13.682,0,0,1,4-.56,16.527,16.527,0,0,1,7.36,1.4,10.642,10.642,0,0,1,4.36,3.88,15.693,15.693,0,0,1,2.12,5.84,44.351,44.351,0,0,1,.56,7.28V320h-12V300.96q0-1.68-.12-3.48a10.979,10.979,0,0,0-.72-3.32,5.161,5.161,0,0,0-5.4-3.44,7.408,7.408,0,0,0-3.76.84,5.726,5.726,0,0,0-2.2,2.24,9.157,9.157,0,0,0-1,3.16,27.234,27.234,0,0,0-.24,3.68V320h-12Zm48.48,19.44a20.369,20.369,0,0,1,1.68-8.4,19.336,19.336,0,0,1,4.6-6.44,20.315,20.315,0,0,1,6.88-4.12,25.454,25.454,0,0,1,16.88,0,20.315,20.315,0,0,1,6.88,4.12,19.335,19.335,0,0,1,4.6,6.44,21.84,21.84,0,0,1,0,16.8,19.335,19.335,0,0,1-4.6,6.44,20.315,20.315,0,0,1-6.88,4.12,25.454,25.454,0,0,1-16.88,0,20.315,20.315,0,0,1-6.88-4.12,19.336,19.336,0,0,1-4.6-6.44A20.369,20.369,0,0,1,236.16,300.56Zm12,0a10.059,10.059,0,0,0,2.52,7.12,10.574,10.574,0,0,0,14.16,0,11.318,11.318,0,0,0,0-14.24,10.574,10.574,0,0,0-14.16,0A10.059,10.059,0,0,0,248.16,300.56Zm42.4-41.04h12V320h-12Zm23.2,41.04a20.368,20.368,0,0,1,1.68-8.4,19.336,19.336,0,0,1,4.6-6.44,20.315,20.315,0,0,1,6.88-4.12,25.454,25.454,0,0,1,16.88,0,20.315,20.315,0,0,1,6.88,4.12,19.335,19.335,0,0,1,4.6,6.44,21.84,21.84,0,0,1,0,16.8,19.335,19.335,0,0,1-4.6,6.44,20.315,20.315,0,0,1-6.88,4.12,25.454,25.454,0,0,1-16.88,0,20.315,20.315,0,0,1-6.88-4.12,19.336,19.336,0,0,1-4.6-6.44A20.368,20.368,0,0,1,313.76,300.56Zm12,0a10.059,10.059,0,0,0,2.52,7.12,10.574,10.574,0,0,0,14.16,0,11.318,11.318,0,0,0,0-14.24,10.574,10.574,0,0,0-14.16,0A10.059,10.059,0,0,0,325.76,300.56Zm83.04,16.16q0,11.04-5.56,16.76t-16.92,5.72a45.507,45.507,0,0,1-10.24-1.16,23.17,23.17,0,0,1-9.28-4.52l6.64-9.92a25.111,25.111,0,0,0,5.88,3.68,16.55,16.55,0,0,0,6.76,1.36q5.52,0,8.12-2.68a9.418,9.418,0,0,0,2.6-6.84v-3.76h-.16a11.313,11.313,0,0,1-5.16,3.96,16.491,16.491,0,0,1-5.8,1.16,20.039,20.039,0,0,1-7.84-1.48,17.482,17.482,0,0,1-6.04-4.16,18.549,18.549,0,0,1-3.88-6.36,23.144,23.144,0,0,1-1.36-8.08,23.4,23.4,0,0,1,1.24-7.52,20.544,20.544,0,0,1,3.52-6.48,17.661,17.661,0,0,1,5.56-4.52,15.778,15.778,0,0,1,7.44-1.72,18.1,18.1,0,0,1,8.48,2,13.969,13.969,0,0,1,2.88,1.96,12.431,12.431,0,0,1,1.92,2.12h.16v-5.12H408.8Zm-30.24-16.4a9.374,9.374,0,0,0,2.76,6.68,10.562,10.562,0,0,0,3.04,2.12,9.33,9.33,0,0,0,7.56,0A10.4,10.4,0,0,0,395,307a9.439,9.439,0,0,0,0-13.36,10.4,10.4,0,0,0-3.08-2.12,9.33,9.33,0,0,0-7.56,0,10.562,10.562,0,0,0-3.04,2.12,9.374,9.374,0,0,0-2.76,6.68Zm66.24,26q-1.2,3.12-2.32,5.52a13.247,13.247,0,0,1-2.84,4.04,11.063,11.063,0,0,1-4.36,2.48,23.572,23.572,0,0,1-6.96.84,28.147,28.147,0,0,1-8.96-1.44l1.6-9.84a13.739,13.739,0,0,0,5.6,1.2,10.263,10.263,0,0,0,3.28-.44,5.446,5.446,0,0,0,2.12-1.28,7.091,7.091,0,0,0,1.4-2.04q.56-1.2,1.2-2.8l.88-2.24-17.04-39.2h12.96l10,25.68h.16l8.56-25.68H462.4Zm-402,71.76a12.239,12.239,0,0,0-4.52-3.44,15.04,15.04,0,0,0-6.2-1.2,15.514,15.514,0,0,0-11.72,5.16,17.711,17.711,0,0,0-3.44,5.8,22.108,22.108,0,0,0,0,14.6,18.192,18.192,0,0,0,3.4,5.76,15.409,15.409,0,0,0,5.08,3.8,14.69,14.69,0,0,0,6.28,1.36,14.075,14.075,0,0,0,6.8-1.6,13.534,13.534,0,0,0,4.88-4.48l10.4,7.76a21.657,21.657,0,0,1-9.12,7.44,28.219,28.219,0,0,1-11.36,2.4,34.894,34.894,0,0,1-12.24-2.08,28.019,28.019,0,0,1-9.68-5.96A27.021,27.021,0,0,1,5,424a34.426,34.426,0,0,1,0-24.64,27.021,27.021,0,0,1,6.36-9.4A28.019,28.019,0,0,1,21.04,384a34.9,34.9,0,0,1,12.24-2.08,29.979,29.979,0,0,1,5,.44,27.015,27.015,0,0,1,5.12,1.4,22.816,22.816,0,0,1,4.84,2.56,19.25,19.25,0,0,1,4.16,3.92Zm18.8,22.48a20.369,20.369,0,0,1,1.68-8.4,19.336,19.336,0,0,1,4.6-6.44,20.315,20.315,0,0,1,6.88-4.12,25.454,25.454,0,0,1,16.88,0,20.315,20.315,0,0,1,6.88,4.12,19.336,19.336,0,0,1,4.6,6.44,21.84,21.84,0,0,1,0,16.8,19.336,19.336,0,0,1-4.6,6.44,20.315,20.315,0,0,1-6.88,4.12,25.454,25.454,0,0,1-16.88,0,20.315,20.315,0,0,1-6.88-4.12,19.336,19.336,0,0,1-4.6-6.44A20.369,20.369,0,0,1,61.6,420.56Zm12,0a10.06,10.06,0,0,0,2.52,7.12,9.173,9.173,0,0,0,7.08,2.72,9.173,9.173,0,0,0,7.08-2.72,11.318,11.318,0,0,0,0-14.24,9.173,9.173,0,0,0-7.08-2.72,9.173,9.173,0,0,0-7.08,2.72A10.06,10.06,0,0,0,73.6,420.56Zm42.24-19.44h11.52v5.28h.16a9.724,9.724,0,0,1,1.6-2.24,11.637,11.637,0,0,1,2.48-2,14.179,14.179,0,0,1,3.28-1.44,13.682,13.682,0,0,1,4-.56,16.527,16.527,0,0,1,7.36,1.4,10.642,10.642,0,0,1,4.36,3.88,15.693,15.693,0,0,1,2.12,5.84,44.351,44.351,0,0,1,.56,7.28V440h-12V420.96q0-1.68-.12-3.48a10.979,10.979,0,0,0-.72-3.32,5.161,5.161,0,0,0-5.4-3.44,7.408,7.408,0,0,0-3.76.84,5.725,5.725,0,0,0-2.2,2.24,9.157,9.157,0,0,0-1,3.16,27.231,27.231,0,0,0-.24,3.68V440h-12Zm54.08,9.6H162v-9.6h7.92v-6.88a31.191,31.191,0,0,1,.56-6.04,12.263,12.263,0,0,1,2.16-5,10.578,10.578,0,0,1,4.6-3.4,20.936,20.936,0,0,1,7.88-1.24q1.84,0,3.6.16a24.35,24.35,0,0,1,3.44.56l-.56,10.16a14.111,14.111,0,0,0-1.92-.6,9.064,9.064,0,0,0-2-.2,6.474,6.474,0,0,0-4.32,1.24q-1.44,1.24-1.44,5.08v6.16h8.88v9.6h-8.88V440h-12Zm66.24,22.56a19.148,19.148,0,0,1-7.28,5.68,21.807,21.807,0,0,1-9.12,2,24.506,24.506,0,0,1-8.44-1.44,20.315,20.315,0,0,1-6.88-4.12,19.336,19.336,0,0,1-4.6-6.44,21.84,21.84,0,0,1,0-16.8,19.336,19.336,0,0,1,4.6-6.44,20.315,20.315,0,0,1,6.88-4.12,24.506,24.506,0,0,1,8.44-1.44,19.2,19.2,0,0,1,7.56,1.44,15.741,15.741,0,0,1,5.76,4.12,18.762,18.762,0,0,1,3.64,6.44,25.957,25.957,0,0,1,1.28,8.4v3.76H210.16a9.5,9.5,0,0,0,3.12,5.48,8.826,8.826,0,0,0,5.92,2.04,9.013,9.013,0,0,0,5-1.32,13.443,13.443,0,0,0,3.56-3.4ZM226,416.16a6.947,6.947,0,0,0-2-5.2,7.112,7.112,0,0,0-5.36-2.16,9.012,9.012,0,0,0-3.52.64,8.822,8.822,0,0,0-2.6,1.64,7.189,7.189,0,0,0-1.68,2.32,7.638,7.638,0,0,0-.68,2.76Zm23.28-15.04h12v6.24h.16a14.749,14.749,0,0,1,4.56-5.4,11.527,11.527,0,0,1,6.64-1.8q1.04,0,2.08.08a10.3,10.3,0,0,1,1.92.32v10.96a18.126,18.126,0,0,0-2.52-.6,16.318,16.318,0,0,0-2.6-.2,12.751,12.751,0,0,0-5.44.96,7.223,7.223,0,0,0-3.08,2.68,10.185,10.185,0,0,0-1.4,4.12,40.115,40.115,0,0,0-.32,5.28V440h-12Zm71.92,32.16a19.148,19.148,0,0,1-7.28,5.68,21.807,21.807,0,0,1-9.12,2,24.506,24.506,0,0,1-8.44-1.44,20.314,20.314,0,0,1-6.88-4.12,19.335,19.335,0,0,1-4.6-6.44,21.84,21.84,0,0,1,0-16.8,19.335,19.335,0,0,1,4.6-6.44,20.314,20.314,0,0,1,6.88-4.12,24.506,24.506,0,0,1,8.44-1.44,19.2,19.2,0,0,1,7.56,1.44,15.741,15.741,0,0,1,5.76,4.12,18.762,18.762,0,0,1,3.64,6.44,25.957,25.957,0,0,1,1.28,8.4v3.76H295.2a9.5,9.5,0,0,0,3.12,5.48,8.826,8.826,0,0,0,5.92,2.04,9.013,9.013,0,0,0,5-1.32,13.443,13.443,0,0,0,3.56-3.4Zm-10.16-17.12a6.947,6.947,0,0,0-2-5.2,7.112,7.112,0,0,0-5.36-2.16,9.012,9.012,0,0,0-3.52.64,8.822,8.822,0,0,0-2.6,1.64,7.189,7.189,0,0,0-1.68,2.32,7.638,7.638,0,0,0-.68,2.76Zm23.28-15.04h11.52v5.28H346a9.724,9.724,0,0,1,1.6-2.24,11.637,11.637,0,0,1,2.48-2,14.179,14.179,0,0,1,3.28-1.44,13.682,13.682,0,0,1,4-.56,16.527,16.527,0,0,1,7.36,1.4,10.642,10.642,0,0,1,4.36,3.88,15.693,15.693,0,0,1,2.12,5.84,44.352,44.352,0,0,1,.56,7.28V440h-12V420.96q0-1.68-.12-3.48a10.979,10.979,0,0,0-.72-3.32,5.161,5.161,0,0,0-5.4-3.44,7.408,7.408,0,0,0-3.76.84,5.725,5.725,0,0,0-2.2,2.24,9.157,9.157,0,0,0-1,3.16,27.231,27.231,0,0,0-.24,3.68V440h-12Zm76.24,12.56a6.724,6.724,0,0,0-2.48-2.12,7.291,7.291,0,0,0-3.44-.84,9.173,9.173,0,0,0-7.08,2.72,11.318,11.318,0,0,0,0,14.24,9.173,9.173,0,0,0,7.08,2.72,6.47,6.47,0,0,0,3.44-.88,10.489,10.489,0,0,0,2.48-2.08l7.92,8.32a15.3,15.3,0,0,1-6.6,4.04,24.8,24.8,0,0,1-7.24,1.16,24.506,24.506,0,0,1-8.44-1.44,20.314,20.314,0,0,1-6.88-4.12,19.335,19.335,0,0,1-4.6-6.44,21.84,21.84,0,0,1,0-16.8,19.335,19.335,0,0,1,4.6-6.44,20.314,20.314,0,0,1,6.88-4.12,24.506,24.506,0,0,1,8.44-1.44,24.8,24.8,0,0,1,7.24,1.16,15.3,15.3,0,0,1,6.6,4.04Zm53.04,19.6a19.148,19.148,0,0,1-7.28,5.68,21.807,21.807,0,0,1-9.12,2,24.506,24.506,0,0,1-8.44-1.44,20.314,20.314,0,0,1-6.88-4.12,19.335,19.335,0,0,1-4.6-6.44,21.84,21.84,0,0,1,0-16.8,19.335,19.335,0,0,1,4.6-6.44,20.314,20.314,0,0,1,6.88-4.12,24.506,24.506,0,0,1,8.44-1.44,19.2,19.2,0,0,1,7.56,1.44,15.741,15.741,0,0,1,5.76,4.12,18.762,18.762,0,0,1,3.64,6.44,25.957,25.957,0,0,1,1.28,8.4v3.76H437.6a9.5,9.5,0,0,0,3.12,5.48,8.826,8.826,0,0,0,5.92,2.04,9.013,9.013,0,0,0,5-1.32,13.443,13.443,0,0,0,3.56-3.4Zm-10.16-17.12a6.947,6.947,0,0,0-2-5.2,7.112,7.112,0,0,0-5.36-2.16,9.012,9.012,0,0,0-3.52.64,8.822,8.822,0,0,0-2.6,1.64,7.189,7.189,0,0,0-1.68,2.32,7.638,7.638,0,0,0-.68,2.76ZM3.92,547.28l22-19.76a41.374,41.374,0,0,0,3.36-3.44,6.592,6.592,0,0,0,1.68-4.48,5.439,5.439,0,0,0-2.08-4.52A7.65,7.65,0,0,0,24,513.44a6.7,6.7,0,0,0-5.24,2.08,8.387,8.387,0,0,0-2.12,5.12l-12-.88a19.522,19.522,0,0,1,1.84-7.64,16.054,16.054,0,0,1,4.24-5.4,17.853,17.853,0,0,1,6.2-3.24,26.48,26.48,0,0,1,7.72-1.08,23.4,23.4,0,0,1,7.2,1.08,16.77,16.77,0,0,1,5.84,3.2A14.55,14.55,0,0,1,41.56,512a18.425,18.425,0,0,1,1.4,7.44,19.964,19.964,0,0,1-.56,4.92,16.659,16.659,0,0,1-1.56,4,18.265,18.265,0,0,1-2.36,3.32,38.742,38.742,0,0,1-2.96,2.96l-17.2,14.8H43.44V560H3.92ZM54,531.68a58.7,58.7,0,0,1,.92-10.24A30,30,0,0,1,58.2,512a19.533,19.533,0,0,1,6.44-6.92,18.593,18.593,0,0,1,10.4-2.68,18.593,18.593,0,0,1,10.4,2.68A19.533,19.533,0,0,1,91.88,512a30,30,0,0,1,3.28,9.44,57.448,57.448,0,0,1,0,20.48,30,30,0,0,1-3.28,9.44,19.534,19.534,0,0,1-6.44,6.92,18.593,18.593,0,0,1-10.4,2.68,18.593,18.593,0,0,1-10.4-2.68,19.534,19.534,0,0,1-6.44-6.92,30,30,0,0,1-3.28-9.44A58.7,58.7,0,0,1,54,531.68Zm12,0q0,2.24.2,5.36a26.2,26.2,0,0,0,1.08,6,12.743,12.743,0,0,0,2.68,4.88,7.4,7.4,0,0,0,10.12,0,12.468,12.468,0,0,0,2.72-4.88,26.2,26.2,0,0,0,1.08-6q.2-3.12.2-5.36t-.2-5.36a26.2,26.2,0,0,0-1.08-6,12.468,12.468,0,0,0-2.72-4.88,7.4,7.4,0,0,0-10.12,0,12.743,12.743,0,0,0-2.68,4.88,26.2,26.2,0,0,0-1.08,6Q66,529.44,66,531.68Zm40.64,15.6,22-19.76a41.372,41.372,0,0,0,3.36-3.44,6.592,6.592,0,0,0,1.68-4.48,5.439,5.439,0,0,0-2.08-4.52,7.65,7.65,0,0,0-4.88-1.64,6.7,6.7,0,0,0-5.24,2.08,8.387,8.387,0,0,0-2.12,5.12l-12-.88a19.522,19.522,0,0,1,1.84-7.64,16.054,16.054,0,0,1,4.24-5.4,17.853,17.853,0,0,1,6.2-3.24,26.48,26.48,0,0,1,7.72-1.08,23.4,23.4,0,0,1,7.2,1.08,16.77,16.77,0,0,1,5.84,3.2,14.55,14.55,0,0,1,3.88,5.32,18.425,18.425,0,0,1,1.4,7.44,19.963,19.963,0,0,1-.56,4.92,16.658,16.658,0,0,1-1.56,4,18.265,18.265,0,0,1-2.36,3.32,38.743,38.743,0,0,1-2.96,2.96l-17.2,14.8h25.12V560H106.64Zm70.48-30.48-11.36,10-6.8-7.84,18.48-15.6h11.2V560H177.12Z" transform="matrix(0.966, 0.259, -0.259, 0.966, 144.646, -19)"/></svg>