<svg xmlns="http://www.w3.org/2000/svg" width="186" height="186" viewBox="0 0 186 186"><defs><style>.a{fill:#2368ff;}.b,.e,.g{fill:#fff;}.c,.f{fill:none;}.c,.d,.e,.g,.h{stroke:#000;}.c,.d,.e,.f,.g,.h{stroke-linecap:round;stroke-linejoin:round;}.e{stroke-width:4px;}.f{stroke:#040000;}.f,.g,.h{stroke-width:3px;}.h{fill:#5fe6ff;}</style></defs><g transform="translate(0.001 0)"><circle class="a" cx="93" cy="93" r="93" transform="translate(-0.001 0)"/><g transform="translate(56.569 35.425)"><path class="b" d="M451.731,126.46a1.979,1.979,0,0,0-.519-.312,1.381,1.381,0,0,0-.5-.1.817.817,0,0,0-.5.146.455.455,0,0,0-.195.382.379.379,0,0,0,.1.268.84.84,0,0,0,.256.183,2.212,2.212,0,0,0,.357.134q.2.057.394.122a2.46,2.46,0,0,1,1.141.694,1.714,1.714,0,0,1,.362,1.133,2.2,2.2,0,0,1-.158.853,1.769,1.769,0,0,1-.463.654,2.142,2.142,0,0,1-.747.423,3.107,3.107,0,0,1-1,.15,3.685,3.685,0,0,1-2.152-.69l.682-1.283a2.751,2.751,0,0,0,.706.471,1.692,1.692,0,0,0,.69.155.821.821,0,0,0,.581-.179.554.554,0,0,0,.142-.645.52.52,0,0,0-.163-.187,1.252,1.252,0,0,0-.3-.158c-.122-.049-.269-.1-.443-.163q-.309-.1-.6-.215a1.911,1.911,0,0,1-.528-.312,1.454,1.454,0,0,1-.373-.492,1.738,1.738,0,0,1-.142-.751,2.163,2.163,0,0,1,.15-.824,1.832,1.832,0,0,1,.423-.634,1.882,1.882,0,0,1,.666-.41,2.518,2.518,0,0,1,.881-.147,3.881,3.881,0,0,1,.95.126,4.219,4.219,0,0,1,.951.37Z" transform="translate(-448.093 -124.722)"/><path class="b" d="M462.02,124.951v6.125h-1.592v-6.125Z" transform="translate(-451.251 -124.781)"/><path class="b" d="M471.329,126.3v4.776h-1.591V126.3H468.43v-1.349h4.207V126.3Z" transform="translate(-453.299 -124.781)"/><path class="b" d="M484.186,126.939a1.7,1.7,0,0,0-1.364-.673,1.673,1.673,0,0,0-.661.129,1.587,1.587,0,0,0-.869.885,1.838,1.838,0,0,0,0,1.34,1.626,1.626,0,0,0,1.522,1.024,1.84,1.84,0,0,0,1.373-.65v1.885l-.162.057a4.675,4.675,0,0,1-.682.191,3.281,3.281,0,0,1-.625.061,3.2,3.2,0,0,1-2.238-.914,3.354,3.354,0,0,1-.711-1.032,3.311,3.311,0,0,1,0-2.6,3.235,3.235,0,0,1,2.96-1.921,3.371,3.371,0,0,1,.719.077,4.385,4.385,0,0,1,.743.24Z" transform="translate(-456.133 -124.722)"/><path class="b" d="M491.813,127.955a3.156,3.156,0,0,1,2.018-2.985,3.892,3.892,0,0,1,2.733,0,3.226,3.226,0,0,1,1.077.687,3.151,3.151,0,0,1,.7,1.027,3.336,3.336,0,0,1,0,2.541,3.162,3.162,0,0,1-.7,1.028,3.236,3.236,0,0,1-1.077.686,3.892,3.892,0,0,1-2.733,0,3.208,3.208,0,0,1-1.068-.686,3.191,3.191,0,0,1-.95-2.3Zm1.665,0a1.625,1.625,0,0,0,.138.674,1.691,1.691,0,0,0,.922.89,1.8,1.8,0,0,0,1.324,0,1.733,1.733,0,0,0,.552-.354,1.662,1.662,0,0,0,.378-.536,1.711,1.711,0,0,0,0-1.348,1.662,1.662,0,0,0-.378-.536,1.731,1.731,0,0,0-.552-.353,1.8,1.8,0,0,0-1.324,0,1.686,1.686,0,0,0-.922.889A1.628,1.628,0,0,0,493.478,127.955Z" transform="translate(-459.286 -124.722)"/><path class="b" d="M507.194,131.076v-6.125h1.592l2.94,3.744v-3.744h1.583v6.125h-1.583l-2.94-3.745v3.745Z" transform="translate(-463.223 -124.781)"/><path class="b" d="M522.651,124.951h1.389l-1.494,2.7H521.6Z" transform="translate(-466.912 -124.781)"/><path class="b" d="M535.606,131.02h-4.93l1.518-1.576q.6-.626.942-1.06a5.825,5.825,0,0,0,.508-.735,1.912,1.912,0,0,0,.207-.487,1.543,1.543,0,0,0,.04-.317.821.821,0,0,0-.044-.268.7.7,0,0,0-.134-.231.654.654,0,0,0-.512-.223.638.638,0,0,0-.508.211.78.78,0,0,0-.182.527,1.977,1.977,0,0,0,.025.26H530.8a2.6,2.6,0,0,1,.175-.975,2.219,2.219,0,0,1,.492-.756,2.152,2.152,0,0,1,.751-.487,2.587,2.587,0,0,1,.955-.171,2.7,2.7,0,0,1,.946.162,2.273,2.273,0,0,1,.751.455,2.109,2.109,0,0,1,.5.694,2.14,2.14,0,0,1,.179.873,2.043,2.043,0,0,1-.215.93,3.294,3.294,0,0,1-.687.873l-1.016.95h1.982Z" transform="translate(-469.235 -124.725)"/><path class="b" d="M544.669,126.3h-.893v-1.349h2.485v6.125h-1.591Z" transform="translate(-472.589 -124.781)"/></g><path class="c" d="M525.062,260.349q10.428,4.668,21.054,8.879" transform="translate(-411.229 -124.019)"/><path class="d" d="M553.02,269.064a3.617,3.617,0,0,0,1.728-1.181c1.407-1.439,2.894-3.045,3.08-5.049a2.555,2.555,0,0,0-.513-1.942,2.163,2.163,0,0,0-2.291-.5,3.553,3.553,0,0,0-1.818,1.619c-1.193,2.04-.9,4.586-.558,6.925" transform="translate(-418.215 -123.997)"/><path class="e" d="M449.612,150.763l-29.321,39.612L445.5,232.482l67.706,1.233L539.731,191.5,509.1,150.73Z" transform="translate(-384.407 -95.955)"/><path class="f" d="M424.234,204.105c18.427.291,31.02,2.944,49.448,3.235,20.391.322,46.617-1.719,67.008-1.4" transform="translate(-385.416 -109.62)"/><ellipse class="g" cx="6.665" cy="9.802" rx="6.665" ry="9.802" transform="translate(79.952 73.827)"/><ellipse cx="3.267" cy="5.245" rx="3.267" ry="5.245" transform="translate(83.35 78.385)"/><ellipse class="g" cx="6.665" cy="9.802" rx="6.665" ry="9.802" transform="translate(97.414 73.944)"/><ellipse cx="3.267" cy="5.245" rx="3.267" ry="5.245" transform="translate(100.812 78.502)"/><g transform="translate(44.527 87.681)"><path class="h" d="M526.618,214.5a7.392,7.392,0,0,1,4.185-7.61l-1.5-11.934-97.392,12.268,1.538,12.2a7.388,7.388,0,0,1,1.688,13.4l1.537,12.2,97.391-12.267-1.5-11.934A7.392,7.392,0,0,1,526.618,214.5Z" transform="translate(-431.908 -194.96)"/><rect width="1.693" height="4.911" transform="translate(17.16 43.567) rotate(-7.179)"/><rect width="1.693" height="4.911" transform="translate(16.408 37.596) rotate(-7.179)"/><rect width="1.693" height="4.911" transform="translate(15.656 31.624) rotate(-7.179)"/><rect width="1.693" height="4.911" transform="translate(14.904 25.653) rotate(-7.179)"/><rect width="1.693" height="4.911" transform="translate(14.152 19.682) rotate(-7.179)"/><rect width="1.693" height="4.911" transform="translate(13.4 13.711) rotate(-7.179)"/><rect width="1.693" height="2.506" transform="translate(12.948 10.126) rotate(-7.179)"/></g><path class="c" d="M427.028,219.036c-.121,2.01-1.734,3.713-1.8,5.725a4.974,4.974,0,0,0,2.68,4.265,10.545,10.545,0,0,0,5.119,1.112c10.74.112,20.509-6.645,31.225-7.348.894-.059,2.082.162,2.178,1.053a3.02,3.02,0,0,1-4.433-.952" transform="translate(-385.67 -113.442)"/><path class="c" d="M562.848,215.681c1.769,3.995-.19,8.74-3.11,11.989a24.468,24.468,0,0,1-16.448,7.8,28.95,28.95,0,0,1-17.679-4.861c-1.434-.946-2.922-2.262-2.92-3.979a3.221,3.221,0,0,1,2.148,3.292" transform="translate(-410.622 -112.583)"/><path class="c" d="M468.184,261.08a113.051,113.051,0,0,0-17.817,6.911" transform="translate(-392.107 -124.206)"/><path class="d" d="M447.541,267.381a11.263,11.263,0,0,1-5.3-4.382,5.3,5.3,0,0,1-.8-1.847,2.6,2.6,0,0,1,.347-1.943,2.5,2.5,0,0,1,2.781-.812,3.951,3.951,0,0,1,2.205,2.067,9.931,9.931,0,0,1,.806,2.983q.3,2.052.412,4.128" transform="translate(-389.808 -123.486)"/></g></svg>