<svg id="圖層_1" data-name="圖層 1" xmlns="http://www.w3.org/2000/svg" viewBox="0 0 500 500"><defs><style>.cls-1{fill:#2368ff;}.cls-2,.cls-3,.cls-5{fill:#fff;}.cls-3,.cls-5,.cls-6{stroke:#000;}.cls-3,.cls-4,.cls-5,.cls-6{stroke-linecap:round;stroke-linejoin:round;}.cls-3{stroke-width:4px;}.cls-4{fill:none;stroke:#040000;}.cls-4,.cls-5,.cls-6{stroke-width:3px;}.cls-6{fill:#5fe6ff;}</style></defs><title>行政</title><circle class="cls-1" cx="256" cy="256" r="200"/><path class="cls-2" d="M185.48,135.92a4.15,4.15,0,0,0-1.12-.67,2.86,2.86,0,0,0-1.08-.22,1.83,1.83,0,0,0-1.09.31,1,1,0,0,0-.41.83.8.8,0,0,0,.21.57,1.86,1.86,0,0,0,.55.4,4.47,4.47,0,0,0,.76.28c.29.09.57.17.85.27a5.21,5.21,0,0,1,2.45,1.49,3.66,3.66,0,0,1,.78,2.44,4.7,4.7,0,0,1-.34,1.83,3.92,3.92,0,0,1-1,1.41,4.58,4.58,0,0,1-1.61.9,6.58,6.58,0,0,1-2.16.33,8,8,0,0,1-4.63-1.49l1.47-2.76a6,6,0,0,0,1.52,1,3.68,3.68,0,0,0,1.48.33,1.75,1.75,0,0,0,1.25-.39,1.13,1.13,0,0,0,.41-.87,1.21,1.21,0,0,0-.1-.52,1.27,1.27,0,0,0-.35-.4,3.13,3.13,0,0,0-.64-.34l-.95-.35c-.44-.14-.88-.29-1.3-.46a4.18,4.18,0,0,1-1.14-.67,3.06,3.06,0,0,1-.8-1.06,3.75,3.75,0,0,1-.31-1.61,4.59,4.59,0,0,1,.33-1.78,3.87,3.87,0,0,1,.91-1.36,4,4,0,0,1,1.43-.88,5.39,5.39,0,0,1,1.89-.32,8.32,8.32,0,0,1,2.05.27,9.4,9.4,0,0,1,2,.8Z"/><path class="cls-2" d="M200.81,132.55v13.17h-3.42V132.55Z"/><path class="cls-2" d="M216.43,135.45v10.27H213V135.45h-2.82v-2.9h9.05v2.9Z"/><path class="cls-2" d="M238,137a3.67,3.67,0,0,0-2.93-1.45,3.76,3.76,0,0,0-1.43.28,3.52,3.52,0,0,0-1.12.76,3.35,3.35,0,0,0-.74,1.15,3.75,3.75,0,0,0-.27,1.43,3.82,3.82,0,0,0,.27,1.45,3.58,3.58,0,0,0,.75,1.15,3.5,3.5,0,0,0,1.12.77,3.43,3.43,0,0,0,1.4.28,4,4,0,0,0,2.95-1.4v4l-.35.13a11.31,11.31,0,0,1-1.46.41,7.9,7.9,0,0,1-1.35.13,6.9,6.9,0,0,1-4.81-2,7.15,7.15,0,0,1-1.53-2.22,7.08,7.08,0,0,1,0-5.59,7.06,7.06,0,0,1,1.52-2.18,7,7,0,0,1,4.85-1.95,7.2,7.2,0,0,1,1.54.17,9.49,9.49,0,0,1,1.6.51Z"/><path class="cls-2" d="M247.61,139.14a6.94,6.94,0,0,1,.54-2.74,6.87,6.87,0,0,1,1.5-2.21,6.77,6.77,0,0,1,2.3-1.47,8.25,8.25,0,0,1,5.87,0,6.71,6.71,0,0,1,3.83,3.68,6.94,6.94,0,0,1-1.51,7.68,6.86,6.86,0,0,1-2.32,1.47,8.25,8.25,0,0,1-5.87,0,6.77,6.77,0,0,1-2.3-1.47,6.85,6.85,0,0,1-2-4.94Zm3.58,0a3.6,3.6,0,0,0,.29,1.44,3.67,3.67,0,0,0,.81,1.16,3.82,3.82,0,0,0,4,.76,3.78,3.78,0,0,0,1.19-.76,3.67,3.67,0,0,0,.81-1.16,3.63,3.63,0,0,0,0-2.89,3.67,3.67,0,0,0-.81-1.16,3.78,3.78,0,0,0-1.19-.76,3.78,3.78,0,0,0-4,.76,3.67,3.67,0,0,0-.81,1.16A3.61,3.61,0,0,0,251.19,139.14Z"/><path class="cls-2" d="M272.22,145.72V132.55h3.42l6.32,8v-8h3.41v13.17H282l-6.32-8.05v8.05Z"/><path class="cls-2" d="M297.53,132.55h3l-3.21,5.8h-2Z"/><path class="cls-2" d="M320.39,145.72h-10.6l3.26-3.39a29.7,29.7,0,0,0,2-2.28,12.39,12.39,0,0,0,1.09-1.58,4.18,4.18,0,0,0,.45-1.05,3.75,3.75,0,0,0,.08-.68,1.79,1.79,0,0,0-.09-.57,1.46,1.46,0,0,0-.29-.5,1.38,1.38,0,0,0-1.1-.48,1.36,1.36,0,0,0-1.09.45,1.64,1.64,0,0,0-.4,1.14,3.82,3.82,0,0,0,.06.56h-3.74a5.65,5.65,0,0,1,.37-2.1,4.75,4.75,0,0,1,1.06-1.62,4.45,4.45,0,0,1,1.62-1.05,5.42,5.42,0,0,1,2-.37,5.81,5.81,0,0,1,2,.35,4.72,4.72,0,0,1,1.62,1,4.62,4.62,0,0,1,1,5.37,7,7,0,0,1-1.48,1.88l-2.18,2h4.26Z"/><path class="cls-2" d="M332.67,135.45h-1.92v-2.9h5.34v13.17h-3.42Z"/><path d="M345.91,368a7.68,7.68,0,0,0,3.71-2.53c3-3.1,6.23-6.55,6.63-10.86a5.52,5.52,0,0,0-1.11-4.18,4.65,4.65,0,0,0-4.92-1.07,7.65,7.65,0,0,0-3.91,3.49c-2.57,4.38-1.93,9.86-1.2,14.89"/><path d="M346.31,369.42a9.46,9.46,0,0,0,4.37-2.92,46.28,46.28,0,0,0,3.51-3.9c2.13-2.72,3.95-6.12,3.53-9.7a5.93,5.93,0,0,0-2.63-4.47,6.38,6.38,0,0,0-4.89-.66c-3.52.92-5.73,4.44-6.62,7.75-1.1,4.11-.51,8.44.08,12.59a1.51,1.51,0,0,0,1.85,1,1.54,1.54,0,0,0,1.05-1.84,35.88,35.88,0,0,1-.49-8.84c.27-2.56,1.24-5.5,3.42-7.07,1.94-1.41,4.8-1,5.24,1.62s-1,5.27-2.54,7.29a34.74,34.74,0,0,1-3.11,3.53c-1,1.07-2.07,2.32-3.57,2.69-1.88.45-1.08,3.35.8,2.89Z"/><path d="M300.05,350.48q22.6,10.11,45.63,19.25c1.8.71,2.58-2.19.8-2.9q-22.67-9-44.92-18.94c-1.75-.78-3.27,1.8-1.51,2.59Z"/><path d="M180.16,365.45a24.17,24.17,0,0,1-11.4-9.42,11.24,11.24,0,0,1-1.72-4,5.6,5.6,0,0,1,.74-4.18,5.37,5.37,0,0,1,6-1.74,8.48,8.48,0,0,1,4.75,4.44,21.43,21.43,0,0,1,1.73,6.42c.44,2.94.73,5.9.89,8.87"/><path d="M180.56,364a22.73,22.73,0,0,1-7.4-4.91c-2-2-4.3-4.68-4.69-7.55a3.55,3.55,0,0,1,4.51-4.08c2.81.69,4.35,3.55,5.06,6.13a57.62,57.62,0,0,1,1.59,12.27c.1,1.92,3.1,1.94,3,0a60.84,60.84,0,0,0-1.74-13.24c-1-3.49-3.28-7-7-8-3.44-.93-7.35.82-8.26,4.42-1,3.93,1.49,7.71,3.9,10.58a26,26,0,0,0,10.21,7.29,1.51,1.51,0,0,0,1.85-1,1.53,1.53,0,0,0-1.05-1.84Z"/><path d="M219.21,348.91a247.53,247.53,0,0,0-38.67,15c-1.74.85-.22,3.44,1.51,2.59a243.47,243.47,0,0,1,38-14.71c1.85-.54,1.06-3.44-.8-2.89Z"/><polygon class="cls-3" points="196.23 173.87 133.17 259.05 187.38 349.61 332.99 352.26 390.03 261.47 324.15 173.8 196.23 173.87"/><path class="cls-4" d="M133.17,259.05c39.63.63,73,6.48,112.65,7.1,43.85.7,100.25-3.69,144.11-3"/><ellipse class="cls-5" cx="279.83" cy="236.1" rx="14.33" ry="21.08"/><ellipse cx="279.83" cy="236.1" rx="7.03" ry="11.28"/><ellipse class="cls-5" cx="242.27" cy="235.85" rx="14.33" ry="21.08"/><ellipse cx="242.27" cy="235.85" rx="7.03" ry="11.28"/><path class="cls-6" d="M355.44,286.59a15.88,15.88,0,0,1,9-16.36l-3.24-25.67L151.76,271l3.3,26.24A15.89,15.89,0,0,1,158.7,326l3.3,26.24,209.45-26.38-3.24-25.66A15.91,15.91,0,0,1,355.44,286.59Z"/><rect x="189.31" y="337.99" width="3.64" height="10.56" transform="translate(-41.4 26.58) rotate(-7.18)"/><rect x="187.69" y="325.15" width="3.64" height="10.56" transform="translate(-39.81 26.27) rotate(-7.18)"/><rect x="186.07" y="312.31" width="3.64" height="10.56" transform="translate(-38.22 25.97) rotate(-7.18)"/><rect x="184.46" y="299.46" width="3.64" height="10.56" transform="translate(-36.62 25.67) rotate(-7.18)"/><rect x="182.84" y="286.62" width="3.64" height="10.56" transform="translate(-35.03 25.36) rotate(-7.18)"/><rect x="181.22" y="273.78" width="3.64" height="10.56" transform="translate(-33.44 25.06) rotate(-7.18)"/><rect x="179.93" y="266.09" width="3.64" height="5.39" transform="translate(-32.17 24.82) rotate(-7.18)"/><path d="M143.44,283.09c-.28,3.46-2.58,6.37-3.46,9.67a10.77,10.77,0,0,0,1.93,9.45c4.66,6.12,13.08,6.59,20.14,6.14,15.31-1,29.42-7.52,43.93-11.89a104.17,104.17,0,0,1,12.31-3,61.79,61.79,0,0,1,6.49-.79c1.05-.06,3.22-.21,3.45,1.15l.39-1.46a4.56,4.56,0,0,1-6.78-1.51c-.9-1.71-3.49-.19-2.59,1.52,2.26,4.3,7.83,5,11.49,2.11a1.53,1.53,0,0,0,.39-1.46c-.56-3.18-4.4-3.51-7-3.3a78.64,78.64,0,0,0-11,1.72,211.71,211.71,0,0,0-21.71,6.69,150.6,150.6,0,0,1-21.92,6.28,62,62,0,0,1-11,1.06c-3.76,0-7.74-.34-11-2.29-3.12-1.83-5.5-5.34-4.69-9.07s3.37-7,3.7-11c.16-1.93-2.84-1.92-3,0Z"/><path d="M224.39,294.32c.84,0,1.69,0,2.53,0a1.52,1.52,0,0,0,1.06-.44,1.5,1.5,0,0,0,0-2.12,1.61,1.61,0,0,0-1.06-.44c-.84,0-1.69,0-2.53,0a1.63,1.63,0,0,0-1.06.44,1.56,1.56,0,0,0-.44,1.06,1.54,1.54,0,0,0,.44,1.06,1.52,1.52,0,0,0,1.06.44Z"/><path d="M382.08,278.48c2.89,6.75.34,14.4-3.53,20.19a44.59,44.59,0,0,1-16.33,14.15c-13.66,7.24-29.79,7.72-44.25,2.64a63.09,63.09,0,0,1-12.1-5.78c-3-1.86-7.25-4.41-7.36-8.42l-1.9,1.44a5.49,5.49,0,0,1,3.52,5.64c-.14,1.92,2.86,1.91,3,0a8.5,8.5,0,0,0-5.72-8.53,1.52,1.52,0,0,0-1.9,1.45c.11,3.91,2.8,6.79,5.79,9a57.55,57.55,0,0,0,11.29,6.3,63.23,63.23,0,0,0,25.06,5.34c16,0,32.6-7.1,42.34-20.07,5.28-7.05,8.3-16.41,4.68-24.86-.76-1.77-3.35-.24-2.59,1.52Z"/></svg>