<svg id="圖層_1" data-name="圖層 1" xmlns="http://www.w3.org/2000/svg" viewBox="0 0 500 500"><defs><style>.cls-1{fill:#2368ff;}.cls-2{fill:#5fe6ff;}.cls-3,.cls-4,.cls-6,.cls-7,.cls-8{fill:#fff;}.cls-4,.cls-6{stroke:#000;}.cls-4,.cls-5,.cls-6,.cls-8{stroke-linecap:round;stroke-linejoin:round;}.cls-4{stroke-width:4px;}.cls-5{fill:none;stroke:#040000;}.cls-5,.cls-6,.cls-8{stroke-width:3px;}.cls-7,.cls-8{stroke:#fff;}.cls-7{stroke-miterlimit:10;}</style></defs><title>議程</title><circle class="cls-1" cx="251.87" cy="256.14" r="200"/><path class="cls-2" d="M329.55,250.32c-8.43-3.9-13.68-14.28-12.06-23.83s10-17.37,19.16-17.94c.27-9.88,4-20.35,12.08-25.39s20.6-1.88,23.38,7.56c.45-9.42,7-18.16,15.61-20.78s18.56,1.08,23.71,8.79a21.57,21.57,0,0,1,22.31-8.57c8.15,2,14.85,9.47,16.34,18.16,8.34-5.13,19.37-6.68,27.5-1.2s10.93,19.24,3.85,26.16c9.42,1.4,15.64,13.84,11.42,22.83-5.74,12.21-22.48,11.67-34.72,7.3,0,12.14-6.93,24.42-17.69,28.73s-24.62-1-28.95-12.24c0,10.71-8.64,20.64-18.75,21.55s-20.23-7.32-21.95-17.87c-5.51,10.41-17.28,17.68-28.26,14.82s-18.24-17.84-12-27.82"/><path class="cls-3" d="M204.42,137a3.91,3.91,0,0,0-1.12-.67,2.86,2.86,0,0,0-1.08-.22,1.73,1.73,0,0,0-1.08.31,1,1,0,0,0-.42.82.81.81,0,0,0,.21.58,1.8,1.8,0,0,0,.55.39,4.46,4.46,0,0,0,.76.29l.85.26a5.23,5.23,0,0,1,2.46,1.5,3.7,3.7,0,0,1,.77,2.43,4.71,4.71,0,0,1-.34,1.84,4,4,0,0,1-1,1.4,4.76,4.76,0,0,1-1.61.91,6.58,6.58,0,0,1-2.16.32,7.94,7.94,0,0,1-4.63-1.48l1.47-2.76a6,6,0,0,0,1.52,1,3.69,3.69,0,0,0,1.49.33,1.74,1.74,0,0,0,1.24-.38,1.16,1.16,0,0,0,.41-.87,1.21,1.21,0,0,0-.1-.52,1.17,1.17,0,0,0-.35-.4,2.71,2.71,0,0,0-.64-.34c-.26-.11-.58-.22-.95-.35s-.88-.29-1.3-.46a4.2,4.2,0,0,1-1.14-.68,3.12,3.12,0,0,1-.8-1.05,3.84,3.84,0,0,1-.3-1.62,4.57,4.57,0,0,1,.32-1.77,3.79,3.79,0,0,1,.91-1.36,4,4,0,0,1,1.43-.89,5.39,5.39,0,0,1,1.89-.31,8.32,8.32,0,0,1,2.05.27,9.37,9.37,0,0,1,2,.79Z"/><path class="cls-3" d="M219.75,133.61v13.17h-3.42V133.61Z"/><path class="cls-3" d="M235.37,136.51v10.27H232V136.51h-2.82v-2.9h9.05v2.9Z"/><path class="cls-3" d="M256.92,138a3.64,3.64,0,0,0-2.93-1.45,3.49,3.49,0,0,0-1.42.28,3.31,3.31,0,0,0-1.13.76,3.4,3.4,0,0,0-.74,1.14,4,4,0,0,0,0,2.88,3.51,3.51,0,0,0,.75,1.16,3.47,3.47,0,0,0,1.12.76,3.43,3.43,0,0,0,1.4.28,3.94,3.94,0,0,0,3-1.39v4l-.35.12a9.9,9.9,0,0,1-1.46.41,7,7,0,0,1-1.35.13,6.82,6.82,0,0,1-2.61-.51,7,7,0,0,1-2.2-1.45,7.27,7.27,0,0,1-1.53-2.22,6.84,6.84,0,0,1-.58-2.8,6.72,6.72,0,0,1,.57-2.79,7.06,7.06,0,0,1,1.52-2.18,7.15,7.15,0,0,1,2.21-1.44,7,7,0,0,1,2.64-.51,6.61,6.61,0,0,1,1.54.17,9.49,9.49,0,0,1,1.6.51Z"/><path class="cls-3" d="M266.55,140.19a6.86,6.86,0,0,1,.54-2.73,6.76,6.76,0,0,1,1.5-2.21,7,7,0,0,1,2.3-1.48,8.39,8.39,0,0,1,5.87,0,7,7,0,0,1,2.32,1.48,6.79,6.79,0,0,1,1.51,2.21,7.17,7.17,0,0,1,0,5.46,6.68,6.68,0,0,1-1.51,2.21,6.88,6.88,0,0,1-2.32,1.48,8.39,8.39,0,0,1-5.87,0,6.79,6.79,0,0,1-2.3-1.48,6.66,6.66,0,0,1-1.5-2.21A6.86,6.86,0,0,1,266.55,140.19Zm3.58,0a3.49,3.49,0,0,0,1.1,2.6,3.57,3.57,0,0,0,1.18.76,3.87,3.87,0,0,0,2.84,0,3.61,3.61,0,0,0,1.19-.76,3.62,3.62,0,0,0,.81-4,3.65,3.65,0,0,0-2-1.91,3.87,3.87,0,0,0-2.84,0,3.57,3.57,0,0,0-1.18.76,3.74,3.74,0,0,0-.81,1.15A3.64,3.64,0,0,0,270.13,140.19Z"/><path class="cls-3" d="M291.16,146.78V133.61h3.42l6.32,8v-8h3.41v13.17H300.9l-6.32-8.06v8.06Z"/><path class="cls-3" d="M316.47,133.61h3l-3.21,5.8h-2Z"/><path class="cls-3" d="M339.33,146.78h-10.6l3.26-3.39c.86-.9,1.54-1.66,2-2.28a12.39,12.39,0,0,0,1.09-1.58,4.18,4.18,0,0,0,.45-1.05,4,4,0,0,0,.08-.68,1.9,1.9,0,0,0-.09-.58,1.68,1.68,0,0,0-.29-.5,1.38,1.38,0,0,0-1.1-.48,1.37,1.37,0,0,0-1.09.46,1.68,1.68,0,0,0-.4,1.13,3.69,3.69,0,0,0,.06.56H329a5.56,5.56,0,0,1,.37-2.09,4.89,4.89,0,0,1,1.06-1.63,4.72,4.72,0,0,1,1.62-1,6,6,0,0,1,4.08,0,4.86,4.86,0,0,1,1.62,1,4.61,4.61,0,0,1,1.45,3.38,4.52,4.52,0,0,1-.46,2,7,7,0,0,1-1.48,1.87l-2.18,2h4.26Z"/><path class="cls-3" d="M351.61,136.51h-1.92v-2.9H355v13.17h-3.42Z"/><path class="cls-2" d="M21.22,168.89c-8.44-4-13.69-14.74-12.06-24.61s10-17.93,19.15-18.51c.28-10.21,4-21,12.08-26.22s20.6-2,23.38,7.8c.45-9.72,7-18.75,15.61-21.45S98,87,103.1,95c5-7.31,14.15-10.94,22.3-8.85s14.85,9.78,16.34,18.76c8.34-5.29,19.37-6.9,27.5-1.24s10.93,19.86,3.85,27c9.42,1.44,15.65,14.29,11.42,23.57-5.74,12.61-22.48,12-34.72,7.54,0,12.53-6.93,25.21-17.69,29.66s-24.62-1-28.95-12.64c0,11.06-8.63,21.31-18.75,22.25s-20.22-7.56-21.94-18.45c-5.52,10.75-17.29,18.26-28.27,15.3s-18.24-18.42-12-28.72"/><path d="M222.93,337.07q9.33,22.74,17.66,45.86c.65,1.8,3.55,1,2.89-.8q-8.32-23.11-17.66-45.85c-.72-1.77-3.63-1-2.89.79Z"/><path d="M274.37,339.07q-7.35,23.44-13.68,47.2a1.5,1.5,0,0,0,2.89.79q6.33-23.73,13.68-47.19c.58-1.85-2.32-2.64-2.89-.8Z"/><path d="M261.84,388a4.17,4.17,0,0,0,1.88,2.33c2.4,1.86,5.1,3.82,8.73,3.9a6.3,6.3,0,0,0,3.62-.91,2.89,2.89,0,0,0,1.27-3.28,4.53,4.53,0,0,0-2.66-2.43c-3.54-1.5-8.23-.84-12.55-.15"/><path d="M260.39,388.38c.33,1.49,1.52,2.43,2.66,3.31a29.13,29.13,0,0,0,3.19,2.2,12.14,12.14,0,0,0,8.25,1.64c2.68-.5,5.25-3,4.3-5.9s-4.28-3.94-7-4.28a35.73,35.73,0,0,0-10.1.65,1.52,1.52,0,0,0-1.05,1.85,1.55,1.55,0,0,0,1.85,1,43.59,43.59,0,0,1,6.84-.71c1.93,0,4.3.18,5.87,1.45s.36,2.54-1.17,2.92a8.49,8.49,0,0,1-5.79-1,21,21,0,0,1-2.89-1.87c-.73-.54-1.9-1.18-2.1-2.13-.41-1.89-3.3-1.09-2.9.79Z"/><path d="M242.09,383.57a4.22,4.22,0,0,1-1.76,2.43c-2.31,2-4.91,4.06-8.53,4.31a6.26,6.26,0,0,1-3.67-.73,2.91,2.91,0,0,1-1.42-3.22,4.53,4.53,0,0,1,2.54-2.55c3.46-1.67,8.18-1.24,12.53-.76"/><path d="M240.64,383.17c-.15.91-1,1.49-1.71,2.05a23.75,23.75,0,0,1-2.34,1.79,9.75,9.75,0,0,1-5.68,1.82,3.32,3.32,0,0,1-2.46-.92,1.23,1.23,0,0,1-.06-1.62c1.13-1.52,3.62-2,5.36-2.09a41.51,41.51,0,0,1,8,.35,1.51,1.51,0,0,0,1.5-1.5,1.53,1.53,0,0,0-1.5-1.5,37.56,37.56,0,0,0-8.8-.27c-2.65.32-5.91,1.21-7.32,3.73-1.54,2.77.44,5.7,3.21,6.52a11.18,11.18,0,0,0,8.34-1.38,23.26,23.26,0,0,0,3.49-2.52c1.18-1,2.57-2.05,2.84-3.66a1.55,1.55,0,0,0-1-1.85,1.53,1.53,0,0,0-1.85,1.05Z"/><polygon class="cls-4" points="188.26 168.4 125.21 253.59 179.42 344.15 325.02 346.8 382.07 256.01 316.19 168.33 188.26 168.4"/><path class="cls-5" d="M125.21,253.59c39.63.63,75.57,7.76,115.2,8.39,43.85.69,97.7-5,141.55-4.29"/><ellipse class="cls-6" cx="221.35" cy="221.03" rx="14.33" ry="21.08"/><ellipse cx="221.35" cy="217.83" rx="7.03" ry="11.28"/><ellipse class="cls-6" cx="258.9" cy="221.28" rx="14.33" ry="21.08"/><ellipse cx="258.9" cy="218.08" rx="7.03" ry="11.28"/><path d="M136.26,272.35a131.57,131.57,0,0,0-24.53,46.4c-.54,1.86,2.35,2.65,2.9.8a127.68,127.68,0,0,1,23.76-45.08c1.21-1.48-.9-3.61-2.13-2.12Z"/><path d="M242.32,269.53c15.31,15.58,36.05,24.57,57.15,29.14a247.25,247.25,0,0,0,37.27,4.7c6.37.38,12.74.63,19.11.85,5.48.19,11.49.9,16.6-1.55,4.94-2.36,7.66-7.89,7.47-13.24-.21-5.73-3.54-10.89-7.91-14.41-1.49-1.2-3.63.91-2.12,2.12,3.64,2.94,6.71,7.12,7,11.94.28,4.46-1.79,9-6,11a17.7,17.7,0,0,1-7.23,1.34c-2.86.05-5.73-.12-8.59-.22-5.89-.21-11.77-.44-17.65-.79-22.16-1.31-44.67-4.33-65-13.71a94.48,94.48,0,0,1-28-19.29c-1.36-1.38-3.48.74-2.12,2.12Z"/><circle class="cls-2" cx="111.54" cy="208.04" r="6.49"/><circle class="cls-2" cx="129.04" cy="221.03" r="5.63"/><circle class="cls-2" cx="411.35" cy="292.06" r="6.49"/><circle class="cls-2" cx="393.85" cy="305.05" r="5.63"/><circle class="cls-7" cx="62.26" cy="148.76" r="12.24"/><line class="cls-8" x1="79.46" y1="133.27" x2="105.64" y2="145.68"/><line class="cls-8" x1="86.35" y1="152.57" x2="98.75" y2="126.39"/><polygon class="cls-8" points="119.4 118.83 114.94 141.1 136.01 134.32 119.4 118.83"/><circle class="cls-7" cx="62.26" cy="148.76" r="12.24"/><line class="cls-8" x1="79.46" y1="133.27" x2="105.64" y2="145.68"/><line class="cls-8" x1="86.35" y1="152.57" x2="98.75" y2="126.39"/><polygon class="cls-8" points="119.4 118.83 114.94 141.1 136.01 134.32 119.4 118.83"/></svg>