<svg xmlns="http://www.w3.org/2000/svg" width="215.141" height="177.315" viewBox="0 0 215.141 177.315"><defs><style>.a{fill:#2368ff;}.b{fill:#5fe6ff;}.c,.f,.h,.i,.j{fill:#fff;}.d,.g{fill:none;}.d,.e,.f,.h{stroke:#000;}.d,.e,.f,.g,.h,.j{stroke-linecap:round;stroke-linejoin:round;}.f{stroke-width:4px;}.g{stroke:#040000;}.g,.h,.j{stroke-width:3px;}.i,.j{stroke:#fff;}.i{stroke-miterlimit:10;}</style></defs><g transform="translate(-58.218 -934.721)"><circle class="a" cx="88.658" cy="88.658" r="88.658" transform="translate(77.283 934.721)"/><path class="b" d="M256.4,1041.323a10.1,10.1,0,0,1-5.345-10.565,9.645,9.645,0,0,1,8.491-7.95c.121-4.38,1.78-9.022,5.356-11.254s9.13-.837,10.362,3.348a10.307,10.307,0,0,1,6.92-9.21,9.594,9.594,0,0,1,10.513,3.895,9.563,9.563,0,0,1,9.888-3.8,10.147,10.147,0,0,1,7.242,8.051c3.7-2.271,8.586-2.962,12.192-.531s4.843,8.527,1.7,11.6c4.177.62,6.936,6.136,5.063,10.121-2.544,5.413-9.964,5.171-15.39,3.236-.013,5.382-3.072,10.824-7.842,12.735s-10.912-.439-12.833-5.424c0,4.746-3.826,9.147-8.31,9.552s-8.966-3.245-9.729-7.922c-2.445,4.614-7.662,7.838-12.529,6.57s-8.085-7.908-5.34-12.331" transform="translate(-56.028 -20.526)"/><g transform="translate(141.436 968.897)"><path class="c" d="M179.018,984.563a1.877,1.877,0,0,0-.5-.3,1.315,1.315,0,0,0-.48-.1.78.78,0,0,0-.48.14.435.435,0,0,0-.186.364.36.36,0,0,0,.094.255.8.8,0,0,0,.243.174,2.086,2.086,0,0,0,.341.128c.126.036.251.074.375.116a2.351,2.351,0,0,1,1.088.662,1.632,1.632,0,0,1,.345,1.08,2.1,2.1,0,0,1-.151.813,1.706,1.706,0,0,1-.441.623,2.027,2.027,0,0,1-.713.4,2.958,2.958,0,0,1-.956.143,3.52,3.52,0,0,1-2.052-.657l.65-1.224a2.647,2.647,0,0,0,.674.449,1.623,1.623,0,0,0,.658.147.785.785,0,0,0,.553-.17.526.526,0,0,0,.135-.616.491.491,0,0,0-.155-.178,1.274,1.274,0,0,0-.282-.151c-.116-.046-.257-.1-.422-.155-.2-.062-.389-.13-.577-.2a1.819,1.819,0,0,1-.5-.3,1.368,1.368,0,0,1-.356-.468,1.65,1.65,0,0,1-.136-.716,2.065,2.065,0,0,1,.144-.786,1.733,1.733,0,0,1,.4-.6,1.791,1.791,0,0,1,.635-.392,2.4,2.4,0,0,1,.84-.139,3.669,3.669,0,0,1,.906.12,3.977,3.977,0,0,1,.906.353Z" transform="translate(-175.549 -982.906)"/><path class="c" d="M189.4,983.135v5.838h-1.517v-5.838Z" transform="translate(-179.136 -982.972)"/><path class="c" d="M198.651,984.42v4.553h-1.518V984.42h-1.246v-1.285h4.01v1.285Z" transform="translate(-181.462 -982.972)"/><path class="c" d="M211.424,985.02a1.619,1.619,0,0,0-1.3-.643,1.6,1.6,0,0,0-.631.123,1.547,1.547,0,0,0-.5.337,1.569,1.569,0,0,0-.329.507,1.666,1.666,0,0,0-.12.635,1.685,1.685,0,0,0,.12.643,1.549,1.549,0,0,0,1.452.975,1.758,1.758,0,0,0,1.309-.619v1.8l-.155.054a4.589,4.589,0,0,1-.65.182,3.184,3.184,0,0,1-.6.057,3.049,3.049,0,0,1-2.133-.871,3.21,3.21,0,0,1-.677-.983,3.153,3.153,0,0,1,0-2.478,3.084,3.084,0,0,1,2.822-1.831,3.16,3.16,0,0,1,.685.074,4.157,4.157,0,0,1,.709.228Z" transform="translate(-184.68 -982.906)"/><path class="c" d="M219.27,985.988a3.006,3.006,0,0,1,1.924-2.846,3.71,3.71,0,0,1,2.605,0,3.09,3.09,0,0,1,1.026.654,3.014,3.014,0,0,1,.67.979,3.182,3.182,0,0,1,0,2.424,3,3,0,0,1-.67.979,3.078,3.078,0,0,1-1.026.654,3.71,3.71,0,0,1-2.605,0,3.017,3.017,0,0,1-1.924-2.845Zm1.587,0a1.566,1.566,0,0,0,.131.643,1.634,1.634,0,0,0,.356.511,1.61,1.61,0,0,0,.523.337,1.688,1.688,0,0,0,1.789-.337,1.612,1.612,0,0,0,.36-.511,1.641,1.641,0,0,0,0-1.286,1.61,1.61,0,0,0-.36-.511,1.657,1.657,0,0,0-.526-.337,1.722,1.722,0,0,0-1.263,0,1.611,1.611,0,0,0-.523.337,1.632,1.632,0,0,0-.356.511A1.567,1.567,0,0,0,220.857,985.988Z" transform="translate(-188.26 -982.906)"/><path class="c" d="M234.651,988.973v-5.838h1.518l2.8,3.57v-3.57h1.51v5.838h-1.51l-2.8-3.569v3.569Z" transform="translate(-192.732 -982.972)"/><path class="c" d="M250.06,983.135h1.324l-1.425,2.57h-.9Z" transform="translate(-196.922 -982.972)"/><path class="c" d="M262.832,988.91h-4.7l1.448-1.5q.573-.6.9-1.01a5.664,5.664,0,0,0,.484-.7,1.868,1.868,0,0,0,.2-.465,1.476,1.476,0,0,0,.038-.3.776.776,0,0,0-.043-.255.625.625,0,0,0-.616-.433.606.606,0,0,0-.484.2.742.742,0,0,0-.174.5,1.881,1.881,0,0,0,.023.248h-1.657a2.485,2.485,0,0,1,.167-.929,2.1,2.1,0,0,1,.468-.72,2.067,2.067,0,0,1,.716-.465,2.466,2.466,0,0,1,.91-.162,2.564,2.564,0,0,1,.9.155,2.157,2.157,0,0,1,.716.433,1.993,1.993,0,0,1,.472.662,2.025,2.025,0,0,1,.17.832,1.936,1.936,0,0,1-.2.887,3.127,3.127,0,0,1-.655.833l-.967.906h1.889Z" transform="translate(-199.559 -982.909)"/><path class="c" d="M272.084,984.42h-.852v-1.285h2.37v5.838h-1.518Z" transform="translate(-203.368 -982.972)"/></g><path class="b" d="M63.694,989.95c-3.737-1.784-6.065-6.534-5.345-10.908s4.417-7.948,8.491-8.209c.121-4.521,1.78-9.314,5.356-11.618s9.13-.865,10.362,3.456a10.6,10.6,0,0,1,6.92-9.509,9.444,9.444,0,0,1,10.513,4.021,9.417,9.417,0,0,1,9.888-3.922,10.36,10.36,0,0,1,7.242,8.313c3.7-2.345,8.586-3.058,12.192-.548s4.843,8.8,1.7,11.972c4.177.641,6.936,6.335,5.063,10.45-2.544,5.589-9.963,5.339-15.39,3.341-.013,5.556-3.072,11.176-7.842,13.148a9.962,9.962,0,0,1-12.833-5.6c0,4.9-3.826,9.444-8.31,9.862s-8.966-3.351-9.729-8.18c-2.445,4.765-7.662,8.093-12.528,6.784s-8.086-8.165-5.341-12.732" transform="translate(0 -5.25)"/><path class="d" d="M192.912,1110.053q4.136,10.076,7.829,20.327" transform="translate(-39.161 -50.976)"/><path class="d" d="M222.575,1111.8q-3.26,10.393-6.063,20.922" transform="translate(-46.022 -51.483)"/><path class="e" d="M216.329,1141.887a1.853,1.853,0,0,0,.833,1.036,6.518,6.518,0,0,0,3.868,1.727,2.787,2.787,0,0,0,1.607-.4,1.294,1.294,0,0,0,.562-1.458,2.007,2.007,0,0,0-1.182-1.074c-1.566-.665-3.647-.375-5.563-.068" transform="translate(-45.969 -60.065)"/><path class="e" d="M201.171,1139.189a1.855,1.855,0,0,1-.782,1.075,6.524,6.524,0,0,1-3.78,1.914,2.794,2.794,0,0,1-1.625-.322,1.3,1.3,0,0,1-.633-1.428,2.01,2.01,0,0,1,1.128-1.131c1.532-.74,3.625-.552,5.553-.339" transform="translate(-39.567 -59.324)"/><path class="f" d="M158.886,1004.871l-27.952,37.763,24.029,40.142,64.546,1.175L244.8,1043.7l-29.2-38.864Z" transform="translate(-21.141 -20.386)"/><path class="g" d="M134.876,1058.214c17.567.277,30.7,3.378,48.272,3.655,19.439.307,43.308-2.209,62.748-1.9" transform="translate(-22.287 -35.904)"/><ellipse class="h" cx="6.354" cy="9.345" rx="6.354" ry="9.345" transform="translate(146.055 998.467)"/><ellipse cx="3.115" cy="5" rx="3.115" ry="5" transform="translate(149.294 1001.393)"/><ellipse class="h" cx="6.354" cy="9.345" rx="6.354" ry="9.345" transform="translate(162.702 998.578)"/><ellipse cx="3.115" cy="5" rx="3.115" ry="5" transform="translate(165.941 1001.505)"/><path class="d" d="M134.118,1070.513a57.151,57.151,0,0,0-10.7,20.276" transform="translate(-18.955 -39.48)"/><path class="d" d="M204.789,1067.425c6.444,6.588,15.222,10.506,24.206,12.558s18.261,2.374,27.472,2.688c2.007.068,4.16.1,5.833-1.014a5.778,5.778,0,0,0,2.294-5.573,8.465,8.465,0,0,0-3.255-5.283" transform="translate(-42.614 -38.582)"/><circle class="b" cx="2.878" cy="2.878" r="2.878" transform="translate(100.855 999.176)"/><circle class="b" cx="2.497" cy="2.497" r="2.497" transform="translate(108.994 1005.314)"/><circle class="b" cx="2.878" cy="2.878" r="2.878" transform="translate(233.759 1036.422)"/><circle class="b" cx="2.497" cy="2.497" r="2.497" transform="translate(226.382 1042.56)"/><circle class="i" cx="5.427" cy="5.427" r="5.427" transform="translate(76.463 970.352)"/><line class="j" x2="11.605" y2="5.498" transform="translate(89.513 968.912)"/><line class="j" y1="11.605" x2="5.498" transform="translate(92.567 965.859)"/><path class="j" d="M126.493,973.9l-1.978,9.873,9.343-3.006Z" transform="translate(-19.275 -11.391)"/></g></svg>