<svg xmlns="http://www.w3.org/2000/svg" width="186" height="186" viewBox="0 0 186 186"><defs><style>.a{fill:#2368ff;}.b,.c{fill:#fff;}.c{opacity:0.66;}</style></defs><g transform="translate(-376.561 -1500.972)"><circle class="a" cx="93" cy="93" r="93" transform="translate(376.561 1500.972)"/><g transform="translate(456.09 1521.747)"><path class="b" d="M488.041,1531.03a1.971,1.971,0,0,0-.431-.424,1.376,1.376,0,0,0-.465-.216.81.81,0,0,0-.522.025.452.452,0,0,0-.278.324.378.378,0,0,0,.032.283.835.835,0,0,0,.206.237,2.113,2.113,0,0,0,.315.214c.119.068.237.138.353.21a2.451,2.451,0,0,1,.945.939,1.707,1.707,0,0,1,.086,1.183,2.2,2.2,0,0,1-.352.789,1.764,1.764,0,0,1-.6.526,2.131,2.131,0,0,1-.823.235,3.116,3.116,0,0,1-1.008-.088,3.679,3.679,0,0,1-1.925-1.172l.961-1.085a2.759,2.759,0,0,0,.575.621,1.683,1.683,0,0,0,.634.311.82.82,0,0,0,.6-.038.542.542,0,0,0,.28-.349.536.536,0,0,0,.008-.243.514.514,0,0,0-.114-.219,1.3,1.3,0,0,0-.251-.223c-.107-.076-.237-.163-.391-.261q-.277-.166-.536-.35a1.9,1.9,0,0,1-.439-.427,1.454,1.454,0,0,1-.247-.564,1.731,1.731,0,0,1,.037-.761,2.165,2.165,0,0,1,.338-.764,1.832,1.832,0,0,1,.557-.516,1.876,1.876,0,0,1,.741-.243,2.515,2.515,0,0,1,.889.065,3.82,3.82,0,0,1,.892.344,4.207,4.207,0,0,1,.835.579Z" transform="translate(-483.571 -1528.97)"/><path class="b" d="M498.373,1531.811l-1.429,5.938-1.544-.372,1.429-5.937Z" transform="translate(-486.623 -1529.607)"/><path class="b" d="M507.493,1535.3l-1.115,4.631-1.543-.372,1.115-4.631-1.268-.305.315-1.307,4.08.982-.315,1.307Z" transform="translate(-489.017 -1530.09)"/><path class="b" d="M519.655,1539.153a1.7,1.7,0,0,0-1.167-.972,1.665,1.665,0,0,0-.671-.029,1.584,1.584,0,0,0-1.05.656,1.748,1.748,0,0,0-.277.617,1.77,1.77,0,0,0-.035.683,1.623,1.623,0,0,0,.638,1.07,1.615,1.615,0,0,0,.6.277,1.837,1.837,0,0,0,1.483-.31l-.439,1.827-.171.017a4.576,4.576,0,0,1-.706.026,3.262,3.262,0,0,1-.621-.087,3.19,3.19,0,0,1-1.956-1.408,3.338,3.338,0,0,1-.448-1.166,3.294,3.294,0,0,1,.6-2.521,3.224,3.224,0,0,1,3.318-1.171,3.316,3.316,0,0,1,.679.242,4.41,4.41,0,0,1,.665.406Z" transform="translate(-491.623 -1530.931)"/><path class="b" d="M526.844,1541.931a3.188,3.188,0,0,1,.541-1.174,3.155,3.155,0,0,1,.917-.833,3.191,3.191,0,0,1,1.2-.416,3.886,3.886,0,0,1,2.65.637,3.226,3.226,0,0,1,.884.917,3.13,3.13,0,0,1,.441,1.161,3.329,3.329,0,0,1-.593,2.465,3.147,3.147,0,0,1-.922.832,3.213,3.213,0,0,1-1.2.415,3.884,3.884,0,0,1-2.65-.638,3.157,3.157,0,0,1-1.261-3.365Zm1.615.389a1.63,1.63,0,0,0-.024.686,1.7,1.7,0,0,0,.237.607,1.684,1.684,0,0,0,.449.471,1.8,1.8,0,0,0,1.284.309,1.729,1.729,0,0,0,.618-.214,1.681,1.681,0,0,0,.491-.431,1.707,1.707,0,0,0,.315-1.307,1.671,1.671,0,0,0-.241-.608,1.783,1.783,0,0,0-1.736-.781,1.681,1.681,0,0,0-1.1.647A1.631,1.631,0,0,0,528.458,1542.32Z" transform="translate(-494.71 -1531.68)"/><path class="b" d="M540.868,1548.321l1.429-5.937,1.543.371,1.977,4.317.873-3.631,1.536.369-1.429,5.938-1.536-.37-1.977-4.316-.874,3.631Z" transform="translate(-498.353 -1532.43)"/><path class="b" d="M557.6,1546.084l1.347.324-2.078,2.265-.913-.22Z" transform="translate(-502.246 -1533.385)"/><path class="b" d="M568.478,1555.085l-4.78-1.15,1.84-1.174q.728-.466,1.16-.808a5.778,5.778,0,0,0,.664-.594,1.95,1.95,0,0,0,.315-.424,1.536,1.536,0,0,0,.113-.3.811.811,0,0,0,.019-.271.657.657,0,0,0-.519-.591.636.636,0,0,0-.542.086.774.774,0,0,0-.3.47,2.026,2.026,0,0,0-.037.258l-1.685-.406a2.583,2.583,0,0,1,.4-.9,2.208,2.208,0,0,1,.652-.618,2.171,2.171,0,0,1,.842-.3,2.576,2.576,0,0,1,.965.057,2.655,2.655,0,0,1,.879.378,2.245,2.245,0,0,1,.622.616,2.074,2.074,0,0,1,.318.79,2.122,2.122,0,0,1-.03.888,2.019,2.019,0,0,1-.426.851,3.246,3.246,0,0,1-.869.686l-1.206.685,1.922.462Z" transform="translate(-504.243 -1533.968)"/><path class="b" d="M578.716,1552.458l-.867-.209.315-1.307,2.41.58-1.429,5.938-1.543-.372Z" transform="translate(-507.83 -1534.638)"/></g><g transform="translate(399.338 1528.932)"><path class="b" d="M462.473,1666.592c-5.988-.433-9.684-8.647-12.324-14.515-2.466-5.483-6.124-13.611-5.478-24.922.2-3.412,1.131-19.8,13.968-30.948,6.547-5.684,13.485-7.655,18.349-9.037,4.957-1.409,12.1-3.352,21.088-1.644,4.8.913,11.425,2.173,16.432,7.394,2.269,2.366,2.575,3.845,4.929,4.93,3.357,1.547,5.776-.055,13.968-1.917,10.493-2.386,14.695-1.616,15.884-1.37,2.868.594,6.568,1.359,8.49,4.382,3.19,5.017-1,12.355-1.917,13.968-2.63,4.611-6.181,7.1-10.407,9.859-11.975,7.832-17.7,12.141-22.731,13.42-8.3,2.11-10.143-.427-23.279,2.465-7.286,1.6-9.869,3.077-10.681,3.56-6.74,4.006-11.183,10.9-12.6,13.145-2.463,3.9-3.126,6.209-6.3,8.49C468.7,1664.69,465.732,1666.827,462.473,1666.592Z" transform="translate(-416.764 -1550.573)"/><path d="M461.863,1665.981l.126-1.752a5.914,5.914,0,0,1-3.153-1.279,17.838,17.838,0,0,1-4.3-5.31,75,75,0,0,1-3.4-6.9c-2.268-5.041-5.394-12.01-5.4-21.579q0-1.232.073-2.522c.048-.844.139-2.438.444-4.557a46.792,46.792,0,0,1,3.369-12,36.792,36.792,0,0,1,9.552-13.168c6.233-5.409,12.82-7.3,17.678-8.675A47.8,47.8,0,0,1,490.4,1586a35.934,35.934,0,0,1,6.74.637,46.7,46.7,0,0,1,7.85,2,20.156,20.156,0,0,1,7.642,4.885c1.037,1.08,1.608,1.939,2.34,2.84a9.552,9.552,0,0,0,1.29,1.33,8.594,8.594,0,0,0,5.335,1.922,18.936,18.936,0,0,0,4.75-.827c1.793-.476,3.948-1.1,6.839-1.756a55.092,55.092,0,0,1,11.927-1.642,18.828,18.828,0,0,1,2.124.107c.519.059.852.124,1.089.173a23.026,23.026,0,0,1,4.272,1.177,8.069,8.069,0,0,1,1.773,1,5.481,5.481,0,0,1,1.319,1.423,6.277,6.277,0,0,1,.905,3.437,14.737,14.737,0,0,1-1.171,5.261,27.17,27.17,0,0,1-1.7,3.457,19.933,19.933,0,0,1-4.243,5.177,48.02,48.02,0,0,1-5.6,4.083c-6,3.926-10.434,6.964-13.936,9.146s-6.058,3.485-8.265,4.041a27.909,27.909,0,0,1-7.631.892c-.675,0-1.373-.007-2.12-.007a68.192,68.192,0,0,0-21.487,3.841c-.877.333-1.556.634-2.078.891s-.89.47-1.11.6h0a35.734,35.734,0,0,0-8.737,7.607,53,53,0,0,0-4.449,6.11c-1.276,2.024-2.076,3.606-2.874,4.839a10.784,10.784,0,0,1-2.965,3.163,16.951,16.951,0,0,1-2.461,1.525,7.893,7.893,0,0,1-3.406.9q-.188,0-.376-.013l-.126,1.752-.126,1.752q.317.022.628.022a11.351,11.351,0,0,0,4.952-1.26,20.3,20.3,0,0,0,2.965-1.827,14.354,14.354,0,0,0,3.867-4.112c.943-1.468,1.706-2.99,2.892-4.866a49.428,49.428,0,0,1,4.155-5.711,32.281,32.281,0,0,1,7.855-6.862h0c.186-.11.443-.26.864-.467a41.989,41.989,0,0,1,9.3-2.887,53.841,53.841,0,0,1,12.718-1.485c.721,0,1.419.007,2.12.007a31.483,31.483,0,0,0,8.5-1c2.825-.724,5.647-2.219,9.258-4.464s8.029-5.282,14-9.188a51.177,51.177,0,0,0,6-4.391,23.493,23.493,0,0,0,4.967-6.068,30.734,30.734,0,0,0,1.907-3.9,18.129,18.129,0,0,0,1.421-6.562,9.784,9.784,0,0,0-1.454-5.322,8.991,8.991,0,0,0-2.149-2.329,12.757,12.757,0,0,0-3.84-1.93,33.685,33.685,0,0,0-3.627-.9c-.284-.059-.761-.151-1.408-.224a22.619,22.619,0,0,0-2.516-.128,58.447,58.447,0,0,0-12.706,1.73c-2.988.679-5.227,1.326-6.961,1.785a15.957,15.957,0,0,1-3.849.71,4.592,4.592,0,0,1-2.033-.462,4.647,4.647,0,0,1-1.058-.651,8.554,8.554,0,0,1-1.279-1.44,27.182,27.182,0,0,0-2.061-2.458,23.683,23.683,0,0,0-8.943-5.742,49.956,49.956,0,0,0-8.429-2.163,39.484,39.484,0,0,0-7.4-.7,51.185,51.185,0,0,0-14.5,2.379c-4.871,1.385-12.161,3.441-19.021,9.4a41.639,41.639,0,0,0-12.248,19.173,51.965,51.965,0,0,0-1.847,8.143c-.326,2.262-.425,4-.474,4.858q-.08,1.391-.079,2.723c0,10.344,3.432,17.963,5.708,23.02a58.546,58.546,0,0,0,5.073,9.587,17.61,17.61,0,0,0,3.718,3.987,9.434,9.434,0,0,0,5.009,1.972Z" transform="translate(-416.153 -1549.963)"/><path class="c" d="M422.784,1551.124l.8-1.681a.878.878,0,1,1,1.587.752l-.8,1.68,1.681.8a.878.878,0,0,1-.752,1.587l-1.681-.8-.8,1.681a.878.878,0,0,1-1.587-.752l.8-1.681-1.681-.8a.878.878,0,0,1,.752-1.587l1.68.8m9.314-2.475.8-1.68a.878.878,0,0,1,1.587.752l-.8,1.681,1.681.8a.879.879,0,0,1-.376,1.672.869.869,0,0,1-.375-.085l-1.681-.8-.8,1.681a.878.878,0,1,1-1.587-.752l.8-1.68-1.681-.8a.878.878,0,0,1,.752-1.587l1.68.8" transform="translate(-410.38 -1540.669)"/><path class="c" d="M433.62,1538.653l-20.465,6.2-6.068,16.962,13.311,12.1,5.822-1.646a9.062,9.062,0,0,1-.49-1.687l-4.871,1.377-10.983-9.984-.548.156-.482-1.689.666-.191,5-13.976,18.779-5.689,12.645,9.272q.758-.213,1.515-.428l.482,1.689q-.821.235-1.643.464l-3.915,14.294-9.472,2.676a1.02,1.02,0,0,1-.116.442,4.161,4.161,0,0,0-.435,1.539l11.455-3.237,4.831-17.636-15.016-11.011" transform="translate(-407.087 -1538.653)"/><path class="c" d="M446.646,1553.758c-6.235,1.743-12.484,3.288-18.757,5.078-5.908,1.685-11.8,3.622-17.666,5.314l-.375,1.051.739.672c5.949-1.713,11.881-3.665,17.785-5.349,6.194-1.767,12.4-3.3,18.628-5.043l.335-1.22-.689-.5" transform="translate(-407.799 -1542.55)"/><path class="c" d="M410.122,1564l-.666.191.482,1.689.548-.156-.739-.672.375-1.051m37.938-10.821q-.757.216-1.515.428l.689.5-.335,1.22q.821-.229,1.643-.464l-.482-1.689" transform="translate(-407.698 -1542.401)"/><path class="b" d="M490.376,1614.956c-1.337,5.186-5.279,8.653-8.8,7.744-5.691-1.468-5.3-5.85-3.964-11.037s5.279-8.652,8.8-7.744S491.713,1609.771,490.376,1614.956Z" transform="translate(-425.065 -1555.454)"/><path d="M489.918,1614.5l-1.276-.329a11.346,11.346,0,0,1-2.743,5.087,6.773,6.773,0,0,1-1.84,1.365,4.1,4.1,0,0,1-1.8.448,3.269,3.269,0,0,1-.817-.1,7.169,7.169,0,0,1-1.937-.774,3.548,3.548,0,0,1-1.445-1.551,5.276,5.276,0,0,1-.43-2.27,20.354,20.354,0,0,1,.795-4.837,11.347,11.347,0,0,1,2.743-5.087,6.793,6.793,0,0,1,1.84-1.365,4.115,4.115,0,0,1,1.8-.448,3.271,3.271,0,0,1,.817.1,3.964,3.964,0,0,1,2.412,2.023,8.8,8.8,0,0,1,1.009,4.3,12.473,12.473,0,0,1-.4,3.106l1.276.329,1.276.329a15.107,15.107,0,0,0,.487-3.764,11.4,11.4,0,0,0-1.353-5.6,6.594,6.594,0,0,0-4.045-3.272,5.906,5.906,0,0,0-1.474-.186,6.741,6.741,0,0,0-2.955.715,10.183,10.183,0,0,0-3.66,3.181,14.583,14.583,0,0,0-2.319,4.98,22.717,22.717,0,0,0-.878,5.5,8.791,8.791,0,0,0,.282,2.3,6.116,6.116,0,0,0,1.831,3.009,8.613,8.613,0,0,0,3.674,1.832,5.927,5.927,0,0,0,1.475.186,6.741,6.741,0,0,0,2.955-.715,10.179,10.179,0,0,0,3.66-3.181,14.585,14.585,0,0,0,2.319-4.981Z" transform="translate(-424.607 -1554.996)"/><path d="M488.454,1615.663c-.715,2.775-2.7,4.663-4.425,4.218s-2.55-3.057-1.835-5.831,2.7-4.662,4.425-4.217S489.169,1612.889,488.454,1615.663Z" transform="translate(-426.397 -1557)"/><path class="b" d="M513.016,1620.92c-1.337,5.186-3.115,9.21-8.8,7.744-3.527-.91-5.3-5.851-3.964-11.037s5.279-8.653,8.8-7.744S514.353,1615.734,513.016,1620.92Z" transform="translate(-431.007 -1556.993)"/><path d="M512.558,1620.462l-1.276-.329a17.052,17.052,0,0,1-2.046,5.271,4.281,4.281,0,0,1-1.385,1.329,3.753,3.753,0,0,1-1.908.46,7.486,7.486,0,0,1-1.86-.263,3.964,3.964,0,0,1-2.412-2.023,8.8,8.8,0,0,1-1.009-4.3,12.464,12.464,0,0,1,.4-3.106,11.346,11.346,0,0,1,2.743-5.087,6.779,6.779,0,0,1,1.84-1.365,4.11,4.11,0,0,1,1.8-.448,3.248,3.248,0,0,1,.818.1,3.965,3.965,0,0,1,2.412,2.023,8.8,8.8,0,0,1,1.009,4.3,12.506,12.506,0,0,1-.4,3.106l1.276.329,1.275.329a15.108,15.108,0,0,0,.487-3.763,11.39,11.39,0,0,0-1.353-5.6,6.6,6.6,0,0,0-4.045-3.272,5.927,5.927,0,0,0-1.475-.186,6.735,6.735,0,0,0-2.955.715,10.2,10.2,0,0,0-3.661,3.182,14.6,14.6,0,0,0-2.318,4.98,15.112,15.112,0,0,0-.488,3.764,11.4,11.4,0,0,0,1.353,5.6,6.591,6.591,0,0,0,4.044,3.273,10.11,10.11,0,0,0,2.518.347,6.4,6.4,0,0,0,3.207-.8,7.825,7.825,0,0,0,3.045-3.474,24.8,24.8,0,0,0,1.64-4.761Z" transform="translate(-430.548 -1556.535)"/><path d="M510.957,1621.626c-.715,2.774-2.7,4.663-4.425,4.217s-2.55-3.056-1.834-5.831,2.7-4.662,4.425-4.217S511.673,1618.851,510.957,1621.626Z" transform="translate(-432.203 -1558.538)"/><path d="M465.137,1620.358a12.684,12.684,0,0,0,.122,4.073,5.913,5.913,0,0,1-.486,3.562,24.1,24.1,0,0,1-4.35,6.2c-1.177,1.222.683,3.087,1.862,1.863a26.311,26.311,0,0,0,4.762-6.734,8.036,8.036,0,0,0,.924-4.143c-.094-1.35-.546-2.766-.293-4.121a1.354,1.354,0,0,0-.92-1.62A1.33,1.33,0,0,0,465.137,1620.358Z" transform="translate(-420.75 -1559.484)"/><path d="M526.416,1631.563c-4.249,2.751-8.953,6.021-9.986,11.348a1.352,1.352,0,0,0,.92,1.62,1.33,1.33,0,0,0,1.621-.92c.9-4.637,5.086-7.384,8.775-9.772a1.347,1.347,0,0,0,.473-1.8A1.332,1.332,0,0,0,526.416,1631.563Z" transform="translate(-435.289 -1562.576)"/><path d="M464.9,1585.3c-.58-3.789,1.368-7.5,2.921-10.824,1.378-2.946,2.811-5.87,4.439-8.687,3.217-5.566,7.276-10.733,12.984-13.893,1.483-.822.156-3.1-1.33-2.276-6.194,3.429-10.639,9.08-14.1,15.135-1.754,3.069-3.285,6.259-4.768,9.466-1.733,3.749-3.331,7.57-2.688,11.779C462.615,1587.675,465.154,1586.966,464.9,1585.3Z" transform="translate(-421.309 -1541.438)"/><path d="M547.29,1592.61c-.376-2.463.984-4.836,2.245-6.84a41.248,41.248,0,0,1,4.122-5.483,42.906,42.906,0,0,1,10.437-8.522,1.318,1.318,0,0,0-1.33-2.275,45.146,45.146,0,0,0-11.679,9.75c-3.223,3.8-7.143,8.788-6.336,14.071C545.005,1594.982,547.544,1594.272,547.29,1592.61Z" transform="translate(-442.575 -1546.56)"/><path d="M476.46,1692.778c-.743,3.569,1.089,6.708,3.39,9.292,2.629,2.95,5.708,5.553,8.577,8.267,1.231,1.165,3.1-.694,1.862-1.862-2.622-2.482-5.353-4.889-7.856-7.491-1.879-1.954-4.039-4.6-3.433-7.506C479.344,1691.824,476.8,1691.116,476.46,1692.778Z" transform="translate(-424.941 -1578.171)"/><path d="M491.325,1673.323a26.725,26.725,0,0,0,4.464,19.369c3.732,5.578,9.02,9.868,14.684,13.367,1.446.893,2.771-1.385,1.33-2.275-10.126-6.254-20.237-16.8-17.937-29.76C494.159,1672.365,491.621,1671.654,491.325,1673.323Z" transform="translate(-428.727 -1573.151)"/><path d="M492.4,1715.059a12.254,12.254,0,0,0-1.532,7.478,2.881,2.881,0,0,0,.882,2.134,1.935,1.935,0,0,0,2.477-.195,2.868,2.868,0,0,0,.747-2.078c.033-.7.058-1.4.088-2.1q.1-2.42.2-4.838a1.327,1.327,0,0,0-1.317-1.317,1.346,1.346,0,0,0-1.318,1.317q-.09,2.177-.182,4.353l-.087,2.1c-.008.182-.014.366-.024.548l-.011.194c.024-.134.019-.124-.012.033-.039.136-.048.162-.027.078a.394.394,0,0,1,.261-.3.646.646,0,0,1,.279-.061.755.755,0,0,1,.732.442q.053.131-.006-.065c-.018-.084-.033-.169-.046-.254-.049-.264,0,.087-.028-.2-.031-.325-.056-.65-.061-.977q-.008-.419.017-.839c.011-.186.03-.373.048-.558.027-.267-.023.084.029-.2a12.3,12.3,0,0,1,.437-1.765,7.824,7.824,0,0,1,.727-1.6,1.317,1.317,0,0,0-2.275-1.329Z" transform="translate(-428.68 -1583.928)"/><path d="M516.2,1716.657q-.051,3.138.036,6.274c.05,1.747.162,3.731,1.839,4.727a1.328,1.328,0,0,0,1.934-.787,17.629,17.629,0,0,0-.784-9.908,1.357,1.357,0,0,0-1.621-.92,1.327,1.327,0,0,0-.92,1.62,15.113,15.113,0,0,1,.784,8.507l1.934-.787c-.131-.086-.148-.09-.047-.014l-.174-.178c.148.187-.045-.11-.068-.154.1.194-.076-.242-.091-.3-.034-.131-.06-.264-.083-.4.036.213-.027-.28-.03-.329-.009-.134-.015-.269-.02-.4-.019-.482-.03-.965-.04-1.448q-.063-2.75-.016-5.5A1.318,1.318,0,0,0,516.2,1716.657Z" transform="translate(-435.233 -1584.248)"/><path class="c" d="M424.371,1553.188l-.752,1.587,1.681.8a.878.878,0,1,0,.752-1.587l-1.681-.8m-3.643-1.632a.878.878,0,0,0-.377,1.672l1.681.8.752-1.587-1.68-.8a.87.87,0,0,0-.375-.085" transform="translate(-410.38 -1541.982)"/><path class="c" d="M422.485,1553.571l-.8,1.681a.878.878,0,1,0,1.587.752l.8-1.681-1.587-.752m2.342-3.77a.878.878,0,0,0-.794.5l-.8,1.681,1.587.752.8-1.68a.878.878,0,0,0-.793-1.255" transform="translate(-410.832 -1541.529)"/><path class="c" d="M423.543,1552.743l-.752,1.587,1.587.752.752-1.587-1.587-.752" transform="translate(-411.138 -1542.288)"/><path class="c" d="M436.924,1549.854l-.752,1.587,1.681.8a.866.866,0,0,0,.375.086.879.879,0,0,0,.376-1.673l-1.681-.8m-3.643-1.633a.878.878,0,0,0-.377,1.672l1.681.8.752-1.588-1.68-.8a.881.881,0,0,0-.375-.085" transform="translate(-413.618 -1541.121)"/><path class="c" d="M435.038,1550.237l-.8,1.68a.878.878,0,1,0,1.587.752l.8-1.681-1.587-.752m2.342-3.77a.878.878,0,0,0-.794.5l-.8,1.68,1.587.752.8-1.681a.878.878,0,0,0-.793-1.254" transform="translate(-414.071 -1540.669)"/><path class="c" d="M436.1,1549.408l-.752,1.587,1.587.752.752-1.587-1.587-.752" transform="translate(-414.377 -1541.428)"/><path class="c" d="M438.105,1580.735h0l-1.019.288a8.817,8.817,0,0,0,1.844,6.027,31.876,31.876,0,0,0,2.823,3.228,21.562,21.562,0,0,1-2.682-2.122,21.214,21.214,0,0,1-2.867-3.245,11.565,11.565,0,0,1-1.725-3.152l-.951.269.239.845-.9.253a18.749,18.749,0,0,0,4.639,6.274,23.966,23.966,0,0,0,8.6,5.223.937.937,0,0,0,.309.055,1.027,1.027,0,0,0,.652-1.706c-2-2.087-4.135-4.106-5.977-6.336a7.774,7.774,0,0,1-2.091-5.242l-.658.186h0l-.239-.845" transform="translate(-413.739 -1549.51)"/><path class="c" d="M432.989,1578.7a.874.874,0,0,0-.933.951,7.5,7.5,0,0,0,.115.964l.908-.257.239.845.951-.269a5.3,5.3,0,0,1-.237-1.284,1.2,1.2,0,0,0-.029-.2,1.008,1.008,0,0,0-1.014-.75m5.293-1.167a.834.834,0,0,0-.762.5,6.431,6.431,0,0,0-.319.745,6.317,6.317,0,0,0-.326,1.419l1.019-.288-.239-.845,1.687-.477a1.083,1.083,0,0,0-1.06-1.054" transform="translate(-413.528 -1548.683)"/><path class="c" d="M438.174,1581.12h0m-5.055-.4-.908.257a9.064,9.064,0,0,0,.49,1.687l.9-.253-.239-.845-.239-.845m6.263-1.771-1.687.477.239.845.239.845.658-.186a4.162,4.162,0,0,1,.435-1.539,1.02,1.02,0,0,0,.116-.442" transform="translate(-413.569 -1549.05)"/></g></g></svg>