<svg id="圖層_1" data-name="圖層 1" xmlns="http://www.w3.org/2000/svg" viewBox="0 0 500 500"><defs><style>.cls-1{fill:#2368ff;}.cls-2,.cls-3,.cls-5{fill:#fff;}.cls-3,.cls-5,.cls-6,.cls-7{stroke:#000;}.cls-3,.cls-5,.cls-6,.cls-7,.cls-8{stroke-linecap:round;stroke-linejoin:round;}.cls-3{stroke-width:4px;}.cls-4{fill:#5fe6ff;}.cls-5,.cls-6,.cls-7,.cls-8{stroke-width:3px;}.cls-6{fill:#fbb03b;}.cls-8{fill:none;stroke:#040000;}.cls-9{fill:aqua;}</style></defs><title>文創</title><circle class="cls-1" cx="256" cy="255.09" r="200"/><path class="cls-2" d="M185.48,123.81a4.43,4.43,0,0,0-1.12-.67,2.86,2.86,0,0,0-1.08-.22,1.76,1.76,0,0,0-1.09.32,1,1,0,0,0-.41.82.8.8,0,0,0,.21.57,1.7,1.7,0,0,0,.55.4,4.47,4.47,0,0,0,.76.28c.29.09.57.17.85.27a5.21,5.21,0,0,1,2.45,1.49,3.66,3.66,0,0,1,.78,2.44,4.7,4.7,0,0,1-.34,1.83,3.92,3.92,0,0,1-1,1.41,4.58,4.58,0,0,1-1.61.9,6.58,6.58,0,0,1-2.16.33,8,8,0,0,1-4.63-1.49l1.47-2.76a6,6,0,0,0,1.52,1,3.68,3.68,0,0,0,1.48.33,1.75,1.75,0,0,0,1.25-.39,1.19,1.19,0,0,0,.31-1.38,1.2,1.2,0,0,0-.35-.41,3.13,3.13,0,0,0-.64-.34l-.95-.35c-.44-.14-.88-.29-1.3-.46a4.18,4.18,0,0,1-1.14-.67,3.06,3.06,0,0,1-.8-1.06,3.75,3.75,0,0,1-.31-1.61,4.59,4.59,0,0,1,.33-1.78,3.87,3.87,0,0,1,.91-1.36,4,4,0,0,1,1.43-.88,5.39,5.39,0,0,1,1.89-.32,8.32,8.32,0,0,1,2.05.27,9.4,9.4,0,0,1,2,.8Z"/><path class="cls-2" d="M200.81,120.44v13.17h-3.42V120.44Z"/><path class="cls-2" d="M216.43,123.34v10.27H213V123.34h-2.82v-2.9h9.05v2.9Z"/><path class="cls-2" d="M238,124.84a3.67,3.67,0,0,0-2.93-1.45,3.76,3.76,0,0,0-1.43.28,3.52,3.52,0,0,0-1.12.76,3.35,3.35,0,0,0-.74,1.15,3.75,3.75,0,0,0-.27,1.43,3.82,3.82,0,0,0,.27,1.45,3.58,3.58,0,0,0,.75,1.15,3.5,3.5,0,0,0,1.12.77,3.43,3.43,0,0,0,1.4.28,4,4,0,0,0,2.95-1.4v4.05l-.35.13a11.31,11.31,0,0,1-1.46.41,7.9,7.9,0,0,1-1.35.13,6.9,6.9,0,0,1-4.81-2,7.15,7.15,0,0,1-1.53-2.22,7.08,7.08,0,0,1,0-5.59A7.06,7.06,0,0,1,230,122a7,7,0,0,1,4.85-2,7.2,7.2,0,0,1,1.54.17,8.73,8.73,0,0,1,1.6.52Z"/><path class="cls-2" d="M247.61,127a6.94,6.94,0,0,1,.54-2.74,6.87,6.87,0,0,1,1.5-2.21,6.77,6.77,0,0,1,2.3-1.47,8.25,8.25,0,0,1,5.87,0,6.71,6.71,0,0,1,3.83,3.68,6.94,6.94,0,0,1-1.51,7.68,6.86,6.86,0,0,1-2.32,1.47,8.25,8.25,0,0,1-5.87,0,6.77,6.77,0,0,1-2.3-1.47,6.85,6.85,0,0,1-2-4.94Zm3.58,0a3.68,3.68,0,0,0,.29,1.45,3.78,3.78,0,0,0,4.83,1.91,3.78,3.78,0,0,0,1.19-.76,3.74,3.74,0,0,0,.81-1.15,3.52,3.52,0,0,0,.3-1.45,3.45,3.45,0,0,0-.3-1.45,3.67,3.67,0,0,0-.81-1.16,3.78,3.78,0,0,0-1.19-.76,3.78,3.78,0,0,0-4,.76,3.67,3.67,0,0,0-.81,1.16A3.61,3.61,0,0,0,251.19,127Z"/><path class="cls-2" d="M272.22,133.61V120.44h3.42l6.32,8.05v-8.05h3.41v13.17H282l-6.32-8.05v8.05Z"/><path class="cls-2" d="M297.53,120.44h3l-3.21,5.8h-2Z"/><path class="cls-2" d="M320.39,133.61h-10.6l3.26-3.39a29.7,29.7,0,0,0,2-2.28,12.39,12.39,0,0,0,1.09-1.58,4.18,4.18,0,0,0,.45-1,3.75,3.75,0,0,0,.08-.68,1.79,1.79,0,0,0-.09-.57,1.46,1.46,0,0,0-.29-.5,1.38,1.38,0,0,0-1.1-.48,1.36,1.36,0,0,0-1.09.45,1.65,1.65,0,0,0-.4,1.14,3.82,3.82,0,0,0,.06.56h-3.74a5.65,5.65,0,0,1,.37-2.1,4.75,4.75,0,0,1,1.06-1.62,4.45,4.45,0,0,1,1.62-1.05,5.42,5.42,0,0,1,2-.37,5.81,5.81,0,0,1,2,.35,4.72,4.72,0,0,1,1.62,1,4.62,4.62,0,0,1,1,5.37,7,7,0,0,1-1.48,1.88l-2.18,2h4.26Z"/><path class="cls-2" d="M332.67,123.34h-1.92v-2.9h5.34v13.17h-3.42Z"/><path d="M174.24,279.9c-16.33-5.19-30.36-16.38-40.2-30.29-11-15.5-16.81-34.2-18.65-53-.24-2.43-.73-5.15-.31-7.57a3.5,3.5,0,0,1,1.64-2.67,1.51,1.51,0,0,1,2.07.27c1.08,1.67-.32,4.86-.91,6.48a29.32,29.32,0,0,1-3.85,7.14l2.8.76,1.59-13.66c.22-1.91-2.78-1.9-3,0L113.83,201c-.19,1.64,2,1.82,2.8.76a32.93,32.93,0,0,0,3.76-6.86,18.44,18.44,0,0,0,1.7-6.94c0-2.14-1.12-4.26-3.35-4.79a5.43,5.43,0,0,0-5.31,2.14c-1.45,1.9-1.54,4.43-1.41,6.72.15,2.61.41,5.23.73,7.83a133,133,0,0,0,2.92,16c4.89,19.53,14.84,37.94,30.16,51.23a78.6,78.6,0,0,0,27.61,15.69c1.84.58,2.63-2.31.8-2.89Z"/><path d="M313.66,378.84q-.11,6.77.08,13.53c.1,3.77.35,8.05,4,10.19a2.87,2.87,0,0,0,4.18-1.7,38.07,38.07,0,0,0-1.69-21.36,2.93,2.93,0,0,0-3.5-2,2.85,2.85,0,0,0-2,3.49,32.69,32.69,0,0,1,1.69,18.35l4.17-1.7c-.28-.19-.32-.2-.1,0l-.38-.39c.32.41-.09-.23-.14-.33.21.42-.17-.52-.2-.65s-.13-.57-.18-.85c.08.46-.06-.61-.06-.71,0-.29,0-.58-.05-.87,0-1-.06-2.08-.08-3.12q-.13-5.94,0-11.87C319.4,375.19,313.72,375.18,313.66,378.84Z"/><path d="M274.05,309.33c-2.59,14.6,1.45,29.55,9.62,41.76,8.05,12,19.45,21.28,31.67,28.83,3.12,1.92,6-3,2.87-4.91-21.84-13.48-43.64-36.21-38.68-64.17C280.16,307.26,274.69,305.73,274.05,309.33Z"/><path d="M252.05,377.47a26.37,26.37,0,0,0-3.3,16.12c.22,1.73.42,3.46,1.9,4.6a4.17,4.17,0,0,0,5.34-.42,6.15,6.15,0,0,0,1.61-4.48c.07-1.5.13-3,.19-4.52.15-3.47.29-6.95.44-10.43a2.84,2.84,0,0,0-5.68,0q-.2,4.7-.4,9.39l-.18,4.52c0,.39,0,.79-.05,1.18l0,.42c.05-.29,0-.27,0,.07s-.11.35-.06.17a.85.85,0,0,1,.56-.64,1.38,1.38,0,0,1,.6-.13,1.63,1.63,0,0,1,1.58.95c.08.19.07.14,0-.14s-.07-.36-.1-.55c-.11-.57,0,.19-.06-.44s-.12-1.4-.13-2.1,0-1.21,0-1.81c0-.41.07-.81.11-1.21.05-.57,0,.18.06-.44a26,26,0,0,1,.94-3.8,16.72,16.72,0,0,1,1.57-3.45,2.84,2.84,0,0,0-4.91-2.86Z"/><path d="M225.73,341.84c-1.6,7.7,2.35,14.47,7.31,20,5.67,6.36,12.31,12,18.5,17.82,2.65,2.51,6.68-1.5,4-4-5.65-5.36-11.54-10.54-16.94-16.16-4.05-4.21-8.7-9.9-7.4-16.18C232,339.78,226.48,338.26,225.73,341.84Z"/><polygon class="cls-3" points="197.77 180.92 134.72 266.11 188.92 356.66 334.53 359.31 391.58 268.52 325.69 180.85 197.77 180.92"/><path class="cls-4" d="M275.88,184.51l-36.09-4.21c-4.28-.5-9.44-1.7-10.69-5.83-1.16-3.85,2.06-7.68,5.54-9.7,8-4.68,18.05-4.31,27.12-2.26,1.26.29,2.74.56,3.75-.27s1-2,1.11-3.1a13.13,13.13,0,0,1,1.76-6.1c1.19-1.78,3.42-3,5.48-2.47s3.41,2.82,3.56,5a15.89,15.89,0,0,1-1.34,6.36l10.33,2.63c4.17,1.06,8.44,2.17,11.93,4.67s6.09,6.75,5.37,11a4.94,4.94,0,0,1-2.16,3.57,6.35,6.35,0,0,1-2.23.63,75,75,0,0,1-22.83,0"/><path d="M275.88,183l-26.95-3.14a118.66,118.66,0,0,1-12-1.56c-2.56-.57-5.81-1.69-6.44-4.6-.76-3.49,2.8-6.48,5.49-8a27,27,0,0,1,10.83-3.07,45.05,45.05,0,0,1,11.3.62c3,.52,7.59,2.41,9.4-1.23.86-1.73.64-3.86,1.11-5.71s1.56-3.88,3.61-4.35c1.77-.4,3.07,1,3.53,2.59.68,2.3-.32,4.78-1.08,6.93a1.5,1.5,0,0,0,1,1.84c4.14,1.06,8.29,2.07,12.42,3.18,3.65,1,7.53,2.15,10.41,4.73,2.46,2.2,4.49,5.67,3.64,9.07-.5,2-1.81,2.42-3.71,2.7-2.2.32-4.42.53-6.64.64a74.38,74.38,0,0,1-14.91-.74c-1.89-.29-2.7,2.6-.8,2.89a77.62,77.62,0,0,0,15.23.87c2.57-.11,5.13-.37,7.67-.73,2.07-.3,3.93-.81,5.13-2.65,2.24-3.43,1.15-8.19-1-11.35-2.52-3.65-6.36-5.8-10.47-7.21-5.24-1.81-10.77-2.92-16.14-4.29l1,1.85c1.36-3.81,2.53-8.68-.86-11.84-3-2.81-7.47-1.38-9.58,1.79a13.87,13.87,0,0,0-1.9,6.22c-.08.69,0,1.95-.54,2.49s-1.8.22-2.5.07a57,57,0,0,0-12.88-1.49A33,33,0,0,0,236.84,162c-3.67,1.56-7.3,4-8.86,7.84a7.59,7.59,0,0,0,2.91,9.28c3,2.08,6.86,2.44,10.38,2.85l34.61,4c1.91.23,1.9-2.77,0-3Z"/><polygon class="cls-5" points="131.22 136.28 128.32 157.55 134.14 174.51 150.45 170.22 146.21 152.37 131.22 136.28"/><path class="cls-6" d="M146.21,152.37a12.4,12.4,0,0,1-17.88,5.18h0L146,209.1a6.72,6.72,0,0,0,8.09,4.36l.14,0,.07,0a6.7,6.7,0,0,0,4.51-8l-12.59-53Z"/><path class="cls-7" d="M131.22,136.28,130,145c.41.73,5.46,1.59,6.72-1.51"/><line class="cls-7" x1="131.22" y1="136.28" x2="136.76" y2="143.48"/><ellipse class="cls-5" cx="262.92" cy="233.22" rx="14.33" ry="21.08"/><ellipse cx="262.92" cy="233.22" rx="7.03" ry="11.28"/><ellipse class="cls-5" cx="225.37" cy="232.97" rx="14.33" ry="21.08"/><ellipse cx="225.37" cy="232.97" rx="7.03" ry="11.28"/><path class="cls-8" d="M134.71,266.11c39.63.62,75.92,5.31,115.55,5.93,43.85.69,97.36-2.53,141.21-1.84"/><path class="cls-9" d="M332.9,325.61c-5.93,6-8.71,14.41-9.8,22.74a33.89,33.89,0,0,0,.13,11.5,16.66,16.66,0,0,0,5.75,9.76c2.16,1.67,5.1,2.63,7.65,1.67a6.06,6.06,0,0,0,2.45-9c-2-2.49-5.84-3.12-7.41-5.9a8.78,8.78,0,0,1-.82-4.43c0-5.94,2.18-13.6,4.41-19.11"/><path d="M331.84,324.54c-5.11,5.22-8,12.1-9.48,19.18-1.52,7.39-2.26,15.89,1.8,22.63a14,14,0,0,0,7.91,6.48,7.43,7.43,0,0,0,8.35-2.83,7.69,7.69,0,0,0,.38-7.89c-1.58-2.75-4.76-3.41-7-5.44-1.51-1.4-1.53-3.39-1.48-5.32a38.32,38.32,0,0,1,.72-6,67.21,67.21,0,0,1,3.62-12.11c.72-1.79-2.18-2.57-2.89-.79-2.43,6.06-4.36,12.73-4.46,19.31-.05,3.32.78,6,3.56,8,1.92,1.37,4.94,2.25,5.66,4.76a4.58,4.58,0,0,1-2.71,5.47c-3,1-6.21-1.32-8-3.55-4.51-5.55-4.08-13.46-2.94-20.08,1.24-7.21,3.85-14.35,9-19.66,1.35-1.38-.77-3.51-2.12-2.13Z"/><path class="cls-2" d="M366.48,285.49l16.62,2.35a96.54,96.54,0,0,0-12.52,35.26,13.41,13.41,0,0,0-.06,5c.52,2.14,2,3.91,3,5.87s1.57,4.48.28,6.27-4.06,2-6,1A8.86,8.86,0,0,1,364,336a1.1,1.1,0,0,0-.28-.52,1,1,0,0,0-.65-.15l-9.71.06c1.24,1.23,2.56,2.61,2.75,4.36.24,2.17-1.47,4.21-3.54,4.91a9.55,9.55,0,0,1-6.39-.5,18.27,18.27,0,0,1-10.91-12.29,28.7,28.7,0,0,1-.55-8.92,70.13,70.13,0,0,1,14.34-38.07l17.43.58"/><path d="M366.08,286.93l16.62,2.35-.9-2.2a98.74,98.74,0,0,0-11.74,30.32,53,53,0,0,0-1.24,8,12.53,12.53,0,0,0,2.26,7.4c1,1.71,2.74,4.21,1.7,6.29s-3.73,1.46-5.1.27a7.65,7.65,0,0,1-2-3c-.48-1.22-.79-2.26-2.28-2.45a37,37,0,0,0-4.71,0l-5.34,0a1.51,1.51,0,0,0-1.06,2.56c1.6,1.6,3.41,3.73,1.37,5.79s-5,1.33-7.25.41a16.76,16.76,0,0,1-9.27-9.76c-1.79-5.11-1.08-11.07-.21-16.31a68.75,68.75,0,0,1,13.41-30.94l-1.29.74,17.43.58c1.93.06,1.93-2.94,0-3l-11.89-.4c-1.76-.06-3.55-.2-5.32-.17-1.44,0-2.15,1.55-2.91,2.61a68.87,68.87,0,0,0-3.8,5.9,71.91,71.91,0,0,0-8.84,26c-.65,4.82-1.13,10,.19,14.74a19.62,19.62,0,0,0,6.57,9.91c3.56,2.86,9,5.38,13.51,3.13a6.5,6.5,0,0,0,3.62-5.2c.15-2.52-1.54-4.48-3.2-6.14l-1.06,2.56,5.1,0h2.42a7.1,7.1,0,0,1,2.44.08l-.9-.69a23.5,23.5,0,0,1,1.23,2.74,9.42,9.42,0,0,0,2.06,2.59,7,7,0,0,0,5.55,1.73,5.44,5.44,0,0,0,4.5-3.59,8.26,8.26,0,0,0-.76-6.15c-1-2.09-2.74-3.94-3.11-6.29-.41-2.58.37-5.48.86-8a96.08,96.08,0,0,1,4.13-14.89,94.68,94.68,0,0,1,7.52-15.82,1.51,1.51,0,0,0-.89-2.2L366.88,284a1.55,1.55,0,0,0-1.84,1,1.49,1.49,0,0,0,1,1.84Z"/><path d="M392.06,272.05c5.25,5.05,2.71,12.94-1.65,17.6-4.92,5.26-11.81,8.12-18.6,10.08-7.18,2.07-15.32,4-22.57,1.17-3.33-1.28-6.23-3.63-9.81-4.24-1.63-.28-7.37.08-6.53-3,.77-2.87,5.14,1.21,6,2.11,1.78,1.94,3.14,4.37,5.25,6,1.54,1.17,3-1.44,1.52-2.59a15,15,0,0,1-2.31-2.67,37.16,37.16,0,0,0-3-3.51c-2-2-5.49-4.38-8.38-2.69s-2.53,6.06.12,7.87c1.5,1,3.39,1.13,5.14,1.26a15,15,0,0,1,5.83,1.77,51.46,51.46,0,0,0,5.6,2.7,23.61,23.61,0,0,0,6.38,1.32,43,43,0,0,0,13.45-1.47c8.16-2,16.55-4.87,22.8-10.69,3.21-3,5.88-6.91,6.55-11.31a13.44,13.44,0,0,0-3.64-11.79c-1.39-1.34-3.51.78-2.12,2.12Z"/><path d="M333.83,295.67l.18,0c.21-.05,0,0-.11,0l.42,0,.38,0c.18,0-.38-.07-.07,0l.18,0c.13,0,.25.07.37.1s0,0-.1,0l.22.1.31.18.15.1c.15.1-.3-.24-.06,0,.85.72,1.55,1.58,2.45,2.25l1.51-2.59c-.94-.62-1.77-1.4-2.76-2a5.75,5.75,0,0,0-4-.73l1.9,1.45a1.48,1.48,0,0,0,0-.21c0-.27,0,0,0,.1s0-.14.05-.2,0-.05,0,.07a.57.57,0,0,1-.18.28c.13-.14-.15.1-.16.11-.25.1-.32.13-.21.1s.05,0-.1,0a.72.72,0,0,1-.41,0l.06,0-.25-.1c-.38-.47-.51-.59-.4-.36a1.51,1.51,0,0,0,2.06.54,1.54,1.54,0,0,0,.53-2.05,1.87,1.87,0,0,0-1.2-.94,2.15,2.15,0,0,0-1.59.22,2.74,2.74,0,0,0-1.17,2.44,1.53,1.53,0,0,0,1.9,1.45l.19,0c-.24,0-.28,0-.11,0h.38l.19,0c-.24,0-.28,0-.12,0s.26.05.38.09.25.08.37.12c.28.09-.28-.14,0,0a5.7,5.7,0,0,1,.69.37c.88.54,1.65,1.23,2.51,1.8a1.51,1.51,0,0,0,2.05-.54,1.47,1.47,0,0,0,.15-1.16,1.64,1.64,0,0,0-.69-.89c.1.07.24.18.06,0l-.13-.12-.3-.27-.6-.61a9.85,9.85,0,0,0-1.46-1.27,5.23,5.23,0,0,0-4.2-.72,1.52,1.52,0,0,0-1,1.84,1.53,1.53,0,0,0,1.85,1.05Z"/><path class="cls-9" d="M352.13,296.75a8.88,8.88,0,0,1,5.59,5.87c.25.88.36,1.8.61,2.69a6.26,6.26,0,0,0,2.39,3.64,3.78,3.78,0,0,0,4.19.11,4.43,4.43,0,0,0,1.54-2.5c.91-3.5-.81-7.1-2.47-10.31"/><path d="M351.73,298.2a7.42,7.42,0,0,1,4.21,3.89,18.66,18.66,0,0,1,.88,3.38,8.78,8.78,0,0,0,1.48,3.19,5.64,5.64,0,0,0,6.82,2c2.33-1.09,3.14-4,3.08-6.36-.08-3.15-1.51-6.07-2.93-8.81-.88-1.71-3.47-.2-2.59,1.51a20.44,20.44,0,0,1,2.46,6.44c.19,1.41.12,4.09-1.57,4.62s-3.07-1.1-3.59-2.51c-.39-1-.49-2.15-.78-3.21a10.42,10.42,0,0,0-1.23-2.77,10.74,10.74,0,0,0-5.44-4.27,1.5,1.5,0,1,0-.8,2.9Z"/><path class="cls-9" d="M375.13,297.31a8.88,8.88,0,0,1,5.6,5.86c.25.89.36,1.81.61,2.7a6.29,6.29,0,0,0,2.39,3.64,3.78,3.78,0,0,0,4.19.1,4.34,4.34,0,0,0,1.53-2.49c.92-3.51-2-15.1-8.88-17.26"/><path d="M374.74,298.75a7.46,7.46,0,0,1,3.9,3.31c1,1.7.95,3.73,1.72,5.51a6.66,6.66,0,0,0,4.05,3.89,4.93,4.93,0,0,0,5.44-1.7c1.55-2.08,1.39-4.73,1-7.15a24,24,0,0,0-2.83-7.95,13.08,13.08,0,0,0-7-6.25c-1.84-.6-2.63,2.3-.8,2.9,4.36,1.42,6.58,6.72,7.52,10.82a14.53,14.53,0,0,1,.41,2.83c0,.41,0,.8,0,1.2a1.23,1.23,0,0,1,0,.2c0,.24.05-.24,0,0a5.17,5.17,0,0,1-.16.68,2.11,2.11,0,0,1-3.31,1.28c-1.43-.91-1.82-2.62-2.14-4.17a10.72,10.72,0,0,0-7-8.26c-1.82-.65-2.6,2.24-.79,2.89Z"/><path class="cls-9" d="M378.76,254.69a21.86,21.86,0,0,1,9-5.62.74.74,0,0,1,.46,0c.24.07.35.33.42.56a14,14,0,0,1-2,12.42"/><path d="M379.82,255.75a20.67,20.67,0,0,1,3.93-3.18,21.45,21.45,0,0,1,2.26-1.23c.33-.15.67-.3,1-.43a3.61,3.61,0,0,1,1.16-.39l-.75-.21a.71.71,0,0,1-.27-.33l.12.4c.08.26.15.53.21.8a11.64,11.64,0,0,1,.22,1.44,13.49,13.49,0,0,1-.06,2.91,12.85,12.85,0,0,1-2.33,5.72,1.51,1.51,0,0,0,.54,2.05,1.54,1.54,0,0,0,2.05-.54,15.37,15.37,0,0,0,2.78-10.35c-.16-1.64-.4-4.86-2.62-4.9a7.78,7.78,0,0,0-2.9.94,20.55,20.55,0,0,0-2.48,1.25,24,24,0,0,0-5,3.92c-1.34,1.39.77,3.51,2.12,2.13Z"/><path class="cls-9" d="M348.57,259.11a40.23,40.23,0,0,1,.52-9.5,7.25,7.25,0,0,1,2.17-4.36,2.29,2.29,0,0,1,1.11-.53,2.83,2.83,0,0,1,1.34.27,15.33,15.33,0,0,1,8.28,7.94"/><path d="M350.07,259.11a44.69,44.69,0,0,1,.23-7.76,15.09,15.09,0,0,1,.75-3.24c.22-.55.79-1.81,1.49-1.91a2.31,2.31,0,0,1,1,.32,11.34,11.34,0,0,1,1.21.6,13.79,13.79,0,0,1,2.35,1.65,14.52,14.52,0,0,1,3.62,4.92,1.5,1.5,0,0,0,2.05.54,1.54,1.54,0,0,0,.54-2,16.66,16.66,0,0,0-8-8.14,5.41,5.41,0,0,0-3.29-.76,4.44,4.44,0,0,0-2.52,1.67,12,12,0,0,0-2.11,6.07,46.49,46.49,0,0,0-.28,8.09c.07,1.92,3.07,1.93,3,0Z"/><path class="cls-2" d="M382.91,288.66c-4.67,3.74-14.21,4.07-21.4,2.93s-14.18-5.47-16.94-12.2c-3.15-7.66,0-17.09,6.58-22.17s15.73-6,23.62-3.49a22.53,22.53,0,0,1,10.52,6.68,19.61,19.61,0,0,1,4.2,14.68c-1.13,10-2.43,9.2-6.58,13.57"/><path d="M381.85,287.6c-3.19,2.47-7.85,2.95-11.74,3A34.7,34.7,0,0,1,357,288.84a19.63,19.63,0,0,1-9.87-7.8A15.84,15.84,0,0,1,345.34,269c2.23-9.19,10.65-14.73,19.83-15.06,9.47-.33,19.83,4.4,22.36,14.2a21.44,21.44,0,0,1,.33,8.1,25.22,25.22,0,0,1-1.21,5.82c-.88,2.33-3,3.77-4.8,5.59-1.33,1.4.78,3.52,2.12,2.13,1.86-1.94,4.13-3.57,5.24-6.09a21.08,21.08,0,0,0,1.36-5.3,29.54,29.54,0,0,0,.39-8.07,20.3,20.3,0,0,0-7.85-13.95A28.14,28.14,0,0,0,368.28,251c-10.36-.8-20.77,4.24-24.83,14.12a19.8,19.8,0,0,0-.53,14.21A20.88,20.88,0,0,0,352.48,290c4.92,2.74,10.53,3.59,16.09,3.63,5.27,0,11.11-.62,15.4-3.94a1.51,1.51,0,0,0,0-2.13,1.55,1.55,0,0,0-2.12,0Z"/><path d="M371.23,272.47v1.83a.8.8,0,1,0,1.6,0v-1.83a.8.8,0,0,0-1.6,0"/><path d="M368.23,276.16l4-1.08a.8.8,0,1,0-.41-1.55l-4,1.08a.8.8,0,0,0,.42,1.55"/><path d="M375.41,274.56l-3.14-1a.81.81,0,0,0-1,.52.8.8,0,0,0,.52,1l3.13,1a.8.8,0,0,0,.5-1.52"/><ellipse cx="372.03" cy="271.36" rx="1.74" ry="1.1"/><path d="M378.28,272.78c3.09,0,3.09-4.8,0-4.8S375.18,272.78,378.28,272.78Z"/><path d="M365,273.05c3.09,0,3.1-4.8,0-4.8S361.93,273.05,365,273.05Z"/></svg>