<svg xmlns="http://www.w3.org/2000/svg" width="186" height="186" viewBox="0 0 186 186"><defs><style>.a{fill:#2368ff;}.b{fill:#fbb03b;}.c,.d,.f,.h{fill:#fff;}.d,.e,.f,.g,.h,.i,.j,.k{stroke:#000;}.d,.e,.f,.g,.h,.j,.k{stroke-linecap:round;stroke-linejoin:round;}.d{stroke-width:4px;}.e{fill:#5fe6ff;}.e,.f,.g{stroke-width:3px;}.g,.i,.j{fill:none;}.h{stroke-width:2px;}.i{stroke-miterlimit:10;}</style></defs><g transform="translate(-87.99 -355.693)"><path class="a" d="M87.99,448.693a93,93,0,1,1,93,93,93,93,0,0,1-93-93"/><path class="b" d="M145.792,460.141l-6.925-8.841,3-2.462,6.618,8.136Z" transform="translate(-13.025 -23.845)"/><path class="c" d="M138.867,446.3l.932,5.246,3-2.462Z" transform="translate(-13.025 -23.196)"/><path class="d" d="M168.292,428l-31.907,37.56,22.331,43.7,67.472,5.763,29.294-40.347-27.837-42.727Z" transform="translate(-12.389 -18.51)"/><path class="e" d="M132.947,500.242l44.966-4.986,9.1,15.352,6.657,11.231-48.1,4.122Z" transform="translate(-11.509 -35.728)"/><ellipse class="f" cx="5.348" cy="9.803" rx="5.348" ry="9.803" transform="translate(148.854 434.293) rotate(-10.523)"/><ellipse cx="2.742" cy="5.795" rx="2.742" ry="5.795" transform="matrix(0.973, -0.232, 0.232, 0.973, 151.954, 438.217)"/><ellipse class="f" cx="5.348" cy="9.803" rx="5.348" ry="9.803" transform="translate(169.919 434.153) rotate(-10.523)"/><ellipse cx="2.742" cy="5.795" rx="2.742" ry="5.795" transform="matrix(0.973, -0.232, 0.232, 0.973, 173.019, 438.077)"/><path class="e" d="M229.434,517.638l-17.161,9.484-6.657-11.231Z" transform="translate(-30.112 -41.011)"/><path class="g" d="M142.35,448.838l6.618,8.136-2.691,3.168-6.925-8.841" transform="translate(-13.149 -23.845)"/><path class="g" d="M142.03,447.88,138.1,445.1l.932,5.246" transform="translate(-12.828 -22.887)"/><path class="f" d="M143.382,448.838" transform="translate(-14.18 -23.845)"/><path class="f" d="M139.352,452.147" transform="translate(-13.149 -24.692)"/><line class="h" x2="1.276" y2="1.713" transform="translate(123.996 420.496)"/><line class="g" x2="21.719" y2="1.336" transform="translate(123.996 447.048)"/><line class="g" x1="50.876" y1="4.406" transform="translate(192.217 451.758)"/><path class="g" d="M177.238,489.061a11.509,11.509,0,0,1-8.738-2.323,8.154,8.154,0,0,1-2.986-4.645c-.044-.219-.78-4.027,1.77-6.636a7.106,7.106,0,0,1,3.107-1.807,8.892,8.892,0,0,1,3.64-.184,11.421,11.421,0,0,1,5.309,1.438A6.774,6.774,0,0,1,181,485.522" transform="translate(-19.812 -30.125)"/><path class="i" d="M189.58,483.467a4.22,4.22,0,0,1,5.53.134" transform="translate(-26.007 -32.463)"/><path class="g" d="M206.185,491.092a9.343,9.343,0,0,1-5.627-2.274,9.525,9.525,0,0,1-2.993-5.507,7.936,7.936,0,0,1,.12-4.31,8.494,8.494,0,0,1,4.788-4.693,10.713,10.713,0,0,1,5.382-.871c1.631.118,4.657.335,6.831,2.811a8.628,8.628,0,0,1,1.915,6.585,9.01,9.01,0,0,1-6,7.063" transform="translate(-27.989 -30.131)"/><path class="j" d="M139.8,518.878a3.7,3.7,0,0,0-1.022,1.773,1.451,1.451,0,0,0,.075,1.088,1.525,1.525,0,0,0,1.337.568,4.708,4.708,0,0,0,3.9-2.071c.156-.237.28-.583.073-.777a.631.631,0,0,0-.555-.077,6.253,6.253,0,0,0-2.713,1.251" transform="translate(-12.983 -41.776)"/><path class="j" d="M221.031,516.887a6.952,6.952,0,0,0-2.675.272,2.368,2.368,0,0,0-1.624,1.972,2.087,2.087,0,0,0,2.135-.142c.652-.375,1.2-.92,1.859-1.272a6.906,6.906,0,0,1,2.689-.625c9.025-.757,18.037,1.186,27.082,1.678a33.706,33.706,0,0,0,10.071-.666,15.377,15.377,0,0,0,8.484-5.189,12.2,12.2,0,0,0,1.725-11.583" transform="translate(-32.958 -37.283)"/><path class="j" d="M218.923,542.73q-8.7,7.408-17.717,14.431" transform="translate(-28.983 -47.882)"/><path class="k" d="M198.987,559.242a3.615,3.615,0,0,1-1.99-.648c-1.754-.987-3.633-2.111-4.373-3.982a2.552,2.552,0,0,1-.052-2.008,2.164,2.164,0,0,1,2.059-1.12,3.555,3.555,0,0,1,2.2,1.045c1.717,1.623,2.146,4.151,2.479,6.49" transform="translate(-26.726 -50.122)"/><path class="j" d="M171.627,539.448a113.113,113.113,0,0,0-15.279,11.478" transform="translate(-17.5 -47.041)"/><path class="k" d="M153,552.511a11.27,11.27,0,0,1-6.29-2.783,5.277,5.277,0,0,1-1.271-1.561,2.6,2.6,0,0,1-.191-1.963,2.5,2.5,0,0,1,2.457-1.535,3.952,3.952,0,0,1,2.683,1.392,9.908,9.908,0,0,1,1.584,2.654q.85,1.893,1.516,3.861" transform="translate(-14.628 -48.378)"/><g transform="translate(141.826 395.464)"><path class="c" d="M163.989,410.887a1.972,1.972,0,0,0-.52-.312,1.383,1.383,0,0,0-.5-.1.817.817,0,0,0-.5.147.457.457,0,0,0-.195.382.38.38,0,0,0,.1.268.849.849,0,0,0,.256.183,2.2,2.2,0,0,0,.358.134q.2.057.394.121a2.459,2.459,0,0,1,1.141.695,1.716,1.716,0,0,1,.362,1.133,2.218,2.218,0,0,1-.158.853,1.783,1.783,0,0,1-.464.654,2.123,2.123,0,0,1-.747.422,3.105,3.105,0,0,1-1,.15,3.687,3.687,0,0,1-2.152-.69l.682-1.283a2.776,2.776,0,0,0,.707.471,1.7,1.7,0,0,0,.69.154.824.824,0,0,0,.58-.179.552.552,0,0,0,.142-.646.516.516,0,0,0-.162-.187,1.332,1.332,0,0,0-.3-.158c-.121-.048-.269-.1-.442-.162-.206-.065-.408-.137-.606-.215a1.9,1.9,0,0,1-.527-.313,1.454,1.454,0,0,1-.374-.491,1.742,1.742,0,0,1-.142-.751,2.18,2.18,0,0,1,.15-.824,1.83,1.83,0,0,1,.423-.633,1.879,1.879,0,0,1,.666-.411,2.519,2.519,0,0,1,.882-.146,3.851,3.851,0,0,1,.95.126,4.179,4.179,0,0,1,.95.37Z" transform="translate(-160.35 -409.149)"/><path class="c" d="M174.277,409.378V415.5h-1.591v-6.124Z" transform="translate(-163.508 -409.208)"/><path class="c" d="M183.587,410.726V415.5h-1.592v-4.776h-1.308v-1.348h4.207v1.348Z" transform="translate(-165.556 -409.208)"/><path class="c" d="M196.443,411.366a1.7,1.7,0,0,0-1.365-.674,1.674,1.674,0,0,0-.662.129,1.614,1.614,0,0,0-.524.353,1.633,1.633,0,0,0-.345.532,1.748,1.748,0,0,0-.126.667,1.768,1.768,0,0,0,.126.674,1.623,1.623,0,0,0,1.523,1.023,1.844,1.844,0,0,0,1.373-.65v1.885l-.163.057a4.789,4.789,0,0,1-.681.191,3.35,3.35,0,0,1-.626.06,3.2,3.2,0,0,1-2.238-.914,3.354,3.354,0,0,1-.711-1.031,3.309,3.309,0,0,1,0-2.6,3.234,3.234,0,0,1,2.96-1.92,3.323,3.323,0,0,1,.719.077,4.406,4.406,0,0,1,.743.239Z" transform="translate(-168.39 -409.149)"/><path class="c" d="M204.071,412.382a3.2,3.2,0,0,1,.251-1.271,3.14,3.14,0,0,1,1.766-1.713,3.891,3.891,0,0,1,2.733,0,3.225,3.225,0,0,1,1.077.686,3.151,3.151,0,0,1,.7,1.027,3.338,3.338,0,0,1,0,2.542,3.144,3.144,0,0,1-.7,1.027,3.213,3.213,0,0,1-1.077.686,3.891,3.891,0,0,1-2.733,0,3.166,3.166,0,0,1-2.018-2.984Zm1.665,0a1.63,1.63,0,0,0,.138.674,1.713,1.713,0,0,0,.373.536,1.69,1.69,0,0,0,.548.353,1.8,1.8,0,0,0,1.324,0,1.734,1.734,0,0,0,.553-.353,1.688,1.688,0,0,0,.377-.536,1.713,1.713,0,0,0,0-1.349,1.688,1.688,0,0,0-.377-.536,1.734,1.734,0,0,0-.553-.353,1.8,1.8,0,0,0-1.324,0,1.69,1.69,0,0,0-.548.353,1.713,1.713,0,0,0-.373.536A1.631,1.631,0,0,0,205.736,412.382Z" transform="translate(-171.543 -409.149)"/><path class="c" d="M219.452,415.5v-6.124h1.591l2.94,3.745v-3.745h1.584V415.5h-1.584l-2.94-3.744V415.5Z" transform="translate(-175.48 -409.208)"/><path class="c" d="M234.91,409.378H236.3l-1.495,2.7h-.942Z" transform="translate(-179.169 -409.208)"/><path class="c" d="M247.863,415.446h-4.93l1.518-1.576q.6-.625.943-1.059a5.916,5.916,0,0,0,.507-.735,1.96,1.96,0,0,0,.208-.487,1.55,1.55,0,0,0,.04-.317A.816.816,0,0,0,246.1,411a.656.656,0,0,0-.646-.455.636.636,0,0,0-.507.211.779.779,0,0,0-.183.528,1.98,1.98,0,0,0,.025.26h-1.738a2.607,2.607,0,0,1,.175-.975,2.2,2.2,0,0,1,.491-.755,2.168,2.168,0,0,1,.751-.487,2.586,2.586,0,0,1,.954-.17,2.688,2.688,0,0,1,.946.162,2.269,2.269,0,0,1,.751.455,2.089,2.089,0,0,1,.5.695,2.124,2.124,0,0,1,.179.873,2.031,2.031,0,0,1-.215.93,3.278,3.278,0,0,1-.687.873l-1.015.95h1.981Z" transform="translate(-181.491 -409.152)"/><path class="c" d="M256.927,410.726h-.894v-1.348h2.486V415.5h-1.592Z" transform="translate(-184.845 -409.208)"/></g></g></svg>