<svg xmlns="http://www.w3.org/2000/svg" width="186.001" height="186.001" viewBox="0 0 186.001 186.001"><defs><style>.a{fill:#2368ff;}.b,.f,.i{fill:#fff;}.b,.c,.d,.f,.g,.h{stroke:#000;}.b,.c,.d,.e,.f,.g{stroke-linecap:round;stroke-linejoin:round;}.b{stroke-width:4px;}.c,.e{fill:none;}.e{stroke:#040000;}.e,.f,.g{stroke-width:3px;}.g{fill:#5fe6ff;}.h{stroke-miterlimit:10;}</style></defs><g transform="translate(-80.071 -77.108)"><path class="a" d="M80.071,170.108a93,93,0,1,1,93,93,93,93,0,0,1-93-93"/><path class="b" d="M156.244,148.766l-29.321,39.612,25.206,42.108,67.707,1.233L246.365,189.5,215.73,148.733Z" transform="translate(-11.994 -18.336)"/><path class="c" d="M176.365,258.322q-8.7,7.408-17.717,14.431" transform="translate(-20.115 -46.39)"/><path class="d" d="M156.429,274.834a3.611,3.611,0,0,1-1.989-.648c-1.754-.987-3.633-2.111-4.374-3.982a2.555,2.555,0,0,1-.052-2.008,2.164,2.164,0,0,1,2.059-1.12,3.557,3.557,0,0,1,2.2,1.045c1.718,1.623,2.146,4.151,2.479,6.49" transform="translate(-17.858 -48.631)"/><path class="c" d="M230.8,259.322q8.7,7.408,17.716,14.431" transform="translate(-38.585 -46.646)"/><path class="d" d="M254.446,275.834a3.611,3.611,0,0,0,1.99-.648c1.754-.987,3.633-2.111,4.373-3.982a2.555,2.555,0,0,0,.053-2.008,2.165,2.165,0,0,0-2.059-1.12,3.555,3.555,0,0,0-2.2,1.045c-1.718,1.623-2.146,4.151-2.479,6.49" transform="translate(-44.557 -48.887)"/><path class="e" d="M130.865,202.108c18.428.291,36.827,3.668,55.255,3.959,20.391.322,40.812-2.443,61.2-2.12" transform="translate(-13.003 -32)"/><ellipse class="f" cx="6.665" cy="9.803" rx="6.665" ry="9.803" transform="translate(158.997 149.45)"/><ellipse cx="3.267" cy="5.245" rx="3.267" ry="5.245" transform="translate(162.395 154.008)"/><ellipse class="f" cx="6.665" cy="9.803" rx="6.665" ry="9.803" transform="translate(176.459 149.567)"/><ellipse cx="3.267" cy="5.245" rx="3.267" ry="5.245" transform="translate(179.857 154.125)"/><circle class="g" cx="22.209" cy="22.209" r="22.209" transform="translate(153.882 164.405)"/><g transform="translate(167.807 172.197)"><path class="h" d="M206.9,220.243c3.562.3,5.713,1.16,6.241,3.385.664,2.823-1.066,4.984-3.631,5.843Zm-1.449-2.166c-4.264-.3-5.071-1.14-5.667-3.245-.718-2.541.853-4.556,3.251-5.3Zm-1.634-8.735c2.4-.51,4.323.15,5.9,3.013l.681-.193-1.678-4.274a21.314,21.314,0,0,0-5.159.556l-1-3.53-.775.219,1,3.53c-3.362,1.118-5.395,4.1-4.642,6.764.99,3.5,2.716,4.517,7.9,4.755l2.688,9.508c-3.388.79-5.8-.4-7.372-4.068l-.743.21L202.588,231a15.341,15.341,0,0,0,6.415-.376l.894,3.158.774-.219-.9-3.19c4.049-1.412,5.808-4.652,4.88-7.935-.859-3.034-3.237-4.233-8.339-4.3Z" transform="translate(-197.996 -204.915)"/></g><path class="c" d="M214.334,230.457a6.97,6.97,0,0,0-2.676.272,2.368,2.368,0,0,0-1.623,1.972,2.086,2.086,0,0,0,2.135-.141c.652-.375,1.195-.92,1.859-1.273a6.9,6.9,0,0,1,2.688-.625c9.025-.757,18.038,1.187,27.082,1.678a33.681,33.681,0,0,0,10.071-.666,15.379,15.379,0,0,0,8.485-5.189,12.2,12.2,0,0,0,1.725-11.583" transform="translate(-33.27 -35.275)"/><path class="c" d="M181.843,230.083c.9-.026,4.215-.252,5.059.068a2.365,2.365,0,0,1,1.623,1.972,2.087,2.087,0,0,1-2.135-.142c-.651-.375-1.195-.92-1.859-1.273a6.914,6.914,0,0,0-2.688-.624c-9.025-.757-18.038,1.186-27.082,1.678a33.706,33.706,0,0,1-10.071-.666,15.382,15.382,0,0,1-8.485-5.189,12.2,12.2,0,0,1-1.724-11.583" transform="translate(-13.736 -35.127)"/><g transform="translate(136.64 112.533)"><path class="i" d="M159.743,126.46a1.971,1.971,0,0,0-.52-.312,1.378,1.378,0,0,0-.5-.1.819.819,0,0,0-.5.146.457.457,0,0,0-.195.382.379.379,0,0,0,.1.268.849.849,0,0,0,.256.183,2.194,2.194,0,0,0,.358.134q.2.057.394.122a2.459,2.459,0,0,1,1.141.694,1.714,1.714,0,0,1,.362,1.133,2.2,2.2,0,0,1-.158.853,1.778,1.778,0,0,1-.463.654,2.139,2.139,0,0,1-.748.423,3.1,3.1,0,0,1-1,.15,3.687,3.687,0,0,1-2.152-.69l.682-1.283a2.756,2.756,0,0,0,.707.471,1.69,1.69,0,0,0,.69.155.82.82,0,0,0,.58-.179.551.551,0,0,0,.142-.645.51.51,0,0,0-.162-.187,1.281,1.281,0,0,0-.3-.158c-.122-.049-.27-.1-.443-.163q-.309-.1-.606-.215a1.9,1.9,0,0,1-.527-.312,1.445,1.445,0,0,1-.373-.492,1.727,1.727,0,0,1-.143-.751,2.163,2.163,0,0,1,.151-.824,1.821,1.821,0,0,1,.422-.634,1.888,1.888,0,0,1,.666-.41,2.519,2.519,0,0,1,.882-.147,3.887,3.887,0,0,1,.95.126,4.2,4.2,0,0,1,.95.37Z" transform="translate(-156.104 -124.722)"/><path class="i" d="M170.031,124.951v6.125H168.44v-6.125Z" transform="translate(-159.262 -124.781)"/><path class="i" d="M179.341,126.3v4.776h-1.592V126.3h-1.307v-1.349h4.207V126.3Z" transform="translate(-161.31 -124.781)"/><path class="i" d="M192.2,126.939a1.7,1.7,0,0,0-1.365-.673,1.677,1.677,0,0,0-.662.129,1.587,1.587,0,0,0-.869.885,1.848,1.848,0,0,0,0,1.34,1.628,1.628,0,0,0,1.523,1.024,1.842,1.842,0,0,0,1.373-.65v1.885l-.162.057a4.726,4.726,0,0,1-.682.191,3.282,3.282,0,0,1-.626.061,3.2,3.2,0,0,1-2.238-.914,3.379,3.379,0,0,1-.711-1.032,3.307,3.307,0,0,1,0-2.6,3.235,3.235,0,0,1,2.96-1.921,3.37,3.37,0,0,1,.719.077,4.394,4.394,0,0,1,.743.24Z" transform="translate(-164.144 -124.722)"/><path class="i" d="M199.825,127.955a3.156,3.156,0,0,1,2.018-2.985,3.892,3.892,0,0,1,2.733,0,3.242,3.242,0,0,1,1.077.687,3.153,3.153,0,0,1,.7,1.027,3.337,3.337,0,0,1,0,2.542,3.164,3.164,0,0,1-.7,1.028,3.252,3.252,0,0,1-1.077.686,3.892,3.892,0,0,1-2.733,0,3.167,3.167,0,0,1-2.018-2.985Zm1.665,0a1.626,1.626,0,0,0,.138.674,1.691,1.691,0,0,0,.922.89,1.806,1.806,0,0,0,1.324,0,1.741,1.741,0,0,0,.552-.354,1.673,1.673,0,0,0,.378-.536,1.719,1.719,0,0,0,0-1.348,1.673,1.673,0,0,0-.378-.536,1.787,1.787,0,0,0-1.876-.353,1.687,1.687,0,0,0-.922.889A1.628,1.628,0,0,0,201.49,127.955Z" transform="translate(-167.296 -124.722)"/><path class="i" d="M215.206,131.076v-6.125H216.8l2.94,3.745v-3.745h1.584v6.125h-1.584l-2.94-3.745v3.745Z" transform="translate(-171.234 -124.781)"/><path class="i" d="M230.664,124.951h1.389l-1.495,2.7h-.942Z" transform="translate(-174.923 -124.781)"/><path class="i" d="M243.617,131.02h-4.93l1.519-1.576q.6-.626.943-1.06a5.808,5.808,0,0,0,.507-.735,1.948,1.948,0,0,0,.208-.487,1.544,1.544,0,0,0,.04-.317.822.822,0,0,0-.045-.268.686.686,0,0,0-.134-.231.651.651,0,0,0-.512-.223.636.636,0,0,0-.507.211.777.777,0,0,0-.183.527,1.975,1.975,0,0,0,.025.26h-1.738a2.6,2.6,0,0,1,.175-.975,2.206,2.206,0,0,1,.491-.756,2.155,2.155,0,0,1,.751-.487,2.587,2.587,0,0,1,.955-.171,2.688,2.688,0,0,1,.946.162,2.265,2.265,0,0,1,.751.455,2.086,2.086,0,0,1,.5.694,2.128,2.128,0,0,1,.179.873,2.033,2.033,0,0,1-.215.93,3.276,3.276,0,0,1-.687.873l-1.015.95h1.981Z" transform="translate(-177.245 -124.725)"/><path class="i" d="M252.681,126.3h-.894v-1.349h2.486v6.125h-1.592Z" transform="translate(-180.599 -124.781)"/></g></g></svg>