<svg xmlns="http://www.w3.org/2000/svg" width="229.091" height="187" viewBox="0 0 229.091 187"><defs><style>.a{fill:#2368ff;}.b,.g,.k{fill:none;}.b,.e,.f,.h,.i,.j,.k{stroke:#000;}.b,.e,.f,.g,.h,.i,.j,.k{stroke-linecap:round;stroke-linejoin:round;}.c,.j{fill:#5fe6ff;}.d,.f,.h,.i{fill:#fff;}.f{stroke-width:4px;}.g{stroke:#040000;}.g,.h,.j,.k{stroke-width:3px;}.i{stroke-width:5px;}</style></defs><g transform="translate(0 0)"><ellipse class="a" cx="93" cy="93.5" rx="93" ry="93.5" transform="translate(0 0)"/><path class="b" d="M433.968,781.3c-8.47-2.665-15.653-8.768-20.395-16.275a53.99,53.99,0,0,1-7.743-25.2,4.716,4.716,0,0,1,.38-2.725,1.7,1.7,0,0,1,2.368-.682,2.329,2.329,0,0,1,.408,2.386,14.1,14.1,0,0,1-2.323,5.023l.74-6.375" transform="translate(-380.494 -665.39)"/><path class="c" d="M564.01,741.385c3.633-1.157,16.151-4.67,29.52.818,8.538,3.505,9.213,11.649,18.146,15.329,7.554,3.112,15.625,1.75,21.44.009l1.195-1.164,15.348-39.818c-6.475,2.115-15.623,3.916-24,.341-8.608-3.673-9.91-10.252-17.912-14.485-5.444-2.881-14.422-4.906-29.618-.079" transform="translate(-420.568 -656.088)"/><g transform="translate(56.474 35.554)"><path class="d" d="M451.193,690.744a1.974,1.974,0,0,0-.522-.314,1.388,1.388,0,0,0-.506-.1.82.82,0,0,0-.506.147.458.458,0,0,0-.2.383.382.382,0,0,0,.1.269.853.853,0,0,0,.257.184,2.208,2.208,0,0,0,.359.134c.133.038.264.078.395.122a2.474,2.474,0,0,1,1.145.7,1.723,1.723,0,0,1,.363,1.137,2.212,2.212,0,0,1-.159.856,1.789,1.789,0,0,1-.465.656,2.143,2.143,0,0,1-.75.424,3.137,3.137,0,0,1-1.007.151,3.706,3.706,0,0,1-2.16-.693l.685-1.288a2.765,2.765,0,0,0,.709.473,1.708,1.708,0,0,0,.693.155.827.827,0,0,0,.582-.179.554.554,0,0,0,.143-.648.517.517,0,0,0-.163-.187,1.344,1.344,0,0,0-.3-.159c-.122-.049-.271-.1-.444-.163-.207-.065-.409-.137-.608-.216a1.9,1.9,0,0,1-.529-.314,1.452,1.452,0,0,1-.376-.493,1.746,1.746,0,0,1-.143-.754,2.189,2.189,0,0,1,.151-.827,1.835,1.835,0,0,1,.424-.635,1.885,1.885,0,0,1,.668-.412,2.53,2.53,0,0,1,.885-.146,3.868,3.868,0,0,1,.954.126,4.224,4.224,0,0,1,.953.371Z" transform="translate(-447.541 -689)"/><path class="d" d="M461.474,689.229v6.146h-1.6v-6.146Z" transform="translate(-450.666 -689.058)"/><path class="d" d="M470.789,690.582v4.793h-1.6v-4.793h-1.312v-1.353H472.1v1.353Z" transform="translate(-452.692 -689.058)"/><path class="d" d="M483.652,691.225a1.706,1.706,0,0,0-1.369-.677,1.668,1.668,0,0,0-.665.131,1.618,1.618,0,0,0-.526.354,1.642,1.642,0,0,0-.346.534,1.756,1.756,0,0,0-.126.669,1.774,1.774,0,0,0,.126.676,1.63,1.63,0,0,0,1.529,1.027,1.851,1.851,0,0,0,1.378-.652v1.891l-.163.057a4.837,4.837,0,0,1-.685.192,3.361,3.361,0,0,1-.628.061,3.215,3.215,0,0,1-2.246-.918,3.366,3.366,0,0,1-.713-1.035,3.319,3.319,0,0,1,0-2.608A3.245,3.245,0,0,1,482.184,689a3.332,3.332,0,0,1,.721.078,4.4,4.4,0,0,1,.746.24Z" transform="translate(-455.496 -689)"/><path class="d" d="M491.262,692.244a3.166,3.166,0,0,1,2.025-3,3.906,3.906,0,0,1,2.743,0,3.237,3.237,0,0,1,1.08.688,3.162,3.162,0,0,1,.706,1.031,3.35,3.35,0,0,1,0,2.552,3.155,3.155,0,0,1-.706,1.031,3.239,3.239,0,0,1-1.08.689,3.906,3.906,0,0,1-2.743,0,3.179,3.179,0,0,1-2.025-3Zm1.671,0a1.637,1.637,0,0,0,.138.677,1.72,1.72,0,0,0,.375.538,1.7,1.7,0,0,0,.55.355,1.777,1.777,0,0,0,1.883-.355,1.7,1.7,0,0,0,.379-.538,1.727,1.727,0,0,0,0-1.354,1.7,1.7,0,0,0-.379-.538,1.758,1.758,0,0,0-.554-.355,1.812,1.812,0,0,0-1.329,0,1.693,1.693,0,0,0-.925.892A1.637,1.637,0,0,0,492.933,692.244Z" transform="translate(-458.615 -689)"/><path class="d" d="M506.643,695.375v-6.146h1.6l2.951,3.758v-3.758h1.59v6.146h-1.59l-2.951-3.758v3.758Z" transform="translate(-462.511 -689.058)"/><path class="d" d="M522.1,689.229H523.5l-1.5,2.706h-.945Z" transform="translate(-466.161 -689.058)"/><path class="d" d="M535.072,695.32h-4.948l1.524-1.582q.6-.627.946-1.063a5.941,5.941,0,0,0,.509-.738,1.969,1.969,0,0,0,.208-.489,1.558,1.558,0,0,0,.04-.318.818.818,0,0,0-.045-.269.658.658,0,0,0-.648-.456.638.638,0,0,0-.509.211.782.782,0,0,0-.184.53,1.971,1.971,0,0,0,.025.261h-1.744a2.617,2.617,0,0,1,.175-.978,2.213,2.213,0,0,1,.493-.758,2.175,2.175,0,0,1,.754-.489,2.594,2.594,0,0,1,.957-.171,2.7,2.7,0,0,1,.95.163,2.281,2.281,0,0,1,.754.456,2.1,2.1,0,0,1,.5.7,2.133,2.133,0,0,1,.179.876,2.037,2.037,0,0,1-.216.933,3.292,3.292,0,0,1-.689.877l-1.018.953h1.988Z" transform="translate(-468.459 -689.003)"/><path class="d" d="M544.121,690.582h-.9v-1.353h2.495v6.146h-1.6Z" transform="translate(-471.777 -689.058)"/></g><path class="b" d="M476.087,830.159q1.392,11.382,2.285,22.819" transform="translate(-398.298 -689.2)"/><path class="b" d="M508.749,830.905q-.972,11.426-1.444,22.887" transform="translate(-406.205 -689.389)"/><path class="e" d="M507.305,861.875a1.95,1.95,0,0,0,1.093.874,6.865,6.865,0,0,0,4.37.889,2.93,2.93,0,0,0,1.56-.78,1.362,1.362,0,0,0,.245-1.626,2.112,2.112,0,0,0-1.461-.833c-1.761-.326-3.833.449-5.732,1.2" transform="translate(-406.205 -696.84)"/><path class="e" d="M476.485,860.827a1.95,1.95,0,0,1-1.093.874,6.864,6.864,0,0,1-4.371.889,2.933,2.933,0,0,1-1.56-.779,1.362,1.362,0,0,1-.245-1.626,2.116,2.116,0,0,1,1.461-.833c1.761-.325,3.834.449,5.732,1.2" transform="translate(-396.515 -696.575)"/><path class="f" d="M445.8,733.685l-29.428,39.756,25.3,42.261,67.953,1.237,26.624-42.372-30.746-40.916Z" transform="translate(-383.174 -664.755)"/><path class="g" d="M420.318,787.026c18.5.292,32.484,2.411,50.979,2.7,20.465.323,45.437-1.181,65.9-.858" transform="translate(-384.172 -678.275)"/><ellipse class="h" cx="6.689" cy="9.838" rx="6.689" ry="9.838" transform="translate(68.823 83.383)"/><ellipse cx="3.279" cy="5.264" rx="3.279" ry="5.264" transform="translate(72.233 87.958)"/><ellipse class="h" cx="6.689" cy="9.838" rx="6.689" ry="9.838" transform="translate(86.348 83.5)"/><ellipse cx="3.279" cy="5.264" rx="3.279" ry="5.264" transform="translate(89.758 88.075)"/><line class="i" y1="121.013" x2="42.115" transform="translate(118.139 40.709)"/><g transform="translate(47.616 47.74)"><path class="j" d="M488.894,726.354l31.69,1.732c-1.779-12.573-11.782-21.983-23.291-22.72-9.229-.591-18.251,4.472-23.234,12.925" transform="translate(-445.401 -705.32)"/><path class="j" d="M452.579,728.241c-3-.8-13.033-3.8-16.042-11.369-.456-1.149-1.5-3.766-.3-5.726,1.467-2.409,5.437-2.39,7.227-2.382,10.829.051,31.432,14.868,35.713,18.462" transform="translate(-435.679 -706.192)"/><line class="j" y1="1.015" x2="26.594" transform="translate(16.9 21.035)"/></g><line class="k" x2="4.367" y2="1.582" transform="translate(74.424 77.743)"/><line class="k" y1="2.148" x2="5.539" transform="translate(88.214 77.404)"/><g transform="translate(156.134 56.384)"><path class="d" d="M581.008,731.042c.347-.95.52-1.42.868-2.351l.252-.265a19.305,19.305,0,0,1,3.595-2.961c.674-.423,1.011-.618,1.685-.983,2.777-1.5,4.41-2.4,4.9-3.469.574-1.244-.077-2.159-1.95-2.454a8.32,8.32,0,0,0-4.435.726c.323-.79.483-1.181.806-1.958a10.186,10.186,0,0,1,4.967-.222,6.145,6.145,0,0,1,3.61,2,2.466,2.466,0,0,1,.406,2.8,3.585,3.585,0,0,1-1.609,1.571,30.352,30.352,0,0,1-3.5,1.366c-.544.193-.817.3-1.361.523a8.7,8.7,0,0,0-3.8,2.706,18.85,18.85,0,0,1,6.964.634c-.348.752-.522,1.13-.869,1.894C587.327,729.728,585.221,729.645,581.008,731.042Z" transform="translate(-581.008 -716.896)"/><path class="d" d="M606.213,736.094a6.507,6.507,0,0,1-3.56-3.484,5.8,5.8,0,0,1,.4-4.84,6.028,6.028,0,0,1,3.772-3.325,6.786,6.786,0,0,1,5.225.823,7.463,7.463,0,0,1,3.622,3.91,5.978,5.978,0,0,1-4.184,7.739A8.09,8.09,0,0,1,606.213,736.094Zm.718-1.3c1.866.912,3.533.051,5-2.666s1.278-4.584-.562-5.584-3.488-.1-4.951,2.713S605.121,733.906,606.931,734.792Z" transform="translate(-586.4 -718.752)"/><path class="d" d="M619.548,742.766l.869-1.6.252-.057a21.084,21.084,0,0,1,3.593-.442c.675-.026,1.013-.043,1.688-.084,2.776-.172,4.41-.9,4.9-1.886.573-1.148-.078-2.059-1.952-2.9a17.951,17.951,0,0,0-4.434-1.192c.323-.6.483-.908.806-1.517a32.186,32.186,0,0,1,4.966,1.587A9.15,9.15,0,0,1,633.852,737a2.436,2.436,0,0,1,.4,2.786,3.325,3.325,0,0,1-1.608,1.57,10.233,10.233,0,0,1-3.5.793c-.545.043-.817.061-1.362.089-1.9.1-3.167.349-3.8.87a60.786,60.786,0,0,0,6.965,3.3c-.348.7-.521,1.041-.868,1.729A92.475,92.475,0,0,1,619.548,742.766Z" transform="translate(-590.77 -720.996)"/><path class="d" d="M640.832,751.089c.257-.55.385-.827.642-1.384a21.194,21.194,0,0,0,3.153.544c1.621-3.723,2.431-5.653,4.052-9.7a17.787,17.787,0,0,1-3.427.679c.264-.615.4-.924.661-1.546a17.77,17.77,0,0,0,6.865-2.236c-2,5.454-2.993,8.016-4.988,12.9a15.526,15.526,0,0,0,3.153-.414c-.258.673-.386,1.008-.643,1.672C646.512,752.3,644.619,752.072,640.832,751.089Z" transform="translate(-596.161 -722.102)"/></g><path class="b" d="M560.514,800.381a5.579,5.579,0,0,1,1.44,5.246,9.166,9.166,0,0,1-3,4.729c-2.619,2.331-6.03,3.563-9.423,4.446-3.277.853-6.85,1.411-9.97.1-1.472-.62-2.8-1.644-4.384-1.882-1.086-.164-2.376-.008-3.1-.836-.883-1.016.034-2.775,1.346-3.078a4.244,4.244,0,0,1,3.642,1.331,33.84,33.84,0,0,0,2.882,2.82,10.069,10.069,0,0,1-5.683-2.465c-.5-.439-.677-1.561-.021-1.472.441.784-.762,1.438-1.656,1.548" transform="translate(-412.391 -681.657)"/><line class="h" x1="14.12" y2="39.05" transform="translate(146.721 40.984)"/></g></svg>