<svg xmlns="http://www.w3.org/2000/svg" width="186" height="186" viewBox="0 0 186 186"><defs><style>.a{fill:#2368ff;}.b,.e,.g{fill:#fff;}.c,.f{fill:none;}.c,.d,.e,.g,.h{stroke:#000;}.c,.d,.e,.f,.g,.h{stroke-linecap:round;stroke-linejoin:round;}.e{stroke-width:4px;}.f{stroke:#040000;}.f,.g,.h{stroke-width:3px;}.h{fill:#5fe6ff;}</style></defs><g transform="translate(-388.577 -1209.982)"><circle class="a" cx="93" cy="93" r="93" transform="translate(388.577 1209.982)"/><g transform="translate(445.146 1245.408)"><path class="b" d="M468.249,1259.335a1.972,1.972,0,0,0-.52-.312,1.383,1.383,0,0,0-.5-.1.818.818,0,0,0-.5.146.457.457,0,0,0-.195.382.379.379,0,0,0,.1.268.848.848,0,0,0,.256.183,2.2,2.2,0,0,0,.358.134c.132.038.263.079.394.122a2.458,2.458,0,0,1,1.141.694,1.718,1.718,0,0,1,.362,1.133,2.217,2.217,0,0,1-.158.853,1.772,1.772,0,0,1-.464.654,2.138,2.138,0,0,1-.747.423,3.108,3.108,0,0,1-1,.15,3.692,3.692,0,0,1-2.152-.69l.682-1.283a2.756,2.756,0,0,0,.707.471,1.7,1.7,0,0,0,.69.155.82.82,0,0,0,.58-.179.551.551,0,0,0,.142-.645.51.51,0,0,0-.162-.187,1.267,1.267,0,0,0-.3-.158c-.121-.049-.269-.1-.443-.163q-.308-.1-.6-.215a1.9,1.9,0,0,1-.527-.312,1.456,1.456,0,0,1-.374-.492,1.739,1.739,0,0,1-.142-.751,2.178,2.178,0,0,1,.15-.824,1.825,1.825,0,0,1,.423-.634,1.879,1.879,0,0,1,.666-.41,2.517,2.517,0,0,1,.882-.146,3.891,3.891,0,0,1,.95.126,4.22,4.22,0,0,1,.95.37Z" transform="translate(-464.61 -1257.597)"/><path class="b" d="M478.537,1257.826v6.124h-1.591v-6.124Z" transform="translate(-467.768 -1257.656)"/><path class="b" d="M487.847,1259.175v4.775h-1.592v-4.775h-1.308v-1.349h4.207v1.349Z" transform="translate(-469.816 -1257.656)"/><path class="b" d="M500.7,1259.814a1.7,1.7,0,0,0-1.365-.674,1.672,1.672,0,0,0-.662.13,1.587,1.587,0,0,0-.869.885,1.744,1.744,0,0,0-.126.666,1.762,1.762,0,0,0,.126.674,1.626,1.626,0,0,0,1.523,1.024,1.843,1.843,0,0,0,1.373-.65v1.885l-.163.057a4.657,4.657,0,0,1-.682.191,3.277,3.277,0,0,1-.625.061,3.2,3.2,0,0,1-2.238-.914,3.365,3.365,0,0,1-.711-1.032,3.307,3.307,0,0,1,0-2.6,3.232,3.232,0,0,1,2.96-1.921,3.374,3.374,0,0,1,.719.077,4.44,4.44,0,0,1,.743.24Z" transform="translate(-472.65 -1257.597)"/><path class="b" d="M508.331,1260.83a3.2,3.2,0,0,1,.251-1.271,3.147,3.147,0,0,1,1.766-1.713,3.893,3.893,0,0,1,2.733,0,3.215,3.215,0,0,1,1.077.687,3.133,3.133,0,0,1,.7,1.027,3.33,3.33,0,0,1,0,2.542,3.131,3.131,0,0,1-.7,1.027,3.229,3.229,0,0,1-1.077.687,3.893,3.893,0,0,1-2.733,0,3.2,3.2,0,0,1-1.068-.687,3.157,3.157,0,0,1-.7-1.027A3.192,3.192,0,0,1,508.331,1260.83Zm1.665,0a1.63,1.63,0,0,0,.138.674,1.691,1.691,0,0,0,.922.89,1.8,1.8,0,0,0,1.324,0,1.736,1.736,0,0,0,.553-.354,1.669,1.669,0,0,0,.377-.536,1.71,1.71,0,0,0,0-1.348,1.682,1.682,0,0,0-.377-.536,1.785,1.785,0,0,0-1.876-.353,1.68,1.68,0,0,0-.922.889A1.628,1.628,0,0,0,510,1260.83Z" transform="translate(-475.802 -1257.597)"/><path class="b" d="M523.712,1263.95v-6.124H525.3l2.94,3.745v-3.745h1.584v6.124h-1.584l-2.94-3.744v3.744Z" transform="translate(-479.74 -1257.656)"/><path class="b" d="M539.17,1257.826h1.389l-1.495,2.7h-.942Z" transform="translate(-483.429 -1257.656)"/><path class="b" d="M552.123,1263.894h-4.93l1.518-1.575q.6-.626.943-1.06a5.852,5.852,0,0,0,.507-.735,1.914,1.914,0,0,0,.207-.487,1.5,1.5,0,0,0,.041-.317.823.823,0,0,0-.045-.268.685.685,0,0,0-.134-.231.651.651,0,0,0-.512-.223.635.635,0,0,0-.507.211.775.775,0,0,0-.183.527,1.979,1.979,0,0,0,.025.26h-1.738a2.6,2.6,0,0,1,.175-.975,2.208,2.208,0,0,1,.491-.756,2.168,2.168,0,0,1,.751-.487,2.584,2.584,0,0,1,.954-.17,2.688,2.688,0,0,1,.946.162,2.272,2.272,0,0,1,.751.455,2.088,2.088,0,0,1,.5.694,2.127,2.127,0,0,1,.179.873,2.035,2.035,0,0,1-.215.931,3.277,3.277,0,0,1-.687.873l-1.015.95h1.981Z" transform="translate(-485.751 -1257.6)"/><path class="b" d="M561.187,1259.175h-.893v-1.349h2.486v6.124h-1.592Z" transform="translate(-489.105 -1257.656)"/></g><path class="c" d="M496.535,1386.7q1.387,11.341,2.277,22.737" transform="translate(-27.637 -45.239)"/><path class="c" d="M529.193,1387.445q-.97,11.385-1.44,22.805" transform="translate(-35.629 -45.43)"/><path class="d" d="M527.753,1418.409a1.949,1.949,0,0,0,1.09.871,6.849,6.849,0,0,0,4.355.886,2.929,2.929,0,0,0,1.554-.777,1.358,1.358,0,0,0,.244-1.62,2.107,2.107,0,0,0-1.455-.83c-1.756-.324-3.82.448-5.712,1.2" transform="translate(-35.629 -52.961)"/><path class="d" d="M496.907,1417.361a1.942,1.942,0,0,1-1.09.87,6.838,6.838,0,0,1-4.355.886,2.924,2.924,0,0,1-1.554-.777,1.358,1.358,0,0,1-.244-1.62,2.106,2.106,0,0,1,1.456-.829c1.755-.324,3.82.447,5.711,1.2" transform="translate(-25.835 -52.693)"/><path class="e" d="M462.657,1287.524l-29.321,39.612,25.206,42.108,67.707,1.233,26.527-42.218-30.635-40.768Z" transform="translate(-11.458 -19.842)"/><path class="f" d="M437.278,1340.866c18.428.291,36.826,3.668,55.254,3.959,20.392.322,40.812-2.443,61.2-2.12" transform="translate(-12.468 -33.506)"/><ellipse class="g" cx="6.665" cy="9.802" rx="6.665" ry="9.802" transform="translate(465.945 1286.702)"/><ellipse cx="3.267" cy="5.245" rx="3.267" ry="5.245" transform="translate(469.343 1291.26)"/><ellipse class="g" cx="6.665" cy="9.802" rx="6.665" ry="9.802" transform="translate(483.407 1286.819)"/><ellipse cx="3.267" cy="5.245" rx="3.267" ry="5.245" transform="translate(485.317 1292.121)"/><g transform="translate(438.146 1291.071)"><rect class="h" width="9.494" height="5.216" rx="2.556" transform="translate(4.425 3.136)"/><path class="h" d="M490.374,1334.754a14.4,14.4,0,1,0,14.4,14.4A14.4,14.4,0,0,0,490.374,1334.754Zm0,23.2a8.793,8.793,0,1,1,8.793-8.793A8.793,8.793,0,0,1,490.374,1357.95Z" transform="translate(-460.519 -1323.013)"/><g transform="translate(0 5.744)"><circle class="g" cx="8.793" cy="8.793" r="8.793" transform="translate(19.767 13.13) rotate(-9.217)"/><path class="h" d="M500.62,1326.693H459.888a4.7,4.7,0,0,0-4.686,4.686v22.512a4.7,4.7,0,0,0,4.686,4.686h16.477a14.4,14.4,0,1,1,17.386,0h6.869a4.7,4.7,0,0,0,4.686-4.686v-22.512A4.7,4.7,0,0,0,500.62,1326.693Z" transform="translate(-455.202 -1326.693)"/></g><path class="h" d="M499.784,1318.973H484.577l-2.5,5.744h4.809l1.252-2.872h7.6l1.252,2.872h5.3Z" transform="translate(-462.081 -1318.973)"/></g><path class="c" d="M435.438,1344.471a28.966,28.966,0,0,0-4.347,6.207c-.166.319-.267.816.068.947a.65.65,0,0,0,.339.007c6.335-1.037,11.791-4.965,16.689-9.115a5.074,5.074,0,0,0,1.488-1.717c.814-1.855-.565-4.5.971-5.817a9.419,9.419,0,0,1-.589,6.4" transform="translate(-10.844 -32)"/><path class="c" d="M571.24,1349.558c-.633,1.69.923,3.618.309,5.314-.468,1.291-1.958,1.841-3.278,2.217-9.014,2.566-18.457,4.318-27.743,3.058s-18.456-5.9-23.45-13.829a2.143,2.143,0,0,1,2.57,2.27" transform="translate(-32.896 -34.886)"/></g></svg>