<svg xmlns="http://www.w3.org/2000/svg" width="186" height="186" viewBox="0 0 186 186"><defs><style>.a{fill:#2368ff;}.b,.d,.f,.g{fill:#fff;}.c,.e{fill:none;}.c,.d,.f,.g,.h,.i{stroke:#000;}.c,.d,.e,.f,.g,.h,.i{stroke-linecap:round;stroke-linejoin:round;}.d{stroke-width:4px;}.e{stroke:#040000;}.e,.f{stroke-width:3px;}.h{fill:#5fe6ff;}</style></defs><g transform="translate(-82.193 -643.909)"><path class="a" d="M82.193,736.909a93,93,0,1,1,93,93,93,93,0,0,1-93-93" transform="translate(0)"/><g transform="translate(138.761 679.334)"><path class="b" d="M161.865,693.262a1.972,1.972,0,0,0-.52-.312,1.379,1.379,0,0,0-.5-.1.819.819,0,0,0-.5.147.457.457,0,0,0-.195.382.38.38,0,0,0,.1.268.85.85,0,0,0,.256.183,2.2,2.2,0,0,0,.358.134q.2.057.394.121a2.466,2.466,0,0,1,1.141.695,1.712,1.712,0,0,1,.362,1.133,2.2,2.2,0,0,1-.158.853,1.783,1.783,0,0,1-.464.654,2.115,2.115,0,0,1-.747.422,3.1,3.1,0,0,1-1,.151,3.692,3.692,0,0,1-2.152-.69l.682-1.283a2.753,2.753,0,0,0,.707.471,1.7,1.7,0,0,0,.69.154.824.824,0,0,0,.58-.179.552.552,0,0,0,.142-.646.516.516,0,0,0-.162-.187,1.343,1.343,0,0,0-.3-.159c-.122-.048-.27-.1-.443-.162-.206-.065-.408-.137-.606-.215a1.9,1.9,0,0,1-.527-.313,1.447,1.447,0,0,1-.374-.491,1.74,1.74,0,0,1-.142-.751,2.167,2.167,0,0,1,.151-.824,1.818,1.818,0,0,1,.422-.633,1.88,1.88,0,0,1,.666-.411,2.52,2.52,0,0,1,.882-.146,3.852,3.852,0,0,1,.95.126,4.166,4.166,0,0,1,.95.37Z" transform="translate(-158.226 -691.524)"/><path class="b" d="M172.153,691.753v6.124h-1.591v-6.124Z" transform="translate(-161.384 -691.583)"/><path class="b" d="M181.463,693.1v4.776h-1.592V693.1h-1.307v-1.348h4.207V693.1Z" transform="translate(-163.433 -691.583)"/><path class="b" d="M194.319,693.741a1.7,1.7,0,0,0-1.365-.674,1.664,1.664,0,0,0-.662.13,1.62,1.62,0,0,0-.524.353,1.647,1.647,0,0,0-.345.532,1.749,1.749,0,0,0-.126.667,1.767,1.767,0,0,0,.126.674,1.625,1.625,0,0,0,1.523,1.023,1.844,1.844,0,0,0,1.373-.65v1.885l-.162.057a4.811,4.811,0,0,1-.682.191,3.345,3.345,0,0,1-.626.061,3.2,3.2,0,0,1-2.238-.914,3.354,3.354,0,0,1-.711-1.031,3.307,3.307,0,0,1,0-2.6,3.235,3.235,0,0,1,2.96-1.921,3.324,3.324,0,0,1,.719.077,4.39,4.39,0,0,1,.743.239Z" transform="translate(-166.266 -691.524)"/><path class="b" d="M201.947,694.757a3.153,3.153,0,0,1,2.018-2.985,3.892,3.892,0,0,1,2.733,0,3.24,3.24,0,0,1,1.077.686,3.161,3.161,0,0,1,.7,1.027,3.339,3.339,0,0,1,0,2.542,3.153,3.153,0,0,1-.7,1.027,3.241,3.241,0,0,1-1.077.687,3.892,3.892,0,0,1-2.733,0,3.167,3.167,0,0,1-2.018-2.985Zm1.665,0a1.631,1.631,0,0,0,.138.674,1.713,1.713,0,0,0,.373.536,1.691,1.691,0,0,0,.548.353,1.771,1.771,0,0,0,1.876-.353,1.69,1.69,0,0,0,.378-.536,1.721,1.721,0,0,0,0-1.349,1.689,1.689,0,0,0-.378-.536,1.751,1.751,0,0,0-.552-.353,1.807,1.807,0,0,0-1.324,0,1.687,1.687,0,0,0-.922.889A1.632,1.632,0,0,0,203.612,694.757Z" transform="translate(-169.419 -691.524)"/><path class="b" d="M217.328,697.877v-6.124h1.592l2.94,3.745v-3.745h1.584v6.124H221.86l-2.94-3.744v3.744Z" transform="translate(-173.356 -691.583)"/><path class="b" d="M232.786,691.753h1.389l-1.495,2.7h-.942Z" transform="translate(-177.045 -691.583)"/><path class="b" d="M245.739,697.821h-4.93l1.519-1.576q.6-.625.943-1.06a5.914,5.914,0,0,0,.507-.735,1.96,1.96,0,0,0,.208-.487,1.551,1.551,0,0,0,.04-.317.816.816,0,0,0-.045-.268.678.678,0,0,0-.134-.231.644.644,0,0,0-.512-.223.636.636,0,0,0-.507.211.779.779,0,0,0-.183.528,1.978,1.978,0,0,0,.025.26h-1.738a2.606,2.606,0,0,1,.175-.975,2.2,2.2,0,0,1,.491-.755,2.167,2.167,0,0,1,.751-.487,2.587,2.587,0,0,1,.955-.17,2.687,2.687,0,0,1,.946.162,2.262,2.262,0,0,1,.751.455,2.089,2.089,0,0,1,.5.695,2.125,2.125,0,0,1,.179.873,2.031,2.031,0,0,1-.215.93,3.278,3.278,0,0,1-.687.873l-1.015.95h1.981Z" transform="translate(-179.367 -691.527)"/><path class="b" d="M254.8,693.1h-.894v-1.348h2.486v6.124H254.8Z" transform="translate(-182.721 -691.583)"/></g><path class="c" d="M203.584,822.593q1.387,11.342,2.277,22.737" transform="translate(-31.076 -45.743)"/><path class="c" d="M236.241,823.34q-.969,11.384-1.439,22.8" transform="translate(-39.068 -45.935)"/><path class="d" d="M172.2,720.148,142.874,759.76l25.206,42.108,67.707,1.233,26.527-42.218L231.68,720.115Z" transform="translate(-15.535 -19.509)"/><path class="e" d="M205.462,777.537c3.873.277,7.746.475,11.622.536,20.391.322,40.812-2.443,61.2-2.12" transform="translate(-31.557 -33.797)"/><path class="e" d="M205.462,778.091" transform="translate(-31.557 -34.351)"/><path class="e" d="M146.816,773.49" transform="translate(-16.544 -33.173)"/><ellipse class="f" cx="6.665" cy="9.802" rx="6.665" ry="9.802" transform="translate(158.677 719.601)"/><ellipse cx="3.267" cy="5.245" rx="3.267" ry="5.245" transform="translate(162.075 724.159)"/><ellipse class="f" cx="6.665" cy="9.802" rx="6.665" ry="9.802" transform="translate(176.139 719.718)"/><ellipse cx="3.267" cy="5.245" rx="3.267" ry="5.245" transform="translate(179.537 724.276)"/><path class="g" d="M195.539,764.141a15.068,15.068,0,0,1,4.079.736,2.93,2.93,0,0,1,1.3.718,3.044,3.044,0,0,1,.58,1.173,16.12,16.12,0,0,1,.4,9.291,5.554,5.554,0,0,1-1.59,2.754,7.174,7.174,0,0,1-2.242,1.128l-5.17,1.881" transform="translate(-28.342 -30.78)"/><path class="h" d="M184.526,760.7c2.032-1.142,4.765-.113,6.148,1.763a10.624,10.624,0,0,1,1.612,6.671,25.6,25.6,0,0,1-2.044,9.278c-.812,1.9-1.854,3.7-2.551,5.648a23.9,23.9,0,0,0-1.054,9.865c.1,1.375.222,2.939-.722,3.943-1.1,1.167-3.158.863-4.315-.247a7.7,7.7,0,0,1-1.888-4.335,30.964,30.964,0,0,1-.279-8.859" transform="translate(-24.844 -29.776)"/><path class="c" d="M153.627,798.486a20.444,20.444,0,0,0-3.822,5.014,1.669,1.669,0,0,0-.265,1.376,1.543,1.543,0,0,0,.573.62,10.415,10.415,0,0,0,7.5,1.5,30.944,30.944,0,0,0,7.443-2.382l5.841-2.431a15.062,15.062,0,0,0,3.076-1.566c2.372-1.708,4.035-4.906,6.957-5,.911-.03,2.021.583,1.865,1.481-.1.6-.72.952-1.272,1.212a59.9,59.9,0,0,1-7.74,2.995c1.579-2.506,6.069-2.1,7.159-4.857" transform="translate(-17.223 -38.836)"/><path class="c" d="M296.9,786.283c1.649,8.35,2.61,17.343-.9,25.095" transform="translate(-54.734 -36.448)"/><path class="c" d="M139.674,738.189l9.728.34" transform="translate(-14.715 -24.136)"/><path class="c" d="M145.889,721.693l7.135,3.779" transform="translate(-16.306 -19.913)"/><path class="c" d="M158.651,710.353l2.111,6.593" transform="translate(-19.573 -17.01)"/><path class="i" d="M234.8,854.3a1.943,1.943,0,0,0,1.089.87,6.839,6.839,0,0,0,4.355.886,2.919,2.919,0,0,0,1.554-.777,1.357,1.357,0,0,0,.244-1.62,2.1,2.1,0,0,0-1.455-.83c-1.755-.324-3.82.448-5.712,1.2" transform="translate(-39.068 -53.465)"/><path class="i" d="M203.955,853.255a1.944,1.944,0,0,1-1.089.871,6.84,6.84,0,0,1-4.355.886,2.922,2.922,0,0,1-1.554-.777,1.357,1.357,0,0,1-.244-1.62,2.107,2.107,0,0,1,1.455-.83c1.755-.324,3.82.448,5.712,1.2" transform="translate(-29.274 -53.197)"/><path class="f" d="M119.605,751.232l47.619,4.253a24.7,24.7,0,0,1,0,25.01L123.7,794.676" transform="translate(-9.578 -27.475)"/><ellipse class="f" cx="11.075" cy="21.826" rx="11.075" ry="21.826" transform="translate(100.962 724.48) rotate(-4.625)"/></g></svg>