<svg id="圖層_1" data-name="圖層 1" xmlns="http://www.w3.org/2000/svg" viewBox="0 0 500 500"><defs><style>.cls-1{fill:#2368ff;}.cls-2{fill:#5fe6ff;}.cls-2,.cls-3,.cls-6{stroke:#000;}.cls-2,.cls-3,.cls-4,.cls-6{stroke-linecap:round;stroke-linejoin:round;}.cls-2,.cls-4,.cls-6{stroke-width:3px;}.cls-3,.cls-5,.cls-6{fill:#fff;}.cls-3{stroke-width:4px;}.cls-4{fill:none;stroke:#040000;}</style></defs><title>場務</title><circle class="cls-1" cx="250.26" cy="269.23" r="200"/><rect class="cls-2" x="143.18" y="30.77" width="169.04" height="87.41" rx="9.02"/><path d="M275.36,310.93c-.12,4.42,1.39,8.62,2.73,12.77l4.3,13.3,8.6,26.62c.59,1.83,3.49,1,2.89-.8l-8.44-26.14-4.15-12.83c-1.35-4.19-3.05-8.45-2.93-12.92.05-1.93-2.95-1.93-3,0Z"/><path d="M168.23,216.54C155,205.75,146.08,190.43,141.93,174c-4.79-19-3.15-39.2,2.36-57.87.64-2.19,1.15-5,2.72-6.73.93-1,3.88-1.84,3.73.43s-2.57,4.48-4.11,5.94a39.84,39.84,0,0,1-6.2,4.78c-1.62,1-.12,3.64,1.52,2.59,4-2.56,8.47-5.84,10.8-10.11,1.07-2,1.57-4.58-.15-6.34a5.09,5.09,0,0,0-5.31-1,7.55,7.55,0,0,0-4.16,4.45,58.35,58.35,0,0,0-2.37,7.43,129.09,129.09,0,0,0-3.4,16.15c-3,20.52-.64,41.8,9,60.36a77.9,77.9,0,0,0,19.78,24.64c1.49,1.21,3.62-.9,2.12-2.12Z"/><path d="M214.31,304c-1.48,7.69,2.18,14.46,6.78,20,5.26,6.36,11.42,12,17.15,17.82,2.46,2.51,6.19-1.5,3.73-4-5.25-5.36-10.71-10.55-15.71-16.16-3.76-4.21-8.08-9.91-6.87-16.18C220.08,301.91,215,300.38,214.31,304Z"/><path d="M238.86,338a26.5,26.5,0,0,0-13.14,9.92c-1,1.44-2,2.88-1.61,4.71a4.17,4.17,0,0,0,4.28,3.22,6.21,6.21,0,0,0,4.17-2.3c1.05-1.08,2.09-2.18,3.13-3.27l7.22-7.54a2.86,2.86,0,0,0-.25-4,2.89,2.89,0,0,0-4,.26l-6.5,6.78L229,349c-.27.28-.54.57-.82.85l-.29.3c.23-.18.2-.17-.07,0l-.15.09a.82.82,0,0,1,.84-.11,1.44,1.44,0,0,1,.54.3,1.6,1.6,0,0,1,.55,1.76c-.06.19,0,.15.09-.12s.18-.32.28-.47c.3-.5-.12.14.25-.38s.84-1.13,1.29-1.66.8-.91,1.23-1.34c.28-.28.58-.56.87-.83s-.16.1.34-.29a26.45,26.45,0,0,1,3.22-2.24,17,17,0,0,1,3.45-1.54,2.84,2.84,0,0,0-1.78-5.4Z"/><polygon class="cls-3" points="183.88 148.6 120.82 233.79 175.03 324.34 320.64 326.99 377.69 236.2 311.8 148.53 183.88 148.6"/><path class="cls-4" d="M120.82,233.79c39.63.62,75.91,5.3,115.55,5.93,43.85.69,97.36-2.53,141.21-1.84"/><path class="cls-5" d="M181.36,401.27a4.36,4.36,0,0,0-1.12-.68,3.06,3.06,0,0,0-1.08-.22,1.76,1.76,0,0,0-1.09.32,1,1,0,0,0-.42.82.84.84,0,0,0,.21.58,1.93,1.93,0,0,0,.55.39,4.94,4.94,0,0,0,.77.29l.85.26a5.21,5.21,0,0,1,2.45,1.49,3.7,3.7,0,0,1,.78,2.44,4.66,4.66,0,0,1-.34,1.83,3.92,3.92,0,0,1-1,1.41,4.76,4.76,0,0,1-1.61.91,6.91,6.91,0,0,1-2.16.32,7.94,7.94,0,0,1-4.63-1.48l1.47-2.76a6,6,0,0,0,1.52,1,3.68,3.68,0,0,0,1.48.33,1.8,1.8,0,0,0,1.25-.38,1.21,1.21,0,0,0,.31-1.39,1.09,1.09,0,0,0-.35-.4,2.38,2.38,0,0,0-.64-.34c-.26-.11-.58-.22-.95-.35s-.88-.3-1.3-.47a3.94,3.94,0,0,1-1.14-.67,3.06,3.06,0,0,1-.8-1.06,3.75,3.75,0,0,1-.31-1.61,4.58,4.58,0,0,1,.33-1.77,3.91,3.91,0,0,1,.91-1.37,4.11,4.11,0,0,1,1.43-.88,5.35,5.35,0,0,1,1.89-.31,8.32,8.32,0,0,1,2.05.27,8.89,8.89,0,0,1,2,.79Z"/><path class="cls-5" d="M196.69,397.89v13.17h-3.42V397.89Z"/><path class="cls-5" d="M212.31,400.79v10.27h-3.42V400.79h-2.82v-2.9h9.05v2.9Z"/><path class="cls-5" d="M233.86,402.3a3.64,3.64,0,0,0-2.93-1.45,3.58,3.58,0,0,0-1.43.28,3.37,3.37,0,0,0-1.12.76,3.4,3.4,0,0,0-.74,1.14,3.84,3.84,0,0,0,0,2.88,3.47,3.47,0,0,0,.75,1.15,3.35,3.35,0,0,0,1.12.77,3.43,3.43,0,0,0,1.4.28,4,4,0,0,0,3-1.39v4l-.35.12a9.9,9.9,0,0,1-1.46.41,7,7,0,0,1-1.35.13,6.82,6.82,0,0,1-2.61-.51,7,7,0,0,1-2.2-1.45,7.21,7.21,0,0,1-1.53-2.22,6.86,6.86,0,0,1-.58-2.81,6.68,6.68,0,0,1,.57-2.78,6.93,6.93,0,0,1,6.37-4.13,7.19,7.19,0,0,1,1.54.16,9.57,9.57,0,0,1,1.6.52Z"/><path class="cls-5" d="M243.49,404.48a6.86,6.86,0,0,1,.54-2.73,6.76,6.76,0,0,1,1.5-2.21,7,7,0,0,1,2.3-1.48,8.39,8.39,0,0,1,5.87,0,7,7,0,0,1,2.32,1.48,6.79,6.79,0,0,1,1.51,2.21,7.17,7.17,0,0,1,0,5.46,6.79,6.79,0,0,1-1.51,2.21,7,7,0,0,1-2.32,1.48,8.39,8.39,0,0,1-5.87,0,7,7,0,0,1-2.3-1.48,6.76,6.76,0,0,1-1.5-2.21A6.86,6.86,0,0,1,243.49,404.48Zm3.58,0a3.49,3.49,0,0,0,1.1,2.6,3.47,3.47,0,0,0,1.18.76,3.87,3.87,0,0,0,2.84,0,3.65,3.65,0,0,0,2-1.91,3.65,3.65,0,0,0,0-2.9,3.65,3.65,0,0,0-2-1.91,3.87,3.87,0,0,0-2.84,0,3.47,3.47,0,0,0-1.18.76,3.49,3.49,0,0,0-1.1,2.6Z"/><path class="cls-5" d="M268.1,411.06V397.89h3.42l6.32,8.06v-8.06h3.41v13.17h-3.41L271.52,403v8.05Z"/><path class="cls-5" d="M293.4,397.89h3l-3.21,5.8h-2Z"/><path class="cls-5" d="M316.27,411.06h-10.6l3.26-3.38c.86-.9,1.54-1.66,2-2.28a13.15,13.15,0,0,0,1.09-1.58,4.34,4.34,0,0,0,.45-1.05,4,4,0,0,0,.08-.68,1.9,1.9,0,0,0-.09-.58,1.56,1.56,0,0,0-.29-.5,1.6,1.6,0,0,0-.46-.35,1.62,1.62,0,0,0-.64-.13A1.34,1.34,0,0,0,310,401a1.63,1.63,0,0,0-.4,1.13,3.69,3.69,0,0,0,.06.56h-3.74a5.65,5.65,0,0,1,.37-2.1,4.85,4.85,0,0,1,1.06-1.62,4.72,4.72,0,0,1,1.62-1,5.62,5.62,0,0,1,2-.36,5.81,5.81,0,0,1,2,.34,5,5,0,0,1,1.62,1,4.62,4.62,0,0,1,1,5.37,7.23,7.23,0,0,1-1.48,1.88l-2.18,2h4.26Z"/><path class="cls-5" d="M328.55,400.79h-1.92v-2.9H332v13.17h-3.42Z"/><ellipse class="cls-6" cx="211.48" cy="200.65" rx="14.33" ry="21.08"/><ellipse cx="209.88" cy="195.85" rx="7.03" ry="11.28"/><ellipse class="cls-6" cx="249.03" cy="200.9" rx="14.33" ry="21.08"/><ellipse cx="247.43" cy="196.1" rx="7.03" ry="11.28"/><path d="M291.38,362.16a30.31,30.31,0,0,0-5.27,8.83q-1.07,2.52-1.91,5.13a25.89,25.89,0,0,0-1.26,4.72,4.7,4.7,0,0,0,1.22,4.14c1.5,1.32,3.42.5,4.63-.75a22.63,22.63,0,0,0,5.09-21.41c-.57-1.84-3.46-1.06-2.89.8a19.54,19.54,0,0,1-2.57,16.28,16.4,16.4,0,0,1-1.24,1.64c-.26.31-.77,1.07-1.18,1.12.24,0,0,.18,0-.14s-.08-.35-.1-.53a4.67,4.67,0,0,1,.18-1.62,58.36,58.36,0,0,1,2.69-8,27.4,27.4,0,0,1,4.73-8.05c1.3-1.43-.82-3.55-2.12-2.12Z"/><path d="M355.54,205.07c-15.92-6.85-28.81-19.38-37.32-34.36-9.7-17.07-13.53-37-13.23-56.48,0-2.23-.35-5.69,1.41-7.4a2.39,2.39,0,0,1,2.28-.7c.95.36.9,1.59.77,2.41a20.21,20.21,0,0,1-2.69,6.37,35.45,35.45,0,0,1-4.23,6.07c-1.27,1.44.84,3.57,2.12,2.12a37.17,37.17,0,0,0,7.28-12.23c.68-2,1-4.46-.41-6.24a4.6,4.6,0,0,0-5.61-1c-4.74,2.17-4,9.08-3.94,13.34a130.26,130.26,0,0,0,1.09,16.39c2.71,20.59,10.68,40.5,25,55.81a78.05,78.05,0,0,0,26,18.53c1.76.75,3.29-1.83,1.52-2.59Z"/><path class="cls-5" d="M199,72.28l10.64-10.64-9.3-9.29a3.16,3.16,0,0,0-4.46,0L175.94,72.28a3.16,3.16,0,0,0,0,4.46L195.79,96.6a3.16,3.16,0,0,0,4.46,0l9.3-9.29L199,76.74A3.16,3.16,0,0,1,199,72.28Z"/><rect class="cls-5" x="212.14" y="65.91" width="66.14" height="17.13" rx="2.91"/><path d="M145.09,118.26c.4-1.48.84-2.94,1.32-4.39.22-.69.45-1.38.7-2.06,0-.09.07-.17.1-.26s.09-.23,0-.09,0-.08,0-.08.07-.13.1-.19a2.71,2.71,0,0,1,.21-.37l.12-.18c-.1.13,0,.06,0,0s.31-.24.14-.14c.12-.07.25-.15.38-.21-.19.09.14,0,.2-.06l.51-.12c.24,0-.2,0,.06,0h.24s.25,0,.11,0,.1,0,.1,0-.23-.08-.07,0,0,0-.06,0a.58.58,0,0,1-.15-.45c0-.21.06-.18,0,0s0,0,0,0l-.13.17-.77.87-1.56,1.78-3.49,4,2.36,1.82,4.31-7.42a1.51,1.51,0,0,0-.54-2,1.53,1.53,0,0,0-2.05.54L143,116.7a1.51,1.51,0,0,0,.38,1.94,1.49,1.49,0,0,0,2-.12l3.73-4.24,1.86-2.12a3.67,3.67,0,0,0,1.25-2.61,2.68,2.68,0,0,0-2-2.34,4.78,4.78,0,0,0-2.82.21,4.73,4.73,0,0,0-2.31,1.77,8.77,8.77,0,0,0-1,2.27q-1,3-1.87,6a1.5,1.5,0,0,0,2.9.8Z"/><path d="M305.75,118.15a28.32,28.32,0,0,1,.64-6.22,11.26,11.26,0,0,1,.8-2.67,2.1,2.1,0,0,1,.66-.84c-.16.11.43-.23.22-.14a1.68,1.68,0,0,1,.32-.09l-.16,0-.66-.39.07.09-.39-.67c.05.15.06.15,0,0a1.51,1.51,0,0,1,0,.37s-.09.32-.12.41a6.26,6.26,0,0,1-.57,1.08c-.49.82-1,1.64-1.43,2.49a33.61,33.61,0,0,0-2.31,5.79,1.5,1.5,0,0,0,2.89.8,29.17,29.17,0,0,1,2.06-5.17c.84-1.61,2.18-3.17,2.44-5,.15-1.12-.08-2.39-1.34-2.74a3.62,3.62,0,0,0-3,.93c-1.5,1.22-2,3.24-2.38,5a32.19,32.19,0,0,0-.73,6.91,1.5,1.5,0,0,0,3,0Z"/><path d="M290.29,367.26c-.39,5-.89,10.61-4.93,14.11l2.56,1.06c.21-2.45,1.35-4.78,2.27-7l2.95-7.24a1.5,1.5,0,0,0-1.05-1.84,1.52,1.52,0,0,0-1.84,1l-3.07,7.52a25.79,25.79,0,0,0-2.26,7.55c-.11,1.41,1.67,1.84,2.57,1.07,4.66-4.05,5.35-10.47,5.8-16.24a1.5,1.5,0,0,0-3,0Z"/></svg>