<svg id="圖層_1" data-name="圖層 1" xmlns="http://www.w3.org/2000/svg" viewBox="0 0 250 275.54"><defs><style>.cls-1{fill:#2368ff;}.cls-2{fill:#5fe6ff;}.cls-2,.cls-3,.cls-6{stroke:#000;}.cls-2,.cls-3,.cls-4,.cls-6{stroke-linecap:round;stroke-linejoin:round;}.cls-2,.cls-4,.cls-6{stroke-width:3px;}.cls-3,.cls-5,.cls-6{fill:#fff;}.cls-3{stroke-width:4px;}.cls-4{fill:none;stroke:#040000;}</style></defs><circle class="cls-1" cx="125" cy="150.54" r="125"/><rect class="cls-2" x="58.08" y="1.5" width="105.65" height="54.63" rx="9.02"/><path d="M270.36,294.08a23.62,23.62,0,0,0,1.57,7.65l2.77,8.56,5.45,16.87c.59,1.83,3.49,1,2.89-.8L277.74,310l-2.61-8.08c-.82-2.54-1.82-5.1-1.77-7.81,0-1.93-3-1.93-3,0Z" transform="translate(-130.23 -117.48)"/><path d="M204.36,234.69a49.32,49.32,0,0,1-16-25.39c-3.05-11.25-2.41-23.23.54-34.42.18-.71,1.86-8.09,3.48-6.85.74.57-1.49,2.94-1.89,3.37a18,18,0,0,1-3.5,2.95l2,2.05,4.06-7.58c.91-1.7-1.68-3.22-2.59-1.51l-4.06,7.57c-.67,1.26.74,2.91,2.06,2.06,2.51-1.63,5.18-3.92,6.49-6.68s-.53-5.86-3.75-5.17-3.93,4.34-4.69,7a82.46,82.46,0,0,0-2.31,10.42c-2,13-.65,26.5,5.33,38.35a49.31,49.31,0,0,0,12.69,16c1.49,1.21,3.62-.9,2.12-2.12Z" transform="translate(-130.23 -117.48)"/><path d="M232.77,289.73c-.93,4.81,1.36,9,4.23,12.52,3.29,4,7.14,7.49,10.72,11.15,1.54,1.57,3.87-.94,2.33-2.52-3.28-3.34-6.69-6.58-9.82-10.09-2.35-2.63-5-6.19-4.29-10.12C236.37,288.44,233.2,287.49,232.77,289.73Z" transform="translate(-130.23 -117.48)"/><path d="M248.11,311a16.46,16.46,0,0,0-8.21,6.2,3.86,3.86,0,0,0-1,2.94,2.6,2.6,0,0,0,2.68,2,3.84,3.84,0,0,0,2.6-1.43c.66-.68,1.31-1.37,2-2.05l4.51-4.71a1.78,1.78,0,0,0-.16-2.5,1.81,1.81,0,0,0-2.5.15l-4.07,4.25-1.95,2-.51.53-.19.19c.15-.12.13-.11,0,0s-.19.12-.1.06a.52.52,0,0,1,.53-.07.86.86,0,0,1,.34.18,1,1,0,0,1,.35,1.1c-.05.12,0,.1,0-.07l.18-.29c.18-.31-.08.08.15-.24s.52-.7.81-1,.5-.56.77-.83.36-.35.54-.52-.1.06.21-.19a16.33,16.33,0,0,1,2-1.39,10.41,10.41,0,0,1,2.16-1,1.77,1.77,0,0,0-1.11-3.37Z" transform="translate(-130.23 -117.48)"/><polygon class="cls-3" points="83.51 75.14 44.1 128.39 77.98 184.98 168.99 186.64 204.64 129.9 163.47 75.1 83.51 75.14"/><path class="cls-4" d="M178.28,246c24.77.4,43.5,3.23,68.27,3.62,27.41.44,60.85-1.58,88.26-1.14" transform="translate(-130.23 -117.48)"/><path class="cls-5" d="M212.17,350.54a2.6,2.6,0,0,0-.7-.42,1.88,1.88,0,0,0-.68-.14,1.09,1.09,0,0,0-.67.2.59.59,0,0,0-.26.51.48.48,0,0,0,.13.36,1,1,0,0,0,.34.25,2.67,2.67,0,0,0,.48.18l.53.16a3.32,3.32,0,0,1,1.53.94,2.26,2.26,0,0,1,.49,1.52,3.06,3.06,0,0,1-.21,1.15,2.38,2.38,0,0,1-.63.87,2.65,2.65,0,0,1-1,.57,4.08,4.08,0,0,1-1.35.2,5,5,0,0,1-2.89-.92l.92-1.73a3.26,3.26,0,0,0,1,.63,2.23,2.23,0,0,0,.92.21,1.1,1.1,0,0,0,.78-.24.7.7,0,0,0,.26-.54.62.62,0,0,0-.28-.58,2.43,2.43,0,0,0-.4-.21l-.6-.22c-.27-.09-.54-.18-.81-.29a2.3,2.3,0,0,1-.71-.42,1.86,1.86,0,0,1-.5-.66,2.28,2.28,0,0,1-.19-1,2.85,2.85,0,0,1,.2-1.11,2.36,2.36,0,0,1,.57-.85,2.58,2.58,0,0,1,.89-.55,3.45,3.45,0,0,1,1.19-.2,5.29,5.29,0,0,1,1.27.17,5.86,5.86,0,0,1,1.28.5Z" transform="translate(-130.23 -117.48)"/><path class="cls-5" d="M221.75,348.43v8.24h-2.14v-8.24Z" transform="translate(-130.23 -117.48)"/><path class="cls-5" d="M231.51,350.25v6.42h-2.14v-6.42h-1.75v-1.82h5.65v1.82Z" transform="translate(-130.23 -117.48)"/><path class="cls-5" d="M245,351.18a2.3,2.3,0,0,0-1.84-.9,2.35,2.35,0,0,0-.89.17,2.18,2.18,0,0,0-.7.48,2.31,2.31,0,0,0-.47.71,2.44,2.44,0,0,0-.17.9,2.37,2.37,0,0,0,.17.9,2.41,2.41,0,0,0,.47.73,2.34,2.34,0,0,0,.71.48,2.29,2.29,0,0,0,.87.17A2.51,2.51,0,0,0,245,354v2.53l-.22.08a6.76,6.76,0,0,1-.92.25,4,4,0,0,1-.84.08,4.12,4.12,0,0,1-1.63-.32,4.22,4.22,0,0,1-1.38-.9,4.52,4.52,0,0,1-.95-1.39,4.25,4.25,0,0,1-.36-1.75,4.1,4.1,0,0,1,.35-1.74,4.31,4.31,0,0,1,1-1.37,4.36,4.36,0,0,1,1.38-.89,4.26,4.26,0,0,1,1.65-.33,4.51,4.51,0,0,1,1,.11,6.74,6.74,0,0,1,1,.32Z" transform="translate(-130.23 -117.48)"/><path class="cls-5" d="M251,352.55a4.25,4.25,0,0,1,.34-1.71,4.13,4.13,0,0,1,.94-1.38,4.34,4.34,0,0,1,1.43-.92,5.15,5.15,0,0,1,3.68,0,4.28,4.28,0,0,1,1.44.92,4.15,4.15,0,0,1,.95,1.38,4.47,4.47,0,0,1,0,3.42,4.15,4.15,0,0,1-.95,1.38,4.28,4.28,0,0,1-1.44.92,5.29,5.29,0,0,1-3.68,0,4.34,4.34,0,0,1-1.43-.92,4.13,4.13,0,0,1-.94-1.38A4.25,4.25,0,0,1,251,352.55Zm2.24,0a2.27,2.27,0,0,0,.18.91,2.42,2.42,0,0,0,.51.72,2.23,2.23,0,0,0,.73.47,2.41,2.41,0,0,0,1.78,0,2.28,2.28,0,0,0,.74-.47,2.25,2.25,0,0,0,.51-.72,2.27,2.27,0,0,0,0-1.82,2.25,2.25,0,0,0-.51-.72,2.28,2.28,0,0,0-.74-.47,2.41,2.41,0,0,0-1.78,0,2.23,2.23,0,0,0-.73.47,2.42,2.42,0,0,0-.51.72A2.27,2.27,0,0,0,253.24,352.55Z" transform="translate(-130.23 -117.48)"/><path class="cls-5" d="M266.38,356.67v-8.24h2.14l4,5v-5h2.13v8.24h-2.13l-4-5v5Z" transform="translate(-130.23 -117.48)"/><path class="cls-5" d="M282.2,348.43h1.87l-2,3.63h-1.27Z" transform="translate(-130.23 -117.48)"/><path class="cls-5" d="M296.49,356.67h-6.63l2-2.12c.54-.56,1-1,1.27-1.43a7.43,7.43,0,0,0,.68-1,2.52,2.52,0,0,0,.28-.65,1.91,1.91,0,0,0,.06-.43,1.13,1.13,0,0,0-.06-.36,1.2,1.2,0,0,0-.18-.31,1.23,1.23,0,0,0-.29-.22,1,1,0,0,0-.4-.08.88.88,0,0,0-.69.29,1.05,1.05,0,0,0-.24.71,3,3,0,0,0,0,.35H290a3.4,3.4,0,0,1,.23-1.31,2.87,2.87,0,0,1,1.67-1.67,3.35,3.35,0,0,1,1.28-.23,3.78,3.78,0,0,1,1.28.21,3.16,3.16,0,0,1,1,.62,2.81,2.81,0,0,1,.66.93,2.85,2.85,0,0,1,.24,1.17,2.77,2.77,0,0,1-.29,1.25,4.42,4.42,0,0,1-.92,1.18l-1.36,1.27h2.66Z" transform="translate(-130.23 -117.48)"/><path class="cls-5" d="M304.16,350.25H303v-1.82h3.34v8.24h-2.14Z" transform="translate(-130.23 -117.48)"/><ellipse class="cls-6" cx="100.76" cy="107.68" rx="8.96" ry="13.18"/><ellipse cx="99.76" cy="104.68" rx="4.39" ry="7.05"/><ellipse class="cls-6" cx="124.23" cy="107.83" rx="8.96" ry="13.18"/><ellipse cx="123.23" cy="104.83" rx="4.39" ry="7.05"/><path d="M280.42,327.52a22.1,22.1,0,0,0-5,8.83,5.62,5.62,0,0,0-.22,3,2.52,2.52,0,0,0,2.32,2,3.74,3.74,0,0,0,2.84-1.79,13.94,13.94,0,0,0,2.51-12.83,1.51,1.51,0,0,0-2.89,0,39.91,39.91,0,0,1-3.74,8.83,1.5,1.5,0,0,0,2.59,1.51,42.48,42.48,0,0,0,4-9.55H280a10.89,10.89,0,0,1-2.44,10.71c-.24.24-.31.14.05.13a.68.68,0,0,1,.49.22c.1.15.1.16,0,0,.06.15.06.14,0,0s0-.19,0,0a3.11,3.11,0,0,1,0-.61c0,.15,0,.14,0,0s.08-.27.11-.41l.24-.82c.18-.54.37-1.08.59-1.6a19.23,19.23,0,0,1,3.51-5.4,1.54,1.54,0,0,0,0-2.12,1.52,1.52,0,0,0-2.13,0Z" transform="translate(-130.23 -117.48)"/><path d="M321.32,227.43a49.33,49.33,0,0,1-22.44-20.1c-6-10-8.64-21.6-8.87-33.13,0-.76-.39-8.36,1.45-7.61.88.35-.52,3.06-.76,3.55a18.28,18.28,0,0,1-2.65,4l2.51,1.46,1.83-8.4c.41-1.88-2.48-2.68-2.9-.8l-1.82,8.4c-.3,1.36,1.45,2.66,2.5,1.46,2-2.3,4.08-5.36,4.47-8.47.37-2.92-2.26-5.17-5-3.71-2.95,1.56-2.62,5.54-2.62,8.35a81.52,81.52,0,0,0,.63,10.25c1.65,13.09,6.62,25.73,15.64,35.5A49.27,49.27,0,0,0,319.8,230c1.76.76,3.29-1.82,1.52-2.59Z" transform="translate(-130.23 -117.48)"/><path class="cls-5" d="M223.19,144.93l6.65-6.65L224,132.47a2,2,0,0,0-2.79,0l-12.46,12.46a2,2,0,0,0,0,2.78l12.41,12.42a2,2,0,0,0,2.79,0l5.81-5.81-6.6-6.61A2,2,0,0,1,223.19,144.93Z" transform="translate(-130.23 -117.48)"/><rect class="cls-5" x="101.17" y="23.46" width="41.34" height="10.7" rx="2.91"/></svg>