<svg id="圖層_1" data-name="圖層 1" xmlns="http://www.w3.org/2000/svg" viewBox="0 0 500 500"><defs><style>.cls-1{fill:#2368ff;}.cls-2,.cls-4,.cls-6{fill:#fff;}.cls-3,.cls-7,.cls-8{fill:#5fe6ff;}.cls-3{stroke:#5fe6ff;}.cls-3,.cls-7,.cls-9{stroke-miterlimit:10;}.cls-4,.cls-6,.cls-7,.cls-8,.cls-9{stroke:#000;}.cls-4,.cls-5,.cls-6,.cls-8{stroke-linecap:round;stroke-linejoin:round;}.cls-4{stroke-width:4px;}.cls-5{fill:none;stroke:#040000;}.cls-5,.cls-6,.cls-7,.cls-8,.cls-9{stroke-width:3px;}</style></defs><title>議程助理</title><circle class="cls-1" cx="252.3" cy="254.78" r="200"/><path class="cls-2" d="M179.16,127.7a4.16,4.16,0,0,0-1.11-.68,3.16,3.16,0,0,0-1.09-.22,1.75,1.75,0,0,0-1.08.32,1,1,0,0,0-.42.82.84.84,0,0,0,.21.58,1.8,1.8,0,0,0,.55.39,4.59,4.59,0,0,0,.77.29l.85.26a5.32,5.32,0,0,1,2.45,1.49,3.7,3.7,0,0,1,.78,2.44,4.85,4.85,0,0,1-.34,1.83,3.82,3.82,0,0,1-1,1.41,4.67,4.67,0,0,1-1.61.91,6.8,6.8,0,0,1-2.15.32,7.92,7.92,0,0,1-4.63-1.48l1.47-2.76a6,6,0,0,0,1.52,1,3.64,3.64,0,0,0,1.48.33,1.8,1.8,0,0,0,1.25-.38,1.2,1.2,0,0,0,.41-.88,1.16,1.16,0,0,0-.1-.51,1.09,1.09,0,0,0-.35-.4,2.55,2.55,0,0,0-.64-.34c-.26-.11-.58-.23-.95-.35s-.88-.3-1.3-.47A3.81,3.81,0,0,1,173,131a3.06,3.06,0,0,1-.8-1.06,3.61,3.61,0,0,1-.31-1.61,4.77,4.77,0,0,1,.32-1.77,4.06,4.06,0,0,1,.91-1.37,4.21,4.21,0,0,1,1.43-.88,5.45,5.45,0,0,1,1.9-.31,8.3,8.3,0,0,1,2,.27,9.14,9.14,0,0,1,2.05.79Z"/><path class="cls-2" d="M194.5,124.32v13.17h-3.42V124.32Z"/><path class="cls-2" d="M210.11,127.22v10.27h-3.42V127.22h-2.81v-2.9h9.05v2.9Z"/><path class="cls-2" d="M231.67,128.73a3.64,3.64,0,0,0-2.94-1.45,3.53,3.53,0,0,0-1.42.28,3.38,3.38,0,0,0-1.13.75,3.69,3.69,0,0,0-1,2.58,3.78,3.78,0,0,0,.27,1.45,3.47,3.47,0,0,0,.75,1.15,3.39,3.39,0,0,0,1.13.77,3.43,3.43,0,0,0,1.4.28,4,4,0,0,0,2.95-1.4v4.06l-.35.12a10,10,0,0,1-1.47.41,6.95,6.95,0,0,1-3.95-.38,7,7,0,0,1-2.21-1.45,7.36,7.36,0,0,1-1.52-2.22,7.08,7.08,0,0,1,0-5.59,6.94,6.94,0,0,1,1.52-2.19,7,7,0,0,1,2.21-1.43,6.92,6.92,0,0,1,2.63-.51,7.28,7.28,0,0,1,1.55.16,9.57,9.57,0,0,1,1.6.52Z"/><path class="cls-2" d="M241.29,130.91a6.86,6.86,0,0,1,.54-2.73,6.68,6.68,0,0,1,1.51-2.21,6.9,6.9,0,0,1,2.29-1.48,8.42,8.42,0,0,1,5.88,0,6.89,6.89,0,0,1,2.31,1.48,6.71,6.71,0,0,1,1.52,2.21,6.88,6.88,0,0,1-3.83,9.15,8.42,8.42,0,0,1-5.88,0,6.9,6.9,0,0,1-2.29-1.48,6.79,6.79,0,0,1-1.51-2.21A6.86,6.86,0,0,1,241.29,130.91Zm3.58,0a3.48,3.48,0,0,0,.3,1.45,3.77,3.77,0,0,0,.8,1.15,3.57,3.57,0,0,0,1.18.76,3.9,3.9,0,0,0,2.85,0,3.72,3.72,0,0,0,1.19-.76,3.63,3.63,0,0,0,.81-1.15,3.65,3.65,0,0,0,0-2.9,3.63,3.63,0,0,0-.81-1.15,3.72,3.72,0,0,0-1.19-.76,3.9,3.9,0,0,0-2.85,0,3.57,3.57,0,0,0-1.18.76,3.77,3.77,0,0,0-.8,1.15A3.45,3.45,0,0,0,244.87,130.91Z"/><path class="cls-2" d="M265.9,137.49V124.32h3.43l6.32,8.06v-8.06h3.4v13.17h-3.4l-6.32-8.05v8.05Z"/><path class="cls-2" d="M291.21,124.32h3l-3.22,5.8h-2Z"/><path class="cls-2" d="M314.07,137.49h-10.6l3.27-3.39a29.13,29.13,0,0,0,2-2.27,13.41,13.41,0,0,0,1.1-1.58,4.85,4.85,0,0,0,.44-1.05,3.26,3.26,0,0,0,.09-.68,1.65,1.65,0,0,0-.1-.58,1.4,1.4,0,0,0-.29-.5,1.48,1.48,0,0,0-.46-.35,1.41,1.41,0,0,0-.64-.13,1.35,1.35,0,0,0-1.09.46,1.67,1.67,0,0,0-.39,1.13,5.13,5.13,0,0,0,.05.56h-3.74a5.65,5.65,0,0,1,.38-2.1,4.7,4.7,0,0,1,1.06-1.62,4.78,4.78,0,0,1,1.61-1,5.66,5.66,0,0,1,2.05-.37,5.82,5.82,0,0,1,2,.35,4.93,4.93,0,0,1,1.61,1,4.51,4.51,0,0,1,1.45,3.37,4.33,4.33,0,0,1-.46,2,7.17,7.17,0,0,1-1.47,1.88l-2.19,2h4.26Z"/><path class="cls-2" d="M326.35,127.22h-1.92v-2.9h5.35v13.17h-3.43Z"/><path d="M272.9,381.14a4.16,4.16,0,0,0,1.88,2.34c2.4,1.86,5.1,3.82,8.73,3.9a6.3,6.3,0,0,0,3.62-.91,2.91,2.91,0,0,0,1.27-3.29,4.55,4.55,0,0,0-2.66-2.42c-3.54-1.5-8.23-.84-12.55-.15"/><path d="M271.45,381.54c.33,1.49,1.52,2.43,2.66,3.31a29.13,29.13,0,0,0,3.19,2.2,12.14,12.14,0,0,0,8.25,1.64c2.68-.5,5.25-3,4.3-5.9s-4.28-3.94-7-4.28a35.34,35.34,0,0,0-10.1.65,1.5,1.5,0,1,0,.79,2.89,45.06,45.06,0,0,1,6.85-.7c1.93,0,4.3.18,5.87,1.45s.36,2.54-1.17,2.92a8.49,8.49,0,0,1-5.79-1,21,21,0,0,1-2.89-1.87c-.73-.54-1.9-1.18-2.1-2.13-.41-1.89-3.3-1.09-2.9.79Z"/><path d="M285.43,332.23q-7.35,23.44-13.68,47.2a1.5,1.5,0,0,0,2.89.79Q281,356.48,288.32,333c.58-1.85-2.32-2.64-2.89-.8Z"/><path d="M253.15,376.73a4.17,4.17,0,0,1-1.76,2.42c-2.31,2-4.91,4.06-8.53,4.32a6.26,6.26,0,0,1-3.67-.73,2.91,2.91,0,0,1-1.42-3.22,4.53,4.53,0,0,1,2.54-2.55c3.46-1.67,8.18-1.24,12.53-.76"/><path d="M251.7,376.33c-.15.91-1,1.49-1.72,2.05a22.5,22.5,0,0,1-2.33,1.79A9.75,9.75,0,0,1,242,382a3.32,3.32,0,0,1-2.46-.92,1.23,1.23,0,0,1-.06-1.62c1.12-1.52,3.61-1.95,5.36-2.1a41.52,41.52,0,0,1,8,.36,1.5,1.5,0,0,0,0-3,38.11,38.11,0,0,0-8.8-.28c-2.65.33-5.91,1.22-7.32,3.74-1.54,2.77.44,5.7,3.21,6.52a11.18,11.18,0,0,0,8.34-1.38,24,24,0,0,0,3.49-2.52c1.18-1,2.57-2.05,2.84-3.66a1.55,1.55,0,0,0-1-1.85,1.52,1.52,0,0,0-1.85,1.05Z"/><path d="M234,330.23q9.31,22.74,17.66,45.86c.65,1.8,3.55,1,2.89-.8q-8.32-23.12-17.66-45.85c-.72-1.77-3.63-1-2.89.79Z"/><path d="M144.69,265.66c-3.48,5.36-6,11.34-8.66,17.13a1.53,1.53,0,0,0,.54,2,1.52,1.52,0,0,0,2.05-.53c2.67-5.8,5.18-11.77,8.66-17.14,1.06-1.62-1.54-3.13-2.59-1.51Z"/><rect class="cls-3" x="100.69" y="280.27" width="93.15" height="57.93" rx="5.65" transform="translate(-98.89 71.07) rotate(-20.48)"/><path class="cls-2" d="M142.58,329.27a10.94,10.94,0,0,1-4.14,2.44c-5.32,2-10,.6-13.22-2.57-5.6.79-10.57-2.38-13.06-9.12-2.89-7.83,0-13.94,6.68-16.4s12.84.34,15.72,8.14c2.35,6.36.94,11.77-3.24,14.88,1.72,1.23,4.14,1,6.11.3a9.17,9.17,0,0,0,2.59-1.47Zm-16.33-5.54c3.22-1.19,4.17-4.79,2.33-9.76-1.7-4.63-4.71-6.62-7.93-5.43s-4.18,4.64-2.48,9.27C120,322.78,123,324.92,126.25,323.73Z"/><path class="cls-2" d="M156.92,317.59a15.6,15.6,0,0,1-5,0,9.65,9.65,0,0,1-4.74,3.61c-3.79,1.4-6.54-.13-7.47-2.64-.85-2.3.09-4.16,1.36-5.77a7.74,7.74,0,0,1-2.28-3,4.68,4.68,0,0,1,3.1-6.09c2.59-.95,4.82-.08,5.67,2.22s-.44,4.15-1.78,5.95a21.36,21.36,0,0,0,4.29,1.62,12.39,12.39,0,0,0,.48-4.56l3.68-1.36a18.58,18.58,0,0,1-.78,6.57,10.75,10.75,0,0,0,3.25-.07Zm-13.61-7.39c.91-1.09,1.54-2.1,1.15-3.17a1.1,1.1,0,0,0-1.55-.78,1.63,1.63,0,0,0-.81,2.28A4.21,4.21,0,0,0,143.31,310.2Zm3.25,7.78a4.52,4.52,0,0,0,1.77-1.28,24.88,24.88,0,0,1-4.55-2,2.72,2.72,0,0,0-.33,2.18C143.88,318.06,145.11,318.51,146.56,318Z"/><path class="cls-2" d="M170.58,306l-7.23,2.67.61,6-6,2.2-1.23-26.69,7-2.59,16.4,21.1L174,310.93Zm-2.75-4-1.27-1.83c-1.54-2.13-3.22-4.76-4.77-7l-.13.05c.33,2.72.7,5.76,1,8.37l.22,2.21Z"/><polygon class="cls-4" points="199.32 161.56 136.27 246.75 190.48 337.31 336.08 339.96 393.13 249.16 327.25 161.49 199.32 161.56"/><path d="M149.21,341.76a28.55,28.55,0,0,1-1.44-5,2.74,2.74,0,0,1,0-.47,3.09,3.09,0,0,1,0-.53c0,.1,0,.07,0-.08a2.33,2.33,0,0,1,.07-.25c.06-.17.06-.17,0,0l.13-.23c.14-.28-.06.19.09-.11.12-.12.12-.12,0,0a1.64,1.64,0,0,1,.22-.14c-.16.06-.16.07,0,0h-.14c.18,0,.17,0,0,0a.7.7,0,0,1-.54-.51,1.85,1.85,0,0,0,.18.53c.06.2.13.39.19.59.12.39.24.78.34,1.18a6.61,6.61,0,0,1,.25,2.28s-.05.47,0,.14a4.52,4.52,0,0,1-.11.53c0,.16-.08.31-.13.46a1.46,1.46,0,0,0-.07.19c.06-.15.06-.15,0,0a4.31,4.31,0,0,1-.26.47s-.28.35-.08.12a4.44,4.44,0,0,1-.37.38c-.13.11-.13.12,0,0l-.23.14a1.5,1.5,0,1,0,1.52,2.59,5.93,5.93,0,0,0,2.57-3.71,10.26,10.26,0,0,0-.39-5.18,6.53,6.53,0,0,0-1.07-2.54,2.54,2.54,0,0,0-2.86-.42,4.3,4.3,0,0,0-2.31,4.45,23.56,23.56,0,0,0,1.57,5.88,1.5,1.5,0,1,0,2.89-.79Z"/><path d="M146.32,335.31a15.39,15.39,0,0,0,.41,4.17,1.5,1.5,0,1,0,2.89-.79c-.1-.46-.19-.91-.25-1.37l0,.4a15,15,0,0,1-.1-2.41,1.5,1.5,0,0,0-1.5-1.5,1.54,1.54,0,0,0-1.5,1.5Z"/><path class="cls-5" d="M136.27,246.75c38.36,8.36,91.9,7.82,131.53,8.45,43.85.69,81.37-5,125.22-4.35"/><ellipse class="cls-6" cx="279.56" cy="216.04" rx="14.33" ry="21.08"/><ellipse cx="279.56" cy="216.04" rx="7.03" ry="11.28"/><ellipse class="cls-6" cx="242.01" cy="215.79" rx="14.33" ry="21.08"/><ellipse cx="242.01" cy="215.79" rx="7.03" ry="11.28"/><path class="cls-7" d="M289.87,314.32a8.46,8.46,0,0,1-4.16-2.1l-.94,4a5.1,5.1,0,0,0,3.94,3,5,5,0,0,0,4.8-.89l.94-4A8.1,8.1,0,0,1,289.87,314.32Z"/><path class="cls-8" d="M311.36,263.72a13.08,13.08,0,0,1-18-4.28h0L283.93,311c1,2.66,3.13,3.81,5.64,4.41s4.83.49,6.95-1.42l14.84-50.3Z"/><ellipse class="cls-9" cx="303.57" cy="256.38" rx="11.76" ry="12.54" transform="translate(-16.05 492.45) rotate(-76.63)"/><path d="M294.9,289.74c4.15.25,7.78,2.48,11.38,4.33a67.34,67.34,0,0,0,12.41,4.76,160.78,160.78,0,0,0,25.74,5.53c8.58,1,17.49.72,25.69-2.19,6.87-2.44,13.56-6.84,16.86-13.55s2.53-16.14-3.72-21.06c-1.5-1.18-3.64.93-2.12,2.12,5.05,4,6.05,11.42,3.41,17.08-3,6.42-9.35,10.54-15.86,12.73-15.74,5.31-33.1,1-48.54-3.36a67.38,67.38,0,0,1-13.11-5c-3.85-2-7.71-4.08-12.14-4.35-1.92-.11-1.92,2.89,0,3Z"/><path d="M295.38,287.19a12.19,12.19,0,0,0-12-.21,6.83,6.83,0,0,0-2.56,2.11,2.47,2.47,0,0,0,.72,3.52,7,7,0,0,0,3.41.64,14.78,14.78,0,0,0,3.38-.38,25,25,0,0,0,7-3.09,1.5,1.5,0,0,0-1.51-2.59,22.74,22.74,0,0,1-6,2.71,11.1,11.1,0,0,1-3.09.34c-.5,0-1-.1-1.48-.14-.23,0-.19-.09.09.44q-.12.42.06.06a.28.28,0,0,0,.17-.15,8.28,8.28,0,0,1,4.93-1.92,8.89,8.89,0,0,1,5.33,1.25,1.5,1.5,0,0,0,1.51-2.59Z"/><path d="M293.74,286.79a35.73,35.73,0,0,0-6.62.21,7.56,7.56,0,0,0-2.7.82,3.25,3.25,0,0,0-1.68,2.57,1.51,1.51,0,0,0,1.1,1.45,2.22,2.22,0,0,0,2.13-.51,1.52,1.52,0,0,0,0-2.13,1.56,1.56,0,0,0-2.12,0,1,1,0,0,1,.78-.25l1.11,1.44c0,.2,0,.22,0,.05-.07.19-.07.2,0,.06-.12.15-.12.16,0,0s.12-.1,0,0a3.37,3.37,0,0,1,.32-.19c.15-.08.15-.08,0,0l.24-.09a9.72,9.72,0,0,1,2.13-.41,39.52,39.52,0,0,1,5.33,0,1.5,1.5,0,0,0,0-3Z"/></svg>