<svg id="圖層_1" data-name="圖層 1" xmlns="http://www.w3.org/2000/svg" viewBox="0 0 250 250"><defs><style>.cls-1{fill:#2368ff;}.cls-2,.cls-4,.cls-7{fill:#fff;}.cls-10,.cls-3,.cls-5,.cls-8{fill:#5fe6ff;}.cls-3{stroke:#5fe6ff;}.cls-3,.cls-5,.cls-9{stroke-miterlimit:10;}.cls-4,.cls-5,.cls-7,.cls-8,.cls-9{stroke:#000;}.cls-4,.cls-6,.cls-7,.cls-8{stroke-linecap:round;stroke-linejoin:round;}.cls-4{stroke-width:4px;}.cls-5,.cls-6,.cls-7,.cls-8,.cls-9{stroke-width:3px;}.cls-6{fill:none;stroke:#040000;}</style></defs><circle class="cls-1" cx="125" cy="125" r="125"/><path d="M188.26,262.51a83.94,83.94,0,0,0-5.41,10.71,1.56,1.56,0,0,0,.53,2.06,1.52,1.52,0,0,0,2.06-.54A83.29,83.29,0,0,1,190.85,264a1.5,1.5,0,0,0-2.59-1.52Z" transform="translate(-131 -131)"/><path class="cls-2" d="M210.29,176.57a2.46,2.46,0,0,0-.7-.42,1.81,1.81,0,0,0-.67-.13,1.1,1.1,0,0,0-.68.19.62.62,0,0,0-.26.52.52.52,0,0,0,.13.36,1.28,1.28,0,0,0,.34.24,2.67,2.67,0,0,0,.48.18l.53.16a3.41,3.41,0,0,1,1.54.94,2.33,2.33,0,0,1,.48,1.52,3,3,0,0,1-.21,1.15,2.47,2.47,0,0,1-.62.88,2.91,2.91,0,0,1-1,.56,4,4,0,0,1-1.35.21,5,5,0,0,1-2.89-.93l.92-1.73a3.69,3.69,0,0,0,1,.64,2.4,2.4,0,0,0,.93.2,1.1,1.1,0,0,0,.78-.24.72.72,0,0,0,.25-.54.65.65,0,0,0-.28-.58,2.07,2.07,0,0,0-.4-.21l-.59-.22a8,8,0,0,1-.82-.29,2.42,2.42,0,0,1-.71-.42,2,2,0,0,1-.5-.66,2.28,2.28,0,0,1-.19-1,3,3,0,0,1,.2-1.1,2.59,2.59,0,0,1,.57-.86,2.53,2.53,0,0,1,.9-.55,3.36,3.36,0,0,1,1.18-.19,4.9,4.9,0,0,1,1.28.17,5.3,5.3,0,0,1,1.27.49Z" transform="translate(-131 -131)"/><path class="cls-2" d="M219.88,174.47v8.23h-2.14v-8.23Z" transform="translate(-131 -131)"/><path class="cls-2" d="M229.64,176.28v6.42H227.5v-6.42h-1.76v-1.81h5.65v1.81Z" transform="translate(-131 -131)"/><path class="cls-2" d="M243.11,177.22a2.29,2.29,0,0,0-1.84-.91,2.21,2.21,0,0,0-.89.18,2.1,2.1,0,0,0-1.16,1.18,2.49,2.49,0,0,0,0,1.81,2.16,2.16,0,0,0,2,1.37,2.49,2.49,0,0,0,1.85-.87v2.53l-.22.08a6.39,6.39,0,0,1-.92.25,4,4,0,0,1-.84.09,4.13,4.13,0,0,1-1.63-.33,4.22,4.22,0,0,1-1.38-.9,4.57,4.57,0,0,1-1-1.39,4.22,4.22,0,0,1-.36-1.75,4.33,4.33,0,0,1,.35-1.74,4.6,4.6,0,0,1,1-1.37,4.36,4.36,0,0,1,1.38-.89,4.25,4.25,0,0,1,1.65-.32,4.5,4.5,0,0,1,1,.1,6.39,6.39,0,0,1,1,.32Z" transform="translate(-131 -131)"/><path class="cls-2" d="M249.12,178.58a4.28,4.28,0,0,1,1.28-3.09,4.28,4.28,0,0,1,1.44-.92,4.92,4.92,0,0,1,1.83-.33,5,5,0,0,1,1.84.33,4.35,4.35,0,0,1,2.39,5.72,4.28,4.28,0,0,1-.94,1.38,4.43,4.43,0,0,1-1.45.92,5,5,0,0,1-1.84.34,4.93,4.93,0,0,1-1.83-.34,4.21,4.21,0,0,1-2.38-2.3A4.42,4.42,0,0,1,249.12,178.58Zm2.24,0a2.12,2.12,0,0,0,.19.91,2.39,2.39,0,0,0,.5.72,2.38,2.38,0,0,0,1.62.64,2.21,2.21,0,0,0,.89-.17,2.44,2.44,0,0,0,.75-.47,2.39,2.39,0,0,0,.5-.72,2.27,2.27,0,0,0,0-1.82,2.39,2.39,0,0,0-.5-.72,2.44,2.44,0,0,0-.75-.47,2.39,2.39,0,0,0-1.77,0,2.18,2.18,0,0,0-.74.47,2.39,2.39,0,0,0-.5.72A2.12,2.12,0,0,0,251.36,178.58Z" transform="translate(-131 -131)"/><path class="cls-2" d="M264.5,182.7v-8.23h2.14l3.95,5v-5h2.13v8.23h-2.13l-3.95-5v5Z" transform="translate(-131 -131)"/><path class="cls-2" d="M280.32,174.47h1.87l-2,3.62h-1.27Z" transform="translate(-131 -131)"/><path class="cls-2" d="M294.61,182.7H288l2-2.12c.53-.56,1-1,1.26-1.43a7.66,7.66,0,0,0,.69-1,2.61,2.61,0,0,0,.27-.66,1.91,1.91,0,0,0,.06-.42,1,1,0,0,0-.06-.36,1,1,0,0,0-.18-.32.86.86,0,0,0-.29-.21.94.94,0,0,0-1.08.2,1,1,0,0,0-.25.71,3,3,0,0,0,0,.35h-2.33a3.64,3.64,0,0,1,.23-1.31,3.09,3.09,0,0,1,.66-1,3,3,0,0,1,1-.65,3.37,3.37,0,0,1,1.29-.23,3.53,3.53,0,0,1,1.27.22,2.88,2.88,0,0,1,1,.61,2.81,2.81,0,0,1,.66.93,2.85,2.85,0,0,1,.24,1.17,2.62,2.62,0,0,1-.29,1.25,4.27,4.27,0,0,1-.92,1.18L292,180.88h2.66Z" transform="translate(-131 -131)"/><path class="cls-2" d="M302.29,176.28h-1.2v-1.81h3.34v8.23h-2.14Z" transform="translate(-131 -131)"/><path d="M244,303.31q5.84,14.2,11,28.66c.65,1.8,3.55,1,2.9-.8q-5.22-14.44-11-28.66c-.73-1.76-3.63-1-2.9.8Z" transform="translate(-131 -131)"/><path d="M276.16,304.26q-4.59,14.65-8.55,29.5a1.5,1.5,0,0,0,2.9.79q3.94-14.83,8.55-29.5c.58-1.84-2.32-2.63-2.9-.79Z" transform="translate(-131 -131)"/><rect class="cls-3" x="161.25" y="271.93" width="58.22" height="36.21" rx="5.65" transform="translate(-220.45 -46.07) rotate(-20.48)"/><path class="cls-2" d="M187.42,302.54a6.84,6.84,0,0,1-2.59,1.52,7.54,7.54,0,0,1-8.26-1.6c-3.51.49-6.61-1.48-8.17-5.7-1.81-4.9,0-8.71,4.17-10.25s8,.21,9.83,5.09c1.47,4,.59,7.35-2,9.3a4.23,4.23,0,0,0,3.83.18,5.88,5.88,0,0,0,1.62-.91Zm-10.21-3.46c2-.75,2.6-3,1.46-6.1-1.07-2.89-2.95-4.14-5-3.4s-2.62,2.91-1.55,5.8C173.3,298.49,175.2,299.82,177.21,299.08Z" transform="translate(-131 -131)"/><path class="cls-2" d="M196.37,295.24a10,10,0,0,1-3.13,0,6,6,0,0,1-3,2.26c-2.37.87-4.09-.09-4.67-1.66a3.55,3.55,0,0,1,.85-3.6,4.76,4.76,0,0,1-1.42-1.89,2.92,2.92,0,0,1,1.93-3.8,2.53,2.53,0,0,1,3.54,1.39c.51,1.36-.27,2.59-1.11,3.72a13.85,13.85,0,0,0,2.68,1,7.5,7.5,0,0,0,.3-2.85l2.3-.85a11.43,11.43,0,0,1-.48,4.1,6.41,6.41,0,0,0,2,0Zm-8.5-4.62c.57-.68,1-1.31.71-2a.69.69,0,0,0-1-.49,1,1,0,0,0-.5,1.43A2.58,2.58,0,0,0,187.87,290.62Zm2,4.86a2.6,2.6,0,0,0,1.1-.8,15.1,15.1,0,0,1-2.84-1.25,1.76,1.76,0,0,0-.21,1.37A1.39,1.39,0,0,0,189.9,295.48Z" transform="translate(-131 -131)"/><path class="cls-2" d="M204.91,288l-4.52,1.67.39,3.76L197,294.77l-.76-16.68,4.39-1.62,10.25,13.19-3.86,1.42Zm-1.72-2.51-.79-1.14c-1-1.34-2-3-3-4.35l-.09,0c.21,1.7.45,3.6.6,5.22l.14,1.39Z" transform="translate(-131 -131)"/><path d="M197.53,304.48l-.54,1.91,1.85-1.05c-.12,0-.15-.11,0,0,0,0-.11-.05-.15-.09s.16.2,0,0a.74.74,0,0,0-.13-.12c-.18-.16,0,0,0,0l-.12-.19c0-.05,0-.11-.08-.15s0,.24,0,0a1.41,1.41,0,0,0-.06-.22s0,.26,0,.12a.89.89,0,0,0,0-.23c0-.15,0,.09,0,.12a1.29,1.29,0,0,0,.06-.21s-.1.26,0,.1.13-.26,0-.07.06-.05.09-.09-.22.11.08,0-.17,0,.08,0c0,0,.2-.06.21-.05s-.32,0-.13,0H199c.29,0,0,0,0,0s.41.24.22.06-.06,0,0,0,.2.27,0-.05a.5.5,0,0,0,.12.13c.17.14-.15-.18,0,0s.05.1.09.14c-.16-.19,0-.14,0,0a1.8,1.8,0,0,0,.06.22c0,.16,0-.09,0-.11,0,.15,0,.31,0,.47s0,.22,0,0,0,.06,0,.11a4.5,4.5,0,0,1-.14.49c0,.15-.1.29-.15.43.11-.27-.06.1-.1.18a9.76,9.76,0,0,1-.51.89l-.54.79s-.2.25-.09.12-.05.05-.06.06-.23.28-.35.41-.25.26-.39.38l-.15.13c-.16.16.18-.11,0,0a4.13,4.13,0,0,1-.38.25c-.11.06-.5.2-.24.13l-.25.08s-.4.09-.24.07-.1,0-.11,0H195c.24,0-.08,0-.13,0-.23-.05-.45-.11-.68-.18a5.28,5.28,0,0,1-1-.43c-.43-.22-.84-.47-1.25-.72a1.51,1.51,0,0,0-2.05.54,1.53,1.53,0,0,0,.53,2.05c1.93,1.17,4.25,2.33,6.55,1.51a8.63,8.63,0,0,0,4.23-4c1-1.62,1.73-4,.5-5.67a3.41,3.41,0,0,0-2.75-1.46,3.52,3.52,0,0,0-1,6.94,1.52,1.52,0,0,0,1.85-1l.53-1.91a1.5,1.5,0,1,0-2.89-.8Z" transform="translate(-131 -131)"/><path d="M268.88,335a2.61,2.61,0,0,0,1.17,1.46c1.5,1.16,3.19,2.38,5.46,2.43a3.93,3.93,0,0,0,2.26-.56,1.84,1.84,0,0,0,.8-2.06,2.89,2.89,0,0,0-1.67-1.51c-2.21-.94-5.14-.53-7.84-.1" transform="translate(-131 -131)"/><path d="M267.43,335.38a4.42,4.42,0,0,0,1.92,2.4,18,18,0,0,0,2,1.37,8.16,8.16,0,0,0,5.6,1.09c2-.37,3.75-2.28,3.07-4.39s-3-2.84-4.89-3.08a23,23,0,0,0-6.46.43,1.5,1.5,0,0,0-1.05,1.84,1.54,1.54,0,0,0,1.84,1c.75-.12,1.37-.22,2-.29s1.41-.13,2.12-.13c.36,0,.71,0,1.07,0l.23,0,.54.1a6.68,6.68,0,0,1,.87.26h0l.27.14.2.11s.25.18.15.1.26.26.14.13.22.27.09.13,0,0,0,.06,0-.28,0-.11,0,.13,0,.19c0-.13.05-.2,0,0s0,.07,0,0-.14.19,0,.08-.23.22-.13.14-.09,0-.09.06l-.21.11c-.16.07,0,0,0,0l-.31.09c-.05,0-.43.07-.23.05a3.85,3.85,0,0,1-.48,0,5.43,5.43,0,0,1-.57,0c-.18,0,0,0,0,0l-.31-.06a6.63,6.63,0,0,1-.9-.25l-.21-.08-.48-.23a13.77,13.77,0,0,1-1.8-1.16l-.4-.31c-.13-.1,0,0,0,0l-.3-.24a4.44,4.44,0,0,1-.38-.37s.08.13,0,0,.08.33,0-.1a1.5,1.5,0,0,0-1.84-1.05,1.53,1.53,0,0,0-1.05,1.85Z" transform="translate(-131 -131)"/><path d="M256.53,332.22a2.56,2.56,0,0,1-1.1,1.51c-1.44,1.24-3.07,2.54-5.33,2.7a3.91,3.91,0,0,1-2.29-.45,1.84,1.84,0,0,1-.89-2,2.85,2.85,0,0,1,1.59-1.59c2.16-1,5.11-.78,7.83-.48" transform="translate(-131 -131)"/><path d="M255.09,331.82c0,.08-.1.4,0,.17,0,0-.16.22,0,.05l-.15.16a7.38,7.38,0,0,1-.73.65c-.24.2-.47.4-.72.59s0,0,0,0a1.09,1.09,0,0,1-.17.13,5.11,5.11,0,0,1-.48.33,5.3,5.3,0,0,1-3.26,1.06h-.24a3.58,3.58,0,0,1-.54-.14c.17.06-.15-.07-.2-.11l-.09-.06c.14.11-.16-.18,0,0s0-.1-.07-.12,0,0,0,.06c0-.15,0-.35,0-.09,0,0,0-.24,0,0s0,0,0,0c-.16.32.21-.3,0,0a2.22,2.22,0,0,1,.3-.31c-.15.14.13-.08.19-.12l.47-.26h0l.28-.1a6.74,6.74,0,0,1,.88-.24l.31-.06.11,0,.11,0,.32,0a26.35,26.35,0,0,1,5,.22,1.5,1.5,0,0,0,1.5-1.5,1.54,1.54,0,0,0-1.5-1.5,24.1,24.1,0,0,0-5.5-.17c-1.86.23-4.08.85-5.06,2.62-1.15,2.05.26,4.28,2.34,4.89a7.58,7.58,0,0,0,5.65-.91,16.3,16.3,0,0,0,2.29-1.66,4.57,4.57,0,0,0,1.92-2.54,1.54,1.54,0,0,0-1.05-1.85,1.51,1.51,0,0,0-1.84,1.05Z" transform="translate(-131 -131)"/><polygon class="cls-4" points="91.89 66.74 52.48 119.98 86.36 176.58 177.37 178.24 213.02 121.49 171.84 66.7 91.89 66.74"/><path class="cls-5" d="M279.48,293.22a5.26,5.26,0,0,1-2.59-1.32l-.59,2.49a3.19,3.19,0,0,0,2.46,1.85,3.11,3.11,0,0,0,3-.56l.59-2.47A5.27,5.27,0,0,1,279.48,293.22Z" transform="translate(-131 -131)"/><path class="cls-6" d="M187.42,251.07c24,5.23,53.5,4.8,78.27,5.19,27.41.43,50.86-3.15,78.26-2.72" transform="translate(-131 -131)"/><ellipse class="cls-7" cx="118.57" cy="100.63" rx="8.96" ry="13.18"/><ellipse cx="118.57" cy="100.63" rx="4.39" ry="7.05"/><ellipse class="cls-7" cx="142.04" cy="100.79" rx="8.96" ry="13.18"/><ellipse cx="142.04" cy="100.79" rx="4.39" ry="7.05"/><path class="cls-8" d="M292.91,261.59a8.18,8.18,0,0,1-11.24-2.67h0l-5.9,32.25a4.5,4.5,0,0,0,3.53,2.75,4.42,4.42,0,0,0,4.34-.88l9.28-31.44Z" transform="translate(-131 -131)"/><ellipse class="cls-9" cx="288.04" cy="257" rx="7.35" ry="7.84" transform="translate(-159.58 346.83) rotate(-76.63)"/><path d="M282.63,278.41c2.71.19,5,1.75,7.4,2.92a44.24,44.24,0,0,0,7.8,2.88,98.48,98.48,0,0,0,16.38,3.41c9.37,1,22.26-.88,26.65-10.61,2-4.43,1.33-10.26-2.61-13.42-1.49-1.2-3.63.91-2.12,2.12,3.1,2.49,3.6,7,1.82,10.46-2,3.86-6,6.22-10.07,7.46-9.72,3-20.45.24-29.91-2.5a40.39,40.39,0,0,1-7.74-3.07,19.45,19.45,0,0,0-7.6-2.65c-1.93-.13-1.92,2.87,0,3Z" transform="translate(-131 -131)"/><rect class="cls-10" x="182.7" y="308.94" width="11.44" height="1.62" transform="translate(-227.47 -45.5) rotate(-20.48)"/></svg>