<svg xmlns="http://www.w3.org/2000/svg" width="186" height="186" viewBox="0 0 186 186"><defs><style>.a{fill:#2368ff;}.b,.f{fill:#5fe6ff;}.b,.c,.e,.f,.i{stroke:#000;}.b,.c,.d,.e,.f,.i{stroke-linecap:round;stroke-linejoin:round;}.b,.d,.e{stroke-width:3px;}.c,.e,.h{fill:#fff;}.c{stroke-width:4px;}.d,.i{fill:none;}.d{stroke:#040000;}.g{fill:#b3b3b3;stroke:#231815;stroke-miterlimit:10;stroke-width:0.5px;}</style></defs><g transform="translate(-368.319 -356.193)"><circle class="a" cx="93" cy="93" r="93" transform="translate(368.319 356.193)"/><path class="b" d="M440.151,468.619H507.7L534.725,487.8H413.13Z" transform="translate(-11.511 -28.685)"/><path class="c" d="M443.758,412.882l-29.4,39.719,25.274,42.222,67.89,1.236,26.6-42.332L503.4,412.849Z" transform="translate(-11.823 -14.52)"/><path class="d" d="M418.3,466.224c18.478.292,36.925,3.678,55.4,3.97,20.447.323,40.923-2.449,61.369-2.126" transform="translate(-12.824 -28.077)"/><ellipse class="e" cx="6.683" cy="9.829" rx="6.683" ry="9.829" transform="translate(446.722 417.434)"/><ellipse cx="3.276" cy="5.259" rx="3.276" ry="5.259" transform="translate(450.129 422.004)"/><ellipse class="e" cx="6.683" cy="9.829" rx="6.683" ry="9.829" transform="translate(464.231 417.551)"/><ellipse cx="3.276" cy="5.259" rx="3.276" ry="5.259" transform="translate(467.638 422.121)"/><path class="f" d="M434.01,476.979q-6.119-23.439-12.091-46.915,11.011-1.7,21.985-3.639,2.55,25.1,7.216,49.924" transform="translate(-13.744 -17.968)"/><path class="b" d="M420.972,537.9l-7.842-43.573h121.6l-9.2,43.573Z" transform="translate(-11.511 -35.214)"/><path class="g" d="M528.3,500.966a73.04,73.04,0,0,0,13.777,11.159c1.647.989,3.488,1.943,5.393,1.688a2.123,2.123,0,0,0,1.909-1.388,2.228,2.228,0,0,0-.087-1.07,12.736,12.736,0,0,0-3.46-5.12c-3.846-4.008-8.408-7.837-12.629-11.448" transform="translate(-40.763 -35.331)"/><path class="g" d="M523.921,496.987c-2.943,1.6-6.6,2.971-9.509,1.321a7.242,7.242,0,0,1-3.272-5.534,21.418,21.418,0,0,1,.6-6.616,7.633,7.633,0,0,0,3.186,4.3,4.03,4.03,0,0,0,5.519-5.761,7.311,7.311,0,0,0-4.906-2.98c.225-1.115,1.407-1.742,2.5-2.066a13.052,13.052,0,0,1,8.848.531,6.535,6.535,0,0,1,3.635,3.276c.974,2.419-.378,5.094-1.689,7.347" transform="translate(-36.384 -31.352)"/><g transform="translate(425.48 478.263)"><path class="h" d="M448.764,521.741a1.976,1.976,0,0,0-.521-.313,1.384,1.384,0,0,0-.505-.1.817.817,0,0,0-.5.147.456.456,0,0,0-.2.383.378.378,0,0,0,.1.269.846.846,0,0,0,.256.184,2.2,2.2,0,0,0,.359.134c.133.038.265.078.395.122a2.472,2.472,0,0,1,1.144.7,1.717,1.717,0,0,1,.363,1.136,2.21,2.21,0,0,1-.159.855,1.786,1.786,0,0,1-.464.656,2.146,2.146,0,0,1-.75.424,3.132,3.132,0,0,1-1.006.151,3.7,3.7,0,0,1-2.158-.692l.684-1.287a2.763,2.763,0,0,0,.709.472,1.7,1.7,0,0,0,.692.154.826.826,0,0,0,.582-.179.554.554,0,0,0,.142-.648.517.517,0,0,0-.163-.187,1.344,1.344,0,0,0-.3-.159q-.184-.073-.444-.163c-.207-.065-.409-.137-.607-.216a1.91,1.91,0,0,1-.529-.314,1.449,1.449,0,0,1-.375-.492,1.733,1.733,0,0,1-.142-.753,2.172,2.172,0,0,1,.151-.827,1.824,1.824,0,0,1,.423-.635,1.883,1.883,0,0,1,.668-.412,2.525,2.525,0,0,1,.884-.146,3.863,3.863,0,0,1,.953.126,4.176,4.176,0,0,1,.953.371Z" transform="translate(-445.115 -519.998)"/><path class="h" d="M459.047,520.227v6.14h-1.6v-6.14Z" transform="translate(-448.248 -520.056)"/><path class="h" d="M468.36,521.579v4.789h-1.6v-4.789h-1.311v-1.352h4.218v1.352Z" transform="translate(-450.281 -520.056)"/><path class="h" d="M481.221,522.221a1.7,1.7,0,0,0-1.368-.676,1.668,1.668,0,0,0-.664.131,1.625,1.625,0,0,0-.525.354,1.651,1.651,0,0,0-.346.533,1.754,1.754,0,0,0-.126.668,1.772,1.772,0,0,0,.126.676,1.629,1.629,0,0,0,1.527,1.026,1.849,1.849,0,0,0,1.376-.651v1.89l-.163.057a4.8,4.8,0,0,1-.684.192,3.353,3.353,0,0,1-.627.061,3.209,3.209,0,0,1-2.243-.917,3.366,3.366,0,0,1-.713-1.034,3.316,3.316,0,0,1,0-2.606A3.244,3.244,0,0,1,479.755,520a3.316,3.316,0,0,1,.721.078,4.367,4.367,0,0,1,.745.239Z" transform="translate(-453.092 -519.998)"/><path class="h" d="M488.836,523.239a3.162,3.162,0,0,1,2.024-2.993,3.9,3.9,0,0,1,2.74,0,3.239,3.239,0,0,1,1.079.688,3.169,3.169,0,0,1,.7,1.03,3.348,3.348,0,0,1,0,2.549,3.162,3.162,0,0,1-.7,1.03,3.241,3.241,0,0,1-1.079.689,3.9,3.9,0,0,1-2.74,0,3.175,3.175,0,0,1-2.024-2.993Zm1.67,0a1.647,1.647,0,0,0,.138.676,1.691,1.691,0,0,0,.924.891,1.776,1.776,0,0,0,1.881-.354,1.684,1.684,0,0,0,.379-.537,1.726,1.726,0,0,0,0-1.353,1.684,1.684,0,0,0-.379-.537,1.757,1.757,0,0,0-1.217-.48,1.775,1.775,0,0,0-.664.126,1.691,1.691,0,0,0-.924.891A1.648,1.648,0,0,0,490.506,523.239Z" transform="translate(-456.22 -519.998)"/><path class="h" d="M504.217,526.367v-6.14h1.6l2.947,3.755v-3.755h1.588v6.14h-1.588l-2.947-3.754v3.754Z" transform="translate(-460.126 -520.056)"/><path class="h" d="M519.677,520.227h1.393l-1.5,2.7h-.944Z" transform="translate(-463.786 -520.056)"/><path class="h" d="M532.642,526.312H527.7l1.523-1.58q.6-.627.945-1.062a5.843,5.843,0,0,0,.509-.737,1.967,1.967,0,0,0,.208-.489,1.553,1.553,0,0,0,.04-.318.817.817,0,0,0-.045-.268.657.657,0,0,0-.648-.456.637.637,0,0,0-.509.211.781.781,0,0,0-.184.53,1.985,1.985,0,0,0,.025.26H527.82a2.613,2.613,0,0,1,.175-.977,2.21,2.21,0,0,1,.492-.757,2.174,2.174,0,0,1,.753-.489,2.594,2.594,0,0,1,.957-.171,2.7,2.7,0,0,1,.949.163,2.273,2.273,0,0,1,.753.456,2.1,2.1,0,0,1,.5.7,2.129,2.129,0,0,1,.179.875,2.036,2.036,0,0,1-.216.932,3.272,3.272,0,0,1-.689.876l-1.018.953h1.987Z" transform="translate(-466.09 -520.001)"/><path class="h" d="M541.694,521.579h-.9v-1.352h2.492v6.14h-1.6Z" transform="translate(-469.418 -520.056)"/></g><path class="i" d="M424.128,481.643c-.292,4.239-.542,8.713,1.353,12.516,2.2,4.412,6.838,7.024,11.392,8.91a26.161,26.161,0,0,1,6.253,3.148,7.185,7.185,0,0,1,3.065,6,4.952,4.952,0,0,1-2.789-5.451" transform="translate(-14.254 -31.993)"/><path class="i" d="M560.55,482.956c.719,4.254-.9,8.622-3.388,12.149s-5.782,6.382-8.915,9.348c-1.467,1.39-2.988,2.977-3.218,4.984-.069.61.24,1.448.843,1.331.5-.1.609-.759.6-1.27l-.045-3.439" transform="translate(-45.01 -32.326)"/></g></svg>