<svg width="260" height="133" viewBox="0 0 260 133" fill="none" xmlns="http://www.w3.org/2000/svg">
<g filter="url(#filter0_d)">
<path d="M228.072 58.8798L197.913 28.953C197.303 28.3455 196.577 27.8637 195.778 27.5355C194.979 27.2072 194.123 27.0387 193.258 27.0399V27H66.7407V27.0399C65.8762 27.0389 65.02 27.2074 64.2213 27.5357C63.4226 27.8639 62.6971 28.3456 62.0866 28.953L31.9285 58.8798C31.3171 59.4864 30.8321 60.2066 30.5012 60.9992C30.1703 61.7918 30 62.6414 30 63.4994C30 64.3574 30.1703 65.2069 30.5012 65.9995C30.8321 66.7921 31.3171 67.5124 31.9285 68.1189L62.0866 98.0458C62.6972 98.6535 63.4228 99.1355 64.2217 99.4639C65.0206 99.7928 65.8771 99.9612 66.7419 99.9602V100H193.258V99.9602C194.123 99.9612 194.979 99.7928 195.778 99.4639C196.577 99.1355 197.303 98.6535 197.913 98.0458L228.072 68.1189C228.683 67.5124 229.168 66.7921 229.499 65.9995C229.83 65.2069 230 64.3574 230 63.4994C230 62.6414 229.83 61.7918 229.499 60.9992C229.168 60.2066 228.683 59.4864 228.072 58.8798Z" fill="white"/>
</g>
<path d="M96.4459 56.2339V50.4495H81.3531V56.7409H80.6896V52.656H79.5969V50.4495H72.3801V52.656H71.2012V59.8119H72.3801V64.2546L71 64.4931V72.0367H72.3801V73.9496L71.2012 75.3762V77.9404H79.5969V70.7546L80.6321 70.5459V62.9771H79.5969V59.8166H80.287V62.2019H86.9001L88.3664 60.8899V56.8624H89.2003V60.8877L90.7485 62.1996H97.7641V56.2362L96.4459 56.2339ZM97.0497 71.4106V62.8532H81.4083V67.8326H90.0054V68.9037L89.1428 69.6491L87.5614 68.4863H81.4371V72.0345L82.501 72.9289L80.3158 74.4817V78H87.1589L89.0565 76.4198L91.1842 78H97.366V74.2432L95.5258 72.812L97.0497 71.4106ZM127.7 51.0138H122.38V50H115.365V51.0138H110.851V56.9175H127.7V51.0138ZM110.247 64.672V66.1033L109.356 65V63.9266H110.391V57.3968H109.356V55.9656L110.19 55.3692V50.5688H101.391V56.3532H102.972V57.3968H101.305V63.9266H102.772L101.075 66.7248V75.3464H102.168L102.972 73.8257V77.9106H109.356V72.2753H110.247V77.9106H116.199V69.6812H121.839V74.1239L121.206 74.6903V70.3945H116.836V76.6583H119.616V77.9106H127.954V64.672H110.247ZM127.124 63.984V57.6331H111.167V63.984H127.124ZM117.205 60.5322H120.833V61.4266H117.205V60.5322ZM119.534 74.0986H118.614V73.0551H119.534V74.0986ZM154.324 58.1468H155.849L157.746 56.6858V50.8991H148.603V50.0642H142.564L139.579 52.2431V58.1468H141.304L143.547 56.5963V57.461L139.603 60.0803V62.4059H146.709L148.258 60.8257H148.804L150.386 62.4059H157.919V59.8119L154.324 58.1468ZM138.913 50.539H131.553V56.1445H138.913V50.539ZM144.578 55.8761L145.469 55.25H151.708V55.8761H144.578ZM138.913 56.8303H133.992L131.548 58.6192V62.4037H138.913V56.8303ZM157.373 74.7523V63.0918H132.07V74.7523H133.618L131.553 76.3899V77.9702H141.702L143.281 76.0918H146.102L147.683 77.9702H157.832V76.3899L155.762 74.7523H157.373ZM149.466 66.7592V67.4472H139.661V66.7592H149.466ZM149.466 70.0688H139.661V69.4128H149.466V70.0688ZM139.661 71.9472H149.466V72.6354H139.661V71.9472ZM169.85 50.2408H163.496V51.4335H161.657V58.1422H171.691V51.4335H169.85V50.2408ZM187.533 68.789V50.5688H172.353V58.3807H173.272V61.6904H172.18V68.6376H173.272V77.9702H179.483V68.6376H180.81V75.0481L182.967 77.9404H188.717V68.789H187.533ZM179.483 61.6926V58.383H180.81V61.6926H179.483ZM171.547 58.8257H161.772V63.1491H171.547V58.8257ZM161.772 67.9862H171.547V63.8417H161.772V67.9862ZM161.686 77.8853H171.605V68.7271H161.686V77.8853ZM165.854 72.8165H167.321V73.9197H165.854V72.8165Z" fill="#226BB4"/>
<defs>
<filter id="filter0_d" x="0" y="0" width="260" height="133" filterUnits="userSpaceOnUse" color-interpolation-filters="sRGB">
<feFlood flood-opacity="0" result="BackgroundImageFix"/>
<feColorMatrix in="SourceAlpha" type="matrix" values="0 0 0 0 0 0 0 0 0 0 0 0 0 0 0 0 0 0 127 0"/>
<feOffset dy="3"/>
<feGaussianBlur stdDeviation="15"/>
<feColorMatrix type="matrix" values="0 0 0 0 0.34902 0 0 0 0 0.470588 0 0 0 0 0.807843 0 0 0 0.561 0"/>
<feBlend mode="normal" in2="BackgroundImageFix" result="effect1_dropShadow"/>
<feBlend mode="normal" in="SourceGraphic" in2="effect1_dropShadow" result="shape"/>
</filter>
</defs>
</svg>
