<svg width="281" height="133" viewBox="0 0 281 133" fill="none" xmlns="http://www.w3.org/2000/svg">
<g filter="url(#filter0_d)">
<path d="M248.726 58.8798L215.423 28.953C214.749 28.3455 213.948 27.8638 213.065 27.5355C212.183 27.2072 211.238 27.0388 210.283 27.04V27H70.572V27.04C69.6173 27.0389 68.6719 27.2074 67.7899 27.5357C66.9079 27.864 66.1068 28.3456 65.4326 28.953L32.1296 58.8798C31.4544 59.4864 30.9189 60.2066 30.5535 60.9993C30.1881 61.7919 30 62.6415 30 63.4994C30 64.3574 30.1881 65.2069 30.5535 65.9996C30.9189 66.7922 31.4544 67.5124 32.1296 68.119L65.4326 98.0459C66.1068 98.6535 66.9081 99.1355 67.7903 99.464C68.6726 99.7925 69.6183 99.9611 70.5733 99.96V100H210.283V99.96C211.238 99.9611 212.183 99.7925 213.066 99.464C213.948 99.1355 214.749 98.6535 215.423 98.0459L248.726 68.119C249.401 67.5124 249.937 66.7922 250.302 65.9996C250.668 65.2069 250.856 64.3574 250.856 63.4994C250.856 62.6415 250.668 61.7919 250.302 60.9993C249.937 60.2066 249.401 59.4864 248.726 58.8798" fill="white"/>
</g>
<path d="M77.2278 62.0184V49.5338H64V76.8216H71.4908V62.0184H77.2278ZM78.0032 49.5338V62.0184H83.8591V72.7493L82.6998 73.5247V72.1548H83.2646V67.9635H82.6998V67.0123H83.2646V62.7021H72.0582V67.0123H72.8607V67.9635H72.0582V72.1548H72.7418L72.146 74.4733V76.1082H76.6048L77.1696 72.1548H78.2397V76.1082H80.4691V76.8191H91.2892V49.5338H78.0032ZM72.769 54.3195V55.095H70.4504V54.3195H72.769ZM85.0753 54.3195V55.095H82.6378V54.3195H85.0753ZM70.4504 58.4514V57.6759H72.769V58.4514H70.4504ZM82.6378 57.6759H85.0753V58.4514H82.6378V57.6759ZM77.1696 67.9635V67.0123H78.2397V67.9635H77.1696ZM106.033 49.1473H98.4233V50.5742H95.2724V58.0352H96.6397L95.4507 71.263V76.7919H101.544L101.901 66.0313H103.239V71.0847L102.406 72.0953V76.7919H109.689V59.3729H103.506V58.0352H109.719V50.5742H106.036L106.033 49.1473ZM121.163 67.6365L122.471 65.5855V50.3958H118.101V49.2365H112.424L110.492 51.6443V58.273H116.229V61.0375L114.772 59.0162H110.492V66.0313L111.859 67.7851L110.492 69.747V76.8514H114.98L116.407 74.5897L118.161 76.8514H122.591V69.747L121.163 67.6365ZM150.562 64.3667V59.2229H153.653V51.1971H152.791L152.434 49.4433H149.967V51.1971H149.135V49H140.306V51.1971H126.454V59.2229H141.258V66.5057L146.103 77H154.01V71.0252L150.562 64.3667ZM138.315 66.5961H140.277V60.1457H127.316V66.5961H129.219V69.9564H127.022V76.5244H141.02V69.9551H138.315V66.5961ZM164.918 49.2365H159.27V50.4255H157.606V57.1137H166.643V50.4255H164.918V49.2365ZM184.062 73.0465L184.865 72.3357V69.4795H182.457L181.833 69.9848L181.416 69.42V68.885H184.954V65.2585H181.416V61.8401H184.716V58.5121H179.276V57.8271H184.538V55.1519H179.276V54.4979H184.716V50.7822H182.605L183.051 49.5932V49.2662H176.631L176.125 50.7822H175.471L174.877 49.2662H168.724V49.5932L169.199 50.7822H167.297V54.4979H172.143V55.1519H167.386V57.8271H172.142V58.5121H167.237V61.8414H175.947V65.6462H174.639V64.8126L175.415 64.5153V62.4048H167.356V65.0504H169.553V65.6449H167.208V69.3283H169.556V69.9525H167.208V73.6682H169.556V73.906L167.386 74.8003V76.9703H174.639V73.1654L175.382 72.9574V69.9551H174.639V69.3309H175.947V71.7683L176.571 72.5994L175.263 73.8788V76.7919H178.236L179.128 75.9002L179.871 76.8514H185.04V74.3842L184.062 73.0465ZM157.725 62.1076H166.613V57.7974H157.725V62.1076ZM184.716 64.7532V62.4048H181.892V64.7532H184.716ZM157.725 66.9231H166.613V62.7913H157.725V66.9231ZM157.666 76.7919H166.613V67.6662H157.666V76.7919ZM161.622 71.7386H162.811V72.8372H161.622V71.7386ZM188.969 55.3302H190.721V56.3706H188.878V62.8805H190.512L188.61 65.6746V74.2653H189.861L190.721 72.8087V76.8216H198.033V71.2036H199.281V65.199L198.033 63.8614V62.8805H199.281V56.3706H198.033V55.1816L199.371 54.3493V49.5635H188.967L188.969 55.3302ZM216.019 49.5932H200.084V60.1754H216.017L216.019 49.5932ZM209.183 56.1328H206.715V54.9438H209.183V56.1328ZM214.771 65.7612L216.257 64.4533V60.9483H199.965V65.7638H203.919V66.5393H200.084V70.8197H203.919V71.6494H199.727V76.8837H216.165V71.6494H211.707V70.8171H215.868V66.5367H211.707V65.7612H214.771Z" fill="#226BB4"/>
<defs>
<filter id="filter0_d" x="0" y="0" width="280.856" height="133" filterUnits="userSpaceOnUse" color-interpolation-filters="sRGB">
<feFlood flood-opacity="0" result="BackgroundImageFix"/>
<feColorMatrix in="SourceAlpha" type="matrix" values="0 0 0 0 0 0 0 0 0 0 0 0 0 0 0 0 0 0 127 0"/>
<feOffset dy="3"/>
<feGaussianBlur stdDeviation="15"/>
<feColorMatrix type="matrix" values="0 0 0 0 0.34902 0 0 0 0 0.470588 0 0 0 0 0.807843 0 0 0 0.561 0"/>
<feBlend mode="normal" in2="BackgroundImageFix" result="effect1_dropShadow"/>
<feBlend mode="normal" in="SourceGraphic" in2="effect1_dropShadow" result="shape"/>
</filter>
</defs>
</svg>
