<svg xmlns="http://www.w3.org/2000/svg" width="368.34" height="56.46" viewBox="0 0 368.34 56.46">
    <path fill="#226bb4" d="M91.6 10.62H80.5V8.58H65.86v2.04h-9.42V22.5H91.6zM55.18 38.1v2.88l-1.86-2.22V36.6h2.16V23.46h-2.16v-2.88l1.74-1.2V9.72H36.7v11.64H40v2.1h-3.48V36.6h3.06l-3.54 5.64v17.34h2.28L40 56.52v8.22h13.32V53.4h1.86v11.34H67.6V48.18h11.76v8.94l-1.32 1.14v-8.64h-9.12v12.6h5.82v2.52h17.4V38.1zm35.22-1.38V23.94H57.1v12.78zm-20.7-6.96h7.56v1.8H69.7zm4.86 27.3h-1.92v-2.1h1.92zm83.22-18.6h-7.92v-9.3h7.38V13.38h-7.38v-4.2h-13.5v4.2h-2.4v-3h-8.1l-2.94 5.76v13.02h8.7v9.3h-8.76v16.02h8.76v10.44h18.24V54.48h7.92zM101.8 23.1v20.58h3.3v21.06h16.02V9.6h-12.24zm97.56-3.72h-1.38V8.88h-8.1v10.5h-1.44V9.9h-4.92v17.76h20.64V9.9h-4.8zm22.5 26.52l1.8-3.36V11.4h-7.08V9.06h-7.98l-3.18 4.14v13.5h8.46v6l-2.4-4.26h-6.06V41.7l1.74 3.06-2.22 3.12v17.1h6.84l2.58-4.38 2.34 4.38h7.14V49.8zm-39.72-25.98V9.66h-8.82l-5.7 4.02v15.54h2.7zm-14.52 13.14V46.8h1.74v18.24h12.84V23.7h-2.58zm15.9 4.26h20.58V29.1h-20.58zm.18 9.06h4.14v1.56h-3.96v7.14h3.96v1.62h-4.2v8.16h19.98V56.7h-3.42v-1.62h3.36v-7.14h-3.36v-2.1l3.6-.84v-6.24h-20.1zm104.04-33.42l-.9-3.54h-13.26v3.54h-1.86V8.82h-20.16v4.14h-17.04V26.4h17.94v29.1l-1.62 1.8V43.62H238.9l-4.38 5.4v12.84h13.92v3.06h23.28V26.4h18.36V12.96zm-36.9 29.1V27.84h-15.96v8.88l4.08 5.34zm38.34-14.22h-15.9v14.22h11.82l4.08-5.34zm-15.9 15.78v18.24h16.2V49.02l-4.32-5.4zm82.14-30.42h-16.56V9.06H316.9v4.14h-16.26v42.96h16.26v8.76h21.96v-8.76h16.56zM315.7 27.72h3.6V42.3h-3.6zm24.36 14.58h-3.6V27.72h3.6zm44.22-31.32v34.74h14.52l5.58-7.44v-27.3zm.36 38.28v14.52h18.24V49.26z" transform="translate(-36.04 -8.58)"/>
</svg>
