<svg xmlns="http://www.w3.org/2000/svg" width="207.322" height="41.63" viewBox="0 0 207.322 41.63">
    <path fill="#226bb4" d="M2.3 43.056l5.336 5.152h22.172l5.382-5.152V14.214L29.808 8.74H7.636L2.3 14.214zM16.054 21.62h5.382V35.6h-5.382zM48.9 48.07h28.15l4.508-4.324v-16.7L77.05 23H61.962v-2.622H80.73V8.648H48.99v24.564h17.986v2.806H48.9zm46.826-.97v2.3h9.384l12.6-39.33v-2.3h-9.38zM159.16 8.6H132.2v13.848h14.674V24.1L131.79 39.238v8.832h31.372V35.788h-9.8v-.552l9.246-8.464V12.926zm45.678.184h-23.414l-4.784 4.786v16.7l3.542 3.266h15.778V36.2h-18.4v11.96h26.082l5.98-5.612V13.57zm-15.18 15.136v-3.68h6.3v3.68z" transform="translate(-2.3 -7.774)"/>
</svg>
