<svg xmlns="http://www.w3.org/2000/svg" width="188.324" height="43.194" viewBox="0 0 188.324 43.194">
    <path fill="#226bb4" d="M-52.992-29.808v-8.924h-24.15v9.706H-78.2v-6.3h-1.748v-3.4h-11.546v3.4h-1.886v11.04h1.886v6.854l-2.208.368v11.636h2.208v2.944L-93.38-.276V3.68h13.432V-7.406l1.656-.322v-11.684h-1.656v-4.876h1.1v3.68h10.58l2.346-2.024v-6.21h1.334v6.21l2.484 2.024h11.224v-9.2zm.966 23.414V-19.6H-77.05v7.682h13.75v1.656l-1.38 1.15-2.53-1.794H-77v5.474l1.7 1.38-3.5 2.392v5.432h10.95l3.036-2.438 3.4 2.438h9.89v-5.8l-2.944-2.208zM-2.99-37.858h-8.51v-1.564h-11.224v1.564h-7.222v9.108H-2.99zM-30.912-16.79v2.208l-1.426-1.7v-1.658h1.656v-10.074h-1.656v-2.208l1.334-.92v-7.406H-45.08v8.924h2.53v1.61h-2.668v10.074h2.346l-2.714 4.324V-.322h1.748l1.288-2.346v6.3h10.212V-5.06h1.426v8.694h9.522v-12.7h9.016v6.854l-1.012.874v-6.62h-6.992V1.7h4.462v1.934h13.34V-16.79zm27-1.058v-9.8H-29.44v9.8zm-15.87-5.336h5.8v1.38h-5.8zm3.726 20.93h-1.472v-1.61h1.472zm55.66-24.61h2.438l3.036-2.254v-8.924H30.452v-1.288h-9.66l-4.784 3.358v9.108h2.76l3.588-2.392v1.334l-6.3 4.048v3.588h11.36l2.484-2.438h.874l2.53 2.438h12.052v-4zM14.95-38.594H3.174v8.648H14.95zm9.062 8.234l1.426-.966h9.982v.966zm-9.062 1.472H7.084l-3.91 2.76v5.842H14.95zM44.482-1.242v-17.986H4v17.986h2.486l-3.312 2.53v2.438h16.238l2.53-2.9h4.508l2.53 2.9h16.238V1.288l-3.312-2.53zM31.832-13.57v1.058H16.146v-1.058zm0 5.106H16.146v-1.012h15.686zm-15.686 2.9h15.686v1.058H16.146zm48.3-33.488H54.28v1.84h-2.944v10.35H67.39v-10.35h-2.944zm28.29 28.612v-28.108H68.448V-26.5h1.472v5.106h-1.748v10.718h1.748v14.4h9.936v-14.4h2.116v9.89l3.45 4.462h9.2v-14.118zm-12.88-10.95v-5.11h2.116v5.106zm-12.7-4.416H51.52v6.67h15.64zM51.52-11.684h15.64v-6.394H51.52zm-.138 15.272h15.87v-14.122h-15.87zm6.67-7.82H60.4v1.7h-2.348z" transform="translate(93.702 39.422)"/>
</svg>
