<svg xmlns="http://www.w3.org/2000/svg" width="515.34" height="84.51" viewBox="0 0 515.34 84.51">
    <path fill="#226bb4" d="M34.25 32.94l3.51 4.59H56.3v-3.78l-4.14-4.23h5.04v-13.5H42.08v-2.25H24.35l-7.11 10.71v13.05h14.13zm42.66-.09l3.6 4.68h19.17v-3.87l-4.05-4.14h4.95v-13.5H84.56v-2.25H66.11L59 24.48v13.05h14.85zm24.21 42.84h-9.63v-2.16h7.83V39.51H19.04v34.02h9.27v2.16H17.15v14.67h8.01l-1.53 3.24v3.51h27.99l1.98-6.75h10.8v6.66h27.09v-6.66h9.63zM74.39 48.87v1.89H43.97v-1.89zm0 8.91H43.97v-2.07h30.42zM43.97 64.8v-1.89h30.42v1.89zm11.34 10.89v-2.16h9.09v2.16zm72-12.24h15.39V58.5l2.61 2.7h4.32v2.25h17.01V16.47h-12.33v-3.06h-20.07l-6.93 7.65v16.2h-2.16v16.29h2.16zm59.85-31.05v-3.78h1.98v3.78l2.52 3.33h16.74V20.97h-3.42v-7.2h-33.75v6.57h-2.7v15.39h15.84zm-37.53-4.23v3.6l-1.8-2.07h-5.13v-1.53zm0 12.06h-6.93v-4.05l2.34 2.43h4.59zm40.5 8.37l-2.52 1.44-2.43-1.35h-16.29v4.95l2.88 1.71-3.24 1.8v6.21h16.2l3.33-2.79 3.69 2.79h17.1v-6.75l-4.23-2.43 3.06-2.07V37.26h-39.24v9.99h21.69zm-42.3 3.51h-5.13v-1.53h6.93v3.15zm59.04 27.99V65.25H127.4V80.1h-2.34v17.19h84.06V80.1zm-54.36-2.25v5.67h-3.06v-5.67zm16.02 5.67h-3.15v-5.67h3.15zm16.2 0h-3.15v-5.67h3.15zm76.77-69.93h-20.25l-7.83 10.53v72.63h39.69V21.24H261.5zm40.23 4.32v-4.32h-19.26l-6.57 9v19.44h16.92v34.11l-13.32 9v11.97h36.9v-79.2zm-45.72 24.84v9.72h-4.77v-9.72zm34.11 33.12V45h-13.86v24.75l4.68 6.12zm-38.88 2.79V68.58h4.77v10.08zm169.11-.9l3.51-3.96V56.61h-35.01v-1.89h35.55V28.26h-7.74l-11.07 10.26h-2.88l18.36-16.92v-6.21h-17.73l-14.58 13.5h-2.88l10.98-10.17V14.4h-20.43l-8.55 7.92v15.3h6.03l-6.03 5.49v11.61h4.23l-4.23 4.32v23.31h3.06l4.41-4.14 1.8 1.71-9.36 8.73v8.55H392l5.49-6.12 6.48 6.12h20.97V81.81zm-54.63-47.34V14.76h-15.93l-9.36 7.38v26.01h3.69zm-25.29 23.4V74.7h3.24v22.86h22.14V38.79h-7.02zm53.19 16.47h9.09v.36l-4.23 4.23-4.86-4.32zm112.23-53.55v-3.69h-29.7v3.69h-26.82v14.85h8.91l-8.19 4.5v15.75h11.79l5.85-5.31v5.31h30.51l3.96-2.97 3.69 2.97h25.74v-8.19l-5.67-3.6 3.96-3.06v-3.51H497.3l-4.32 3.42v-5.31h39.51V16.74zm-55.89 80.37h23.13V69.3h5.76v1.98h-3.6v6.48h14.67V69.3h2.16v8.46h15.21v-6.48h-3.6V69.3h5.76v15.3l-1.98 1.26v-6.03h-32.22v14.31h25.56v2.97h31.05V53.82h-81.9zm44.73-8.91h-6.66v-2.25h6.66z" transform="translate(-17.15 -13.05)"/>
</svg>
