<svg xmlns="http://www.w3.org/2000/svg" width="2010" height="2900" viewBox="0 0 2010 2900"><defs><style>.a{opacity:0.6;}.b{fill:#9ccaef;}.c{fill:#9cc3ef;}.d{fill:#fff;}</style></defs><g class="a" transform="translate(89)"><path class="b" d="M0,0H120L960,540,0,120Z"/><path class="b" d="M240,0H360L960,540h0Z"/><path class="b" d="M480,0H600L960,540h0Z"/><path class="b" d="M720,0H840L960,540h0Z"/><path class="b" d="M960,0h120L960,540h0Z"/><path class="b" d="M1200,0h120L960,540h0Z"/><path class="c" d="M1440,0h120L960,540h0Z"/><path class="c" d="M1680,0h120L960,540h0Z"/><path class="b" d="M960,540l960-420V240L960,540Z"/><path class="b" d="M0,240,960,540h0L0,360Z"/><path class="b" d="M960,540l960-180V480L960,540Z"/><path class="b" d="M0,480l960,60h0L0,600Z"/><path class="b" d="M960,540l960,60V720L960,540Z"/><path class="b" d="M0,720,960,540h0L0,840Z"/><path class="b" d="M960,540l960,300V960L960,540Z"/><path class="b" d="M0,960,960,540,0,1157V960Z"/><path class="b" d="M960,540h0L0,1404V1260Z"/><path class="b" d="M960,540h0L0,1981V1620Z"/><path class="b" d="M960,540h0L436,2900H-89Z"/><path class="b" d="M960,540h0l524,2360H960Z"/><path class="b" d="M960,540h0l960,1440v719Z"/><path class="b" d="M960,540h0l960,864v215Z"/><path class="b" d="M960,540h0l960,617,1,103Z"/><path class="d" d="M120,0H240L960,540h0Z"/><path class="d" d="M360,0H480L960,540h0Z"/><path class="d" d="M600,0H720L960,540h0Z"/><path class="d" d="M840,0H960V540h0Z"/><path class="d" d="M1080,0h120L960,540h0Z"/><path class="d" d="M1320,0h120L960,540h0Z"/><path class="d" d="M1560,0h120L960,540h0Z"/><path class="d" d="M1800,0h120V120L960,540Z"/><path class="d" d="M0,120,960,540h0L0,240Z"/><path class="d" d="M960,540l960-300V360L960,540Z"/><path class="d" d="M0,360,960,540h0L0,480Z"/><path class="d" d="M960,540l960-60V600L960,540Z"/><path class="d" d="M0,600l960-60h0L0,720Z"/><path class="d" d="M960,540l960,180V840L960,540Z"/><path class="d" d="M0,840,960,540h0L0,960Z"/><path class="d" d="M960,540h0L240,1080H120Z"/><path class="d" d="M960,540h0L480,1080H360Z"/><path class="d" d="M960,540h0L720,1080H600Z"/><path class="d" d="M960,540h0v540H840Z"/><path class="d" d="M960,540h0l240,540H1080Z"/><path class="d" d="M960,540h0l480,540H1320Z"/><path class="d" d="M960,540h0l720,540H1560Z"/><path class="d" d="M960,540l960,420v120H1800Z"/><circle class="d" cx="324.5" cy="324.5" r="324.5" transform="translate(637 216)"/></g></svg>