<svg xmlns="http://www.w3.org/2000/svg" xmlns:xlink="http://www.w3.org/1999/xlink" width="295.744" height="428.391" viewBox="0 0 295.744 428.391"><defs><style>.a{fill:#9ccaef;}.b{clip-path:url(#a);}</style><clipPath id="a"><rect class="a" width="295.744" height="428.391"/></clipPath></defs><g class="b"><path class="a" d="M63.245,13.293C88.182-5.768,117.8,1.27,117.8,1.27s-4.948,35.411-29.879,54.479S27.52,70.3,27.52,70.3A306.526,306.526,0,0,0,42.954,43.412c4.524-8.882,11.1-23.081,20.29-30.119" transform="translate(141.638 0.002)"/><path class="a" d="M44.93,12.055c-11.648-8.9-25.478-5.618-25.478-5.618s2.311,16.541,13.953,25.441,28.214,6.8,28.214,6.8-3.6-5.464-7.216-12.558c-2.108-4.155-5.182-10.788-9.472-14.07" transform="translate(100.114 30.087)"/><path class="a" d="M33.481,64.818c3.411,0,6.811.148,10.21.375C40.654,47.072,41.256,28.2,50.562,12c-16.3,13.123-24.224,33.217-28.336,53.274,3.743-.27,7.5-.455,11.255-.455" transform="translate(114.391 61.756)"/><path class="a" d="M147.872,21.579A147.875,147.875,0,1,0,295.75,169.451,147.875,147.875,0,0,0,147.872,21.579m60.422,208.294-60.422-41.583L87.456,229.873l41.577-60.422L87.456,109.035l60.416,41.583,60.422-41.583-41.589,60.416Z" transform="translate(0 111.061)"/></g></svg>