<svg xmlns="http://www.w3.org/2000/svg" width="158.296" height="16" viewBox="0 0 158.296 16"><defs><style>.a{fill:#105fff;}.b{fill:blue;}</style></defs><g transform="translate(0 18.664)"><path d="M12.607-18s.868.679,1.425,1.188c-.046.171-.2.248-.419.248H8.906a7.862,7.862,0,0,1-2.262,1.852l-.187-.139a11.244,11.244,0,0,0,1.8-3.612l1.889.757c-.077.17-.262.294-.6.248-.092.153-.2.308-.293.447h2.571ZM4-9.544h6.133v-1.22H4Zm0-1.667h6.133v-1.174H4Zm0-1.621h6.133v-1.172H4Zm-.433-3.489c2.71.108,1.765,2.1.7,1.405a2.557,2.557,0,0,0-.866-1.3Zm8.7,7.75s.944.74,1.533,1.3c-.046.17-.2.248-.419.248H9.9v2.686c0,.123-.635.354-1.146.354H8.487v-3.04H5.344C5.018-5.485,4.135-4.528.449-3.973L.341-4.251C2.927-4.93,3.717-5.716,4-7.028H.481L.357-7.476h3.7c.047-.417.062-.88.077-1.39l1.874.216c-.03.186-.17.339-.5.371-.031.278-.047.555-.094.8H8.487V-8.819l1.642.154V-9.1H4v.386c0,.14-.6.464-1.193.464H2.587V-15.1l1.519.649H9.974l.419-.464a.73.73,0,0,1-.156-.077,2.078,2.078,0,0,0-.759-1.2l.14-.124c1.967-.015,1.983,1.081,1.425,1.39l1.115.834a1.155,1.155,0,0,1-.6.292v4.848a2.08,2.08,0,0,1-1.114.386c-.063.17-.187.293-.543.339v.757h1.518Zm-9.293-8A9.419,9.419,0,0,1,.186-14.005L0-14.175a12.682,12.682,0,0,0,2.246-4.307l1.968.617a.547.547,0,0,1-.6.295l-.325.555H5.436l.713-.912s.8.634,1.285,1.112c-.046.171-.185.248-.4.248Z" transform="translate(0 -0.025)"/><path d="M51.152-4.325h1.814V-7.89H51.152Zm-3.19,0H49.8V-7.89H47.961ZM45-15.575c2.616.834,1.392,2.762.633,1.912a4.063,4.063,0,0,0-.789-1.774Zm-.187,11.25h1.8V-7.89h-1.8Zm-.389-8.827c.823-.062,1.721-.14,2.681-.231v-2.408H44.43Zm10.765,7.84s.744.693,1.178,1.187c-.033.17-.187.248-.4.248H42.014l-.139-.447h1.534V-8.971l1.611.632h7.821l.681-.709,1.362,1.032a.768.768,0,0,1-.479.248v3.442h.138Zm-13.507-7.67c.373-.015.883-.032,1.534-.078v-3.75l1.425.57h.015c.064-.416.126-1.032.172-1.45l1.889.293c-.061.232-.248.356-.588.386-.232.216-.605.525-.9.771H46.97l.59-.693L48.937-15.9a.966.966,0,0,1-.587.293v2.115l.572-.063.031.217a3.2,3.2,0,0,0,.915-2.577v-1.327l1.486.587h1.379l.651-.663L54.608-16.3a.88.88,0,0,1-.558.216v1.22c0,.153.046.2.2.2h.325c.108,0,.235.015.31.015a1.176,1.176,0,0,0,.217-.031,2.355,2.355,0,0,0,.265-.046h.139l.06.015c.325.14.434.216.434.447,0,.479-.4.618-1.594.618h-.217l1.16,1.018c-.108.125-.248.17-.6.2a6.306,6.306,0,0,1-1.115,1.435c2.278,1.266,1.953,2.639.82,2.346a13.566,13.566,0,0,0-1.826-1.528A11.166,11.166,0,0,1,48.1-8.538l-.108-.248a9.848,9.848,0,0,0,3.857-1.944,23.37,23.37,0,0,0-2.4-1.42l.124-.184a16.99,16.99,0,0,1,3.019.847,6.287,6.287,0,0,0,.714-1.1h-4.4l-.139-.447h4.568l.681-.618h-.184c-.868,0-.976-.278-.976-.973v-1.589H51.121v.293a2.807,2.807,0,0,1-2.06,2.793l-.108-.17-.6.14v3.179c0,.756-.232,1.158-1.735,1.266a.728.728,0,0,0-.3-.587,3,3,0,0,0-1.16-.324v-.2s1.317.076,1.642.076c.262,0,.31-.093.31-.293v-2.84c-.62.138-1.317.293-2.076.447,2.462.926,1.239,2.809.494,1.96a4.351,4.351,0,0,0-.681-1.852l.124-.093-.573.123a4.859,4.859,0,0,1-2.307,4.183l-.154-.186a5.869,5.869,0,0,0,1.253-3.764l-.666.138a.63.63,0,0,1-.419.339Z" transform="translate(-5.962 -0.136)"/><path d="M134.267-8.8a9.973,9.973,0,0,1-.976,1.127A9.621,9.621,0,0,0,135.3-6.345,8.4,8.4,0,0,0,137.193-8.8Zm-3.408-7.841c-.078.14-.231.233-.574.155a15.857,15.857,0,0,1-4.073,3.041l-.154-.17a16.53,16.53,0,0,0,3.036-4.076Zm8.72,7.873c-.108.154-.265.184-.635.216a9.47,9.47,0,0,1-2.432,2.716,19.618,19.618,0,0,0,3.95.926l-.015.17a1.644,1.644,0,0,0-1.241,1.39A13.689,13.689,0,0,1,135.18-5,15.726,15.726,0,0,1,130.1-3.35l-.094-.232a14.676,14.676,0,0,0,4.351-2.006,8.709,8.709,0,0,1-1.58-1.621,10.506,10.506,0,0,1-2.323,1.59l-.187-.184a12.254,12.254,0,0,0,1.967-2.268,8.077,8.077,0,0,1-.618-1.328l.218-.139a6.4,6.4,0,0,0,.666,1.05,13.721,13.721,0,0,0,.943-1.837c-.557.078-1.115.171-1.718.262a.758.758,0,0,1-.419.294l-.62-1.776a2.755,2.755,0,0,0,.62-.138,18.387,18.387,0,0,0,3.546-2.069c-.852.17-1.858.386-2.913.571a.8.8,0,0,1-.4.386l-.341-.834c-.093.124-.231.2-.572.154a19.99,19.99,0,0,1-1.426,1.759l.711.263c-.06.138-.2.231-.464.278v7.347a1.551,1.551,0,0,1-1.163.494h-.278v-7.178a14.69,14.69,0,0,1-1.952,1.575l-.169-.17a21.5,21.5,0,0,0,3.422-5.573l1.857.973-.322-.8a2.142,2.142,0,0,0,.479-.123A11.1,11.1,0,0,0,134.87-17.8l1.751,1.051c-.078.138-.28.231-.605.17a19.266,19.266,0,0,1-3.887,2.221c.913,0,2.184,0,3.515-.015a17.7,17.7,0,0,0,2.215-2.037l1.563,1.373a.583.583,0,0,1-.633.077,32.462,32.462,0,0,1-6.755,3.6c1.489-.016,3.827-.108,6.336-.216a13.945,13.945,0,0,0-1.178-1.575l.172-.108c4.119,1.435,3.034,4.215,1.687,3.227a4.7,4.7,0,0,0-.479-1.189c-1.115.216-2.573.478-4.245.741l1.208.4a.571.571,0,0,1-.6.292c-.108.17-.232.356-.341.541h2.616l.93-.833Z" transform="translate(-18.002 -0.121)"/><path d="M177.7-5.027c0,.015-.015.015-.015.03.248.016,1.115.078,1.378.078.247,0,.31-.062.31-.262v-4.878h-2.2v.741c0,.139.03.2.2.2h.774c.06,0,.154-.015.2-.015a1.907,1.907,0,0,0,.247-.046h.138l.048.015c.308.093.416.171.416.356,0,.386-.341.541-1.549.541h-.666l1.208.895a.923.923,0,0,1-.494.248Zm-3.515-.741h2.244v-1.5h-2.244Zm.7-4.291a2.461,2.461,0,0,1-1.735,1.9l1.1.447h2.045l.558-.555c-.605-.046-.7-.309-.7-.865v-.926Zm-3.576,2.115c1.811-.618,2.106-1.312,2.182-2.115h-2.182Zm8.6-3.335,1.563,1.173a1.1,1.1,0,0,1-.651.309v4.755c0,.988-.2,1.574-1.858,1.729a1.746,1.746,0,0,0-.262-.973,1.689,1.689,0,0,0-1.085-.494v-.153a2.534,2.534,0,0,1-.961.261h-.217v-.649h-2.245v.51a1.624,1.624,0,0,1-1.069.369h-.187V-8.084a13.075,13.075,0,0,1-1.456.371l-.169-.216v4.074c0,.14-.621.479-1.208.479h-.218v-7.78l1.549.663h7.789Zm1.19-3.086c-.108.138-.232.216-.573.123a14.562,14.562,0,0,1-1.75.772,15.673,15.673,0,0,0,3.579.926l-.015.184a1.515,1.515,0,0,0-1.114,1.312,8.63,8.63,0,0,1-5.622-4.322,9.2,9.2,0,0,1-2.03,1.282v1.558c.822-.2,1.765-.447,2.726-.7l.061.216c-.789.433-2.245,1.251-3.872,2.084a.912.912,0,0,1-.31.294l-.82-1.327c.666-.37.775-.525.775-.756v-.8a24.472,24.472,0,0,1-3.811.942l-.108-.247a14.735,14.735,0,0,0,5.36-2.67h-4.8l-.141-.447h6.893a1.1,1.1,0,0,1-.419-.14,3.95,3.95,0,0,0-1.006-1.59l.138-.092c2.727-.015,2.432,1.713,1.473,1.821h4.134l.8-1.064s.93.74,1.473,1.266c-.048.17-.187.246-.4.246H175.9a6.385,6.385,0,0,0,2.214,1.713,12.716,12.716,0,0,0,1.365-1.635Z" transform="translate(-24.053 -0.127)"/><path class="a" d="M86.74-11.424l3.7-3.693-3.236-3.227a1.1,1.1,0,0,0-1.552,0l-6.941,6.92a1.091,1.091,0,0,0,0,1.547l6.914,6.892a1.1,1.1,0,0,0,1.552,0l3.236-3.227L86.74-9.877a1.092,1.092,0,0,1,0-1.547" transform="translate(-11.207 0)"/><path class="b" d="M104.105-11.451l-6.914-6.892a1.1,1.1,0,0,0-1.552,0L92.4-15.117l3.677,3.666a1.092,1.092,0,0,1,0,1.547l-3.7,3.693,3.236,3.227a1.1,1.1,0,0,0,1.552,0l6.941-6.92a1.092,1.092,0,0,0,0-1.547" transform="translate(-13.205 0)"/></g></svg>