<svg xmlns="http://www.w3.org/2000/svg" width="81.114" height="68.734" viewBox="0 0 81.114 68.734"><defs><style>.a,.b{fill:#666;}.b{fill-rule:evenodd;}.c{fill:#105fff;}.d{fill:blue;}</style></defs><g transform="translate(-482.886 -3375.898)"><g transform="translate(482.886 3416.797)"><path class="a" d="M6.32-2.057a1.943,1.943,0,0,0-.508-.306,1.349,1.349,0,0,0-.491-.1.791.791,0,0,0-.491.143.443.443,0,0,0-.19.371.364.364,0,0,0,.1.26.769.769,0,0,0,.249.178,2.089,2.089,0,0,0,.348.131c.129.037.257.077.385.119A2.4,2.4,0,0,1,6.831-.58a1.676,1.676,0,0,1,.351,1.1,2.158,2.158,0,0,1-.153.832,1.738,1.738,0,0,1-.452.639,2.107,2.107,0,0,1-.729.412,3.037,3.037,0,0,1-.978.146,3.6,3.6,0,0,1-2.1-.674L3.436.628a2.729,2.729,0,0,0,.689.459,1.679,1.679,0,0,0,.674.151.8.8,0,0,0,.566-.175A.536.536,0,0,0,5.5.433.493.493,0,0,0,5.345.252,1.24,1.24,0,0,0,5.056.1c-.118-.049-.262-.1-.43-.16-.2-.062-.4-.133-.592-.208A1.853,1.853,0,0,1,3.52-.577a1.4,1.4,0,0,1-.365-.479,1.7,1.7,0,0,1-.138-.733,2.085,2.085,0,0,1,.146-.8,1.782,1.782,0,0,1,.412-.618,1.848,1.848,0,0,1,.649-.4,2.484,2.484,0,0,1,.86-.141,3.811,3.811,0,0,1,.926.121,4.085,4.085,0,0,1,.928.361Z" transform="translate(1.885 25.282)"/><path class="b" d="M8.1,2.319H9.649V-3.654H8.1Z" transform="translate(5.51 25.349)"/><path class="a" d="M14.379-2.338V2.318H12.826V-2.338H11.551V-3.653h4.1v1.314Z" transform="translate(7.861 25.349)"/><path class="a" d="M20.9-1.589a1.657,1.657,0,0,0-1.331-.657,1.637,1.637,0,0,0-.645.126,1.574,1.574,0,0,0-.511.345,1.573,1.573,0,0,0-.336.519,1.689,1.689,0,0,0-.123.649,1.707,1.707,0,0,0,.123.657,1.59,1.59,0,0,0,.341.524,1.577,1.577,0,0,0,.509.348,1.594,1.594,0,0,0,.635.126A1.794,1.794,0,0,0,20.9.414V2.251l-.158.057a4.575,4.575,0,0,1-.666.185,3.18,3.18,0,0,1-.61.061,3.1,3.1,0,0,1-1.185-.234,3.136,3.136,0,0,1-1-.657A3.281,3.281,0,0,1,16.591.656a3.088,3.088,0,0,1-.262-1.272,3.054,3.054,0,0,1,.259-1.262,3.144,3.144,0,0,1,.689-.99,3.16,3.16,0,0,1,1-.65,3.117,3.117,0,0,1,1.2-.234,3.267,3.267,0,0,1,.7.076,4.288,4.288,0,0,1,.724.234Z" transform="translate(11.114 25.282)"/><path class="a" d="M23.27-.6A1.6,1.6,0,0,0,23.4.058a1.663,1.663,0,0,0,.365.523A1.651,1.651,0,0,0,24.3.925a1.7,1.7,0,0,0,.645.123,1.7,1.7,0,0,0,.645-.123,1.684,1.684,0,0,0,.538-.345A1.65,1.65,0,0,0,26.5.058,1.6,1.6,0,0,0,26.636-.6a1.6,1.6,0,0,0-.134-.657,1.638,1.638,0,0,0-.37-.524,1.684,1.684,0,0,0-.538-.345,1.734,1.734,0,0,0-.645-.121,1.734,1.734,0,0,0-.645.121,1.651,1.651,0,0,0-.534.345,1.651,1.651,0,0,0-.365.524A1.6,1.6,0,0,0,23.27-.6m-1.623,0a3.135,3.135,0,0,1,.245-1.24,3.1,3.1,0,0,1,.681-1,3.145,3.145,0,0,1,1.042-.669,3.564,3.564,0,0,1,1.334-.242,3.578,3.578,0,0,1,1.331.242,3.158,3.158,0,0,1,1.049.669,3.057,3.057,0,0,1,.686,1A3.106,3.106,0,0,1,28.26-.6,3.1,3.1,0,0,1,28.014.639a3.046,3.046,0,0,1-.686,1,3.158,3.158,0,0,1-1.049.669,3.578,3.578,0,0,1-1.331.242,3.564,3.564,0,0,1-1.334-.242,3.145,3.145,0,0,1-1.042-.669,3.084,3.084,0,0,1-.681-1A3.127,3.127,0,0,1,21.646-.6" transform="translate(14.733 25.282)"/><path class="a" d="M28.286,2.319V-3.653h1.553L32.706,0V-3.653h1.544V2.319H32.706L29.839-1.333V2.319Z" transform="translate(19.252 25.349)"/><path class="a" d="M35.529-3.653h1.355l-1.457,2.63h-.919Z" transform="translate(23.486 25.349)"/><path class="a" d="M43.232,2.383H38.423L39.9.847q.587-.61.919-1.035a5.585,5.585,0,0,0,.5-.716,1.9,1.9,0,0,0,.2-.476,1.442,1.442,0,0,0,.039-.308.808.808,0,0,0-.042-.262.7.7,0,0,0-.131-.225.63.63,0,0,0-.21-.158.648.648,0,0,0-.289-.061.625.625,0,0,0-.5.205.769.769,0,0,0-.176.516,1.993,1.993,0,0,0,.022.254H38.543a2.576,2.576,0,0,1,.17-.951,2.2,2.2,0,0,1,.479-.736,2.14,2.14,0,0,1,.733-.476,2.527,2.527,0,0,1,.931-.166,2.607,2.607,0,0,1,.923.158,2.205,2.205,0,0,1,.733.444,2.028,2.028,0,0,1,.482.677,2.056,2.056,0,0,1,.175.852,1.97,1.97,0,0,1-.21.908,3.19,3.19,0,0,1-.669.85l-.99.928h1.933Z" transform="translate(26.151 25.285)"/><path class="a" d="M44.95-2.338h-.871V-3.653H46.5V2.318H44.95Z" transform="translate(30 25.349)"/><path class="c" d="M28.122-16.429,40.6-28.91l-10.9-10.9a3.7,3.7,0,0,0-5.23,0L1.084-16.429a3.7,3.7,0,0,0,0,5.23L24.377,12.095a3.7,3.7,0,0,0,5.23,0l10.9-10.9L28.122-11.2a3.7,3.7,0,0,1,0-5.23" transform="translate(0 0)"/><path class="d" d="M63.625-16.521,40.332-39.814a3.7,3.7,0,0,0-5.23,0l-10.9,10.9L36.587-16.521a3.7,3.7,0,0,1,0,5.23L24.105,1.191l10.9,10.9a3.7,3.7,0,0,0,5.23,0L63.625-11.291a3.7,3.7,0,0,0,0-5.23" transform="translate(16.406)"/></g></g></svg>