<svg xmlns="http://www.w3.org/2000/svg" width="1582.03" height="503.627" viewBox="0 0 1582.03 503.627"><defs><style>.a{fill:#fff;}</style></defs><path class="a" d="M8.208,33.288H34.884A76.139,76.139,0,0,1,53.3,35.454a42.131,42.131,0,0,1,15.219,7.011,34.344,34.344,0,0,1,10.317,12.6q3.819,7.752,3.819,18.81a38.379,38.379,0,0,1-3.7,17.271,37.138,37.138,0,0,1-9.975,12.54,44.1,44.1,0,0,1-14.478,7.695A56.226,56.226,0,0,1,37.278,114H8.208Zm17.784,64.3h9.234A49.7,49.7,0,0,0,46.683,96.33a24.484,24.484,0,0,0,9.177-4.161,19.955,19.955,0,0,0,6.1-7.638A27.088,27.088,0,0,0,64.182,72.96a22.561,22.561,0,0,0-2.223-10.317A20.627,20.627,0,0,0,55.974,55.4a26.194,26.194,0,0,0-8.835-4.275A39.235,39.235,0,0,0,36.48,49.7H25.992Zm124.716,6.84a27.286,27.286,0,0,1-10.374,8.094,31.075,31.075,0,0,1-13,2.85,34.92,34.92,0,0,1-12.027-2.052,28.948,28.948,0,0,1-9.8-5.871,27.554,27.554,0,0,1-6.555-9.177,31.122,31.122,0,0,1,0-23.94,27.554,27.554,0,0,1,6.555-9.177,28.948,28.948,0,0,1,9.8-5.871,34.921,34.921,0,0,1,12.027-2.052,27.359,27.359,0,0,1,10.773,2.052,22.431,22.431,0,0,1,8.208,5.871,26.737,26.737,0,0,1,5.187,9.177A36.989,36.989,0,0,1,153.33,86.3v5.358H113.658a13.534,13.534,0,0,0,4.446,7.809,12.577,12.577,0,0,0,8.436,2.907,12.844,12.844,0,0,0,7.125-1.881,19.158,19.158,0,0,0,5.073-4.845Zm-14.478-24.4a9.9,9.9,0,0,0-2.85-7.41,10.135,10.135,0,0,0-7.638-3.078,12.842,12.842,0,0,0-5.016.912,12.572,12.572,0,0,0-3.705,2.337,10.244,10.244,0,0,0-2.394,3.306,10.884,10.884,0,0,0-.969,3.933Zm64.524-5.13a12.107,12.107,0,0,0-9.918-4.674,9.328,9.328,0,0,0-4.218,1.026,3.627,3.627,0,0,0-2.052,3.534,3.178,3.178,0,0,0,2.109,3.021,27.894,27.894,0,0,0,5.358,1.71q3.249.741,6.954,1.6a26.129,26.129,0,0,1,6.954,2.679,15.564,15.564,0,0,1,5.358,4.959,14.792,14.792,0,0,1,2.109,8.379,15.517,15.517,0,0,1-2.337,8.835,17.925,17.925,0,0,1-5.985,5.586,25.74,25.74,0,0,1-8.208,2.964,48.79,48.79,0,0,1-9.006.855,43.565,43.565,0,0,1-11.742-1.653,21.937,21.937,0,0,1-10.032-5.871L176.472,96.33a17.209,17.209,0,0,0,5.3,4.5,14.291,14.291,0,0,0,6.783,1.539,15.85,15.85,0,0,0,5.358-.855,3.153,3.153,0,0,0,2.394-3.135,3.473,3.473,0,0,0-2.109-3.249,23.094,23.094,0,0,0-5.358-1.824q-3.249-.741-6.954-1.6a28.732,28.732,0,0,1-6.954-2.565,14.55,14.55,0,0,1-5.358-4.845,14.792,14.792,0,0,1-2.109-8.379,16.894,16.894,0,0,1,1.995-8.436,17.527,17.527,0,0,1,5.244-5.814,22.689,22.689,0,0,1,7.467-3.363,34.247,34.247,0,0,1,8.55-1.083,40.109,40.109,0,0,1,11.058,1.6,20.508,20.508,0,0,1,9.462,5.7Zm64.638,1.6a9.582,9.582,0,0,0-3.534-3.021,10.39,10.39,0,0,0-4.9-1.2q-6.5,0-10.089,3.876A14.335,14.335,0,0,0,243.276,86.3a14.335,14.335,0,0,0,3.591,10.146q3.591,3.876,10.089,3.876a9.22,9.22,0,0,0,4.9-1.254,14.949,14.949,0,0,0,3.534-2.964l11.286,11.856a21.8,21.8,0,0,1-9.4,5.757,35.341,35.341,0,0,1-10.317,1.653,34.92,34.92,0,0,1-12.027-2.052,28.948,28.948,0,0,1-9.8-5.871,27.554,27.554,0,0,1-6.555-9.177,31.122,31.122,0,0,1,0-23.94,27.554,27.554,0,0,1,6.555-9.177,28.948,28.948,0,0,1,9.8-5.871,34.921,34.921,0,0,1,12.027-2.052,35.341,35.341,0,0,1,10.317,1.653,21.8,21.8,0,0,1,9.4,5.757Zm75.582,27.93a27.285,27.285,0,0,1-10.374,8.094,31.075,31.075,0,0,1-13,2.85,34.92,34.92,0,0,1-12.027-2.052,28.949,28.949,0,0,1-9.8-5.871,27.553,27.553,0,0,1-6.555-9.177,31.122,31.122,0,0,1,0-23.94,27.553,27.553,0,0,1,6.555-9.177,28.948,28.948,0,0,1,9.8-5.871A34.921,34.921,0,0,1,317.6,57.228a27.359,27.359,0,0,1,10.773,2.052,22.431,22.431,0,0,1,8.208,5.871,26.737,26.737,0,0,1,5.187,9.177A36.989,36.989,0,0,1,343.6,86.3v5.358H303.924a13.533,13.533,0,0,0,4.446,7.809,12.577,12.577,0,0,0,8.436,2.907,12.844,12.844,0,0,0,7.125-1.881A19.157,19.157,0,0,0,329,95.646ZM326.5,80.028a9.9,9.9,0,0,0-2.85-7.41,10.135,10.135,0,0,0-7.638-3.078,12.842,12.842,0,0,0-5.016.912,12.571,12.571,0,0,0-3.7,2.337,10.244,10.244,0,0,0-2.394,3.306,10.883,10.883,0,0,0-.969,3.933ZM359.67,58.6h16.416V66.12h.228a13.857,13.857,0,0,1,2.28-3.192,16.582,16.582,0,0,1,3.534-2.85,20.206,20.206,0,0,1,4.674-2.052,19.5,19.5,0,0,1,5.7-.8,23.551,23.551,0,0,1,10.488,2,15.166,15.166,0,0,1,6.213,5.529,22.363,22.363,0,0,1,3.021,8.322,63.2,63.2,0,0,1,.8,10.374V114h-17.1V86.868q0-2.394-.171-4.959a15.644,15.644,0,0,0-1.026-4.731,7.355,7.355,0,0,0-7.695-4.9,10.557,10.557,0,0,0-5.358,1.2,8.159,8.159,0,0,0-3.135,3.192,13.048,13.048,0,0,0-1.425,4.5,38.805,38.805,0,0,0-.342,5.244V114h-17.1ZM488.946,114H473.214v-7.3h-.228a18.894,18.894,0,0,1-2.679,3.021,20.268,20.268,0,0,1-3.876,2.793,23.725,23.725,0,0,1-4.9,2.052,19.265,19.265,0,0,1-5.529.8,28.556,28.556,0,0,1-11.172-2.109,24.912,24.912,0,0,1-8.607-5.928,26.433,26.433,0,0,1-5.529-9.063,32.98,32.98,0,0,1-1.938-11.514,34.915,34.915,0,0,1,1.767-11.115,30.588,30.588,0,0,1,5.016-9.4,24.5,24.5,0,0,1,7.923-6.555,22.484,22.484,0,0,1,10.6-2.451,29.382,29.382,0,0,1,9.975,1.653,15.963,15.963,0,0,1,7.581,5.643h.228V27.816h17.1ZM473.214,86.3a14.335,14.335,0,0,0-3.591-10.146q-3.591-3.876-10.089-3.876t-10.089,3.876A14.335,14.335,0,0,0,445.854,86.3a14.335,14.335,0,0,0,3.591,10.146q3.591,3.876,10.089,3.876t10.089-3.876A14.335,14.335,0,0,0,473.214,86.3ZM543.1,107.046h-.228a16.081,16.081,0,0,1-7.581,6.384,26.06,26.06,0,0,1-9.975,1.938,25.719,25.719,0,0,1-7.467-1.083,18.844,18.844,0,0,1-6.327-3.249,15.689,15.689,0,0,1-4.332-5.358,16.365,16.365,0,0,1-1.6-7.41,16.989,16.989,0,0,1,1.767-8.094,15.812,15.812,0,0,1,4.788-5.472,23.776,23.776,0,0,1,6.9-3.363,50.345,50.345,0,0,1,8.037-1.767,76.765,76.765,0,0,1,8.322-.684q4.161-.114,7.7-.114a8.892,8.892,0,0,0-3.249-7.239,11.717,11.717,0,0,0-7.7-2.679,16.737,16.737,0,0,0-7.7,1.767,21.021,21.021,0,0,0-6.213,4.845l-9.12-9.348A31.38,31.38,0,0,1,520.3,59.451a39.928,39.928,0,0,1,13.224-2.223,34.573,34.573,0,0,1,12.369,1.881,17.987,17.987,0,0,1,7.752,5.529,21.306,21.306,0,0,1,4.047,8.949,58.733,58.733,0,0,1,1.14,12.255V114H543.1Zm-4.218-17.328q-1.938,0-4.845.171a24.55,24.55,0,0,0-5.586.969,12.43,12.43,0,0,0-4.56,2.394,5.515,5.515,0,0,0-1.881,4.446,4.892,4.892,0,0,0,2.622,4.56,10.968,10.968,0,0,0,5.472,1.482,17.159,17.159,0,0,0,4.845-.684,14.449,14.449,0,0,0,4.161-1.938,9.368,9.368,0,0,0,2.907-3.192,9.2,9.2,0,0,0,1.083-4.56V89.718ZM575.244,58.6H591.66V66.12h.228a13.86,13.86,0,0,1,2.28-3.192,16.582,16.582,0,0,1,3.534-2.85,20.206,20.206,0,0,1,4.674-2.052,19.5,19.5,0,0,1,5.7-.8,23.551,23.551,0,0,1,10.488,2,15.166,15.166,0,0,1,6.213,5.529,22.362,22.362,0,0,1,3.021,8.322,63.2,63.2,0,0,1,.8,10.374V114H611.5V86.868q0-2.394-.171-4.959a15.643,15.643,0,0,0-1.026-4.731,7.355,7.355,0,0,0-7.7-4.9,10.556,10.556,0,0,0-5.358,1.2,8.159,8.159,0,0,0-3.135,3.192,13.048,13.048,0,0,0-1.425,4.5,38.81,38.81,0,0,0-.342,5.244V114h-17.1Zm108.87,13.68H669.066V90.744a34.765,34.765,0,0,0,.228,4.161,8.386,8.386,0,0,0,1.026,3.249,5.183,5.183,0,0,0,2.451,2.109,10.869,10.869,0,0,0,4.389.741,29.561,29.561,0,0,0,3.591-.285,6.086,6.086,0,0,0,3.363-1.311v14.25a25.872,25.872,0,0,1-5.928,1.368,54.7,54.7,0,0,1-6.042.342,32.87,32.87,0,0,1-7.98-.912,18.2,18.2,0,0,1-6.384-2.907,13.615,13.615,0,0,1-4.275-5.187,17.733,17.733,0,0,1-1.539-7.752V72.276H641.022V58.6h10.944V42.18h17.1V58.6h15.048ZM729.828,74.9a12.107,12.107,0,0,0-9.918-4.674,9.328,9.328,0,0,0-4.218,1.026,3.627,3.627,0,0,0-2.052,3.534,3.178,3.178,0,0,0,2.109,3.021,27.894,27.894,0,0,0,5.358,1.71q3.249.741,6.954,1.6a26.128,26.128,0,0,1,6.954,2.679,15.564,15.564,0,0,1,5.358,4.959,14.792,14.792,0,0,1,2.109,8.379,15.516,15.516,0,0,1-2.337,8.835,17.925,17.925,0,0,1-5.985,5.586,25.74,25.74,0,0,1-8.208,2.964,48.79,48.79,0,0,1-9.006.855,43.565,43.565,0,0,1-11.742-1.653,21.937,21.937,0,0,1-10.032-5.871L705.546,96.33a17.21,17.21,0,0,0,5.3,4.5,14.291,14.291,0,0,0,6.783,1.539,15.85,15.85,0,0,0,5.358-.855,3.153,3.153,0,0,0,2.394-3.135,3.473,3.473,0,0,0-2.109-3.249,23.093,23.093,0,0,0-5.358-1.824q-3.249-.741-6.954-1.6a28.731,28.731,0,0,1-6.954-2.565,14.551,14.551,0,0,1-5.358-4.845,14.792,14.792,0,0,1-2.109-8.379,16.894,16.894,0,0,1,1.995-8.436,17.528,17.528,0,0,1,5.244-5.814,22.688,22.688,0,0,1,7.467-3.363,34.247,34.247,0,0,1,8.55-1.083,40.11,40.11,0,0,1,11.058,1.6,20.509,20.509,0,0,1,9.462,5.7Zm64.524,11.4a29.025,29.025,0,0,1,2.394-11.97,27.554,27.554,0,0,1,6.555-9.177,28.948,28.948,0,0,1,9.8-5.871,36.272,36.272,0,0,1,24.054,0,28.948,28.948,0,0,1,9.8,5.871,27.554,27.554,0,0,1,6.555,9.177,31.122,31.122,0,0,1,0,23.94,27.554,27.554,0,0,1-6.555,9.177,28.948,28.948,0,0,1-9.8,5.871,36.272,36.272,0,0,1-24.054,0,28.948,28.948,0,0,1-9.8-5.871,27.554,27.554,0,0,1-6.555-9.177A29.025,29.025,0,0,1,794.352,86.3Zm17.1,0a14.335,14.335,0,0,0,3.591,10.146q3.591,3.876,10.089,3.876t10.089-3.876A14.335,14.335,0,0,0,838.812,86.3a14.335,14.335,0,0,0-3.591-10.146q-3.591-3.876-10.089-3.876t-10.089,3.876A14.335,14.335,0,0,0,811.452,86.3Zm66.12-14.022H866.286V58.6h11.286v-9.8a44.445,44.445,0,0,1,.8-8.607,17.474,17.474,0,0,1,3.078-7.125A15.073,15.073,0,0,1,888,28.215a29.834,29.834,0,0,1,11.229-1.767q2.622,0,5.13.228a34.7,34.7,0,0,1,4.9.8l-.8,14.478a20.107,20.107,0,0,0-2.736-.855,12.916,12.916,0,0,0-2.85-.285q-4.1,0-6.156,1.767t-2.052,7.239V58.6h12.654v13.68H894.672V114h-17.1Zm99.18-23.256H953.724V33.288h63.84V49.02H994.536V114H976.752Zm70.452-21.2v38.3h.228a10.276,10.276,0,0,1,1.938-3.192,15.162,15.162,0,0,1,3.306-2.85,18,18,0,0,1,4.56-2.052,19.5,19.5,0,0,1,5.7-.8,23.552,23.552,0,0,1,10.488,2,15.165,15.165,0,0,1,6.213,5.529,22.361,22.361,0,0,1,3.021,8.322,63.188,63.188,0,0,1,.8,10.374V114h-17.1V86.868q0-2.394-.171-4.959a15.647,15.647,0,0,0-1.026-4.731,7.355,7.355,0,0,0-7.7-4.9,10.557,10.557,0,0,0-5.358,1.2,8.158,8.158,0,0,0-3.135,3.192,13.048,13.048,0,0,0-1.425,4.5,38.8,38.8,0,0,0-.342,5.244V114h-17.1V27.816Zm106.476,76.608a27.285,27.285,0,0,1-10.374,8.094,31.075,31.075,0,0,1-13,2.85,34.921,34.921,0,0,1-12.027-2.052,28.949,28.949,0,0,1-9.8-5.871,27.554,27.554,0,0,1-6.555-9.177,31.123,31.123,0,0,1,0-23.94,27.554,27.554,0,0,1,6.555-9.177,28.949,28.949,0,0,1,9.8-5.871,34.922,34.922,0,0,1,12.027-2.052,27.358,27.358,0,0,1,10.773,2.052,22.432,22.432,0,0,1,8.208,5.871,26.735,26.735,0,0,1,5.187,9.177A36.99,36.99,0,0,1,1156.3,86.3v5.358H1116.63a13.533,13.533,0,0,0,4.446,7.809,12.577,12.577,0,0,0,8.436,2.907,12.844,12.844,0,0,0,7.125-1.881,19.157,19.157,0,0,0,5.073-4.845Zm-14.478-24.4a9.9,9.9,0,0,0-2.85-7.41,10.135,10.135,0,0,0-7.638-3.078,12.842,12.842,0,0,0-5.016.912,12.572,12.572,0,0,0-3.7,2.337A10.243,10.243,0,0,0,1117.6,76.1a10.886,10.886,0,0,0-.969,3.933Zm101.346-46.74h14.706L1290.366,114H1270.3l-6.954-17.1H1232l-6.726,17.1h-19.608Zm6.84,23.484-9.8,25.08h19.722Zm56.2-28.956h17.1V64.524h.228a15.963,15.963,0,0,1,7.581-5.643,29.382,29.382,0,0,1,9.975-1.653,22.484,22.484,0,0,1,10.6,2.451A24.5,24.5,0,0,1,1357,66.234a30.587,30.587,0,0,1,5.016,9.4,34.916,34.916,0,0,1,1.767,11.115,32.981,32.981,0,0,1-1.938,11.514,26.434,26.434,0,0,1-5.529,9.063,24.913,24.913,0,0,1-8.607,5.928,28.556,28.556,0,0,1-11.172,2.109,19.087,19.087,0,0,1-5.586-.8,24.117,24.117,0,0,1-4.845-2.052,20.273,20.273,0,0,1-3.876-2.793,18.9,18.9,0,0,1-2.679-3.021h-.228V114H1303.59ZM1319.322,86.3a14.335,14.335,0,0,0,3.591,10.146q3.591,3.876,10.089,3.876t10.089-3.876a14.335,14.335,0,0,0,3.591-10.146,14.335,14.335,0,0,0-3.591-10.146Q1339.5,72.276,1333,72.276t-10.089,3.876A14.335,14.335,0,0,0,1319.322,86.3Zm94.962,20.748h-.228a16.082,16.082,0,0,1-7.581,6.384,26.06,26.06,0,0,1-9.975,1.938,25.718,25.718,0,0,1-7.467-1.083,18.843,18.843,0,0,1-6.327-3.249,15.691,15.691,0,0,1-4.332-5.358,16.365,16.365,0,0,1-1.6-7.41,16.99,16.99,0,0,1,1.767-8.094,15.812,15.812,0,0,1,4.788-5.472,23.776,23.776,0,0,1,6.9-3.363,50.344,50.344,0,0,1,8.037-1.767,76.766,76.766,0,0,1,8.322-.684q4.161-.114,7.7-.114a8.892,8.892,0,0,0-3.249-7.239,11.717,11.717,0,0,0-7.695-2.679,16.737,16.737,0,0,0-7.7,1.767,21.021,21.021,0,0,0-6.213,4.845l-9.12-9.348a31.38,31.38,0,0,1,11.172-6.669,39.928,39.928,0,0,1,13.224-2.223,34.573,34.573,0,0,1,12.369,1.881,17.988,17.988,0,0,1,7.752,5.529,21.306,21.306,0,0,1,4.047,8.949,58.737,58.737,0,0,1,1.14,12.255V114h-15.732Zm-4.218-17.328q-1.938,0-4.845.171a24.551,24.551,0,0,0-5.586.969,12.431,12.431,0,0,0-4.56,2.394,5.515,5.515,0,0,0-1.881,4.446,4.892,4.892,0,0,0,2.622,4.56,10.968,10.968,0,0,0,5.472,1.482,17.159,17.159,0,0,0,4.845-.684,14.449,14.449,0,0,0,4.161-1.938,9.369,9.369,0,0,0,2.907-3.192,9.2,9.2,0,0,0,1.083-4.56V89.718Zm73.872-13.224a9.583,9.583,0,0,0-3.534-3.021,10.39,10.39,0,0,0-4.9-1.2q-6.5,0-10.089,3.876a14.335,14.335,0,0,0-3.591,10.146,14.335,14.335,0,0,0,3.591,10.146q3.591,3.876,10.089,3.876a9.22,9.22,0,0,0,4.9-1.254,14.946,14.946,0,0,0,3.534-2.964l11.286,11.856a21.8,21.8,0,0,1-9.405,5.757,35.34,35.34,0,0,1-10.317,1.653,34.921,34.921,0,0,1-12.027-2.052,28.949,28.949,0,0,1-9.8-5.871,27.554,27.554,0,0,1-6.555-9.177,31.123,31.123,0,0,1,0-23.94,27.554,27.554,0,0,1,6.555-9.177,28.949,28.949,0,0,1,9.8-5.871,34.922,34.922,0,0,1,12.027-2.052,35.341,35.341,0,0,1,10.317,1.653,21.8,21.8,0,0,1,9.405,5.757ZM1560.432,114h-16.416v-7.524h-.228a18.927,18.927,0,0,1-2.337,3.192,15.333,15.333,0,0,1-3.477,2.85,20.206,20.206,0,0,1-4.674,2.052,19.5,19.5,0,0,1-5.7.8,23.931,23.931,0,0,1-10.545-1.995,15.091,15.091,0,0,1-6.27-5.529,21.674,21.674,0,0,1-2.964-8.322,67.959,67.959,0,0,1-.741-10.374V58.6h17.1V85.728q0,2.394.171,4.959a15.647,15.647,0,0,0,1.026,4.731,7.355,7.355,0,0,0,7.7,4.9,10.556,10.556,0,0,0,5.358-1.2,8.159,8.159,0,0,0,3.135-3.192,13.048,13.048,0,0,0,1.425-4.5,38.82,38.82,0,0,0,.342-5.244V58.6h17.1Zm49.134-39.1a12.107,12.107,0,0,0-9.918-4.674,9.329,9.329,0,0,0-4.218,1.026,3.627,3.627,0,0,0-2.052,3.534,3.178,3.178,0,0,0,2.109,3.021,27.894,27.894,0,0,0,5.358,1.71q3.249.741,6.954,1.6a26.129,26.129,0,0,1,6.954,2.679,15.564,15.564,0,0,1,5.358,4.959,14.792,14.792,0,0,1,2.109,8.379,15.517,15.517,0,0,1-2.337,8.835,17.925,17.925,0,0,1-5.985,5.586,25.74,25.74,0,0,1-8.208,2.964,48.789,48.789,0,0,1-9.006.855,43.566,43.566,0,0,1-11.742-1.653,21.937,21.937,0,0,1-10.032-5.871l10.374-11.514a17.21,17.21,0,0,0,5.3,4.5,14.291,14.291,0,0,0,6.783,1.539,15.851,15.851,0,0,0,5.358-.855,3.153,3.153,0,0,0,2.394-3.135,3.473,3.473,0,0,0-2.109-3.249,23.094,23.094,0,0,0-5.358-1.824q-3.249-.741-6.954-1.6a28.728,28.728,0,0,1-6.954-2.565,14.55,14.55,0,0,1-5.358-4.845,14.792,14.792,0,0,1-2.109-8.379,16.894,16.894,0,0,1,1.995-8.436,17.527,17.527,0,0,1,5.244-5.814,22.689,22.689,0,0,1,7.467-3.363,34.245,34.245,0,0,1,8.55-1.083,40.109,40.109,0,0,1,11.058,1.6,20.508,20.508,0,0,1,9.462,5.7Z" transform="matrix(0.966, 0.259, -0.259, 0.966, 21.931, -27.671)"/></svg>