<svg xmlns="http://www.w3.org/2000/svg" width="185.999" height="185.999" viewBox="0 0 185.999 185.999"><defs><style>.a{fill:#2368ff;}.b,.n,.r{fill:#fff;}.c,.e{fill:#ccc;}.c,.d,.e,.l,.m,.n,.o,.p,.r,.s,.t,.u{stroke:#000;}.c,.d,.e,.l,.s{stroke-miterlimit:10;}.c,.l,.m,.q,.r{stroke-width:3px;}.f{fill:#ff0;}.g{fill:aqua;}.h{fill:lime;}.i{fill:#f0f;}.j{fill:red;}.k{fill:blue;}.l,.o,.q,.s,.t{fill:none;}.m,.u{fill:#5fe6ff;}.m,.n,.o,.p,.q,.r,.t,.u{stroke-linecap:round;stroke-linejoin:round;}.n,.t{stroke-width:4px;}.q{stroke:#040000;}</style></defs><g transform="translate(-88.21 -1498.39)"><path class="a" d="M88.21,1591.39a93,93,0,1,1,93,93,93,93,0,0,1-93-93" transform="translate(0 0)"/><g transform="translate(144.778 1528.607)"><path class="b" d="M167.882,1540.743a1.969,1.969,0,0,0-.52-.312,1.379,1.379,0,0,0-.5-.1.817.817,0,0,0-.5.147.457.457,0,0,0-.195.382.379.379,0,0,0,.1.268.852.852,0,0,0,.256.183,2.2,2.2,0,0,0,.358.134q.2.057.394.122a2.459,2.459,0,0,1,1.141.694,1.716,1.716,0,0,1,.362,1.133,2.2,2.2,0,0,1-.158.853,1.784,1.784,0,0,1-.464.654,2.136,2.136,0,0,1-.747.422,3.125,3.125,0,0,1-1,.15,3.692,3.692,0,0,1-2.152-.69l.682-1.283a2.755,2.755,0,0,0,.707.471,1.7,1.7,0,0,0,.69.154.824.824,0,0,0,.58-.178.552.552,0,0,0,.142-.646.516.516,0,0,0-.162-.187,1.345,1.345,0,0,0-.3-.158c-.122-.048-.27-.1-.443-.162-.206-.065-.408-.137-.606-.215a1.9,1.9,0,0,1-.527-.313,1.446,1.446,0,0,1-.374-.491,1.74,1.74,0,0,1-.142-.751,2.181,2.181,0,0,1,.15-.824,1.829,1.829,0,0,1,.423-.633,1.879,1.879,0,0,1,.666-.411,2.537,2.537,0,0,1,.882-.146,3.891,3.891,0,0,1,.95.126,4.2,4.2,0,0,1,.95.37Z" transform="translate(-164.243 -1539.005)"/><path class="b" d="M178.17,1539.234v6.124h-1.591v-6.124Z" transform="translate(-167.401 -1539.064)"/><path class="b" d="M187.48,1540.582v4.776h-1.592v-4.776h-1.307v-1.348h4.207v1.348Z" transform="translate(-169.45 -1539.064)"/><path class="b" d="M200.336,1541.222a1.7,1.7,0,0,0-1.364-.674,1.675,1.675,0,0,0-.662.13,1.581,1.581,0,0,0-.869.885,1.742,1.742,0,0,0-.126.666,1.767,1.767,0,0,0,.126.674,1.625,1.625,0,0,0,1.523,1.023,1.844,1.844,0,0,0,1.373-.65v1.885l-.162.057a4.821,4.821,0,0,1-.682.191,3.345,3.345,0,0,1-.626.061,3.208,3.208,0,0,1-2.238-.914,3.366,3.366,0,0,1-.711-1.032,3.307,3.307,0,0,1,0-2.6,3.233,3.233,0,0,1,2.96-1.921,3.32,3.32,0,0,1,.719.077,4.331,4.331,0,0,1,.743.24Z" transform="translate(-172.283 -1539.005)"/><path class="b" d="M207.964,1542.238a3.153,3.153,0,0,1,2.018-2.985,3.891,3.891,0,0,1,2.733,0,3.229,3.229,0,0,1,1.076.686,3.151,3.151,0,0,1,.7,1.027,3.338,3.338,0,0,1,0,2.542,3.142,3.142,0,0,1-.7,1.027,3.23,3.23,0,0,1-1.076.687,3.893,3.893,0,0,1-2.733,0,3.167,3.167,0,0,1-2.018-2.985Zm1.665,0a1.631,1.631,0,0,0,.138.674,1.688,1.688,0,0,0,.922.889,1.77,1.77,0,0,0,1.876-.354,1.681,1.681,0,0,0,.378-.536,1.719,1.719,0,0,0,0-1.348,1.684,1.684,0,0,0-.378-.536,1.787,1.787,0,0,0-1.876-.353,1.685,1.685,0,0,0-.922.89A1.626,1.626,0,0,0,209.629,1542.238Z" transform="translate(-175.436 -1539.005)"/><path class="b" d="M223.345,1545.358v-6.124h1.592l2.94,3.745v-3.745h1.584v6.124h-1.584l-2.94-3.744v3.744Z" transform="translate(-179.373 -1539.064)"/><path class="b" d="M238.8,1539.234h1.389l-1.495,2.7h-.942Z" transform="translate(-183.062 -1539.064)"/><path class="b" d="M251.756,1545.3h-4.93l1.519-1.576q.6-.625.943-1.059a5.867,5.867,0,0,0,.507-.735,1.958,1.958,0,0,0,.208-.487,1.544,1.544,0,0,0,.04-.317.818.818,0,0,0-.045-.268.679.679,0,0,0-.134-.231.644.644,0,0,0-.512-.223.636.636,0,0,0-.507.21.779.779,0,0,0-.183.528,1.978,1.978,0,0,0,.025.26h-1.738a2.606,2.606,0,0,1,.175-.975,2.2,2.2,0,0,1,.491-.755,2.167,2.167,0,0,1,.751-.487,2.587,2.587,0,0,1,.954-.17,2.688,2.688,0,0,1,.946.162,2.275,2.275,0,0,1,.751.455,2.089,2.089,0,0,1,.5.695,2.124,2.124,0,0,1,.179.873,2.032,2.032,0,0,1-.215.93,3.283,3.283,0,0,1-.687.873l-1.015.95h1.981Z" transform="translate(-185.385 -1539.008)"/><path class="b" d="M260.82,1540.582h-.894v-1.348h2.486v6.124H260.82Z" transform="translate(-188.738 -1539.064)"/></g><rect class="c" width="42.347" height="28.595" transform="translate(225.157 1605.176)"/><rect class="c" width="42.347" height="28.595" transform="translate(94.246 1605.176)"/><rect class="d" width="86.256" height="61.023" transform="translate(180.508 1543.383)"/><rect class="e" width="42.347" height="28.595" transform="translate(218.22 1570.437)"/><rect class="e" width="42.347" height="28.595" transform="translate(182.919 1546.352)"/><g transform="translate(198.877 1556.677)"><rect class="f" width="7.954" height="30.183"/><rect class="g" width="7.954" height="30.183" transform="translate(7.954)"/><rect class="h" width="7.954" height="30.183" transform="translate(15.907)"/><rect class="i" width="7.954" height="30.183" transform="translate(23.861)"/><rect class="j" width="7.954" height="30.183" transform="translate(31.567)"/><rect class="k" width="7.954" height="30.183" transform="translate(39.521)"/><rect class="f" width="7.954" height="3.377" transform="translate(7.954 30.183)"/><rect class="i" width="7.954" height="3.377" transform="translate(0 30.183)"/><rect class="g" width="7.954" height="3.377" transform="translate(23.737 30.183)"/><rect class="j" width="7.954" height="3.377" transform="translate(15.784 30.183)"/><rect class="b" width="7.954" height="3.377" transform="translate(39.521 30.183)"/><rect width="7.954" height="3.377" transform="translate(31.567 30.183)"/></g><g transform="translate(94.239 1543.444)"><rect class="f" width="14.453" height="54.847"/><rect class="g" width="14.453" height="54.847" transform="translate(14.453)"/><rect class="h" width="14.453" height="54.847" transform="translate(28.906)"/><rect class="i" width="14.453" height="54.847" transform="translate(43.359)"/><rect class="j" width="14.453" height="54.847" transform="translate(57.363)"/><rect class="k" width="14.453" height="54.847" transform="translate(71.816)"/><rect class="f" width="14.453" height="6.136" transform="translate(14.453 54.847)"/><rect class="i" width="14.453" height="6.136" transform="translate(0 54.847)"/><rect class="g" width="14.453" height="6.136" transform="translate(43.134 54.847)"/><rect class="j" width="14.453" height="6.136" transform="translate(28.682 54.847)"/><rect class="b" width="14.453" height="6.136" transform="translate(71.816 54.847)"/><rect width="14.453" height="6.136" transform="translate(57.363 54.847)"/></g><rect class="l" width="86.256" height="61.023" transform="translate(94.47 1544.127)"/><path class="m" d="M279.152,1622.026c1.362-.8-.975-7.271-2.345-10.233a22.363,22.363,0,0,0-6.822-8.954c-2.617-2-7.866-5.023-8.954-3.838C258.663,1601.578,276.381,1623.644,279.152,1622.026Z" transform="translate(-44.187 -25.688)"/><path class="n" d="M162.449,1588.868l-29.321,39.612,25.206,42.108,67.707,1.233,26.527-42.218-30.635-40.767Z" transform="translate(-11.499 -23.154)"/><path class="o" d="M182.57,1698.425q-8.7,7.408-17.717,14.431" transform="translate(-19.621 -51.21)"/><path class="p" d="M162.634,1714.937a3.619,3.619,0,0,1-1.99-.648c-1.754-.987-3.632-2.111-4.373-3.983a2.552,2.552,0,0,1-.052-2.008,2.163,2.163,0,0,1,2.059-1.119,3.553,3.553,0,0,1,2.2,1.044c1.717,1.623,2.146,4.151,2.479,6.49" transform="translate(-17.363 -53.45)"/><path class="o" d="M237,1699.425q8.7,7.408,17.717,14.431" transform="translate(-38.091 -51.466)"/><path class="p" d="M260.65,1715.937a3.619,3.619,0,0,0,1.99-.648c1.754-.987,3.632-2.111,4.373-3.983a2.552,2.552,0,0,0,.052-2.008,2.164,2.164,0,0,0-2.059-1.119,3.554,3.554,0,0,0-2.2,1.044c-1.717,1.623-2.146,4.151-2.479,6.49" transform="translate(-44.063 -53.706)"/><path class="q" d="M137.07,1642.21c18.428.291,36.826,3.668,55.254,3.959,20.391.322,40.813-2.443,61.2-2.12" transform="translate(-12.508 -36.818)"/><ellipse class="r" cx="6.665" cy="9.802" rx="6.665" ry="9.802" transform="translate(165.697 1584.734)"/><ellipse class="r" cx="6.665" cy="9.802" rx="6.665" ry="9.802" transform="translate(183.158 1584.851)"/><path class="s" d="M193.263,1624.377a17.866,17.866,0,0,0,11.878-1.167" transform="translate(-26.894 -31.954)"/><path class="s" d="M216.89,1623.332a39.921,39.921,0,0,0,11.321.185" transform="translate(-32.943 -31.986)"/><path class="s" d="M199.186,1625.972a6.287,6.287,0,0,0,.492,4.081c.1.164.257.334.452.326a.586.586,0,0,0,.346-.18,4.442,4.442,0,0,0,1.484-3.343.5.5,0,0,0-.091-.333.456.456,0,0,0-.22-.116,1.673,1.673,0,0,0-1.777.6,1.489,1.489,0,0,0,.107,1.838" transform="translate(-28.383 -32.662)"/><path class="s" d="M222.622,1624.708a6.757,6.757,0,0,0,.117,2.651,2.328,2.328,0,0,0,.591,1.172,1.029,1.029,0,0,0,1.221.183,1.576,1.576,0,0,0,.529-1.01l.387-1.635a1.252,1.252,0,0,0-.094-1.121.832.832,0,0,0-1.225.173,1.993,1.993,0,0,0-.251,1.366,4.13,4.13,0,0,1,.009,1.412" transform="translate(-34.39 -32.338)"/><path class="m" d="M138.617,1622.026c-1.362-.8.975-7.271,2.346-10.233a22.353,22.353,0,0,1,6.822-8.954c2.617-2,7.866-5.023,8.954-3.838C159.107,1601.578,141.388,1623.644,138.617,1622.026Z" transform="translate(-12.799 -25.688)"/><path class="t" d="M156.035,1593.193c12.672-27.9,66.245-32.94,84.515.632" transform="translate(-17.363 -18.442)"/><path class="o" d="M265.849,1622.29c.417,1.8-.527,3.61-1.521,5.166a51.813,51.813,0,0,1-31.418,22.268" transform="translate(-37.043 -31.719)"/><path class="u" d="M229.316,1658.279a9.444,9.444,0,0,0-8.03-2.359,3.458,3.458,0,0,0-1.3.46,2.857,2.857,0,0,0-.894,1.017,4.279,4.279,0,0,0,3.257,6.33,5.753,5.753,0,0,0,4.353-1.61,16.241,16.241,0,0,0,2.874-3.8" transform="translate(-33.372 -40.291)"/><path class="o" d="M144.456,1662.967c-.962,2.449-1.83,5.515-.071,7.472a6.293,6.293,0,0,0,3.245,1.641c6.508,1.636,13.366.573,19.947-.737" transform="translate(-14.121 -42.132)"/><path class="o" d="M281.29,1663.836c.374,3.6,1.51,7.113,1.545,10.73a17.889,17.889,0,0,1-3.632,10.924" transform="translate(-48.895 -42.355)"/></g></svg>