<svg xmlns="http://www.w3.org/2000/svg" width="169.115" height="195.406" viewBox="0 0 169.115 195.406">
    <defs>
        <style>
            .cls-3{fill:#fff}
        </style>
    </defs>
    <g id="Group_314" transform="translate(-1434.549 -1661)">
        <path id="Path_1133" fill="blue" d="M60.221 163.407L84 139.629l20.923-20.929a7.1 7.1 0 0 1 10.037 0l44.875 44.879a7.1 7.1 0 0 1 0 10.037l-44.7 44.7a7.1 7.1 0 0 1-10.037 0l-20.924-20.922-23.953-23.954a7.1 7.1 0 0 1 0-10.033z" transform="translate(1441.749 1544.373)"/>
        <path id="Path_1134" fill="#1060ff" d="M61.278 187.218l35.88-35.88 31.576-31.576a10.716 10.716 0 0 1 15.147 0l67.719 67.722a10.706 10.706 0 0 1 0 15.147l-67.451 67.451a10.707 10.707 0 0 1-15.147 0l-31.577-31.576-36.147-36.147a10.71 10.71 0 0 1 0-15.141z" transform="translate(1376.406 1583.186)"/>
        <g id="Group_313" transform="translate(1295.506 1679.767)">
            <path id="Path_1129" d="M221.016 50.52a14.962 14.962 0 0 1 11.6-2.558s-1.051 7.53-6.353 11.584-12.843 3.1-12.843 3.1a65.125 65.125 0 0 0 3.283-5.719c.959-1.891 2.358-4.912 4.313-6.407z" class="cls-3" transform="translate(8.445)"/>
            <path id="Path_1130" d="M210.769 54.859a6.99 6.99 0 0 0-5.417-1.194 9.157 9.157 0 0 0 2.967 5.409 9.16 9.16 0 0 0 6 1.447 30.615 30.615 0 0 1-1.534-2.67 8.967 8.967 0 0 0-2.016-2.992z" class="cls-3" transform="translate(5.969 1.794)"/>
            <path id="Path_1131" d="M210.519 70.922c.724 0 1.448.033 2.171.08-.646-3.853-.519-7.865 1.461-11.31-3.465 2.79-5.152 7.062-6.025 11.327.796-.058 1.594-.097 2.393-.097z" class="cls-3" transform="translate(6.82 3.682)"/>
            <path id="Path_1132" d="M217.339 69.272a31.44 31.44 0 1 0 31.439 31.441 31.44 31.44 0 0 0-31.439-31.441zm12.846 44.286l-12.846-8.841-12.845 8.841 8.841-12.845-8.841-12.846 12.845 8.841 12.846-8.841-8.841 12.846z" class="cls-3" transform="translate(0 6.622)"/>
        </g>
    </g>
</svg>
