<svg xmlns="http://www.w3.org/2000/svg" width="169.115" height="195.406" viewBox="0 0 169.115 195.406">
    <g>
        <path fill="blue" d="M159.838 163.407l-23.777-23.777-20.925-20.93a7.1 7.1 0 0 0-10.037 0l-44.876 44.883a7.1 7.1 0 0 0 0 10.037l44.7 44.7a7.1 7.1 0 0 0 10.037 0l20.925-20.925 23.954-23.954a7.1 7.1 0 0 0-.001-10.034z" transform="translate(-233.549 -987.983) translate(175.406 871.355)"/>
        <path fill="#1060ff" d="M211.6 187.218l-35.88-35.88-31.576-31.576a10.716 10.716 0 0 0-15.147 0l-67.715 67.722a10.706 10.706 0 0 0 0 15.147l67.451 67.451a10.707 10.707 0 0 0 15.147 0l31.576-31.576 36.144-36.147a10.71 10.71 0 0 0 0-15.141z" transform="translate(-233.549 -987.983) translate(187.927 910.168)"/>
    </g>
</svg>
