<svg xmlns="http://www.w3.org/2000/svg" width="341.24" height="34.44" viewBox="0 0 341.24 34.44">
    <path fill="#226bb4" d="M115.46 41.68l4.84-4.8V23.32l-4.04-3.52h-11.04v-2.16h14.2V8.28H97.78l-4.84 4.8V26l4.04 3.52h10.2v2.16H92.9v10zm12.08-33.52v33.56h13.92V8.16zm47.64.2h-26.92v11.56h6.84V41.6h13.24V19.92h6.84zm20.24 21.28V20.6h14.36V8.32h-22.4l-5.52 5.6V36.2l5.52 5.52h22.8V29.64zM221.94 8.2l-4.92 5.32v22.96l4.92 5.28h20.68l4.92-5.28V13.56l-4.92-5.36zm7.68 23.36V18.64h5.32v12.92zm43.32-23.04V19.8h-.88l-6.68-11.28h-10.6v33.04h11.84V30.24h.84l6.88 11.36h10.24V8.52zm60.92-1.04h-23.44v12.04h12.76v1.44l-13.12 13.16v7.68h27.28V31.12h-8.52v-.48l8.04-7.36V11.24zm11.28 29.96l4.64 4.48h19.28l4.68-4.48V12.36l-4.68-4.76h-19.28l-4.64 4.76zM357.1 18.8h4.68v12.16h-4.68zm48.24-11.32H381.9v12.04h12.76v1.44l-13.12 13.16v7.68h27.28V31.12h-8.52v-.48l8.04-7.36V11.24zm16.8.28l-5.84 5.44v7.96h3.28v20.48h14.56V7.76z" transform="translate(-92.9 -7.48)"/>
</svg>
