<svg xmlns="http://www.w3.org/2000/svg" width="227.174" height="97.912" viewBox="0 0 227.174 97.912">
    <path fill="#226bb4" d="M44.022 10.12h-12.7V6.946H14.49v3.174H2.024v32.936H14.49v6.716h16.836v-6.716h12.7zM13.57 21.252h2.76V32.43h-2.76zM32.246 32.43h-2.76V21.252h2.76zm58.282-4.186h-2.392v-18.17H76.774V6.716H61.318v3.358H50v18.17h-2.482v11.224h5.152l-3.772 5.2v4.968h14.95l4.14-9.062h2.576l4.186 9.062h14.9v-4.97l-3.772-5.2h4.646zm-29.486-7.176h2.346v7.176h-2.346zM77 28.244h-2.3v-7.176H77zm59.34-3.312h-1.472v-6.808h1.242V7.544h-25.25v10.58h1.656v6.808h-1.656v10.9h1.656l-1.61 9.246v4.692h10.212l1.334-13.938h1.886v13.894h10.534V35.834h1.472zM94.3 17.618h3.542v.23l-4.554 7.866V40.2h1.472v9.338h15.04V23.276h-3.174v-.184l3.174-5.474V8.05H94.3zm28.152 7.314v-6.808h1.886v6.808zm-19.642 16.56h-1.334V31.97h1.334zm75.118-2.53V30.5h-15.18v-1.658h-4.876l2.346-2.346v-7.452h1.38V26.5l2.714 2.714h17.02v-6.3h-10.58v-3.87h1.38v2.622h10.442V8.6H168.5V6.578h-15.41V8.6h-13.434v13.066h10.074v-2.622h1.38v3.864h-10.3v6.3h7.866V30.5h-7.916v9.29h4.554l-5.382 6.44v3.542h15.64l5.152-9.982h3.91v9.982h18.078v-10.81zm26.358-11.638H226.6v-4.6h1.61V8.51h-7.59V6.578h-11.182V8.51h-6.9v14.306h1.748zm-18.216 22.4h11.27V45.08h4.094V28.75l-1.472-2.3 1.472-3.22V7.728H186.07zm8.556-33.4v7.682h-1.288V16.33zm24.518 1.242V19h-8.05v-1.428zM224.3 38.5l-.828 1.84h-1.012v-3.08h5.75v-8.648h-25.626v8.648h2.208l-2.622 8.05v4.462h9.292l1.38-12.512h1.058v12.512h14.444V38.5zm-29.67-.644h-1.288v-7.22h1.288zM1.17 104.31H9.3l5.19-9.57h1.02l5.34 9.57h8.04v-6.18l-8.7-11.37V76.74H9.51v10.02L1.17 98.13zm49.14-26.28v-1.74H39.63v1.74h-8.49v8.49h27.69v-8.49zm7.53 13.92v-4.68h-9.66l-3.15 3.6-3.18-3.6h-9.66v4.68l3.36 3.18-4.26 3.39v5.88h9.03l4.71-4.59 4.68 4.59h9.03v-5.88l-4.26-3.39zm27.24 3.87v-7.26h3.21v-8.07h-3.21v-4.02h-9v4.02h-3.12v8.07h3.12v7.26h-3.66v8.34h16.47v-8.34zm-14.97-19.2H63v1.53h-1.71v6.72h3.24v.21l-3.48 3.3v10.74h1.32v5.34h8.1v-5.34h1.14v-9.36l-1.14-.96 1.59-1.47v-9.18h-1.95zm49.17 3.18l-8.46-3.54H99.21l-8.43 3.54v6.87h.78v7.17h26.88v-7.17h.84zm-13.35 1.65l1.65.63h-5.13l1.65-.63zm-9.6 3.51l2.73-1.14v.51h11.85v-.54l2.79 1.17zm1.89 3.09h4.29v2.7h-.6v-2.22h-3.09v1.56l.6.66h-1.2zm13.47 2.7h-1.2l.63-.66v-1.56H108v2.22h-.57v-2.7h4.26zm-19.62 13.62h25.89V94.5H92.07zm17.76-6.87v.66h-9.54v-.66zm-9.54 3.75v-.63h9.54v.63zm31.8-18.45l1.8-1.02v-4.92h-12.36v6.33h2.76v1.17h-3v6.63h2.67l-2.88 2.91v8.34h1.8l1.41-1.74v3.87h7.8v-4.05h1.77v-5.88l-1.77-2.07v-1.38h1.83v-6.63h-1.83zm17.01 9.72h-.81V76.86h-7.44v17.46l-.63.21v-6.54l-5.01-2.04h-.6v8.43l3 1.11-3.06 1.11v6.93h1.83l3.06-1.02v1.98h8.85v-4.92l.81-.27zm-8.88-5.49v-7.62l-4.65-1.98h-.96v7.53l4.98 2.07zm24.81-6.18l1.26.72h2.19v-1.98l-.87-.48.87-.45v-1.95h-2.19l-1.26.69-1.26-.69h-2.19v1.95l.87.45-.87.48v1.98h2.19zm12.21 13.05h1.83v-6.27h-.66V76.86h-9.45v4.44h2.82v.6h-2.73v2.31h2.73v.57h-2.73v2.25h2.73v.6h-13.47v-.6h2.76v-2.25h-2.76v-.57h2.76V81.9h-2.76v-.6h.99l1.77-.48v-3.96h-9.36v10.77h-.66v6.33h1.32v2.1h12.03v.15l-1.29.48H151.2v4.71h9.45v.12l-2.28 1.29v1.59h12.18v-3h8.31v-4.71h-4.32l2.7-1.14zm-12.21-7.5l1.26.72h2.19v-1.98l-.9-.48.9-.51v-2.07h-2.19l-1.26.69-1.26-.69h-2.19v2.07l.9.51-.9.48v1.98h2.19zm-7.29 6.18v-.63h14.79v.63zm50.43.99v-6.96h.9v-9.06h-4.44v-1.26h-6.99v1.26h-4.41v7.62h-4.02v-1.32l.93.72h2.46v-5.61l-3.78-2.46h-4.14l-3.78 2.46v5.61h2.52l.96-.75v1.35h-3.09v19.29h6.12l1.11-1.44 1.23 1.41h3.54v-6.72h-5.31v1.11h-.99v-1.83h6.3V86.61h.75v17.79h14.43v-9.99h-8.52v-.84zM187.29 82.5l.96.66h-3.03l.9-.66zm15.69 1.05v.84h-4.02v-.84zm-.69 6.18h-2.34v-1.02h2.34zm-16.05-.81h2.52v.78h-2.52zm0 4.02v-.84h2.52v.84zm16.35 5.34v1.08h-2.64v-1.08z" transform="translate(-1.17 -6.578)"/>
</svg>
