<svg width="260" height="133" viewBox="0 0 260 133" fill="none" xmlns="http://www.w3.org/2000/svg">
<g filter="url(#filter0_d)">
<path d="M228.072 58.8798L197.913 28.953C197.303 28.3455 196.577 27.8637 195.778 27.5355C194.979 27.2072 194.123 27.0387 193.258 27.0399V27H66.7407V27.0399C65.8762 27.0389 65.02 27.2074 64.2213 27.5357C63.4226 27.8639 62.6971 28.3456 62.0866 28.953L31.9285 58.8798C31.3171 59.4864 30.8321 60.2066 30.5012 60.9992C30.1703 61.7918 30 62.6414 30 63.4994C30 64.3574 30.1703 65.2069 30.5012 65.9995C30.8321 66.7921 31.3171 67.5124 31.9285 68.1189L62.0866 98.0458C62.6972 98.6535 63.4228 99.1355 64.2217 99.4639C65.0206 99.7928 65.8771 99.9612 66.7419 99.9602V100H193.258V99.9602C194.123 99.9612 194.979 99.7928 195.778 99.4639C196.577 99.1355 197.303 98.6535 197.913 98.0458L228.072 68.1189C228.683 67.5124 229.168 66.7921 229.499 65.9995C229.83 65.2069 230 64.3574 230 63.4994C230 62.6414 229.83 61.7918 229.499 60.9992C229.168 60.2066 228.683 59.4864 228.072 58.8798Z" fill="white"/>
<path d="M69 57.283V67.7867H96.4011V57.283H69ZM109.064 49.0626H103.032L100.691 51.7036V61.0669H99.9737V67.8193H100.691V76.88H105.733V71.2379L106.633 72.5884H107.416V73.0686L106.516 74.239V76.88H112.878V50.5606H109.067L109.064 49.0626ZM127.041 54.2545V49.2127H114.376V54.2545H113.536V61.0395H118.788L120.288 59.2989V55.6676H121.099V59.2989L122.689 61.0395H128.211V54.2545H127.041ZM107.414 56.4453V58.0058L106.934 57.1955H105.733V56.4453H107.414ZM107.414 61.8172H105.733V59.9252L106.573 61.1556H107.414V61.8172ZM127.881 70.3689V61.6919H113.659V66.7337H121.879V67.394L120.829 68.3243L119.688 67.394H113.746V70.3689L114.976 71.3593L113.536 72.4097V76.88H118.578L120.738 75.1393L123.022 76.88H128.001V72.4084L126.681 71.358L127.881 70.3689ZM106.723 67.818H105.733V67.0678H107.414V68.5983L106.723 67.818ZM139.315 49H133.613V50.2004H131.932V56.9528H141.056V50.2004H139.315V49ZM158.642 73.0386L159.452 72.3209V69.4373H157.021L156.391 69.9475L155.971 69.3773V68.8371H159.542V65.1758H155.971V61.7245H159.302V58.3646H153.81V57.6731H159.122V54.9721H153.81V54.3119H159.302V50.5606H157.172L157.622 49.3601V49.03H151.139L150.629 50.5606H149.969L149.369 49.03H143.156V49.3601L143.637 50.5606H141.716V54.3119H146.609V54.9721H141.806V57.6731H146.608V58.3646H141.656V61.7259H150.449V65.5672H149.129V64.7256L149.912 64.4255V62.2947H141.776V64.9657H143.994V65.5659H141.626V69.2846H143.997V69.9149H141.626V73.6662H143.997V73.9063L141.806 74.8092V77H149.129V73.1586L149.879 72.9486V69.9175H149.129V69.2872H150.449V71.7481L151.079 72.5871L149.759 73.8789V76.8199H152.76L153.66 75.9196L154.411 76.88H159.63V74.3891L158.642 73.0386ZM132.053 61.9946H141.026V57.6431H132.053V61.9946ZM159.302 64.6656V62.2947H156.451V64.6656H159.302ZM132.053 66.8564H141.026V62.6849H132.053V66.8564ZM131.993 76.8199H141.026V67.6066H131.993V76.8199ZM135.984 71.7181H137.184V72.8272H135.984V71.7181ZM163.594 55.1522H165.364V56.2026H163.504V62.7749H165.154L163.234 65.5959V74.269H164.494L165.364 72.7985V76.8499H172.75V71.1779H174.01V65.1158L172.75 63.7653V62.7749H174.01V56.2026H172.75V55.0021L174.1 54.1618V49.3301H163.596L163.594 55.1522ZM190.904 49.3614H174.818V60.0452H190.904V49.3614ZM184.001 55.9638H181.51V54.7634H184.001V55.9638ZM189.643 65.6847L191.144 64.3642V60.8242H174.698V65.686H178.687V66.4688H174.818V70.7904H178.687V71.6281H174.458V76.9126H191.054V71.6281H186.552V70.7878H190.756V66.4662H186.555V65.6833L189.643 65.6847Z" fill="#226BB4"/>
</g>
<defs>
<filter id="filter0_d" x="0" y="0" width="260" height="133" filterUnits="userSpaceOnUse" color-interpolation-filters="sRGB">
<feFlood flood-opacity="0" result="BackgroundImageFix"/>
<feColorMatrix in="SourceAlpha" type="matrix" values="0 0 0 0 0 0 0 0 0 0 0 0 0 0 0 0 0 0 127 0"/>
<feOffset dy="3"/>
<feGaussianBlur stdDeviation="15"/>
<feColorMatrix type="matrix" values="0 0 0 0 0.34902 0 0 0 0 0.470588 0 0 0 0 0.807843 0 0 0 0.561 0"/>
<feBlend mode="normal" in2="BackgroundImageFix" result="effect1_dropShadow"/>
<feBlend mode="normal" in="SourceGraphic" in2="effect1_dropShadow" result="shape"/>
</filter>
</defs>
</svg>
