<svg id="圖層_1" data-name="圖層 1" xmlns="http://www.w3.org/2000/svg" viewBox="0 0 500 500"><defs><style>.cls-1{fill:#2368ff;}.cls-2,.cls-3,.cls-6,.cls-8{fill:#fff;}.cls-3,.cls-5,.cls-6,.cls-7,.cls-8{stroke:#000;stroke-linecap:round;stroke-linejoin:round;}.cls-3{stroke-width:4px;}.cls-4{fill:#fbb03b;}.cls-5{fill:none;}.cls-5,.cls-7,.cls-8{stroke-width:3px;}.cls-6{stroke-width:2px;}.cls-7{fill:#5fe6ff;}</style></defs><title>編輯</title><circle class="cls-1" cx="256" cy="256" r="200"/><path class="cls-2" d="M179.6,145.27a4.05,4.05,0,0,0-1.12-.68,3,3,0,0,0-1.08-.21,1.75,1.75,0,0,0-1.08.31,1,1,0,0,0-.42.82.83.83,0,0,0,.21.58,1.8,1.8,0,0,0,.55.39,4.28,4.28,0,0,0,.77.29l.84.26a5.3,5.3,0,0,1,2.46,1.49,3.75,3.75,0,0,1,.77,2.44,4.63,4.63,0,0,1-.34,1.83,3.8,3.8,0,0,1-1,1.41,4.67,4.67,0,0,1-1.61.91,6.82,6.82,0,0,1-2.16.32,7.91,7.91,0,0,1-4.62-1.48l1.46-2.76a6,6,0,0,0,1.52,1,3.69,3.69,0,0,0,1.49.33,1.81,1.81,0,0,0,1.25-.38,1.18,1.18,0,0,0,.3-1.39,1.09,1.09,0,0,0-.35-.4,2.52,2.52,0,0,0-.64-.34c-.26-.11-.57-.22-.95-.35s-.87-.3-1.3-.46a4.15,4.15,0,0,1-1.13-.68,3.15,3.15,0,0,1-.81-1.05,3.84,3.84,0,0,1-.3-1.62,4.57,4.57,0,0,1,.32-1.77,3.92,3.92,0,0,1,.91-1.36,4.08,4.08,0,0,1,1.43-.89,5.45,5.45,0,0,1,1.9-.31,8.3,8.3,0,0,1,2,.27,8.89,8.89,0,0,1,2,.79Z"/><path class="cls-2" d="M194.94,141.9v13.17h-3.43V141.9Z"/><path class="cls-2" d="M210.55,144.79v10.28h-3.42V144.79h-2.81V141.9h9v2.89Z"/><path class="cls-2" d="M232.1,146.3a3.64,3.64,0,0,0-2.93-1.45,3.49,3.49,0,0,0-1.42.28,3.31,3.31,0,0,0-1.13.76,3.56,3.56,0,0,0-.74,1.14,4,4,0,0,0,0,2.88,3.51,3.51,0,0,0,.75,1.16,3.56,3.56,0,0,0,2.52,1,3.94,3.94,0,0,0,2.95-1.39v4.05l-.34.12a10.36,10.36,0,0,1-1.47.41,6.93,6.93,0,0,1-1.35.13,6.86,6.86,0,0,1-2.61-.51,7.07,7.07,0,0,1-2.2-1.45,7.57,7.57,0,0,1-1.53-2.22,7.2,7.2,0,0,1,0-5.59,7.06,7.06,0,0,1,1.52-2.18,6.93,6.93,0,0,1,4.85-1.95,7.35,7.35,0,0,1,1.55.16,10.48,10.48,0,0,1,1.59.52Z"/><path class="cls-2" d="M241.73,148.48a6.86,6.86,0,0,1,.54-2.73,6.76,6.76,0,0,1,1.5-2.21,7,7,0,0,1,2.3-1.48,8.42,8.42,0,0,1,5.88,0,7.1,7.1,0,0,1,2.31,1.48,6.64,6.64,0,0,1,1.51,2.21,7.17,7.17,0,0,1,0,5.46,6.64,6.64,0,0,1-1.51,2.21A7.1,7.1,0,0,1,252,154.9a8.42,8.42,0,0,1-5.88,0,7,7,0,0,1-2.3-1.48,6.76,6.76,0,0,1-1.5-2.21A6.86,6.86,0,0,1,241.73,148.48Zm3.58,0a3.48,3.48,0,0,0,.3,1.45,3.45,3.45,0,0,0,.8,1.15,3.57,3.57,0,0,0,1.18.76,3.78,3.78,0,0,0,1.42.27,3.83,3.83,0,0,0,1.43-.27,3.68,3.68,0,0,0,1.18-.76,3.5,3.5,0,0,0,.82-1.15,3.77,3.77,0,0,0,0-2.9,3.5,3.5,0,0,0-.82-1.15,3.68,3.68,0,0,0-1.18-.76,3.83,3.83,0,0,0-1.43-.27,3.78,3.78,0,0,0-1.42.27,3.57,3.57,0,0,0-1.18.76,3.45,3.45,0,0,0-.8,1.15A3.48,3.48,0,0,0,245.31,148.48Z"/><path class="cls-2" d="M266.34,155.07V141.9h3.42l6.32,8v-8h3.41v13.17h-3.41L269.76,147v8.06Z"/><path class="cls-2" d="M291.65,141.9h3l-3.21,5.79h-2Z"/><path class="cls-2" d="M314.51,155.07h-10.6l3.26-3.39c.87-.9,1.54-1.66,2-2.28a13.15,13.15,0,0,0,1.09-1.58,4.18,4.18,0,0,0,.45-1,3.16,3.16,0,0,0,.08-.68,1.9,1.9,0,0,0-.09-.58,1.56,1.56,0,0,0-.29-.5,1.38,1.38,0,0,0-1.1-.48,1.34,1.34,0,0,0-1.09.46,1.67,1.67,0,0,0-.39,1.13,3.43,3.43,0,0,0,.05.56h-3.74a5.56,5.56,0,0,1,.38-2.09A4.77,4.77,0,0,1,305.6,143a4.82,4.82,0,0,1,1.62-1.05,6.07,6.07,0,0,1,4.09,0,4.75,4.75,0,0,1,1.61,1,4.47,4.47,0,0,1,1.07,1.5,4.63,4.63,0,0,1,.38,1.87,4.33,4.33,0,0,1-.46,2,6.87,6.87,0,0,1-1.48,1.88l-2.18,2h4.26Z"/><path class="cls-2" d="M326.79,144.79h-1.92V141.9h5.34v13.17h-3.42Z"/><polygon class="cls-3" points="202.05 171.69 133.43 252.46 181.45 346.44 326.56 358.83 389.56 272.07 329.69 180.18 202.05 171.69"/><polygon class="cls-4" points="152.29 229.34 137.4 210.33 143.85 205.03 158.08 222.53 152.29 229.34"/><polygon class="cls-2" points="137.4 200.97 139.41 212.25 145.85 206.96 137.4 200.97"/><polyline class="cls-5" points="144.63 205.03 158.86 222.53 153.07 229.34 138.18 210.33"/><polyline class="cls-5" points="144.63 205.03 136.18 199.04 138.18 210.33"/><line class="cls-6" x1="133.43" y1="195.36" x2="136.17" y2="199.04"/><polygon class="cls-7" points="127.93 290.02 224.63 279.3 244.2 312.32 258.52 336.47 155.07 345.33 127.93 290.02"/><polygon class="cls-7" points="295.42 316.07 258.52 336.47 244.2 312.32 295.42 316.07"/><path d="M138.48,312.62a1.33,1.33,0,0,1,.87-.33,1.49,1.49,0,0,1,.91.37c.24.24.26.36.15.16.29.54.11.32.07.14a3,3,0,0,0-.31-1,1.54,1.54,0,0,0-2.41-.31,2.15,2.15,0,0,0-.51,1,27.42,27.42,0,0,0-.53,2.73c-.17.95-.33,1.9-.49,2.85a24.28,24.28,0,0,0-.56,3.78,3.65,3.65,0,0,0,1.83,3.28A6.31,6.31,0,0,0,141,326a11.58,11.58,0,0,0,6.36-2.33c1.6-1.21,4.71-4.2,2.67-6.28a3.16,3.16,0,0,0-3.73-.21A9,9,0,0,0,144,319c-1.28,1.41-2.3,3.15-3.78,4.37a1.5,1.5,0,0,0,0,2.12,1.53,1.53,0,0,0,2.12,0,22.66,22.66,0,0,0,2.84-3.26,19.3,19.3,0,0,1,1.6-1.79c.13-.12.26-.25.4-.36l.2-.17s-.19.14-.06.05l.4-.25.19-.1c.12-.08-.29.06,0,0,.11,0,.22-.12.27-.05s-.12,0-.13-.05-.3-.35-.41-.52.07-.09,0-.08,0,0,0,.09a4.38,4.38,0,0,1-.43.63,8.84,8.84,0,0,1-1.74,1.66,8.63,8.63,0,0,1-4.78,1.62,3.52,3.52,0,0,1-1-.07,3,3,0,0,1-.32-.09c-.3-.1-.16-.06-.1,0-.28-.13-.23-.09-.39-.27h0c0,.07-.07-.21-.08-.24s0-.24,0-.42c0-.48.14-1,.23-1.52.28-1.64.55-3.29.85-4.93.12-.67.26-1.33.41-2,.05-.2.21-.31-.08.16l0,0a1.53,1.53,0,0,1-2.3.28,1.39,1.39,0,0,1-.34-.56.79.79,0,0,0,0,.13,3.27,3.27,0,0,0,.36,1.05,1.73,1.73,0,0,0,2.74.33c1.42-1.31-.71-3.43-2.12-2.12Z"/><path d="M272.8,321.93c-2.41-.12-4.94-1.05-7.34-.43a6.65,6.65,0,0,0-5,5.8,1.44,1.44,0,0,0,.74,1.29,6,6,0,0,0,5.94-.21c2-1.08,3.51-2.82,5.78-3.44a33.63,33.63,0,0,1,7.29-.78c2.66-.12,5.33-.14,8-.09,10.64.2,21.21,1.59,31.78,2.71,10.34,1.1,20.94,2.23,31.3.78,8.75-1.22,17.65-4.77,23.49-11.65a27.79,27.79,0,0,0,4.85-27.29c-.67-1.79-3.57-1-2.9.8a24.92,24.92,0,0,1-3.08,23.12c-5,6.89-13.36,10.49-21.53,11.88-9.75,1.66-19.92.61-29.7-.38-10-1-20-2.38-30.08-2.84a115.85,115.85,0,0,0-16.87.29,14.19,14.19,0,0,0-6.71,2.1c-1.59,1.09-3.94,3.62-6.05,2.41l.75,1.3c.16-1.89,2.15-3,3.87-3s3.62.52,5.44.61,1.93-2.91,0-3Z"/><path d="M264.36,326.91c.58-.27,1.17-.54,1.77-.79l-.36.15q1.38-.57,2.79-1.08a1.57,1.57,0,0,0,.89-.69,1.49,1.49,0,0,0,.15-1.15,1.51,1.51,0,0,0-1.84-1.05c-1.67.59-3.31,1.27-4.92,2a1.49,1.49,0,0,0-.69.9,1.5,1.5,0,0,0,1.05,1.84,1.73,1.73,0,0,0,1.16-.15Z"/><ellipse class="cls-8" cx="247.35" cy="243.36" rx="11.5" ry="21.08" transform="translate(-40.28 49.26) rotate(-10.52)"/><path d="M237.23,386a7.86,7.86,0,0,1-4.28-1.39c-3.77-2.13-7.81-4.54-9.41-8.57a5.5,5.5,0,0,1-.11-4.32,4.67,4.67,0,0,1,4.43-2.4,7.67,7.67,0,0,1,4.73,2.24c3.69,3.49,4.61,8.93,5.33,14"/><path d="M237.23,384.45c-1.55.07-2.88-.82-4.18-1.56s-2.34-1.36-3.45-2.14c-2.1-1.46-4.18-3.41-4.88-5.95a3,3,0,0,1,.81-3.37,3.73,3.73,0,0,1,3.37-.46c2.59.78,4.38,3.33,5.41,5.69a35.41,35.41,0,0,1,2.16,9.21,1.53,1.53,0,0,0,1.85,1.05,1.55,1.55,0,0,0,1.05-1.85,36.19,36.19,0,0,0-2.52-10c-1.42-3.13-4-6.24-7.54-7.06s-7.37,1.2-7.74,5c-.36,3.57,2.19,6.93,4.8,9.06a34.3,34.3,0,0,0,4.73,3.18c1.88,1.09,3.87,2.32,6.13,2.22,1.92-.09,1.93-3.09,0-3Z"/><path d="M274.18,354.2q-18.71,15.93-38.1,31c-1.52,1.19.62,3.3,2.13,2.12q19.38-15.09,38.1-31c1.47-1.25-.66-3.37-2.13-2.12Z"/><path d="M164.35,375.23a24.24,24.24,0,0,1-13.53-6,11.49,11.49,0,0,1-2.74-3.35,5.62,5.62,0,0,1-.41-4.23,5.38,5.38,0,0,1,5.29-3.3,8.49,8.49,0,0,1,5.77,3,21.32,21.32,0,0,1,3.4,5.7q1.83,4.08,3.26,8.31"/><path d="M164.35,373.73a22.72,22.72,0,0,1-8.71-2.86c-2.39-1.37-5.36-3.38-6.39-6.05a3.49,3.49,0,0,1,.42-3.65,4.19,4.19,0,0,1,3-1.31c3,0,5.27,2.56,6.64,5a62.6,62.6,0,0,1,4.59,10.95c.62,1.81,3.52,1,2.9-.8a66,66,0,0,0-5-11.79c-1.89-3.25-5-6.17-8.91-6.32a6.65,6.65,0,0,0-7,6.22c-.1,4,3.3,7.08,6.33,9.19a26,26,0,0,0,12.09,4.46,1.52,1.52,0,0,0,1.5-1.5,1.54,1.54,0,0,0-1.5-1.5Z"/><path d="M197.47,348.71a248.93,248.93,0,0,0-33.16,24.92c-1.44,1.29.69,3.4,2.12,2.12A243.88,243.88,0,0,1,199,351.3c1.63-1,.13-3.62-1.52-2.59Z"/><path class="cls-5" d="M205.32,278c-2.07.27-11.39,1.27-18.79-5a17.49,17.49,0,0,1-6.42-10c-.09-.47-1.68-8.66,3.81-14.27a15.18,15.18,0,0,1,6.68-3.88,19.16,19.16,0,0,1,7.83-.4c3.6.33,7.4.67,11.41,3.09,2.08,1.26,5.27,3.19,6.9,7.14,2.37,5.75-.4,11.31-1,12.37a15.68,15.68,0,0,1-2.38,3.33"/><path class="cls-5" d="M250,282.38a20.07,20.07,0,0,1-12.1-4.89,20.47,20.47,0,0,1-6.44-11.84,17.14,17.14,0,0,1,.26-9.27c2.22-6.41,8.24-9.15,10.3-10.09a23.14,23.14,0,0,1,11.57-1.88c3.51.25,10,.72,14.69,6.05,5.17,5.88,4.24,13.3,4.12,14.16a19.39,19.39,0,0,1-12.89,15.19"/><path d="M219.6,262a7.33,7.33,0,0,1,2.22-1.24,9.78,9.78,0,0,1,1.42-.34h0l.16,0,.33,0c.27,0,.54,0,.81,0l.74.05c.26,0-.18,0,.08,0l.4.07a9.81,9.81,0,0,1,1.41.39,4.67,4.67,0,0,1,.53.24c.22.11.43.23.64.36a4.84,4.84,0,0,1,1,.81c1.4,1.33,3.52-.79,2.12-2.12a10.62,10.62,0,0,0-14-.29A1.5,1.5,0,1,0,219.6,262Z"/><line class="cls-5" x1="133.43" y1="252.46" x2="180.14" y2="255.33"/><line class="cls-5" x1="389.55" y1="272.07" x2="280.14" y2="262.59"/><ellipse cx="247.48" cy="243.93" rx="5.9" ry="12.46" transform="translate(-49.79 63.99) rotate(-13.4)"/><ellipse class="cls-8" cx="202.05" cy="243.66" rx="11.5" ry="21.08" transform="translate(-41.1 41) rotate(-10.52)"/><ellipse cx="202.18" cy="244.23" rx="5.9" ry="12.46" transform="translate(-51.09 53.5) rotate(-13.4)"/></svg>