<svg id="圖層_1" data-name="圖層 1" xmlns="http://www.w3.org/2000/svg" viewBox="0 0 500 500"><defs><style>.cls-1{fill:#2368ff;}.cls-2,.cls-3,.cls-5{fill:#fff;}.cls-3,.cls-5,.cls-6,.cls-7{stroke:#000;}.cls-3,.cls-4,.cls-5,.cls-6{stroke-linecap:round;stroke-linejoin:round;}.cls-3{stroke-width:4px;}.cls-4{fill:none;stroke:#040000;}.cls-4,.cls-5,.cls-6{stroke-width:3px;}.cls-6{fill:#5fe6ff;}.cls-7{stroke-miterlimit:10;}</style></defs><title>財務</title><circle class="cls-1" cx="258.61" cy="250.49" r="200"/><path class="cls-2" d="M188.09,130.41a4.15,4.15,0,0,0-1.12-.67,2.86,2.86,0,0,0-1.08-.22,1.73,1.73,0,0,0-1.08.31,1,1,0,0,0-.42.82.81.81,0,0,0,.21.58,1.8,1.8,0,0,0,.55.39,4.46,4.46,0,0,0,.76.29l.85.26a5.31,5.31,0,0,1,2.46,1.5,3.7,3.7,0,0,1,.77,2.43,4.71,4.71,0,0,1-.34,1.84,3.88,3.88,0,0,1-1,1.4,4.6,4.6,0,0,1-1.61.91,6.58,6.58,0,0,1-2.16.33,8,8,0,0,1-4.63-1.49l1.47-2.76a5.73,5.73,0,0,0,1.52,1,3.55,3.55,0,0,0,1.49.34,1.74,1.74,0,0,0,1.24-.39,1.14,1.14,0,0,0,.41-.87,1.21,1.21,0,0,0-.1-.52,1.17,1.17,0,0,0-.35-.4,2.88,2.88,0,0,0-.64-.34l-1-.35c-.44-.14-.88-.29-1.3-.46a4.18,4.18,0,0,1-1.14-.67,3.16,3.16,0,0,1-.8-1.06,3.78,3.78,0,0,1-.3-1.62,4.57,4.57,0,0,1,.32-1.77,3.87,3.87,0,0,1,.91-1.36,4,4,0,0,1,1.43-.88,5.39,5.39,0,0,1,1.89-.32,8.32,8.32,0,0,1,2,.27,8.92,8.92,0,0,1,2,.8Z"/><path class="cls-2" d="M203.42,127v13.17H200V127Z"/><path class="cls-2" d="M219,129.94v10.27h-3.42V129.94H212.8V127h9v2.9Z"/><path class="cls-2" d="M240.59,131.44a3.64,3.64,0,0,0-2.93-1.45,3.49,3.49,0,0,0-1.42.28,3.46,3.46,0,0,0-1.13.76,3.4,3.4,0,0,0-.74,1.14,3.8,3.8,0,0,0-.27,1.44,3.86,3.86,0,0,0,.27,1.45,3.58,3.58,0,0,0,.75,1.15,3.5,3.5,0,0,0,1.12.77,3.61,3.61,0,0,0,1.4.28,4,4,0,0,0,3-1.4v4l-.35.12a10,10,0,0,1-1.46.42,7.9,7.9,0,0,1-1.35.13,6.9,6.9,0,0,1-4.81-2,7.15,7.15,0,0,1-1.53-2.22,7.2,7.2,0,0,1,0-5.59,7.06,7.06,0,0,1,1.52-2.18,7,7,0,0,1,2.21-1.43,6.79,6.79,0,0,1,2.64-.52,7.2,7.2,0,0,1,1.54.17,9.49,9.49,0,0,1,1.6.51Z"/><path class="cls-2" d="M250.22,133.62a6.85,6.85,0,0,1,2-4.94,6.77,6.77,0,0,1,2.3-1.47,8.25,8.25,0,0,1,5.87,0,6.77,6.77,0,0,1,4.37,6.41,6.8,6.8,0,0,1-2.05,4.95,6.86,6.86,0,0,1-2.32,1.47,8.25,8.25,0,0,1-5.87,0,6.77,6.77,0,0,1-2.3-1.47,6.87,6.87,0,0,1-1.5-2.21A6.94,6.94,0,0,1,250.22,133.62Zm3.58,0a3.61,3.61,0,0,0,.29,1.45,3.67,3.67,0,0,0,.81,1.16,3.74,3.74,0,0,0,1.18.76,3.81,3.81,0,0,0,4-.76,3.38,3.38,0,0,0,.81-1.16,3.45,3.45,0,0,0,.3-1.45,3.52,3.52,0,0,0-.3-1.45,3.43,3.43,0,0,0-.81-1.15,3.78,3.78,0,0,0-1.19-.76,3.73,3.73,0,0,0-4.83,1.91A3.68,3.68,0,0,0,253.8,133.62Z"/><path class="cls-2" d="M274.83,140.21V127h3.42l6.32,8v-8H288v13.17h-3.41l-6.32-8.05v8.05Z"/><path class="cls-2" d="M300.14,127h3l-3.21,5.8h-2Z"/><path class="cls-2" d="M323,140.21H312.4l3.26-3.39c.86-.9,1.54-1.66,2-2.28a12.39,12.39,0,0,0,1.09-1.58,4.18,4.18,0,0,0,.45-1.05,3.75,3.75,0,0,0,.08-.68,1.9,1.9,0,0,0-.09-.58,1.51,1.51,0,0,0-.29-.49,1.38,1.38,0,0,0-1.1-.48,1.36,1.36,0,0,0-1.09.45,1.68,1.68,0,0,0-.4,1.14,4,4,0,0,0,.06.56h-3.74a5.65,5.65,0,0,1,.37-2.1,4.89,4.89,0,0,1,1.06-1.63,4.65,4.65,0,0,1,1.62-1,5.42,5.42,0,0,1,2.05-.37,5.81,5.81,0,0,1,2,.35,4.72,4.72,0,0,1,1.62,1,4.58,4.58,0,0,1,1.07,1.49,4.68,4.68,0,0,1,.38,1.88,4.49,4.49,0,0,1-.46,2,7,7,0,0,1-1.48,1.88l-2.18,2H323Z"/><path class="cls-2" d="M335.28,129.94h-1.92V127h5.34v13.17h-3.42Z"/><path d="M337.79,372.72a7.7,7.7,0,0,0,4.28-1.39c3.77-2.12,7.81-4.54,9.4-8.56a5.46,5.46,0,0,0,.11-4.32,4.64,4.64,0,0,0-4.42-2.41,7.61,7.61,0,0,0-4.73,2.25c-3.7,3.49-4.62,8.92-5.33,13.95"/><path d="M337.79,374.22c2,.1,3.78-.88,5.47-1.84a40.73,40.73,0,0,0,4.29-2.71c2.81-2.08,5.42-4.9,5.87-8.52a5.72,5.72,0,0,0-1.66-4.95,6.51,6.51,0,0,0-4.6-1.66c-3.72.18-6.73,3-8.44,6.15-1.88,3.42-2.52,7.34-3.07,11.15a1.56,1.56,0,0,0,1.05,1.85,1.51,1.51,0,0,0,1.84-1.05c.72-5,1.6-11.8,6.59-14.48,2.09-1.13,5.42-.64,5.35,2.29-.08,2.64-2.25,4.93-4.2,6.45a33.4,33.4,0,0,1-3.88,2.51c-1.41.82-2.92,1.89-4.61,1.81-1.93-.09-1.93,2.91,0,3Z"/><path d="M298.71,343.09q18.71,15.93,38.1,31c1.51,1.17,3.64-.94,2.12-2.12q-19.38-15.11-38.1-31c-1.46-1.24-3.59.87-2.12,2.12Z"/><path d="M184.42,371.12a7.7,7.7,0,0,1-4.28-1.39c-3.77-2.12-7.81-4.54-9.41-8.56a5.5,5.5,0,0,1-.11-4.32,4.66,4.66,0,0,1,4.43-2.41,7.63,7.63,0,0,1,4.73,2.25c3.69,3.49,4.61,8.92,5.33,13.95"/><path d="M184.42,369.62c-1.55.08-2.88-.82-4.18-1.56s-2.34-1.36-3.45-2.13c-2.1-1.46-4.18-3.42-4.88-6a3,3,0,0,1,.81-3.37,3.76,3.76,0,0,1,3.37-.46c2.59.78,4.38,3.33,5.41,5.7a35.33,35.33,0,0,1,2.16,9.2,1.53,1.53,0,0,0,1.85,1,1.55,1.55,0,0,0,1.05-1.85,36.93,36.93,0,0,0-2.52-10c-1.42-3.14-4-6.25-7.54-7.07s-7.37,1.2-7.75,5c-.35,3.56,2.2,6.92,4.81,9.05a34.3,34.3,0,0,0,4.73,3.18c1.88,1.09,3.87,2.33,6.13,2.22,1.92-.09,1.93-3.09,0-3Z"/><path d="M221.37,339.37q-18.7,15.93-38.1,31c-1.52,1.18.62,3.29,2.13,2.12q19.38-15.11,38.1-31c1.47-1.25-.66-3.36-2.13-2.12Z"/><polygon class="cls-3" points="196.63 165.16 133.57 250.35 187.78 340.9 333.39 343.55 390.44 252.76 324.56 165.09 196.63 165.16"/><path class="cls-4" d="M133.57,250.35c39.64.62,85.51,8,125.14,8.65,43.85.7,87.77-5.25,131.62-4.56"/><ellipse class="cls-5" cx="280.23" cy="227.4" rx="14.33" ry="21.08"/><ellipse cx="280.23" cy="227.4" rx="7.03" ry="11.28"/><ellipse class="cls-5" cx="242.68" cy="227.14" rx="14.33" ry="21.08"/><ellipse cx="242.68" cy="227.14" rx="7.03" ry="11.28"/><circle class="cls-6" cx="265.11" cy="285.99" r="47.76"/><path class="cls-7" d="M266.45,287.94c7.66.64,12.29,2.5,13.42,7.28,1.43,6.07-2.29,10.72-7.81,12.57Zm-3.12-4.65c-9.17-.64-10.9-2.46-12.18-7-1.55-5.47,1.83-9.8,7-11.4Zm-3.51-18.79c5.16-1.1,9.3.32,12.69,6.48l1.47-.41-3.61-9.19a45.5,45.5,0,0,0-11.1,1.19L257.13,255l-1.67.47,2.15,7.59c-7.23,2.41-11.6,8.82-10,14.55,2.13,7.52,5.84,9.71,17,10.23l5.79,20.44c-7.29,1.7-12.47-.86-15.86-8.75L253,300l4.22,11.11a33,33,0,0,0,13.79-.81l1.92,6.79,1.67-.47-1.94-6.86c8.7-3,12.49-10,10.49-17.06-1.84-6.53-7-9.11-17.93-9.24Z"/><path d="M275.8,302.91c-2.48-.07-5.11-.07-7.34,1.18a6.46,6.46,0,0,0-3.41,5.15,1.48,1.48,0,0,0,.74,1.29,6,6,0,0,0,5.95-.21c2-1.09,3.5-2.82,5.78-3.44a33.53,33.53,0,0,1,7.28-.78q4-.18,8-.09c10.64.2,21.21,1.59,31.78,2.71,10.33,1.1,20.94,2.23,31.29.78,8.76-1.22,17.66-4.77,23.5-11.65a27.79,27.79,0,0,0,4.84-27.29c-.66-1.79-3.56-1-2.89.8a24.92,24.92,0,0,1-3.09,23.12c-5,6.88-13.35,10.49-21.52,11.88C347,308,336.79,307,327,306c-10-1-20-2.37-30.09-2.83a114.34,114.34,0,0,0-16.86.29,14.12,14.12,0,0,0-6.72,2.1c-1.58,1.09-3.94,3.62-6,2.41l.74,1.3c.3-3.52,5.27-3.4,7.75-3.33,1.93.06,1.93-2.94,0-3Z"/><path d="M247.94,305.43c2.34-.08,4.68-.24,7-.22s5.59.15,5.84,3.1l.74-1.29c-1.82,1-3.85-.79-5.23-1.82a12.72,12.72,0,0,0-5.85-2.48,84.51,84.51,0,0,0-14.66-.64c-10.07.22-20.08,1.48-30.08,2.56-9.83,1.06-19.89,2.22-29.77,1.29-8.51-.8-17.26-3.65-23.3-10a24.77,24.77,0,0,1-5.13-25.54c.67-1.81-2.23-2.59-2.89-.8a27.81,27.81,0,0,0,2.83,24.64c4.87,7.34,13.11,11.75,21.55,13.61,10.19,2.23,20.84,1.34,31.12.34,10.59-1,21.15-2.52,31.79-3a93.89,93.89,0,0,1,17.74.39,9.88,9.88,0,0,1,3.64,1.15c1.05.62,2,1.44,3,2.11,2,1.36,4.57,2,6.79.74a1.5,1.5,0,0,0,.75-1.3c-.33-3.81-3.59-5.85-7.12-6.06-2.92-.16-5.84.08-8.75.18-1.93.06-1.94,3.06,0,3Z"/></svg>