<svg id="圖層_1" data-name="圖層 1" xmlns="http://www.w3.org/2000/svg" viewBox="0 0 500 500"><defs><style>.cls-1{fill:#2368ff;}.cls-2,.cls-3,.cls-6,.cls-7{fill:#fff;}.cls-3,.cls-6,.cls-7,.cls-8,.cls-9{stroke:#000;}.cls-3,.cls-4,.cls-6,.cls-7,.cls-8,.cls-9{stroke-linecap:round;stroke-linejoin:round;}.cls-3{stroke-width:4px;}.cls-4,.cls-8{fill:none;}.cls-4{stroke:#040000;}.cls-4,.cls-7,.cls-8,.cls-9{stroke-width:3px;}.cls-5,.cls-9{fill:#5fe6ff;}.cls-6{stroke-width:5px;}</style></defs><title>總召</title><circle class="cls-1" cx="204.8" cy="255.75" r="200"/><path class="cls-2" d="M134.28,135.67a4,4,0,0,0-1.12-.67,2.86,2.86,0,0,0-1.08-.22,1.75,1.75,0,0,0-1.08.31,1,1,0,0,0-.42.82.81.81,0,0,0,.21.58,1.8,1.8,0,0,0,.55.39,4.59,4.59,0,0,0,.77.29l.85.26a5.33,5.33,0,0,1,2.45,1.5,3.65,3.65,0,0,1,.78,2.43,4.9,4.9,0,0,1-.34,1.84,3.79,3.79,0,0,1-1,1.4,4.51,4.51,0,0,1-1.61.91,6.52,6.52,0,0,1-2.15.33,7.93,7.93,0,0,1-4.63-1.49l1.46-2.76a5.89,5.89,0,0,0,1.52,1,3.55,3.55,0,0,0,1.49.34,1.77,1.77,0,0,0,1.25-.39,1.17,1.17,0,0,0,.41-.87,1.21,1.21,0,0,0-.11-.52,1.08,1.08,0,0,0-.35-.4,3,3,0,0,0-.63-.34l-1-.35c-.44-.14-.87-.29-1.3-.46a4.12,4.12,0,0,1-1.13-.67,3.32,3.32,0,0,1-.81-1.06,3.81,3.81,0,0,1-.3-1.62,4.77,4.77,0,0,1,.32-1.77,4,4,0,0,1,.91-1.36,4.06,4.06,0,0,1,1.43-.88,5.45,5.45,0,0,1,1.9-.32,8.3,8.3,0,0,1,2,.27,8.92,8.92,0,0,1,2,.8Z"/><path class="cls-2" d="M149.62,132.3v13.17h-3.43V132.3Z"/><path class="cls-2" d="M165.23,135.2v10.27h-3.42V135.2H159v-2.9h9v2.9Z"/><path class="cls-2" d="M186.79,136.7a3.66,3.66,0,0,0-2.94-1.45,3.53,3.53,0,0,0-1.42.28,3.4,3.4,0,0,0-1.87,1.9,3.8,3.8,0,0,0-.27,1.44,3.86,3.86,0,0,0,.27,1.45,3.58,3.58,0,0,0,.75,1.15,3.71,3.71,0,0,0,1.13.77,3.56,3.56,0,0,0,1.39.28,4,4,0,0,0,3-1.4v4l-.35.12a9.18,9.18,0,0,1-1.47.41,6.86,6.86,0,0,1-6.16-1.83,7.32,7.32,0,0,1-1.53-2.22,7.14,7.14,0,0,1,0-5.59,6.73,6.73,0,0,1,1.52-2.18,6.84,6.84,0,0,1,2.21-1.43,6.71,6.71,0,0,1,2.63-.52,7.29,7.29,0,0,1,1.55.17,9.78,9.78,0,0,1,1.6.51Z"/><path class="cls-2" d="M196.41,138.88a6.79,6.79,0,0,1,4.34-6.42,8.42,8.42,0,0,1,5.88,0,7,7,0,0,1,2.31,1.48,6.74,6.74,0,0,1,1.51,2.21,7.2,7.2,0,0,1,0,5.47,6.74,6.74,0,0,1-1.51,2.21,6.81,6.81,0,0,1-2.31,1.47,8.27,8.27,0,0,1-5.88,0,6.77,6.77,0,0,1-2.3-1.47,6.87,6.87,0,0,1-1.5-2.21A6.94,6.94,0,0,1,196.41,138.88Zm3.58,0a3.45,3.45,0,0,0,.3,1.45,3.64,3.64,0,0,0,.8,1.16,3.74,3.74,0,0,0,1.18.76,3.78,3.78,0,0,0,1.42.27,3.83,3.83,0,0,0,1.43-.27,3.74,3.74,0,0,0,1.18-.76,3.54,3.54,0,0,0,.82-1.16,3.45,3.45,0,0,0,.29-1.45,3.51,3.51,0,0,0-.29-1.45,3.61,3.61,0,0,0-.82-1.15,3.74,3.74,0,0,0-1.18-.76,3.83,3.83,0,0,0-1.43-.27,3.78,3.78,0,0,0-1.42.27,3.61,3.61,0,0,0-2,1.91A3.52,3.52,0,0,0,200,138.88Z"/><path class="cls-2" d="M221,145.47V132.3h3.42l6.33,8v-8h3.4v13.17h-3.4l-6.33-8.05v8.05Z"/><path class="cls-2" d="M246.33,132.3h3l-3.22,5.8h-2Z"/><path class="cls-2" d="M269.19,145.47h-10.6l3.27-3.39c.86-.9,1.53-1.66,2-2.28a11.43,11.43,0,0,0,1.09-1.58,4.18,4.18,0,0,0,.45-1.05,3.18,3.18,0,0,0,.09-.68,1.91,1.91,0,0,0-.1-.58,1.36,1.36,0,0,0-.29-.49,1.31,1.31,0,0,0-.46-.35,1.41,1.41,0,0,0-.64-.13,1.37,1.37,0,0,0-1.09.45,1.68,1.68,0,0,0-.39,1.14,5.2,5.2,0,0,0,0,.55h-3.74a5.63,5.63,0,0,1,.38-2.09,4.86,4.86,0,0,1,1-1.63,4.74,4.74,0,0,1,1.62-1A5.46,5.46,0,0,1,264,132a5.86,5.86,0,0,1,2,.35,4.77,4.77,0,0,1,1.61,1,4.43,4.43,0,0,1,1.07,1.49,4.68,4.68,0,0,1,.38,1.88,4.36,4.36,0,0,1-.46,2,7,7,0,0,1-1.48,1.88l-2.18,2h4.26Z"/><path class="cls-2" d="M281.47,135.2h-1.92v-2.9h5.35v13.17h-3.43Z"/><path d="M222.08,409.37a4.19,4.19,0,0,0,2.34,1.88c2.75,1.29,5.81,2.61,9.37,1.9a6.26,6.26,0,0,0,3.34-1.67,2.92,2.92,0,0,0,.52-3.48,4.5,4.5,0,0,0-3.13-1.79c-3.77-.7-8.21,1-12.28,2.58"/><path d="M220.78,410.13a5.46,5.46,0,0,0,2.89,2.41,31.69,31.69,0,0,0,3.86,1.6A12.1,12.1,0,0,0,236,414c2.53-1.08,4.51-3.88,3.09-6.61-1.32-2.53-4.79-3-7.33-2.84a33.84,33.84,0,0,0-9.88,2.76,1.54,1.54,0,0,0-1,1.85,1.5,1.5,0,0,0,1.84,1,47.63,47.63,0,0,1,6.8-2.28c1.86-.43,4.15-.75,6,.07.61.28,1.2.73,1.11,1.46a2.42,2.42,0,0,1-1.56,1.73,8.66,8.66,0,0,1-6,.23,21.47,21.47,0,0,1-3.21-1.23c-.82-.38-2-.71-2.37-1.59a1.5,1.5,0,0,0-2.05-.54,1.54,1.54,0,0,0-.54,2.05Z"/><path d="M223.67,359q-2.07,24.48-3.09,49c-.08,1.93,2.92,1.93,3,0q1-24.56,3.09-49c.17-1.92-2.83-1.91-3,0Z"/><path d="M176.81,407.7a4.24,4.24,0,0,1-2.35,1.87c-2.75,1.29-5.8,2.62-9.36,1.91a6.37,6.37,0,0,1-3.35-1.68,2.92,2.92,0,0,1-.52-3.48,4.55,4.55,0,0,1,3.13-1.79c3.77-.69,8.21,1,12.28,2.58"/><path d="M175.51,406.94c-.35.76-1.2,1.05-1.92,1.39a25.22,25.22,0,0,1-2.79,1.16,9.89,9.89,0,0,1-6.22.3c-1.14-.37-3.22-1.88-1.71-3.08s3.94-.94,5.63-.63a40.58,40.58,0,0,1,7.74,2.48,1.51,1.51,0,0,0,1.85-1.05,1.54,1.54,0,0,0-1.05-1.85,37.78,37.78,0,0,0-8.68-2.62c-2.58-.35-6-.29-7.87,1.79-2.07,2.27-1,5.49,1.41,7s5.72,1.6,8.46.91a25.33,25.33,0,0,0,4.41-1.68c1.28-.59,2.71-1.25,3.33-2.62a1.54,1.54,0,0,0-.54-2.05,1.51,1.51,0,0,0-2.05.54Z"/><path d="M170.63,357.79q3,24.39,4.9,48.89c.15,1.91,3.15,1.93,3,0q-1.92-24.49-4.9-48.89c-.23-1.9-3.23-1.92-3,0Z"/><path d="M120.43,302.67C103.85,297.4,89.64,286,79.79,271.75,68.73,255.82,63,236.64,61.4,217.43c-.18-2.21-.85-5.45.53-7.4a2.55,2.55,0,0,1,2.21-1.15c1,.16,1.16,1.25,1.15,2.07,0,2.33-1.12,4.79-2.07,6.87a38.65,38.65,0,0,1-3.75,6.55c-1.13,1.56,1.47,3.06,2.59,1.51a33.88,33.88,0,0,0,6-13.11c.39-2.17.26-4.73-1.71-6.13a4.79,4.79,0,0,0-5.52.29c-2,1.41-2.62,3.77-2.69,6.09a59.75,59.75,0,0,0,.57,7.91,133.28,133.28,0,0,0,2.71,16c4.71,20.05,14.67,39,30.28,52.69a78.53,78.53,0,0,0,27.9,15.94c1.85.59,2.64-2.31.8-2.89Z"/><path d="M63.7,207.79c-2.28.64-2.69,3.3-3,5.3a33.93,33.93,0,0,0-.39,3.62A12.44,12.44,0,0,1,60,219.9a1.5,1.5,0,0,0,.87,1.77,1.48,1.48,0,0,0,1.87-.61c.88-2,2.37-3.68,3.06-5.78a9.76,9.76,0,0,0,.45-3.44,3.5,3.5,0,0,0-.4-1.71,1.78,1.78,0,0,0-2.06-.82,1.55,1.55,0,0,0-1,1.85,1.51,1.51,0,0,0,1.84,1.05l.1-.05H63.9c-.45-.13-.67-.37-.67-.71l0,.2c0,.23,0,.46,0,.69a6.19,6.19,0,0,1-.07,1,6.84,6.84,0,0,1-.7,2.13c-.72,1.4-1.7,2.65-2.34,4.09l2.75,1.16a10.93,10.93,0,0,0,.35-3.07c0-1,.09-2.08.22-3.11a24.77,24.77,0,0,1,.54-2.83l.12-.42c0-.1.07-.19.1-.28,0,.13,0,.12,0,0a1.28,1.28,0,0,1,.15-.25c-.1.12-.09.11,0,0-.14.08-.13.08,0,0q-.23.07,0,0a1.5,1.5,0,1,0-.8-2.89Z"/><polygon class="cls-3" points="139.65 203.44 76.59 288.63 130.8 379.19 276.41 381.84 333.45 291.05 267.57 203.38 139.65 203.44"/><path class="cls-4" d="M76.59,288.63c39.63.63,75.92,5.31,115.55,5.94,43.85.69,97.36-2.53,141.21-1.84"/><path d="M321.78,311.2a10.38,10.38,0,0,1,2.83,9.06,16.88,16.88,0,0,1-5,9.11c-5.35,5.36-12.71,8.09-19.88,10-7.7,2.07-15.88,3.37-23.25-.5a44.42,44.42,0,0,0-4.9-2.4,18.61,18.61,0,0,0-5.18-1c-1.2-.1-3.17-.2-3.63-1.59a3.1,3.1,0,0,1,1.26-3.08c2.79-2.16,7.29.89,8.6,3.49s1.88,6.12,4.27,8c1.51,1.17,3.65-.94,2.12-2.12a8.3,8.3,0,0,1-2.18-3.58,31.11,31.11,0,0,0-2-4.53c-2-3.22-6.47-5.49-10.2-4.73-3.18.64-5.74,4.29-4.7,7.5,1.39,4.26,6.54,3.19,9.89,4.19a35.07,35.07,0,0,1,5.71,2.71A23,23,0,0,0,282,344a36.55,36.55,0,0,0,13.82-.58c8.58-1.77,17.54-4.65,24.31-10.42,3.48-3,6.49-7,7.36-11.57a13.52,13.52,0,0,0-3.54-12.34c-1.39-1.34-3.52.78-2.12,2.12Z"/><path d="M275.31,337c-1.11-1.72-2.15-3.54-3.38-5.18a5.78,5.78,0,0,0-2.51-2,9.2,9.2,0,0,0-2.59-.54,6,6,0,0,0-2.9.18,2.63,2.63,0,0,0-1.64,2.64s0,.26,0,.12-.06.13-.07.17a2.16,2.16,0,0,0-.12.76,2.22,2.22,0,0,0,.76,1.6,8.74,8.74,0,0,0,2.51,1.32,42.77,42.77,0,0,0,6.51,2.24c1.19.3,2.45-1.08,1.69-2.2a10.87,10.87,0,0,0-3.91-3q-2.28-1.32-4.62-2.52a1.54,1.54,0,0,0-1.81.23,1.51,1.51,0,0,0-.24,1.82l.23.35a1.5,1.5,0,1,0,2.59-1.52l-.23-.34-2,2.05q2.16,1.11,4.26,2.32c.68.39,1.36.78,2,1.19.21.13.54.34.66.44a3.39,3.39,0,0,1,.5.51l1.7-2.2a41.56,41.56,0,0,1-5.62-1.86c-.47-.2-.93-.41-1.39-.63a6.31,6.31,0,0,1-.64-.31l-.24-.14a.55.55,0,0,1,.28.4c0,.42,0,.5.06.23a1.38,1.38,0,0,0,.08-.29,2.41,2.41,0,0,0,.06-.89q0-.42-.09.18a.41.41,0,0,1-.17.15c.16-.09.16-.1,0,0,.17,0,.22-.05.14,0,.28,0,.79,0,1.16.05l.65.05h.09l.32.06a6.21,6.21,0,0,1,.62.14c.06,0,.56.21.39.13a2.07,2.07,0,0,1,.88.66,21.13,21.13,0,0,1,1.63,2.44l1.8,2.79a1.53,1.53,0,0,0,2,.53,1.51,1.51,0,0,0,.54-2.05Z"/><path class="cls-5" d="M312.81,238.52c7.78-2.48,34.61-10,63.25,1.75,18.3,7.51,19.74,25,38.88,32.85,16.19,6.67,33.48,3.74,45.95,0l2.55-2.5,32.89-85.32c-13.87,4.53-33.47,8.39-51.42.73-18.45-7.87-21.24-22-38.38-31-11.67-6.17-30.91-10.51-63.47-.17"/><line class="cls-6" x1="258.59" y1="402.28" x2="348.83" y2="142.98"/><path class="cls-2" d="M340,206.88c.74-2,1.12-3,1.86-5l.54-.57a41.69,41.69,0,0,1,7.7-6.35c1.45-.9,2.17-1.32,3.62-2.1,5.94-3.22,9.45-5.15,10.5-7.43,1.23-2.67-.16-4.63-4.18-5.26a17.85,17.85,0,0,0-9.5,1.55c.69-1.69,1-2.53,1.73-4.2a21.89,21.89,0,0,1,10.64-.47,13.17,13.17,0,0,1,7.74,4.28,5.28,5.28,0,0,1,.86,6,7.69,7.69,0,0,1-3.44,3.37,65.38,65.38,0,0,1-7.5,2.93c-1.17.41-1.75.63-2.92,1.12-4.07,1.69-6.78,3.86-8.14,5.8,6-.45,9-.07,14.92,1.35l-1.86,4.06C353.55,204.07,349,203.89,340,206.88Z"/><path class="cls-2" d="M382.46,213.73c-3.83-1.82-6.38-4.22-7.63-7.46s-1-6.72.87-10.37a12.91,12.91,0,0,1,8.09-7.13c3.53-1,7.27-.39,11.19,1.76a16,16,0,0,1,7.76,8.38,12.81,12.81,0,0,1-9,16.58C390.23,216.28,386.46,215.64,382.46,213.73Zm1.54-2.79c4,2,7.57.11,10.71-5.71s2.74-9.82-1.2-12-7.48-.2-10.61,5.82S380.12,209,384,210.94Z"/><path class="cls-2" d="M401.68,223.22l1.86-3.44.54-.12a44.06,44.06,0,0,1,7.7-.94c1.45-.06,2.17-.1,3.61-.19,5.95-.36,9.45-1.93,10.51-4,1.23-2.46-.17-4.41-4.18-6.21a38.32,38.32,0,0,0-9.5-2.55l1.72-3.26a69.63,69.63,0,0,1,10.64,3.4c3.59,1.5,6.18,3.07,7.74,5a5.22,5.22,0,0,1,.87,6,7.12,7.12,0,0,1-3.44,3.36,22.11,22.11,0,0,1-7.51,1.7c-1.16.09-1.75.13-2.91.19-4.07.22-6.79.75-8.15,1.86A130.81,130.81,0,0,0,426.11,231c-.74,1.49-1.12,2.23-1.86,3.7C415.22,230.91,410.71,228.24,401.68,223.22Z"/><path class="cls-2" d="M435.73,238.68c.55-1.17.82-1.77,1.38-3a45.43,45.43,0,0,0,6.75,1.17c3.47-8,5.21-12.11,8.68-20.78a37.24,37.24,0,0,1-7.34,1.45c.57-1.31.85-2,1.42-3.31a38.2,38.2,0,0,0,14.71-4.79c-3.38,9.27-6.94,18.51-10.69,27.64a32.56,32.56,0,0,0,6.75-.89c-.55,1.45-.82,2.16-1.37,3.59C447.9,241.28,443.84,240.79,435.73,238.68Z"/><ellipse class="cls-7" cx="204.8" cy="255.75" rx="14.33" ry="21.08"/><ellipse cx="204.8" cy="255.75" rx="7.03" ry="11.28"/><ellipse class="cls-7" cx="167.25" cy="255.5" rx="14.33" ry="21.08"/><ellipse cx="167.25" cy="255.5" rx="7.03" ry="11.28"/><line class="cls-8" x1="194.47" y1="226.21" x2="206.34" y2="221.6"/><line class="cls-8" x1="164.92" y1="222.33" x2="174.28" y2="225.72"/><path class="cls-9" d="M200.67,203.12l67.91,3.71c-3.82-26.94-25.25-47.11-49.91-48.69-19.77-1.26-39.11,9.59-49.78,27.7"/><path class="cls-9" d="M143.69,205.29c-6.43-1.71-27.93-8.15-34.37-24.36-1-2.46-3.21-8.07-.66-12.27,3.15-5.16,11.65-5.12,15.49-5.1,23.2.1,67.35,31.86,76.52,39.56"/><line class="cls-9" x1="143.69" y1="205.29" x2="200.67" y2="203.12"/></svg>