<svg xmlns="http://www.w3.org/2000/svg" width="105.871" height="92.748" viewBox="0 0 105.871 92.748">
    <defs>
        <style>
            .cls-2{fill:#1060ff;stroke:#fff;stroke-width:3.5px}
        </style>
    </defs>
    <g id="Group_540" opacity="0.3" transform="translate(-126.894 -400.496)">
        <g id="Group_92" transform="translate(143.99 402.246)">
            <path id="Path_383" d="M179.22 450.7c-8.739 0-17.086-2.021-23.505-5.693-7.839-4.482-12.335-11.238-12.335-18.534s4.5-14.052 12.335-18.534c6.419-3.67 14.766-5.691 23.505-5.691s17.085 2.021 23.5 5.691c7.839 4.482 12.335 11.238 12.335 18.534s-4.5 14.052-12.335 18.534c-6.42 3.67-14.762 5.693-23.5 5.693zm0-31.015c-12.484 0-18.4 5.445-18.4 6.788s5.918 6.789 18.4 6.789 18.4-5.445 18.4-6.789-5.92-6.79-18.4-6.79z" class="cls-2" transform="translate(-143.38 -402.246)"/>
        </g>
        <g id="Group_93" transform="translate(128.673 445.406)">
            <path id="Path_384" d="M223.192 438.249c-3.057-3.235-5.611 1.516-8.116 4.88-3.321 4.46-11.068 9.493-18.615 10.916a37.429 37.429 0 0 1-13.794 0c1.529 8.213-2.845 11.857-2.845 11.857a39.3 39.3 0 0 0 15.22 15.176c5.919 3.215 9.737 2.471 12.973 1.048s2.544-6.977 2.544-6.977 4.594-.236 6.966-3.32-.711-8.062-.711-8.062 4.979-1.185 5.437-5.705-1.643-6.625-1.643-6.625 6.825-8.7 2.584-13.188z" class="cls-2" transform="translate(-122.266 -437.17)"/>
            <path id="Path_385" d="M173.586 454.045a37.429 37.429 0 0 1-13.794 0c-7.547-1.423-15.294-6.455-18.615-10.916-2.505-3.364-5.059-8.115-8.115-4.88-4.243 4.489 2.585 13.188 2.585 13.188s-2.1 2.1-1.643 6.625 5.438 5.705 5.438 5.705-3.083 4.98-.712 8.062 6.966 3.32 6.966 3.32-.693 5.553 2.544 6.977 7.054 2.167 12.973-1.048a39.3 39.3 0 0 0 15.22-15.176s-4.376-3.644-2.847-11.857z" class="cls-2" transform="translate(-131.673 -437.17)"/>
        </g>
    </g>
</svg>
