<svg xmlns="http://www.w3.org/2000/svg" width="187.166" height="44.017" viewBox="0 0 187.166 44.017">
    <defs>
        <style>
            .cls-1{fill:#666}
        </style>
    </defs>
    <g id="Group_689" transform="translate(-46.387 -20.491)">
        <g id="Group_238" transform="translate(129.549 36.517)">
            <path id="Path_354" d="M289.293 156.153a3.656 3.656 0 0 0-.96-.577 2.579 2.579 0 0 0-.931-.188 1.511 1.511 0 0 0-.935.271.841.841 0 0 0-.36.7.7.7 0 0 0 .182.5 1.545 1.545 0 0 0 .472.338 4.192 4.192 0 0 0 .66.246c.249.07.491.15.73.23a4.487 4.487 0 0 1 2.111 1.285 3.159 3.159 0 0 1 .67 2.1 4.107 4.107 0 0 1-.293 1.579 3.285 3.285 0 0 1-.858 1.209 3.934 3.934 0 0 1-1.381.781 5.789 5.789 0 0 1-1.856.281 6.831 6.831 0 0 1-3.984-1.279l1.263-2.376a5.109 5.109 0 0 0 1.308.874 3.167 3.167 0 0 0 1.276.284 1.522 1.522 0 0 0 1.075-.332 1 1 0 0 0 .354-.749 1.072 1.072 0 0 0-.089-.447 1 1 0 0 0-.3-.344 2.393 2.393 0 0 0-.545-.29c-.226-.093-.5-.191-.82-.3-.383-.118-.756-.252-1.119-.4a3.525 3.525 0 0 1-.979-.577 2.752 2.752 0 0 1-.692-.909 3.231 3.231 0 0 1-.261-1.391 4.034 4.034 0 0 1 .277-1.528 3.385 3.385 0 0 1 .781-1.171 3.455 3.455 0 0 1 1.234-.762 4.685 4.685 0 0 1 1.63-.268 7.085 7.085 0 0 1 1.757.233 7.828 7.828 0 0 1 1.76.683z" class="cls-1" transform="translate(-282.56 -152.938)"/>
            <path id="Path_355" d="M290.832 153.037v11.332h-2.947v-11.332z" class="cls-1" transform="translate(-274.2 -152.721)"/>
            <path id="Path_356" d="M296.708 155.531v8.838h-2.947v-8.838h-2.421v-2.494h7.785v2.494z" class="cls-1" transform="translate(-269.598 -152.721)"/>
            <path id="Path_357" d="M304.791 157.043a3.143 3.143 0 0 0-2.523-1.25 3.085 3.085 0 0 0-1.225.242 2.918 2.918 0 0 0-.973.654 2.988 2.988 0 0 0-.638.986 3.207 3.207 0 0 0-.233 1.231 3.253 3.253 0 0 0 .233 1.247 3 3 0 0 0 .647.992 3.029 3.029 0 0 0 2.172.9 3.416 3.416 0 0 0 2.539-1.2v3.486l-.3.105a9.018 9.018 0 0 1-1.263.354 6.273 6.273 0 0 1-1.158.115 5.942 5.942 0 0 1-4.14-1.694 6.086 6.086 0 0 1-1.314-1.91 6.113 6.113 0 0 1-.009-4.81 6 6 0 0 1 1.308-1.879 6.079 6.079 0 0 1 1.9-1.231 5.927 5.927 0 0 1 2.271-.443 6.178 6.178 0 0 1 1.33.144 8.051 8.051 0 0 1 1.375.443z" class="cls-1" transform="translate(-262.61 -152.938)"/>
            <path id="Path_358" d="M301.435 158.921a5.94 5.94 0 0 1 .466-2.354 5.821 5.821 0 0 1 3.272-3.17 7.186 7.186 0 0 1 5.055 0 5.939 5.939 0 0 1 1.993 1.269 5.773 5.773 0 0 1 1.3 1.9 6.134 6.134 0 0 1 0 4.7 5.771 5.771 0 0 1-1.3 1.9 5.938 5.938 0 0 1-1.993 1.269 7.138 7.138 0 0 1-5.055 0 5.821 5.821 0 0 1-3.272-3.17 5.935 5.935 0 0 1-.466-2.344zm3.084 0a3.023 3.023 0 0 0 .252 1.244 3.185 3.185 0 0 0 .692 1 3.133 3.133 0 0 0 1.014.654 3.345 3.345 0 0 0 2.453 0 3.267 3.267 0 0 0 1.021-.654 3.1 3.1 0 0 0 .7-1 3.132 3.132 0 0 0 0-2.491 3.1 3.1 0 0 0-.7-1 3.266 3.266 0 0 0-1.021-.654 3.345 3.345 0 0 0-2.453 0 3.132 3.132 0 0 0-1.014.654 3.185 3.185 0 0 0-.692 1 3.027 3.027 0 0 0-.252 1.247z" class="cls-1" transform="translate(-255.213 -152.938)"/>
            <path id="Path_359" d="M308.075 164.369v-11.332h2.947l5.441 6.931v-6.931h2.931v11.332h-2.931l-5.441-6.931v6.931z" class="cls-1" transform="translate(-245.407 -152.721)"/>
            <path id="Path_360" d="M316.235 153.037h2.571l-2.765 4.991H314.3z" class="cls-1" transform="translate(-235.146 -152.721)"/>
            <path id="Path_361" d="M327.338 164.575h-9.125l2.81-2.915q1.114-1.158 1.744-1.962a10.423 10.423 0 0 0 .938-1.362 3.378 3.378 0 0 0 .383-.9 2.757 2.757 0 0 0 .077-.584 1.566 1.566 0 0 0-.083-.5 1.266 1.266 0 0 0-.246-.427 1.251 1.251 0 0 0-.4-.3 1.206 1.206 0 0 0-.545-.112 1.175 1.175 0 0 0-.941.389 1.437 1.437 0 0 0-.338.976 3.919 3.919 0 0 0 .045.482h-3.215a4.823 4.823 0 0 1 .322-1.805 4.07 4.07 0 0 1 .909-1.4 4.029 4.029 0 0 1 1.39-.9 4.8 4.8 0 0 1 1.767-.313 4.949 4.949 0 0 1 1.751.3 4.218 4.218 0 0 1 1.391.842 3.9 3.9 0 0 1 1.247 2.9 3.78 3.78 0 0 1-.4 1.722 6.064 6.064 0 0 1-1.269 1.617l-1.879 1.757h3.668z" class="cls-1" transform="translate(-233.246 -152.927)"/>
            <path id="Path_362" d="M325.52 155.531h-1.652v-2.494h4.6v11.332h-2.948z" class="cls-1" transform="translate(-224.463 -152.721)"/>
        </g>
        <g id="Group_239" transform="translate(46.387 20.491)">
            <path id="Path_363" fill="#1060ff" d="M302.68 135.71l10.16-10.161-8.875-8.876a3.011 3.011 0 0 0-4.257 0l-19.037 19.037a3.009 3.009 0 0 0 0 4.257l18.96 18.96a3.011 3.011 0 0 0 4.257 0l8.875-8.876-10.083-10.084a3.011 3.011 0 0 1 0-4.257z" transform="translate(-279.789 -115.792)"/>
            <path id="Path_364" fill="blue" d="M336.064 135.633l-18.964-18.96a3.011 3.011 0 0 0-4.257 0l-8.875 8.876 10.085 10.085a3.009 3.009 0 0 1 0 4.257l-10.16 10.161 8.875 8.876a3.011 3.011 0 0 0 4.257 0l19.037-19.037a3.011 3.011 0 0 0 .002-4.258z" transform="translate(-270.919 -115.792)"/>
            <path id="Path_365" fill="#fff" d="M317 133.009l-10.085-10.085-10.16 10.161a3.011 3.011 0 0 0 0 4.257l10.085 10.085L317 137.266a3.009 3.009 0 0 0 0-4.257z" transform="translate(-273.869 -113.167)"/>
        </g>
    </g>
</svg>
