<svg xmlns="http://www.w3.org/2000/svg" width="656.122" height="273.72" viewBox="0 0 656.122 273.72">
    <defs>
        <style>
            .cls-1{fill:#1060ff}.cls-2{fill:#00f}
        </style>
    </defs>
    <g id="Group_242" transform="translate(-28.936 -216.312)">
        <g id="Group_1" transform="translate(29.27 216.312)">
            <path id="Path_1" d="M29.03 217.894h17.111c12.995 0 21.692 7.387 21.692 33.658 0 25.9-8.041 33.672-22.722 33.672H29.03zm7.014 61.437h8.595c9.731 0 16.181-2.713 16.181-27.78 0-25.812-7.384-27.776-16.362-27.776h-8.414z" transform="translate(-29.03 -212.276)"/>
            <path id="Path_2" d="M81.782 223.775H53.814v23.94h20.112v5.892H53.814v25.723h28.625v5.892H46.8v-67.328h34.982z" transform="translate(16.318 -212.276)"/>
            <path id="Path_3" d="M98.362 230.986c-4.113-3.654-8.786-7.582-14.59-7.582-5.984 0-10.843 4.127-10.843 10.3 0 3.548.654 6.73 9.731 12.242l5.331 3.275c12.334 7.586 15.7 11.134 15.7 18.993 0 12.061-8.041 19.263-19.828 19.263-8.7 0-15.14-4.219-20.378-10.949l5.423-4.294c3.274 5.238 8.513 9.351 14.955 9.351 7.021 0 12.821-5.242 12.821-12.444 0-5.42-.38-7.295-12.26-14.391l-6.077-3.654c-6.638-3.931-12.441-8.513-12.441-16.919 0-10.569 8.055-16.646 18.155-16.646 7 0 13.46 3.729 18.517 8.406z" transform="translate(58.884 -213.214)"/>
            <path id="Path_4" d="M112.846 233.408c-.092-5.6-4.113-10-9.809-10-14.224 0-15.154 19.263-15.154 29.651 0 9.823 1.023 28.526 14.5 28.526 7 0 11.223-5.242 11.315-11.88h7c-.746 10.935-7.384 17.772-18.61 17.772-18.517 0-21.227-20.3-21.227-34.6 0-14.785 3.09-35.344 22.08-35.344 9.351 0 16.358 6.531 16.919 15.882z" transform="translate(103.226 -213.214)"/>
            <path id="Path_5" d="M133.753 223.775h-27.961v23.94h20.1v5.892h-20.1v25.723h28.614v5.892H98.785v-67.328h34.968z" transform="translate(148.949 -212.276)"/>
            <path id="Path_6" d="M116.071 217.894h8.129l20.485 50.3h.288v-50.3h7.007v67.986h-6.641l-22.065-54.338-.185.181v53.5h-7.021z" transform="translate(193.054 -212.276)"/>
            <path id="Path_7" d="M132.991 217.894h17.1c13.006 0 21.7 7.387 21.7 33.658 0 25.9-8.041 33.672-22.722 33.672h-16.078zm7 61.437h8.609c9.731 0 16.188-2.713 16.188-27.78 0-25.812-7.4-27.776-16.369-27.776h-8.424z" transform="translate(236.225 -212.276)"/>
            <path id="Path_8" d="M196.671 289.259H189.1l-5.988-19.828h-20.479l-5.984 19.828h-7.568l23.742-72.947zm-32.347-25.72h17.1l-8.605-27.215z" transform="translate(277.278 -216.312)"/>
            <path id="Path_9" d="M168.052 217.894h8.133l20.481 50.3h.291v-50.3h7v67.986h-6.638l-22.069-54.338-.181.181v53.5h-7.021z" transform="translate(325.682 -212.276)"/>
            <path id="Path_10" d="M229.088 223.775h-19.175v61.448h-7v-61.448H184.1v-5.881h44.987z" transform="translate(366.631 -212.276)"/>
            <path id="Path_11" d="M236.977 230.986c-4.113-3.654-8.79-7.582-14.589-7.582-5.988 0-10.843 4.127-10.843 10.3 0 3.548.654 6.73 9.731 12.242l5.327 3.275c12.338 7.586 15.7 11.134 15.7 18.993 0 12.061-8.044 19.263-19.832 19.263-8.694 0-15.136-4.219-20.375-10.949l5.42-4.294c3.274 5.238 8.516 9.351 14.955 9.351 7.021 0 12.824-5.242 12.824-12.444 0-5.42-.38-7.295-12.26-14.391l-6.077-3.654c-6.641-3.931-12.441-8.513-12.441-16.919 0-10.569 8.055-16.646 18.152-16.646 7.007 0 13.464 3.729 18.521 8.406z" transform="translate(412.558 -213.214)"/>
        </g>
        <g id="Group_5" transform="translate(28.936 415.774)">
            <g id="Group_2" transform="translate(0 4.311)">
                <path id="Path_12" d="M49.6 273.689c19.64 0 20.677 22.431 20.677 34.964 0 8.985.653 34.982-20.677 34.982-20.755 0-20.666-25.446-20.666-34.982.002-28.142 9.353-34.964 20.666-34.964zm13.655 34.964c0-6.165.934-29.087-13.655-29.087-14.962 0-13.652 25.159-13.652 29.087 0 7.678-.373 29.09 13.652 29.09 7.016.001 13.658-4.677 13.658-29.09z" transform="translate(-28.936 -273.689)"/>
                <path id="Path_13" d="M82.708 279.948h-29.08v23.39h21.785v5.881H53.628V341.4h-7.014v-67.347h36.094z" transform="translate(16.169 -272.76)"/>
            </g>
            <g id="Group_3" transform="translate(138.092 5.604)">
                <path id="Path_14" d="M112.806 279.948H93.631V341.4h-7v-61.452H67.819v-5.9h44.987z" transform="translate(-67.819 -274.053)"/>
                <path id="Path_15" d="M91.656 303.523h23.379v-29.47h7V341.4h-7v-31.985H91.656V341.4h-7.028v-67.347h7.028z" transform="translate(-24.931 -274.053)"/>
                <path id="Path_16" d="M136.378 279.948h-27.961v23.941h20.1v5.892h-20.1V335.5h28.614v5.9H101.41v-67.347h34.968z" transform="translate(17.888 -274.053)"/>
            </g>
            <g id="Group_4" transform="translate(332.714)">
                <path id="Path_17" d="M170.212 345.422h-7.572l-5.984-19.828h-20.481l-5.988 19.828h-7.568l23.742-72.947zM137.866 319.7h17.1l-8.605-27.215z" transform="translate(-122.619 -272.475)"/>
                <path id="Path_18" d="M139.977 341.4v-67.347H154.1c7.764 0 21.135.945 21.135 17.029 0 6.457-3.363 11.4-8.879 14.5 7.66 3.747 11.787 8.786 11.787 17.484 0 9.82-7.11 18.333-18.9 18.333zM147 303.431h8.133c6.261 0 13.1-4.585 13.1-12.626 0-11.13-9.351-10.857-13.663-10.857H147zm11.771 32.069c6.183 0 12.352-3.654 12.352-12.061 0-7.494-4.677-14.117-15.335-14.117H147V335.5z" transform="translate(-78.33 -268.449)"/>
                <path id="Path_19" d="M201.714 345.422h-7.568l-5.984-19.828h-20.486l-5.984 19.828h-7.568l23.742-72.947zM169.367 319.7h17.1l-8.605-27.215z" transform="translate(-42.235 -272.475)"/>
                <path id="Path_20" d="M202.936 289.571c-.092-5.6-4.113-10-9.809-10-14.224 0-15.151 19.267-15.151 29.651 0 9.824 1.019 28.526 14.5 28.526 7.007 0 11.223-5.238 11.315-11.88h7.009c-.749 10.935-7.387 17.772-18.61 17.772-18.521 0-21.231-20.3-21.231-34.6 0-14.788 3.09-35.348 22.083-35.348 9.351 0 16.355 6.531 16.919 15.882z" transform="translate(.709 -269.378)"/>
                <path id="Path_21" d="M224.339 274.053v49.664c0 12.718-9.536 18.99-18.61 18.99-7.295 0-18.7-4.113-18.7-22.722v-45.932h7.021v49.664c0 9.731 6.258 13.1 11.681 13.1 8.6 0 11.6-6.368 11.6-13.936v-48.828z" transform="translate(41.717 -268.449)"/>
                <path id="Path_22" d="M237.237 287.153c-4.113-3.658-8.786-7.586-14.589-7.586-5.984 0-10.843 4.127-10.843 10.3 0 3.548.653 6.73 9.731 12.245l5.331 3.271c12.334 7.586 15.7 11.134 15.7 18.993 0 12.061-8.041 19.263-19.828 19.263-8.7 0-15.14-4.219-20.378-10.949l5.423-4.294c3.274 5.238 8.513 9.351 14.955 9.351 7.018 0 12.821-5.238 12.821-12.444 0-5.42-.38-7.295-12.26-14.4l-6.077-3.64c-6.638-3.928-12.441-8.513-12.441-16.919 0-10.569 8.055-16.646 18.152-16.646 7.007 0 13.464 3.729 18.521 8.406z" transform="translate(80.841 -269.378)"/>
            </g>
        </g>
        <path id="Path_23" d="M41.311 255.151a38.916 38.916 0 0 1-11.517 10.619l-.764-.7c3.583-4.162 7.1-10.814 9.276-17.85l8.126 2.557a2.254 2.254 0 0 1-2.5 1.218l-1.342 2.3h8.889l2.944-3.779s3.321 2.628 5.306 4.606c-.192.707-.764 1.026-1.662 1.026zm38.381 33.135s3.9 3.068 6.332 5.37c-.192.7-.831 1.026-1.73 1.026H69.9v11.13c0 .511-2.625 1.467-4.734 1.467h-1.083v-12.6H51.1c-1.346 6.4-4.99 10.36-20.215 12.661l-.447-1.151c10.683-2.813 13.947-6.073 15.1-11.51H31.015l-.511-1.854h15.285c.192-1.73.256-3.647.32-5.761l7.739.9c-.124.771-.7 1.406-2.046 1.538-.128 1.151-.2 2.3-.387 3.328h12.668v-5.57l6.78.639v-1.79H45.534v1.6c0 .579-2.493 1.921-4.926 1.921h-.895v-28.4l6.268 2.688h24.243l1.73-1.921a3.187 3.187 0 0 1-.643-.32 8.634 8.634 0 0 0-3.136-4.99l.579-.515c8.122-.06 8.19 4.478 5.885 5.76l4.606 3.452a4.735 4.735 0 0 1-2.5 1.215v20.091c-.06.447-2.749 1.467-4.6 1.6-.259.7-.771 1.215-2.241 1.406v3.136h6.268zM43.744 256.17c11.191.447 7.291 8.7 2.873 5.824a10.583 10.583 0 0 0-3.576-5.377zm1.79 9.6v4.858h25.329v-4.858zm25.329 6.712H45.534v4.866h25.329zm0 11.773V279.2H45.534v5.054zM81.1 249.2s3.583 2.813 5.885 4.922c-.192.707-.835 1.026-1.73 1.026H65.813a32.493 32.493 0 0 1-9.34 7.675l-.771-.575a46.73 46.73 0 0 0 7.423-14.969l7.8 3.136c-.32.7-1.083 1.218-2.5 1.026-.38.632-.827 1.275-1.211 1.854h10.624z" transform="translate(.24 78.854)"/>
        <path id="Path_24" d="M70.718 267.521c1.541-.064 3.647-.131 6.336-.323v-15.542l5.885 2.362H83c.263-1.723.522-4.28.71-6.009l7.8 1.215c-.252.962-1.023 1.474-2.429 1.6-.959.895-2.5 2.177-3.708 3.2h7.156l2.436-2.873 5.689 4.287a3.984 3.984 0 0 1-2.429 1.215v8.765l2.365-.263.128.9c3.52-3.324 3.779-7.224 3.779-10.683v-5.5l6.137 2.433h5.7l2.688-2.749 5.05 4.219a3.609 3.609 0 0 1-2.3.895v5.057c0 .636.188.827.824.827h1.342c.447 0 .97.064 1.282.064a4.845 4.845 0 0 0 .895-.128 9.693 9.693 0 0 0 1.094-.192h.575l.249.064c1.342.579 1.793.895 1.793 1.854 0 1.985-1.659 2.561-6.584 2.561h-.895l4.791 4.219c-.447.518-1.023.7-2.49.835a26.128 26.128 0 0 1-4.606 5.949c9.408 5.246 8.065 10.939 3.388 9.724a56.084 56.084 0 0 0-7.543-6.332c-4.8 3.328-11.074 5.5-18.677 6.78l-.447-1.026c6.521-1.854 11.834-4.475 15.928-8.058a96.438 96.438 0 0 0-9.919-5.885l.511-.764a69.979 69.979 0 0 1 12.469 3.512 26.074 26.074 0 0 0 2.948-4.539h-18.167l-.575-1.854h18.865l2.813-2.561h-.76c-3.583 0-4.031-1.151-4.031-4.031v-6.588h-7.167v1.215c0 3.392-.959 8.634-8.509 11.578l-.447-.7-2.493.579v13.176c0 3.132-.955 4.8-7.163 5.246a3.021 3.021 0 0 0-1.222-2.433 12.36 12.36 0 0 0-4.791-1.343v-.827s5.437.316 6.783.316c1.083 0 1.279-.387 1.279-1.215v-11.77c-2.561.572-5.437 1.215-8.573 1.854 10.168 3.839 5.118 11.642 2.042 8.126a18.076 18.076 0 0 0-2.813-7.678l.511-.384-2.365.508c-.384 6.148-2.177 12.8-9.532 17.338l-.632-.771c3.832-4.411 4.926-9.909 5.174-15.6l-2.749.572a2.6 2.6 0 0 1-1.73 1.406zm55.782 31.793s3.072 2.873 4.866 4.919c-.135.7-.771 1.026-1.669 1.026H72.064l-.575-1.854h6.336v-19.256l6.655 2.621h32.3l2.813-2.937 5.626 4.28a3.167 3.167 0 0 1-1.978 1.026v14.266h.572zm-44.461-32.5c3.4-.256 7.107-.579 11.074-.959v-9.98H82.04zm1.605 36.587h7.419v-14.77h-7.418zm.771-46.631c10.8 3.456 5.75 11.45 2.614 7.927-.447-1.978-1.342-5.242-3.26-7.352zm12.21 31.857v14.774h7.614v-14.77zm13.176 0v14.774h7.49v-14.77z" transform="translate(106.606 80.874)"/>
        <path id="Path_25" d="M211.458 285.323c-.447.639-1.094.764-2.625.9a39.088 39.088 0 0 1-10.04 11.255 80.808 80.808 0 0 0 16.312 3.839l-.064.7c-2.749.639-4.478 2.688-5.125 5.761a56.475 56.475 0 0 1-16.624-6.844 64.8 64.8 0 0 1-20.979 6.844l-.387-.962A60.52 60.52 0 0 0 189.9 298.5a36.136 36.136 0 0 1-6.521-6.719 43.4 43.4 0 0 1-9.6 6.588l-.771-.764a50.485 50.485 0 0 0 8.126-9.4 33.229 33.229 0 0 1-2.55-5.5l.895-.576a26.758 26.758 0 0 0 2.749 4.351 56.541 56.541 0 0 0 3.9-7.614c-2.3.323-4.6.707-7.092 1.087a3.142 3.142 0 0 1-1.73 1.218l-2.564-7.359a11.4 11.4 0 0 0 2.564-.572 76.092 76.092 0 0 0 14.646-8.573c-3.523.7-7.678 1.6-12.032 2.365a3.3 3.3 0 0 1-1.655 1.6l-1.406-3.456c-.387.515-.959.831-2.365.639a82.216 82.216 0 0 1-5.885 7.291l2.937 1.09c-.252.572-.835.959-1.918 1.151v30.443c-.06.511-2.426 2.049-4.8 2.049h-1.147v-29.747a60.252 60.252 0 0 1-8.062 6.528l-.7-.7a89.252 89.252 0 0 0 14.135-23.1l7.668 4.031-1.335-3.328a8.779 8.779 0 0 0 1.978-.511c5.242-2.362 12.086-9.337 14.646-13.112l7.231 4.354c-.323.572-1.158.955-2.5.7a79.307 79.307 0 0 1-16.053 9.205c3.772 0 9.021 0 14.522-.06a73.089 73.089 0 0 0 9.145-8.442l6.46 5.693a2.416 2.416 0 0 1-2.617.316c-5.76 4.418-17.718 10.939-27.893 14.906 6.144-.067 15.8-.448 26.167-.895a58.214 58.214 0 0 0-4.866-6.528l.707-.448c17.012 5.949 12.533 17.466 6.968 13.371a19.366 19.366 0 0 0-1.978-4.926c-4.6.9-10.626 1.982-17.53 3.072l4.99 1.662a2.355 2.355 0 0 1-2.49 1.211c-.448.7-.959 1.474-1.406 2.241h10.8l3.846-3.452zM175.449 252.7c-.323.579-.959.966-2.376.643a65.446 65.446 0 0 1-16.823 12.6l-.636-.7a68.416 68.416 0 0 0 12.544-16.891zm14.071 32.5a41.278 41.278 0 0 1-4.031 4.674 39.978 39.978 0 0 0 8.314 5.5 34.854 34.854 0 0 0 7.8-10.172z" transform="translate(321.441 80.599)"/>
        <path id="Path_26" d="M250.455 262.013c-.448.572-.959.895-2.365.508a60.029 60.029 0 0 1-7.227 3.2 64.56 64.56 0 0 0 14.781 3.839l-.064.763c-2.436.579-4.031 2.5-4.6 5.437-10.427-3.26-18.677-8.573-23.22-17.91a37.964 37.964 0 0 1-8.385 5.313v6.457c3.4-.831 7.291-1.854 11.258-2.88l.252.895c-3.26 1.794-9.273 5.185-15.992 8.637a3.77 3.77 0 0 1-1.279 1.218l-3.388-5.5c2.752-1.538 3.2-2.177 3.2-3.136v-3.328a101.194 101.194 0 0 1-15.74 3.9l-.448-1.019c8.9-2.561 16.823-6.528 22.136-11.07h-19.826l-.582-1.854h28.469a4.552 4.552 0 0 1-1.73-.579 16.413 16.413 0 0 0-4.155-6.588l.572-.38c11.262-.064 10.044 7.1 6.084 7.547h17.072l3.324-4.411s3.843 3.068 6.084 5.245c-.2.7-.771 1.019-1.666 1.019h-23.99a26.382 26.382 0 0 0 9.145 7.1 52.66 52.66 0 0 0 5.636-6.776zM245.54 274.8l6.46 4.864a4.568 4.568 0 0 1-2.688 1.282v19.7c0 4.095-.831 6.524-7.675 7.163-.124-1.794-.387-3.2-1.083-4.031-.771-.9-1.928-1.6-4.482-2.046v-.632a10.434 10.434 0 0 1-3.967 1.083h-.895v-2.688h-9.273v2.105c0 .38-2.365 1.531-4.414 1.531h-.771v-15.089a53.845 53.845 0 0 1-6.013 1.538l-.7-.895v16.884c0 .579-2.564 1.985-4.99 1.985h-.9v-32.24l6.4 2.752h32.169zm-35.5 13.819c7.48-2.561 8.7-5.437 9.01-8.765h-9.01zm14.771-8.765c-.575 3.072-2.177 5.757-7.167 7.87l4.542 1.854h8.445l2.3-2.3c-2.5-.192-2.877-1.282-2.877-3.583v-3.839zm6.4 17.782v-6.2h-9.273v6.2zm5.249 3.072c0 .064-.064.064-.064.124 1.023.068 4.606.323 5.69.323 1.019 0 1.282-.256 1.282-1.087v-20.213h-9.085v3.072c0 .575.124.827.835.827h3.2c.249 0 .636-.06.835-.06a7.86 7.86 0 0 0 1.019-.192h.572l.2.06c1.271.387 1.719.71 1.719 1.474 0 1.6-1.406 2.241-6.4 2.241h-2.749l4.99 3.708a3.782 3.782 0 0 1-2.042 1.026z" transform="translate(429.414 80.693)"/>
        <g id="Group_6" transform="translate(306.539 324.893)">
            <path id="Path_27" d="M142.124 277.359l15.545-15.545-13.581-13.581a4.609 4.609 0 0 0-6.513 0l-29.126 29.126a4.608 4.608 0 0 0 0 6.513l29.012 29.012a4.609 4.609 0 0 0 6.513 0l13.582-13.584-15.431-15.431a4.6 4.6 0 0 1-.001-6.51z" class="cls-1" transform="translate(-107.102 -246.885)"/>
            <path id="Path_28" d="M170.528 277.245l-29.012-29.012a4.609 4.609 0 0 0-6.513 0l-13.581 13.581 15.431 15.431a4.608 4.608 0 0 1 0 6.513L121.308 299.3l13.581 13.581a4.609 4.609 0 0 0 6.513 0l29.126-29.126a4.609 4.609 0 0 0 0-6.51z" class="cls-2" transform="translate(-70.854 -246.885)"/>
        </g>
        <g id="Group_7" transform="translate(307.684 325.423)">
            <path id="Path_29" d="M141.9 277.028l15.3-15.3-13.368-13.364a4.529 4.529 0 0 0-6.41 0l-28.664 28.664a4.529 4.529 0 0 0 0 6.41l28.55 28.554a4.529 4.529 0 0 0 6.41 0l13.368-13.364-15.186-15.19a4.529 4.529 0 0 1 0-6.41z" class="cls-1" transform="translate(-107.424 -247.035)"/>
            <path id="Path_30" d="M169.848 276.914l-28.55-28.55a4.534 4.534 0 0 0-6.414 0l-13.364 13.364 15.186 15.186a4.534 4.534 0 0 1 0 6.414l-15.3 15.3 13.364 13.364a4.534 4.534 0 0 0 6.414 0l28.664-28.664a4.534 4.534 0 0 0 0-6.414z" class="cls-2" transform="translate(-71.748 -247.035)"/>
        </g>
    </g>
</svg>
