<svg xmlns="http://www.w3.org/2000/svg" width="235.612" height="43.332" viewBox="0 0 235.612 43.332"><defs><style>.a{fill:#226bb4;}</style></defs><path class="a" d="M-97.2-19.274v-19.32h-20.47V3.634h11.592V-19.274Zm1.2-19.32v19.32h9.062V-2.668l-1.794,1.2V-3.588h.874v-6.486h-.874v-1.472h.874v-6.67H-105.2v6.67h1.242v1.472H-105.2v6.486h1.058L-105.064,0V2.53h6.9l.874-6.118h1.656V2.53h3.45v1.1H-75.44V-38.594Zm-8.1,7.406v1.2h-3.588v-1.2Zm19.044,0v1.2h-3.772v-1.2Zm-22.632,6.394v-1.2h3.588v1.2Zm18.86-1.2h3.772v1.2h-3.772ZM-97.29-10.074v-1.472h1.656v1.472Zm44.666-29.118H-64.4v2.208h-4.876v11.546h2.116L-69-4.968V3.588h9.43l.552-16.652h2.07v7.82L-58.236-3.68V3.588h11.27V-23.368h-9.568v-2.07h9.614V-36.984h-5.7ZM-29.21-10.58l2.024-3.174V-37.26h-6.762v-1.794h-8.786l-2.99,3.726V-25.07h8.878v4.278L-39.1-23.92h-6.624v10.856l2.116,2.714-2.116,3.036V3.68h6.946l2.208-3.5,2.714,3.5H-27V-7.314Zm45.494-5.06V-23.6h4.784v-12.42H19.734l-.552-2.714H15.364v2.714H14.076v-3.4H.414v3.4H-21.022V-23.6H1.886v11.27L9.384,3.91H21.62V-5.336ZM-2.668-12.19H.368v-9.982H-19.688v9.982h2.944v5.2h-3.4V3.174H1.518V-6.992H-2.668ZM38.5-39.054h-8.74v1.84H27.186v10.35H41.17v-10.35H38.5ZM68.126-2.208l1.242-1.1V-7.728H65.642l-.966.782-.644-.874v-.828h5.474V-14.26H64.032v-5.29h5.106V-24.7H60.72V-25.76h8.142V-29.9H60.72v-1.012h8.418v-5.75H65.872l.69-1.84v-.506H56.626l-.782,2.346H54.832l-.92-2.346H44.39v.506l.736,1.84H42.182v5.75h7.5V-29.9H42.32v4.14h7.36V-24.7H42.09v5.152H55.568v5.888H53.544V-14.95l1.2-.46v-3.266H42.274v4.094h3.4v.92H42.044v5.7h3.634v.966H42.044v5.75h3.634v.368L42.32.506V3.864H53.544V-2.024l1.15-.322V-6.992h-1.15v-.966h2.024v3.772L56.534-2.9,54.51-.92V3.588h4.6l1.38-1.38L61.64,3.68h8V-.138ZM27.37-19.136H41.124v-6.67H27.37Zm41.768,4.094v-3.634h-4.37v3.634ZM27.37-11.684H41.124v-6.394H27.37ZM27.278,3.588H41.124V-10.534H27.278ZM33.4-4.232h1.84v1.7H33.4Zm42.32-25.392H78.43v1.61H75.578V-17.94h2.53l-2.944,4.324V-.322H77.1L78.43-2.576v6.21H89.746V-5.06h1.932v-9.292l-1.932-2.07V-17.94h1.932V-28.014H89.746v-1.84l2.07-1.288v-7.406h-16.1Zm41.86-8.878H92.92v16.376h24.656ZM107-28.382h-3.818v-1.84H107Zm8.648,14.9,2.3-2.024V-20.93H92.736v7.452h6.118v1.2H92.92v6.624h5.934V-4.37H92.368v8.1h25.438v-8.1h-6.9V-5.658h6.44v-6.624h-6.44v-1.2Z" transform="translate(117.668 39.422)"/></svg>