<svg id="圖層_1" data-name="圖層 1" xmlns="http://www.w3.org/2000/svg" viewBox="0 0 500 500"><defs><style>.cls-1{fill:#2368ff;}.cls-2,.cls-3,.cls-5{fill:#fff;}.cls-3,.cls-5,.cls-6{stroke:#000;}.cls-3,.cls-4,.cls-5,.cls-6{stroke-linecap:round;stroke-linejoin:round;}.cls-3{stroke-width:4px;}.cls-4{fill:none;stroke:#040000;}.cls-4,.cls-5,.cls-6{stroke-width:3px;}.cls-6{fill:#5fe6ff;}</style></defs><title>攝影</title><circle class="cls-1" cx="256" cy="256" r="200"/><path class="cls-2" d="M185.48,135.92a4.15,4.15,0,0,0-1.12-.67,2.86,2.86,0,0,0-1.08-.22,1.83,1.83,0,0,0-1.09.31,1,1,0,0,0-.41.83.8.8,0,0,0,.21.57,1.86,1.86,0,0,0,.55.4,4.47,4.47,0,0,0,.76.28c.29.09.57.17.85.27a5.21,5.21,0,0,1,2.45,1.49,3.66,3.66,0,0,1,.78,2.44,4.7,4.7,0,0,1-.34,1.83,3.92,3.92,0,0,1-1,1.41,4.58,4.58,0,0,1-1.61.9,6.58,6.58,0,0,1-2.16.33,8,8,0,0,1-4.63-1.49l1.47-2.76a6,6,0,0,0,1.52,1,3.68,3.68,0,0,0,1.48.33,1.75,1.75,0,0,0,1.25-.39,1.13,1.13,0,0,0,.41-.87,1.21,1.21,0,0,0-.1-.52,1.27,1.27,0,0,0-.35-.4,3.13,3.13,0,0,0-.64-.34l-.95-.35c-.44-.14-.88-.29-1.3-.46a4.18,4.18,0,0,1-1.14-.67,3.06,3.06,0,0,1-.8-1.06,3.75,3.75,0,0,1-.31-1.61,4.59,4.59,0,0,1,.33-1.78,3.87,3.87,0,0,1,.91-1.36,4,4,0,0,1,1.43-.88,5.39,5.39,0,0,1,1.89-.32,8.32,8.32,0,0,1,2.05.27,9.4,9.4,0,0,1,2,.8Z"/><path class="cls-2" d="M200.81,132.55v13.17h-3.42V132.55Z"/><path class="cls-2" d="M216.43,135.45v10.27H213V135.45h-2.82v-2.9h9.05v2.9Z"/><path class="cls-2" d="M238,137a3.67,3.67,0,0,0-2.93-1.45,3.76,3.76,0,0,0-1.43.28,3.52,3.52,0,0,0-1.12.76,3.35,3.35,0,0,0-.74,1.15,3.75,3.75,0,0,0-.27,1.43,3.82,3.82,0,0,0,.27,1.45,3.58,3.58,0,0,0,.75,1.15,3.5,3.5,0,0,0,1.12.77,3.43,3.43,0,0,0,1.4.28,4,4,0,0,0,2.95-1.4v4l-.35.13a11.31,11.31,0,0,1-1.46.41,7.9,7.9,0,0,1-1.35.13,6.9,6.9,0,0,1-4.81-2,7.15,7.15,0,0,1-1.53-2.22,7.08,7.08,0,0,1,0-5.59,7.06,7.06,0,0,1,1.52-2.18,7,7,0,0,1,4.85-1.95,7.2,7.2,0,0,1,1.54.17,9.49,9.49,0,0,1,1.6.51Z"/><path class="cls-2" d="M247.61,139.14a6.94,6.94,0,0,1,.54-2.74,6.87,6.87,0,0,1,1.5-2.21,6.77,6.77,0,0,1,2.3-1.47,8.25,8.25,0,0,1,5.87,0,6.71,6.71,0,0,1,3.83,3.68,6.94,6.94,0,0,1-1.51,7.68,6.86,6.86,0,0,1-2.32,1.47,8.25,8.25,0,0,1-5.87,0,6.77,6.77,0,0,1-2.3-1.47,6.85,6.85,0,0,1-2-4.94Zm3.58,0a3.6,3.6,0,0,0,.29,1.44,3.67,3.67,0,0,0,.81,1.16,3.82,3.82,0,0,0,4,.76,3.78,3.78,0,0,0,1.19-.76,3.67,3.67,0,0,0,.81-1.16,3.63,3.63,0,0,0,0-2.89,3.67,3.67,0,0,0-.81-1.16,3.78,3.78,0,0,0-1.19-.76,3.78,3.78,0,0,0-4,.76,3.67,3.67,0,0,0-.81,1.16A3.61,3.61,0,0,0,251.19,139.14Z"/><path class="cls-2" d="M272.22,145.72V132.55h3.42l6.32,8v-8h3.41v13.17H282l-6.32-8.05v8.05Z"/><path class="cls-2" d="M297.53,132.55h3l-3.21,5.8h-2Z"/><path class="cls-2" d="M320.39,145.72h-10.6l3.26-3.39a29.7,29.7,0,0,0,2-2.28,12.39,12.39,0,0,0,1.09-1.58,4.18,4.18,0,0,0,.45-1.05,3.75,3.75,0,0,0,.08-.68,1.79,1.79,0,0,0-.09-.57,1.46,1.46,0,0,0-.29-.5,1.38,1.38,0,0,0-1.1-.48,1.36,1.36,0,0,0-1.09.45,1.64,1.64,0,0,0-.4,1.14,3.82,3.82,0,0,0,.06.56h-3.74a5.65,5.65,0,0,1,.37-2.1,4.75,4.75,0,0,1,1.06-1.62,4.45,4.45,0,0,1,1.62-1.05,5.42,5.42,0,0,1,2-.37,5.81,5.81,0,0,1,2,.35,4.72,4.72,0,0,1,1.62,1,4.62,4.62,0,0,1,1,5.37,7,7,0,0,1-1.48,1.88l-2.18,2h4.26Z"/><path class="cls-2" d="M332.67,135.45h-1.92v-2.9h5.34v13.17h-3.42Z"/><path d="M278.68,390.33a4.21,4.21,0,0,0,2.35,1.88c2.75,1.29,5.8,2.61,9.36,1.9a6.22,6.22,0,0,0,3.34-1.67,2.91,2.91,0,0,0,.53-3.48,4.55,4.55,0,0,0-3.13-1.79c-3.78-.7-8.22,1-12.28,2.58"/><path d="M277.39,391.09a5.44,5.44,0,0,0,2.88,2.41,31.83,31.83,0,0,0,3.87,1.6,12.08,12.08,0,0,0,8.42-.11c2.53-1.08,4.51-3.88,3.09-6.61-1.31-2.53-4.78-3-7.33-2.84a33.69,33.69,0,0,0-9.87,2.76,1.55,1.55,0,0,0-1.05,1.85,1.51,1.51,0,0,0,1.84,1,48.05,48.05,0,0,1,6.8-2.28c1.87-.43,4.15-.75,6,.07.61.28,1.2.73,1.12,1.46a2.46,2.46,0,0,1-1.56,1.73,8.69,8.69,0,0,1-6,.23,22.33,22.33,0,0,1-3.21-1.23c-.82-.38-2-.71-2.36-1.59a1.51,1.51,0,0,0-2.05-.54,1.53,1.53,0,0,0-.54,2Z"/><path d="M280.28,339.94q-2.08,24.48-3.1,49c-.08,1.93,2.92,1.93,3,0q1-24.56,3.1-49c.16-1.92-2.84-1.91-3,0Z"/><path d="M233.41,388.66a4.25,4.25,0,0,1-2.34,1.87c-2.75,1.29-5.81,2.62-9.37,1.91a6.3,6.3,0,0,1-3.34-1.68,2.9,2.9,0,0,1-.53-3.48,4.55,4.55,0,0,1,3.13-1.79c3.78-.69,8.22,1,12.29,2.58"/><path d="M232.11,387.9c-.34.76-1.2,1.05-1.91,1.39a26.21,26.21,0,0,1-2.8,1.16,9.89,9.89,0,0,1-6.22.3c-1.14-.37-3.22-1.88-1.71-3.08s3.94-.94,5.63-.63a40.67,40.67,0,0,1,7.75,2.48,1.51,1.51,0,0,0,1.84-1,1.54,1.54,0,0,0-1.05-1.85A37.63,37.63,0,0,0,225,384c-2.57-.35-6-.29-7.86,1.79-2.07,2.27-1,5.49,1.4,7s5.72,1.6,8.46.91a24.73,24.73,0,0,0,4.41-1.68c1.29-.59,2.71-1.25,3.33-2.62a1.55,1.55,0,0,0-.53-2.05,1.52,1.52,0,0,0-2.06.54Z"/><path d="M227.23,338.75q3,24.39,4.9,48.89c.15,1.91,3.15,1.93,3,0q-1.92-24.5-4.9-48.89c-.23-1.9-3.23-1.92-3,0Z"/><polygon class="cls-3" points="190.67 180.09 127.61 265.27 181.82 355.83 327.43 358.48 384.48 267.69 318.6 180.01 190.67 180.09"/><path class="cls-4" d="M127.61,265.27c39.64.63,85.51,8,125.14,8.66,43.85.69,87.77-5.25,131.62-4.56"/><ellipse class="cls-5" cx="274.27" cy="242.32" rx="14.33" ry="21.08"/><ellipse cx="271.07" cy="243.92" rx="7.03" ry="11.28"/><ellipse class="cls-5" cx="236.72" cy="242.07" rx="14.33" ry="21.08"/><ellipse cx="234.47" cy="243.92" rx="7.03" ry="11.28"/><rect class="cls-6" x="172.12" y="237.13" width="20.42" height="11.22" rx="2.56"/><path class="cls-6" d="M226.81,255.64a31,31,0,1,0,31,31A31,31,0,0,0,226.81,255.64Zm0,49.88a18.91,18.91,0,1,1,18.91-18.91A18.91,18.91,0,0,1,226.81,305.52Z"/><circle class="cls-5" cx="226.81" cy="286.61" r="18.91" transform="translate(-42.98 40.03) rotate(-9.22)"/><path class="cls-6" d="M260.27,242.74H172.68a10.11,10.11,0,0,0-10.08,10.07v48.42a10.11,10.11,0,0,0,10.08,10.07h35.43a31,31,0,1,1,37.39,0h14.77a10.11,10.11,0,0,0,10.08-10.07V252.81A10.11,10.11,0,0,0,260.27,242.74Z"/><polygon class="cls-6" points="243.68 230.38 210.98 230.38 205.6 242.74 215.94 242.74 218.63 236.56 234.98 236.56 237.67 242.74 249.07 242.74 243.68 230.38"/><path d="M376.63,280.74a10.61,10.61,0,0,0,.18,6c.45,1.8,1.25,3.93.37,5.72-.78,1.59-2.65,2.41-4.23,2.95-2.19.77-4.47,1.32-6.71,1.91a174.94,174.94,0,0,1-30.78,5.63c-18.1,1.46-36.68-1.1-52.51-10.45a59.4,59.4,0,0,1-20.05-19l-.9,2.2a3.12,3.12,0,0,1,3.63,3.43c-.21,1.92,2.79,1.91,3,0,.42-4-3.65-7.21-7.43-6.32a1.51,1.51,0,0,0-.9,2.2c9.5,14.95,25.51,24.55,42.47,28.74,20.48,5.06,42,2.21,62.19-2.95,2.82-.73,5.69-1.43,8.46-2.34a11.77,11.77,0,0,0,5.58-3.32,7.63,7.63,0,0,0,1.35-6.43c-.41-2.32-1.61-4.73-.82-7.09.61-1.84-2.29-2.62-2.9-.8Z"/><path d="M132.4,275.35a67.38,67.38,0,0,0-5.73,7.21c-.75,1.09-1.46,2.21-2.14,3.35a18.26,18.26,0,0,0-2.1,4,2.66,2.66,0,0,0,.84,3c1.07.75,2.61.24,3.77,0a50.55,50.55,0,0,0,8.41-2.53,74,74,0,0,0,14.75-8.05c2.45-1.68,4.82-3.48,7.14-5.33a54.93,54.93,0,0,0,6.42-5.46c2-2.2,2.51-4.78,2.39-7.69-.1-2.21-.75-5.14,1.07-6.83l-2.5-.66A19,19,0,0,1,163.6,269c-.8,1.74,1.78,3.27,2.59,1.51a22.29,22.29,0,0,0,1.42-14.91,1.52,1.52,0,0,0-2.51-.66c-3.33,3.08-1.45,7.59-2,11.47-.35,2.46-2.31,3.91-4.1,5.41-2,1.65-3.95,3.28-6,4.83-8.09,6.15-17.07,11.54-27.17,13.48,0,0-.81.12-.83.16.14.68.25.86.3.53a1.6,1.6,0,0,1,.1-.31c.42-.58.7-1.32,1.06-1.94.72-1.28,1.49-2.54,2.31-3.76a60,60,0,0,1,5.75-7.34c1.29-1.43-.82-3.56-2.12-2.12Z"/></svg>