<svg id="圖層_1" data-name="圖層 1" xmlns="http://www.w3.org/2000/svg" viewBox="0 0 500 500"><defs><style>.cls-1{fill:#2368ff;}.cls-2,.cls-3,.cls-5{fill:#fff;}.cls-3,.cls-5{stroke:#000;}.cls-3,.cls-4,.cls-5{stroke-linecap:round;stroke-linejoin:round;}.cls-3{stroke-width:4px;}.cls-4{fill:none;stroke:#040000;}.cls-4,.cls-5{stroke-width:3px;}.cls-6{fill:#5fe6ff;}.cls-7{stroke:#231815;stroke-miterlimit:10;stroke-width:2px;}</style></defs><title>行銷</title><circle class="cls-1" cx="250" cy="250" r="200"/><path class="cls-2" d="M179.48,129.92a4.15,4.15,0,0,0-1.12-.67,2.86,2.86,0,0,0-1.08-.22,1.83,1.83,0,0,0-1.09.31,1,1,0,0,0-.41.83.8.8,0,0,0,.21.57,1.86,1.86,0,0,0,.55.4,4.47,4.47,0,0,0,.76.28c.29.09.57.17.85.27a5.21,5.21,0,0,1,2.45,1.49,3.66,3.66,0,0,1,.78,2.44,4.7,4.7,0,0,1-.34,1.83,3.92,3.92,0,0,1-1,1.41,4.58,4.58,0,0,1-1.61.9,6.58,6.58,0,0,1-2.16.33,8,8,0,0,1-4.63-1.49l1.47-2.76a6,6,0,0,0,1.52,1,3.68,3.68,0,0,0,1.48.33,1.75,1.75,0,0,0,1.25-.39,1.13,1.13,0,0,0,.41-.87,1.21,1.21,0,0,0-.1-.52,1.27,1.27,0,0,0-.35-.4,3.13,3.13,0,0,0-.64-.34l-.95-.35c-.44-.14-.88-.29-1.3-.46a4.18,4.18,0,0,1-1.14-.67,3.06,3.06,0,0,1-.8-1.06,3.75,3.75,0,0,1-.31-1.61,4.59,4.59,0,0,1,.33-1.78,3.87,3.87,0,0,1,.91-1.36,4,4,0,0,1,1.43-.88,5.39,5.39,0,0,1,1.89-.32,8.32,8.32,0,0,1,2.05.27,9.4,9.4,0,0,1,2,.8Z"/><path class="cls-2" d="M194.81,126.55v13.17h-3.42V126.55Z"/><path class="cls-2" d="M210.43,129.45v10.27H207V129.45h-2.82v-2.9h9.05v2.9Z"/><path class="cls-2" d="M232,131a3.67,3.67,0,0,0-2.93-1.45,3.76,3.76,0,0,0-1.43.28,3.52,3.52,0,0,0-1.12.76,3.35,3.35,0,0,0-.74,1.15,3.75,3.75,0,0,0-.27,1.43,3.82,3.82,0,0,0,.27,1.45,3.58,3.58,0,0,0,.75,1.15,3.5,3.5,0,0,0,1.12.77,3.43,3.43,0,0,0,1.4.28,4,4,0,0,0,2.95-1.4v4l-.35.13a11.31,11.31,0,0,1-1.46.41,7.9,7.9,0,0,1-1.35.13,6.9,6.9,0,0,1-4.81-2,7.15,7.15,0,0,1-1.53-2.22,7.08,7.08,0,0,1,0-5.59,7.06,7.06,0,0,1,1.52-2.18,7,7,0,0,1,4.85-1.95,7.2,7.2,0,0,1,1.54.17,9.49,9.49,0,0,1,1.6.51Z"/><path class="cls-2" d="M241.61,133.14a6.94,6.94,0,0,1,.54-2.74,6.87,6.87,0,0,1,1.5-2.21,6.77,6.77,0,0,1,2.3-1.47,8.25,8.25,0,0,1,5.87,0,6.71,6.71,0,0,1,3.83,3.68,6.94,6.94,0,0,1-1.51,7.68,6.86,6.86,0,0,1-2.32,1.47,8.25,8.25,0,0,1-5.87,0,6.77,6.77,0,0,1-2.3-1.47,6.85,6.85,0,0,1-2-4.94Zm3.58,0a3.6,3.6,0,0,0,.29,1.44,3.67,3.67,0,0,0,.81,1.16,3.82,3.82,0,0,0,4,.76,3.78,3.78,0,0,0,1.19-.76,3.67,3.67,0,0,0,.81-1.16,3.63,3.63,0,0,0,0-2.89,3.67,3.67,0,0,0-.81-1.16,3.78,3.78,0,0,0-1.19-.76,3.78,3.78,0,0,0-4,.76,3.67,3.67,0,0,0-.81,1.16A3.61,3.61,0,0,0,245.19,133.14Z"/><path class="cls-2" d="M266.22,139.72V126.55h3.42l6.32,8v-8h3.41v13.17H276l-6.32-8.05v8.05Z"/><path class="cls-2" d="M291.53,126.55h3l-3.21,5.8h-2Z"/><path class="cls-2" d="M314.39,139.72h-10.6l3.26-3.39a29.7,29.7,0,0,0,2-2.28,12.39,12.39,0,0,0,1.09-1.58,4.18,4.18,0,0,0,.45-1.05,3.75,3.75,0,0,0,.08-.68,1.79,1.79,0,0,0-.09-.57,1.46,1.46,0,0,0-.29-.5,1.38,1.38,0,0,0-1.1-.48,1.36,1.36,0,0,0-1.09.45,1.64,1.64,0,0,0-.4,1.14,3.82,3.82,0,0,0,.06.56h-3.74a5.65,5.65,0,0,1,.37-2.1,4.75,4.75,0,0,1,1.06-1.62,4.45,4.45,0,0,1,1.62-1.05,5.42,5.42,0,0,1,2-.37,5.81,5.81,0,0,1,2,.35,4.72,4.72,0,0,1,1.62,1,4.62,4.62,0,0,1,1,5.37,7,7,0,0,1-1.48,1.88l-2.18,2h4.26Z"/><path class="cls-2" d="M326.67,129.45h-1.92v-2.9h5.34v13.17h-3.42Z"/><path d="M242.73,335.89q3,24.41,4.89,48.9c.15,1.91,3.15,1.93,3,0q-1.92-24.5-4.89-48.9c-.23-1.89-3.24-1.91-3,0Z"/><path d="M295.77,337.09q-2.08,24.48-3.1,49c-.08,1.93,2.93,1.93,3,0q1-24.56,3.1-49c.16-1.92-2.84-1.91-3,0Z"/><polygon class="cls-3" points="210.15 172 147.09 257.19 201.3 347.74 346.9 350.39 403.95 259.6 338.07 171.93 210.15 172"/><path class="cls-4" d="M247.23,264.69c8.33.6,16.66,1,25,1.15,43.86.7,87.77-5.25,131.62-4.56"/><ellipse class="cls-5" cx="228.82" cy="233.86" rx="14.33" ry="21.08"/><ellipse cx="228.82" cy="233.86" rx="7.03" ry="11.28"/><ellipse class="cls-5" cx="266.37" cy="234.11" rx="14.33" ry="21.08"/><ellipse cx="266.37" cy="234.11" rx="7.03" ry="11.28"/><path class="cls-2" d="M232.81,242.37a32.36,32.36,0,0,1,8.77,1.58,6.39,6.39,0,0,1,2.8,1.55,6.61,6.61,0,0,1,1.24,2.52c2,6.45,2.77,13.49.87,20a11.92,11.92,0,0,1-3.42,5.92,15.41,15.41,0,0,1-4.82,2.43l-11.12,4"/><path d="M232.81,243.87a31.55,31.55,0,0,1,7.47,1.25,7.3,7.3,0,0,1,2.75,1.16,6.05,6.05,0,0,1,1.42,3,36.15,36.15,0,0,1,1.49,13.75c-.4,4-1.53,8.7-5.35,10.72a52.2,52.2,0,0,1-6.44,2.48l-7.41,2.7c-1.8.65-1,3.55.79,2.89,4.23-1.54,8.52-3,12.69-4.64a12.29,12.29,0,0,0,4.74-3,13.77,13.77,0,0,0,2.62-4.68A29.75,29.75,0,0,0,249,257.07a43.72,43.72,0,0,0-1-6.33,17,17,0,0,0-2-5.69c-1.3-1.87-3.66-2.52-5.76-3.08a35.86,35.86,0,0,0-7.36-1.1c-1.93-.09-1.93,2.91,0,3Z"/><path class="cls-6" d="M216.64,237.13c4.37-2.46,10.25-.24,13.23,3.79s3.61,9.34,3.46,14.35a55.07,55.07,0,0,1-4.39,20c-1.75,4.09-4,8-5.49,12.14-2.41,6.75-2.81,14.08-2.26,21.22.22,3,.47,6.32-1.56,8.48-2.36,2.51-6.79,1.86-9.28-.53s-3.46-5.93-4.06-9.32a66.85,66.85,0,0,1-.6-19"/><path d="M217.4,238.43c3-1.63,6.76-.65,9.35,1.41,3.05,2.42,4.41,6.36,4.88,10.11,1.08,8.62-1,17.93-4.54,25.77-1.82,4-4,7.9-5.38,12.11a47.2,47.2,0,0,0-2.2,13.19,65.82,65.82,0,0,0,.13,6.88,23.42,23.42,0,0,1,.06,5.55,4.08,4.08,0,0,1-2.95,3.59,6,6,0,0,1-4.45-.88c-3.76-2.36-4.44-8-5-12a66.48,66.48,0,0,1-.14-16c.21-1.92-2.79-1.91-3,0a67.8,67.8,0,0,0,.13,16c.58,4.48,1.32,9.37,4.42,12.88,2.48,2.8,6.93,4.12,10.36,2.31,4-2.13,3.85-7.08,3.57-11a55.43,55.43,0,0,1,.76-15.32c1-5,3.28-9.51,5.47-14.12,4.22-8.86,6.89-19.1,5.73-29-.56-4.77-2.29-9.58-6.21-12.59-3.58-2.74-8.45-3.7-12.53-1.53-1.71.91-.19,3.5,1.51,2.6Z"/><path d="M165.52,297.84a46.31,46.31,0,0,0-7.58,9.56c-1,1.61-2.2,3.51-1.65,5.46.49,1.74,2.4,2.8,3.89,3.59,7.33,3.89,16,2.74,23.52.15,4.19-1.44,8.26-3.24,12.35-4.94s8.14-3.18,12-5.11a29.93,29.93,0,0,0,8.14-6.46c2.11-2.18,4.37-4.73,7.39-5.59,1.08-.3,3.59-.64,4.15.79s-3.32,2.55-4.13,2.85c-4.45,1.68-9.16,2.51-13.7,3.9-1.84.56-1.06,3.46.8,2.89,4-1.23,8.21-2,12.22-3.37,2.81-.94,8.1-2.4,7.87-6.24-.22-3.63-4.72-4.47-7.55-3.83-3.11.7-5.63,2.9-7.83,5.1-2.43,2.44-4.67,5.07-7.71,6.77-3.87,2.15-8.19,3.62-12.27,5.31-7.92,3.3-16.26,7.55-25.06,7.31a21.5,21.5,0,0,1-6.46-1.13c-1.24-.43-5.19-1.8-4.7-3.49a13.07,13.07,0,0,1,1.62-3c.61-1,1.26-2,2-2.91a42.41,42.41,0,0,1,4.81-5.48c1.39-1.34-.73-3.46-2.12-2.12Z"/><path d="M392.58,278.2c3.4,17.27,5.64,36.23-1.79,52.81-.78,1.75,1.8,3.27,2.59,1.51,7.8-17.4,5.67-36.95,2.09-55.12-.37-1.89-3.26-1.09-2.89.8Z"/><path d="M142,202.35l20.92.73c1.93.07,1.93-2.93,0-3L142,199.35c-1.93-.07-1.93,2.93,0,3Z"/><path d="M151.16,175.75l15.34,8.13c1.71.9,3.22-1.69,1.52-2.59l-15.35-8.13c-1.7-.9-3.22,1.68-1.51,2.59Z"/><path d="M294.17,387.48a4.21,4.21,0,0,0,2.35,1.88c2.75,1.29,5.8,2.61,9.36,1.9a6.22,6.22,0,0,0,3.34-1.67,2.91,2.91,0,0,0,.53-3.48,4.51,4.51,0,0,0-3.13-1.79c-3.77-.7-8.21,1-12.28,2.58"/><path d="M292.88,388.24a5.48,5.48,0,0,0,2.88,2.41,31.83,31.83,0,0,0,3.87,1.6,12.11,12.11,0,0,0,8.43-.11c2.53-1.08,4.51-3.88,3.08-6.61-1.31-2.54-4.78-3-7.33-2.84a33.69,33.69,0,0,0-9.87,2.76,1.55,1.55,0,0,0-1.05,1.85,1.52,1.52,0,0,0,1.85,1,46.69,46.69,0,0,1,6.79-2.28c1.87-.43,4.15-.75,6,.07.61.27,1.2.73,1.12,1.46a2.46,2.46,0,0,1-1.56,1.73,8.61,8.61,0,0,1-6,.22,20.39,20.39,0,0,1-3.21-1.22c-.83-.38-2-.72-2.37-1.59a1.51,1.51,0,0,0-2.05-.54,1.53,1.53,0,0,0-.54,2.05Z"/><path d="M248.9,385.81a4.21,4.21,0,0,1-2.34,1.87c-2.75,1.29-5.81,2.62-9.37,1.9a6.26,6.26,0,0,1-3.34-1.67,2.92,2.92,0,0,1-.52-3.48,4.5,4.5,0,0,1,3.13-1.79c3.77-.69,8.21,1,12.28,2.58"/><path d="M247.61,385.05c-.35.76-1.21,1.05-1.92,1.39a28.45,28.45,0,0,1-2.8,1.16,9.89,9.89,0,0,1-6.22.3c-1.14-.37-3.22-1.88-1.71-3.09s3.94-.93,5.64-.62a40.8,40.8,0,0,1,7.74,2.48,1.51,1.51,0,0,0,1.84-1.05,1.54,1.54,0,0,0-1-1.85,37.93,37.93,0,0,0-8.68-2.62c-2.58-.36-6-.29-7.87,1.79-2.07,2.27-1,5.48,1.4,7s5.72,1.59,8.46.91a25.13,25.13,0,0,0,4.42-1.68c1.28-.59,2.7-1.25,3.33-2.62a1.55,1.55,0,0,0-.54-2.05,1.5,1.5,0,0,0-2,.54Z"/><path class="cls-5" d="M109.86,221.72l102.41,9.14a53.19,53.19,0,0,1,0,53.79l-93.61,30.49"/><ellipse class="cls-5" cx="117.89" cy="268.14" rx="23.82" ry="46.94" transform="translate(-21.24 10.38) rotate(-4.62)"/><path d="M217.12,301.06l5.28-3.71a8.21,8.21,0,0,1,2.21-1.4,2.17,2.17,0,0,1,1,0,6.9,6.9,0,0,1,.78.21l.39.13c.32.13.26.08-.18-.14l-.38-.66,0-.13.2-.76c.54-.28.68-.39.42-.31l-.21,0-.49.09c-.36.07-.72.16-1.08.25-.71.18-1.41.4-2.1.65a24.67,24.67,0,0,0-4.15,2,1.5,1.5,0,0,0,1.52,2.59,20.25,20.25,0,0,1,5.53-2.33c1-.24,2.15-.25,2.86-1a1.91,1.91,0,0,0,.26-2.21,2.42,2.42,0,0,0-1.48-1A6.56,6.56,0,0,0,224,293a8,8,0,0,0-2.76,1.5l-5.64,3.95a1.56,1.56,0,0,0-.54,2.06,1.53,1.53,0,0,0,2.05.54Z"/><path class="cls-7" d="M392.12,331.47a18.26,18.26,0,0,0-5.25,4,4.16,4.16,0,0,0-1,1.43,2.4,2.4,0,0,0,1,2.78,2.76,2.76,0,0,0,2.46.08,4.13,4.13,0,0,0,1.86-1.7c1.17-1.91,1.09-4.31.9-6.55"/><path d="M175.07,158.44l4.87,15.19c.58,1.83,3.48,1,2.89-.8L178,157.64c-.58-1.83-3.48-1-2.89.8Z"/></svg>