<svg xmlns="http://www.w3.org/2000/svg" width="135.712" height="169.401" viewBox="0 0 135.712 169.401">
    <defs>
        <clipPath id="clip-path">
            <path id="Rectangle_158" d="M0 0H135.712V169.401H0z" class="cls-1"/>
        </clipPath>
        <clipPath id="clip-path-3">
            <path id="Rectangle_155" d="M0 0H28.852V70.105H0z" class="cls-1"/>
        </clipPath>
        <clipPath id="clip-path-4">
            <path id="Rectangle_156" d="M0 0H93.212V46.379H0z" class="cls-1"/>
        </clipPath>
        <style>
            .cls-1{fill:none}.cls-3{clip-path:url(#clip-path)}.cls-5{fill:#5b5b5b}.cls-6{fill:#282828}.cls-7{fill:#fff}
        </style>
    </defs>
    <g id="Group_65" opacity="0.7">
        <g id="Group_64" class="cls-3">
            <g id="Group_63">
                <g id="Group_62" class="cls-3">
                    <path id="Path_683" fill="#dbdbdb" d="M92.719 197.322l63.728 8.69a7.446 7.446 0 0 1 4.532 12.355l-23.635 26.3a7.446 7.446 0 0 0-.231 9.685l28.458 34.871a7.446 7.446 0 0 1-1.18 10.572l-39.845 31.183a7.446 7.446 0 0 1-5.635 1.509l-61.984-8.8a7.446 7.446 0 0 1-3.8-13.026l25.662-22a7.446 7.446 0 0 0 .54-10.795l-33.181-34.758a7.446 7.446 0 0 1 .638-10.876l40.18-33.267a7.446 7.446 0 0 1 5.755-1.642" transform="translate(-37.185 -166.371)"/>
                    <path id="Path_684" d="M761.246 527.492c.5-2.882 3.394-7.4 6.332-7.657a3.928 3.928 0 0 0 3.856-3.856c0-1.964-1.759-4.038-3.856-3.856-6.591.573-12.651 6.866-13.769 13.319a3.937 3.937 0 0 0 2.693 4.744c1.876.516 4.384-.62 4.744-2.693" class="cls-5" transform="translate(-635.722 -431.933)"/>
                    <path id="Path_685" d="M20.856 644.741c-4.907-4.122-13.456-6.067-19.1-2.282-4.108 2.754-.252 9.438 3.893 6.66 2.637-1.768 7.389-.912 9.756 1.076 3.781 3.176 9.267-2.251 5.454-5.453" class="cls-5" transform="translate(0 -540.161)"/>
                    <path id="Path_686" d="M266.55 379.33a5.273 5.273 0 1 1-5.242-5.3 5.273 5.273 0 0 1 5.242 5.3" class="cls-6" transform="translate(-215.923 -315.468)"/>
                    <path id="Path_687" d="M487.23 380.6a5.273 5.273 0 1 1-5.242-5.3 5.273 5.273 0 0 1 5.242 5.3" class="cls-6" transform="translate(-402.052 -316.535)"/>
                    <path id="Path_688" d="M340.964 452.36h-.1c-6.357-.037-11.316-3.66-11.29-8.25a1.928 1.928 0 0 1 1.928-1.917h.011a1.928 1.928 0 0 1 1.917 1.939c-.011 2.047 3.048 4.347 7.456 4.372 4.36-.019 7.493-2.24 7.5-4.286a1.929 1.929 0 0 1 1.928-1.917h.011a1.928 1.928 0 0 1 1.917 1.94c-.026 4.566-4.977 8.12-11.287 8.12" class="cls-6" transform="translate(-277.978 -372.961)"/>
                    <path id="Path_689" d="M363.693 0a19.287 19.287 0 0 0-11.779 3.805c-2.631 2.012-4.514 6.078-5.806 8.618-1.5 2.956-3 5.447-3.811 6.741a.686.686 0 0 0 .549 1.049c.42.023.942.04 1.545.04 3.5 0 9.74-.595 14.585-4.3 6.026-4.607 7.973-12.553 8.432-14.912a.678.678 0 0 0-.565-.807 20.432 20.432 0 0 0-3.15-.234" class="cls-5" transform="translate(-288.616 -.004)"/>
                    <path id="Path_690" d="M254.452 65.686a9.949 9.949 0 0 0-1.056.055.681.681 0 0 0-.591.835 11.8 11.8 0 0 0 3.851 6.559 11.473 11.473 0 0 0 6.812 2.009h.064a.687.687 0 0 0 .586-1.041c-.39-.648-.921-1.569-1.453-2.615-.6-1.187-1.483-3.086-2.711-4.025a9.011 9.011 0 0 0-5.5-1.777" class="cls-5" transform="translate(-213.209 -55.402)"/>
                    <path id="Path_691" d="M74.97 183.193l.436-3.184-.434 3.184 63.728 8.69a4.1 4.1 0 0 1 2.671 1.461 4.379 4.379 0 0 1 1 2.767 4.109 4.109 0 0 1-1.094 2.794l-23.635 26.3a10.658 10.658 0 0 0-.33 13.866l28.457 34.87a4.232 4.232 0 0 1-.671 6.009l-39.844 31.183a4.239 4.239 0 0 1-3.205.857l-61.982-8.8a4.082 4.082 0 0 1-2.667-1.47 4.42 4.42 0 0 1-.978-2.765 4.083 4.083 0 0 1 .352-1.674 4.224 4.224 0 0 1 1.134-1.492l25.662-22a10.66 10.66 0 0 0 .774-15.453l-33.185-34.76a4.231 4.231 0 0 1 .362-6.182L71.7 184.127a4.232 4.232 0 0 1 3.269-.934m-.57-6.466a10.66 10.66 0 0 0-6.8 2.449l-40.176 33.267a10.659 10.659 0 0 0-.913 15.571l33.182 34.762a4.233 4.233 0 0 1-.307 6.136l-25.662 22a10.669 10.669 0 0 0-2.818 3.749 10.51 10.51 0 0 0-.912 4.3 10.832 10.832 0 0 0 2.424 6.827 10.539 10.539 0 0 0 6.745 3.774l61.984 8.8a10.662 10.662 0 0 0 8.067-2.159l39.846-31.183a10.661 10.661 0 0 0 1.689-15.134l-28.458-34.88a4.232 4.232 0 0 1 .131-5.505l23.636-26.3a10.562 10.562 0 0 0 2.74-7.09 10.8 10.8 0 0 0-2.474-6.866 10.558 10.558 0 0 0-6.754-3.731l-63.728-8.69a10.674 10.674 0 0 0-1.442-.1" class="cls-5" transform="translate(-19.872 -149.058)"/>
                    <path id="Path_692" d="M375.875 581.7l-15.839.041-12.584-9.785c-1.461-1.136-3.234-.46-2.505.925l5.967 11.332-7.4 5.147c-.744.518.532 1.815 1.8 1.849l12.049.319 10.385 7.8c1.1.83 2.862.614 2.494-.322l-3.642-9.252 10.972-5.635c1.356-.7.158-2.428-1.706-2.423" class="cls-7" transform="translate(-289.549 -481.922)"/>
                    <g id="Group_58" opacity="0.72" transform="translate(90.078 50.357)">
                        <g id="Group_57">
                            <g id="Group_56" clip-path="url(#clip-path-3)">
                                <path id="Path_693" d="M601.844 391.742a2.339 2.339 0 0 1-1.816-.861l-7.406-9.076a2.343 2.343 0 1 1 3.631-2.963l7.406 9.076a2.343 2.343 0 0 1-1.814 3.824m-18.516-22.69a2.339 2.339 0 0 1-1.817-.861l-2.516-3.083a16.086 16.086 0 0 1 .5-21.016l3.822-4.253a2.343 2.343 0 1 1 3.485 3.132l-3.822 4.253a11.4 11.4 0 0 0-.355 14.921l2.516 3.083a2.343 2.343 0 0 1-1.814 3.824m9.562-34.017a2.343 2.343 0 0 1-1.741-3.909l7.83-8.713a2.343 2.343 0 0 1 3.485 3.132l-7.83 8.713a2.336 2.336 0 0 1-1.744.777" class="cls-7" transform="translate(-575.333 -321.637)"/>
                            </g>
                        </g>
                    </g>
                    <g id="Group_61" opacity="0.36" transform="translate(11.989 119.876)">
                        <g id="Group_60">
                            <g id="Group_59" clip-path="url(#clip-path-4)">
                                <path id="Path_694" d="M110.179 765.661s-21.065 17.919-7.924 23c18.722 7.239 65.847 7.575 67.453 7.575s-21.189 15.8-21.189 15.8l-46.65-5.551-20.474-5.62-4.817-6.825L88.62 782.4z" class="cls-5" transform="translate(-76.576 -765.661)"/>
                            </g>
                        </g>
                    </g>
                </g>
            </g>
        </g>
    </g>
</svg>
