<svg xmlns="http://www.w3.org/2000/svg" width="244.23" height="28.26" viewBox="0 0 244.23 28.26">
    <path fill="#226bb4" d="M167.03 8.85l1.26.72h2.19V7.59l-.87-.48.87-.45V4.71h-2.19l-1.26.69-1.26-.69h-2.19v1.95l.87.45-.87.48v1.98h2.19zm12.21 13.05h1.83v-6.27h-.66V4.86h-9.45V9.3h2.82v.6h-2.73v2.31h2.73v.57h-2.73v2.25h2.73v.6h-13.47v-.6h2.76v-2.25h-2.76v-.57h2.76V9.9h-2.76v-.6h.99l1.77-.48V4.86h-9.36v10.77h-.66v6.33h1.32v2.1h12.03v.15l-1.29.48H153.2v4.71h9.45v.12l-2.28 1.29v1.59h12.18v-3h8.31v-4.71h-4.32l2.7-1.14zm-12.21-7.5l1.26.72h2.19v-1.98l-.9-.48.9-.51v-2.07h-2.19l-1.26.69-1.26-.69h-2.19v2.07l.9.51-.9.48v1.98h2.19zm-7.29 6.18v-.63h14.79v.63zm49.02 4.29v-2.22h7.53v-6.51h-7.53v-2.01h7.95V6.87h-7.95V4.29h-9.75v2.58h-1.65V5.22h-5.61l-2.55 3.45v5.46h8.79v2.01h-8.16v6.51h8.16v2.22h-8.7v7.32h27.6v-7.32zM235.4 4.53h-7.77v1.2h-2.4v6.75h12.75V5.73h-2.58zm17.79 7.2h-2.76V4.56h-9.15v7.17h-2.58v9.18h2.58v11.55h9.15V20.91h2.76zm-15.42 1.44h-12.36v4.35h12.36zm-12.36 9.21h12.36v-4.17h-12.36zm-.12 9.96h12.66v-9.21h-12.66zm5.16-5.1h2.25v1.11h-2.25zm36.3-16.26l1.17 1.53h6.18v-1.26l-1.38-1.41h1.68v-4.5h-5.04v-.75h-5.91l-2.37 3.57v4.35h4.71zm14.22-.03l1.2 1.56h6.39v-1.29l-1.35-1.38h1.65v-4.5h-5.34v-.75h-6.15L275 8.16v4.35h4.95zm8.07 14.28h-3.21v-.72h2.61V13.17h-26.76v11.34h3.09v.72h-3.72v4.89h2.67l-.51 1.08v1.17h9.33l.66-2.25h3.6v2.22h9.03v-2.22h3.21zm-8.91-8.94v.63h-10.14v-.63zm0 2.97h-10.14v-.69h10.14zm-10.14 2.34v-.63h10.14v.63zm3.78 3.63v-.72h3.03v.72zm49.98 2.76l.99-1.29v-2.94h-3.9l-.48.57-.78-1.23h5.16v-5.46h-.69l-.15-.66h.63v-3.36h-1.26v-.15l1.26-1.77V9.03h-1.26v-.15l1.26-1.77V4.95h-3.6l-1.8 2.55V4.47h-5.82v13.17h-6.51v8.73l-1.02 2.37v3.66h4.71l.69-1.56.75 1.05h1.23v-5.61l-.69-1.23v-1.44h.81v1.14l1.8 2.79-1.35 1.86v2.97h4.2l.96-1.23.99 1.38h5.1v-2.73zm-17.7-2.22v-8.88l-.96-1.32v-1.11h1.05V6.99h-1.05V4.65h-6.15v2.34h-1.71v7.47h1.59l-1.8 3.51v11.52h1.23l.69-1.56v4.44h6.15v-6.6zm6.66-12.15h-1.26v-.15l1.26-1.77V9.03h-1.26v-.15l1.26-1.77V4.95h-4.02l-1.92 2.79v3.84h1.08v.09l-1.08 1.53v3.78h5.94zm7.32-2.04v.09l-.9 1.26v-1.35zm-.9 5.4h1.05v.66h-1.05zm41.76 5.58h-6.96v-1.59h6.15v-6.51h-6.15v-1.35h6.54V5.94H343.7V4.68h-7.02l-2.91 3.87v4.56h10.35v1.35h-9.42v8.1h-1.59v7.11h11.01v2.79h9.81v-2.79h6.96zm-18.75 0v-1.59h1.98v1.59zM397.28 7.8l-8.46-3.54h-11.61l-8.43 3.54v6.87h.78v7.17h26.88v-7.17h.84zm-13.35 1.65l1.65.63h-5.13l1.65-.63zm-9.6 3.51l2.73-1.14v.51h11.85v-.54l2.79 1.17zm1.89 3.09h4.29v2.7h-.6v-2.22h-3.09v1.56l.6.66h-1.2zm13.47 2.7h-1.2l.63-.66v-1.56H386v2.22h-.57v-2.7h4.26zm-19.62 13.62h25.89V22.5h-25.89zm17.76-6.87v.66h-9.54v-.66zm-9.54 3.75v-.63h9.54v.63z" transform="translate(-153.05 -4.26)"/>
</svg>
