<svg xmlns="http://www.w3.org/2000/svg" width="65" height="78.999" viewBox="0 0 65 78.999">
    <g fill="none" stroke-linejoin="round" opacity="0.3">
        <path d="M-3975 79a5.005 5.005 0 0 1-5-5V28.487a5.007 5.007 0 0 1 5-5h16.5a14.8 14.8 0 0 1-2.82-8.718A14.7 14.7 0 0 1-3946.687 0a14.7 14.7 0 0 1 14.63 14.768 14.794 14.794 0 0 1-2.82 8.718H-3920a5.007 5.007 0 0 1 5 5v15.468a10.994 10.994 0 0 0-6.808-2.27c-5.5 0-9.973 3.783-9.973 8.432s4.474 8.431 9.973 8.431a11 11 0 0 0 6.808-2.269V74a5.005 5.005 0 0 1-5 5z" transform="translate(3980)"/>
        <path fill="#fff" d="M-3920.003 73.999l.003-.003V63.45c-.597.065-1.2.098-1.808.098-3.84 0-7.49-1.298-10.277-3.654-1.436-1.214-2.574-2.647-3.382-4.259-.872-1.74-1.315-3.598-1.315-5.519 0-1.921.443-3.778 1.315-5.519.808-1.612 1.945-3.045 3.381-4.259 2.787-2.356 6.437-3.654 10.278-3.654.607 0 1.21.033 1.808.097V28.49l-.004-.004h-14.873c-1.88 0-3.6-1.054-4.454-2.729-.854-1.675-.697-3.687.407-5.208 1.222-1.683 1.867-3.682 1.867-5.781 0-5.386-4.32-9.768-9.63-9.768-5.31 0-9.629 4.382-9.629 9.768 0 2.1.646 4.098 1.867 5.782 1.104 1.521 1.261 3.533.407 5.207-.854 1.675-2.574 2.729-4.454 2.729h-16.5l-.004.004v45.506l.003.003h54.994m.003 5h-55c-2.757 0-5-2.242-5-5V28.488c0-2.758 2.243-5.001 5-5.001h16.504c-1.773-2.443-2.82-5.458-2.82-8.718 0-8.157 6.55-14.768 14.63-14.768 8.08 0 14.63 6.611 14.63 14.768 0 3.26-1.048 6.275-2.821 8.718H-3920c2.756 0 5 2.243 5 5.001v15.467c-1.853-1.463-4.27-2.27-6.808-2.27-5.5 0-9.974 3.783-9.974 8.432 0 4.65 4.474 8.432 9.974 8.432 2.537 0 4.955-.807 6.808-2.27V74c0 2.757-2.244 4.999-5 4.999z" transform="translate(3980)"/>
    </g>
</svg>
