<svg id="圖層_1" data-name="圖層 1" xmlns="http://www.w3.org/2000/svg" viewBox="0 0 500 500"><defs><style>.cls-1{fill:#2368ff;}.cls-2,.cls-5{fill:#5fe6ff;}.cls-10,.cls-2,.cls-3,.cls-7{stroke:#000;}.cls-10,.cls-2,.cls-3,.cls-4,.cls-7{stroke-linecap:round;stroke-linejoin:round;}.cls-10,.cls-2,.cls-4,.cls-7{stroke-width:3px;}.cls-3,.cls-6,.cls-7{fill:#fff;}.cls-3{stroke-width:4px;}.cls-10,.cls-4{fill:none;}.cls-4{stroke:#040000;}.cls-8{fill:#b3b3b3;}.cls-9{fill:#231815;}</style></defs><title>施工中</title><circle class="cls-1" cx="256" cy="256" r="200"/><polygon class="cls-2" points="185.27 238.62 332.61 238.62 391.54 280.44 126.34 280.44 185.27 238.62"/><polygon class="cls-3" points="192.46 147.95 128.34 234.58 183.46 326.66 331.53 329.36 389.54 237.03 322.55 147.88 192.46 147.95"/><path class="cls-4" d="M128.34,234.58c40.3.63,86.95,8.16,127.25,8.8,44.59.7,89.25-5.34,133.84-4.64"/><path class="cls-5" d="M167,280.22Q153.68,229.1,140.64,177.9q24-3.72,48-7.94,5.57,54.75,15.74,108.89"/><path d="M168.46,279.83Q158.07,240,147.88,200.2q-2.91-11.34-5.79-22.7L141,179.35q24-3.72,48-7.94l-1.9-1.45q4.36,42.91,11.55,85.48,2,11.93,4.24,23.81c.36,1.89,3.25,1.09,2.9-.8q-7.89-42-13-84.45-1.44-12-2.67-24a1.53,1.53,0,0,0-1.9-1.44q-23.92,4.22-47.95,7.93a1.52,1.52,0,0,0-1,1.85q10.13,39.85,20.46,79.65,3,11.34,5.91,22.67a1.5,1.5,0,0,0,2.89-.79Z"/><polygon class="cls-2" points="143.44 375.48 126.34 280.44 391.54 280.44 371.48 375.48 143.44 375.48"/><path class="cls-6" d="M186.34,326a4.57,4.57,0,0,0-1.14-.68,3,3,0,0,0-1.1-.22,1.75,1.75,0,0,0-1.1.32,1,1,0,0,0-.43.83.86.86,0,0,0,.22.59,1.87,1.87,0,0,0,.56.4,4.71,4.71,0,0,0,.78.29c.29.08.58.17.86.27a5.34,5.34,0,0,1,2.5,1.52,3.77,3.77,0,0,1,.79,2.47,4.87,4.87,0,0,1-.35,1.87,3.92,3.92,0,0,1-1,1.43,4.67,4.67,0,0,1-1.64.92,6.72,6.72,0,0,1-2.19.33,8.07,8.07,0,0,1-4.71-1.51l1.5-2.8a6.18,6.18,0,0,0,1.54,1,3.78,3.78,0,0,0,1.51.33,1.8,1.8,0,0,0,1.27-.39,1.18,1.18,0,0,0,.42-.89,1.09,1.09,0,0,0-.46-.93,3,3,0,0,0-.65-.34c-.27-.11-.59-.23-1-.36s-.89-.3-1.32-.47a4.17,4.17,0,0,1-1.16-.68,3.29,3.29,0,0,1-.82-1.08,3.9,3.9,0,0,1-.31-1.64,4.69,4.69,0,0,1,.33-1.8,4,4,0,0,1,.93-1.39,4.1,4.1,0,0,1,1.45-.9,5.62,5.62,0,0,1,1.93-.32,8.64,8.64,0,0,1,2.08.28,9,9,0,0,1,2.08.81Z"/><path class="cls-6" d="M201.94,322.59V336h-3.49V322.59Z"/><path class="cls-6" d="M217.81,325.53V336h-3.48V325.53h-2.86v-2.94h9.2v2.94Z"/><path class="cls-6" d="M239.73,327.06a3.71,3.71,0,0,0-3-1.47,3.64,3.64,0,0,0-1.45.28,3.53,3.53,0,0,0-1.14.77,3.58,3.58,0,0,0-.76,1.17,3.86,3.86,0,0,0-.27,1.45,3.94,3.94,0,0,0,.27,1.48,3.58,3.58,0,0,0,.76,1.17,3.66,3.66,0,0,0,1.15.78,3.53,3.53,0,0,0,1.42.29,4.06,4.06,0,0,0,3-1.42v4.12l-.35.12a10.7,10.7,0,0,1-1.49.42,7.21,7.21,0,0,1-1.37.13,6.89,6.89,0,0,1-2.66-.52,7,7,0,0,1-2.24-1.48,7.34,7.34,0,0,1-1.55-2.25,6.89,6.89,0,0,1-.59-2.85,7,7,0,0,1,.58-2.84,7.27,7.27,0,0,1,1.55-2.22,7.16,7.16,0,0,1,4.93-2,7.55,7.55,0,0,1,1.57.17,9.23,9.23,0,0,1,1.62.53Z"/><path class="cls-6" d="M249.52,329.28a6.91,6.91,0,0,1,2.08-5,7.15,7.15,0,0,1,2.33-1.51,8.55,8.55,0,0,1,6,0,7.14,7.14,0,0,1,2.35,1.51,6.84,6.84,0,0,1,1.54,2.24,7.3,7.3,0,0,1,0,5.56,6.88,6.88,0,0,1-1.54,2.25,7,7,0,0,1-2.35,1.5,8.55,8.55,0,0,1-6,0,6.93,6.93,0,0,1-4.41-6.53Zm3.64,0a3.59,3.59,0,0,0,.3,1.48,3.74,3.74,0,0,0,.82,1.17,3.58,3.58,0,0,0,1.2.77,3.87,3.87,0,0,0,2.89,0,3.73,3.73,0,0,0,1.21-.77,3.77,3.77,0,0,0,.83-1.17,3.78,3.78,0,0,0,0-2.95,3.79,3.79,0,0,0-2-1.95,4,4,0,0,0-2.89,0,3.61,3.61,0,0,0-1.2.78,3.74,3.74,0,0,0-.82,1.17A3.58,3.58,0,0,0,253.16,329.28Z"/><path class="cls-6" d="M274.54,336V322.59H278l6.43,8.18v-8.18h3.46V336h-3.46L278,327.79V336Z"/><path class="cls-6" d="M300.28,322.59h3l-3.27,5.89H298Z"/><path class="cls-6" d="M323.53,336H312.75l3.32-3.45a30.24,30.24,0,0,0,2.06-2.32,11.86,11.86,0,0,0,1.11-1.6,4.52,4.52,0,0,0,.46-1.07,4,4,0,0,0,.08-.69,2,2,0,0,0-.09-.59,1.48,1.48,0,0,0-.3-.5,1.4,1.4,0,0,0-.47-.36,1.45,1.45,0,0,0-.65-.13,1.39,1.39,0,0,0-1.11.46,1.73,1.73,0,0,0-.4,1.15,3.92,3.92,0,0,0,.06.57H313a5.61,5.61,0,0,1,.38-2.13,4.71,4.71,0,0,1,2.72-2.72,6.08,6.08,0,0,1,4.15,0,4.81,4.81,0,0,1,1.65,1A4.58,4.58,0,0,1,323,325.1a4.66,4.66,0,0,1,.39,1.91,4.49,4.49,0,0,1-.47,2,7.44,7.44,0,0,1-1.5,1.91L319.2,333h4.33Z"/><path class="cls-6" d="M336,325.53h-2v-2.94h5.44V336H336Z"/><ellipse class="cls-7" cx="239.29" cy="210.98" rx="14.58" ry="21.44"/><ellipse cx="239.29" cy="210.98" rx="7.14" ry="11.47"/><ellipse class="cls-7" cx="277.47" cy="211.24" rx="14.58" ry="21.44"/><ellipse cx="277.47" cy="211.24" rx="7.14" ry="11.47"/><path class="cls-8" d="M313.73,294.67c9,9,19.13,17.78,30,24.34,3.59,2.16,7.6,4.24,11.76,3.68,1.81-.24,3.77-1.24,4.16-3a4.87,4.87,0,0,0-.18-2.33c-1.22-4.38-4.41-7.89-7.55-11.17-8.39-8.74-18.34-17.09-27.55-25"/><path class="cls-9" d="M312.84,295.55A189,189,0,0,0,330,310.92c3,2.35,6,4.58,9.21,6.67a50.61,50.61,0,0,0,9.73,5.41c3,1.11,6.69,1.65,9.58,0,3.33-1.89,2.67-5.44,1.34-8.43a31,31,0,0,0-6.12-8.4c-2.66-2.82-5.43-5.53-8.26-8.18-6.52-6.12-13.35-11.88-20.14-17.69-1.22-1-3,.72-1.77,1.77,5.49,4.69,11,9.35,16.35,14.19,5.13,4.64,10.48,9.38,14.81,14.8a22.83,22.83,0,0,1,2.53,3.85c.68,1.31,1.88,3.63,1,5-1.64,2.67-6.41,1.49-8.67.64a47.78,47.78,0,0,1-8.95-5q-4.39-2.88-8.53-6.11a189.47,189.47,0,0,1-17.49-15.65,1.25,1.25,0,0,0-1.77,1.76Z"/><path class="cls-8" d="M313.73,294.67c-6.42,3.48-14.39,6.48-20.74,2.88-4.22-2.39-6.57-7.25-7.14-12.07s.37-9.67,1.3-14.43c1.26,3.78,3.51,7.39,7,9.39s8.21,2,11.13-.74c3.14-2.92,3.22-8.21.91-11.83s-6.48-5.71-10.7-6.5c.49-2.43,3.07-3.8,5.44-4.5a28.48,28.48,0,0,1,19.3,1.15c3.35,1.46,6.56,3.76,7.93,7.15,2.12,5.27-.83,11.11-3.69,16"/><path class="cls-9" d="M313.1,293.59c-6.36,3.43-15.63,7.17-21.72,1.19s-4.52-15.76-3-23.4H286c2.31,6.78,8.31,13.43,16.2,11.37,7.38-1.93,8.56-11.12,4.32-16.56a17.64,17.64,0,0,0-10.7-6l.87,1.53c.46-1.85,2.24-2.83,3.92-3.42a24.65,24.65,0,0,1,6.35-1.25,26.94,26.94,0,0,1,13.16,2.31c3.6,1.67,7,4.43,7.46,8.64.48,4.49-2,8.85-4.19,12.58a1.25,1.25,0,0,0,2.16,1.26c2.05-3.52,4-7.27,4.5-11.38a11.82,11.82,0,0,0-3.8-10.08c-5.85-5.38-15.09-6.77-22.67-5.41-3.6.65-8.3,2-9.3,6.09a1.27,1.27,0,0,0,.88,1.54c3.72.73,7.52,2.39,9.74,5.61,1.92,2.78,2.35,6.87.31,9.72-2.19,3-6.62,3.3-9.79,1.79-3.57-1.71-5.77-5.36-7-9-.37-1.07-2.16-1.3-2.41,0-1.42,7.22-2.78,15,.76,21.84a14.33,14.33,0,0,0,6.56,6.54,16.41,16.41,0,0,0,9.79,1,38.08,38.08,0,0,0,11.3-4.34c1.42-.76.16-2.92-1.26-2.16Z"/><path d="M373.36,262.34c2,12.33-5.1,23.85-13.14,32.52-4.2,4.54-8.83,8.65-13.31,12.91a31.87,31.87,0,0,0-5.53,6.4c-1.26,2.08-2.46,5-1.73,7.43s4.07,3.56,5.45.85c.7-1.35.5-3,.48-4.49l-.07-5.63c0-1.93-3-1.93-3,0l.05,4.22a19.19,19.19,0,0,1,0,4.15,3.22,3.22,0,0,0-.17.5c0,1.28.34-.44.28-.14,0-.22-.23-.77-.23-1.07a8.37,8.37,0,0,1,1.15-3.62,24.15,24.15,0,0,1,4.73-5.78c1.93-1.88,3.92-3.69,5.88-5.53,8-7.49,15.82-15.49,19.92-25.84a33.42,33.42,0,0,0,2.14-17.68c-.3-1.9-3.2-1.09-2.89.8Z"/><path d="M192.47,326.48c-4.44-1.9-7.74-8.36-6.69-13.08C189.81,316.54,192.92,321.4,192.47,326.48Z"/><path class="cls-10" d="M185.78,313.4c4,3.14,7.14,8,6.69,13.08C188,324.58,184.73,318.12,185.78,313.4Z"/><path class="cls-10" d="M144.35,259.81c-.64,9.24-1.18,19,3,27.29,4.79,9.63,14.91,15.32,24.85,19.44,4.71,1.95,9.61,3.73,13.63,6.86"/></svg>
