<svg xmlns="http://www.w3.org/2000/svg" xmlns:xlink="http://www.w3.org/1999/xlink" width="111.949" height="162.16" viewBox="0 0 111.949 162.16"><defs><style>.a{fill:#9ccaef;}.b{clip-path:url(#a);}</style><clipPath id="a"><rect class="a" width="111.949" height="162.16"/></clipPath></defs><g transform="translate(-8.473 -200)"><g class="b" transform="translate(8.473 200)"><path class="a" d="M41.043,5.032C50.483-2.183,61.7.481,61.7.481s-1.873,13.4-11.31,20.622-22.865,5.51-22.865,5.51a116.031,116.031,0,0,0,5.842-10.18c1.712-3.362,4.2-8.737,7.681-11.4" transform="translate(36.512 0.001)"/><path class="a" d="M29.1,8.2A12.445,12.445,0,0,0,19.452,6.07s.875,6.261,5.282,9.63,10.68,2.576,10.68,2.576-1.363-2.068-2.732-4.754c-.8-1.573-1.961-4.083-3.586-5.326" transform="translate(25.808 7.756)"/><path class="a" d="M26.486,31.993c1.291,0,2.578.056,3.865.142-1.149-6.859-.921-14,2.6-20.136-6.168,4.968-9.17,12.574-10.726,20.166,1.417-.1,2.839-.172,4.26-.172" transform="translate(29.488 15.92)"/><path class="a" d="M55.975,21.579a55.976,55.976,0,1,0,55.977,55.975A55.975,55.975,0,0,0,55.975,21.579m22.872,78.846L55.975,84.685,33.1,100.425,48.843,77.554,33.1,54.684l22.87,15.74,22.872-15.74L63.1,77.554Z" transform="translate(0 28.63)"/></g></g></svg>