<svg xmlns="http://www.w3.org/2000/svg" width="422.57" height="1273.466" viewBox="0 0 422.57 1273.466"><defs><style>.a{opacity:0.6;}.b{fill:#9ccaef;}.c{fill:#fff;}</style></defs><g class="a" transform="translate(17 157.5)"><path class="b" d="M0,279.585V210.5L207.255,486.84,0,331.4Z" transform="translate(-10.475 -226.76)"/><path class="c" d="M135,390.5h51.814L290.441,597.755h0Z" transform="translate(-93.662 -337.675)"/><path class="b" d="M75-.5h89.043l89.427,357.323h0Z" transform="translate(-56.69 -96.743)"/><path class="c" d="M405,390.5h51.814V597.755h0Z" transform="translate(-260.034 -337.675)"/><path class="b" d="M540-.5h89.427L540,356.823h0Z" transform="translate(-343.22 -96.743)"/><path class="c" d="M591.814,390.5h51.814L540,597.755h0Z" transform="translate(-343.22 -337.675)"/><path class="b" d="M748.79-157.5V-18.562L540,260.08h0Z" transform="translate(-343.22)"/><path class="c" d="M695.441,390.5h51.814v51.814L540,597.755Z" transform="translate(-343.22 -337.675)"/><path class="c" d="M0,525.5,207.255,680.941h0L0,577.314Z" transform="translate(-10.475 -420.861)"/><path class="b" d="M540,680.941,747.255,525.5v51.814L540,680.941Z" transform="translate(-343.22 -420.861)"/><path class="b" d="M0,660.5,207.255,764.127h0L0,712.314Z" transform="translate(-10.475 -504.047)"/><path class="c" d="M540,764.127,747.255,660.5v51.814L540,764.127Z" transform="translate(-343.22 -504.047)"/><path class="c" d="M0,795.5l207.255,51.814H0Z" transform="translate(-10.475 -587.234)"/><path class="b" d="M540,847.314,747.255,795.5v51.814Z" transform="translate(-343.22 -587.234)"/><path class="b" d="M0,930.5H207.255L0,982.314Z" transform="translate(-10.475 -670.42)"/><path class="c" d="M540,930.5H747.255v51.814L540,930.5Z" transform="translate(-343.22 -670.42)"/><path class="c" d="M0,982.314,207.255,930.5h0L0,1034.128Z" transform="translate(-10.475 -670.42)"/><path class="b" d="M540,930.5l207.255,51.814v51.814L540,930.5Z" transform="translate(-343.22 -670.42)"/><path class="b" d="M0,1034.128,207.255,930.5h0L0,1085.941Z" transform="translate(-10.475 -670.42)"/><path class="c" d="M540,930.5l207.255,103.628v51.814L540,930.5Z" transform="translate(-343.22 -670.42)"/><path class="c" d="M0,1085.941,207.255,930.5,51.814,1137.755H0Z" transform="translate(-10.475 -670.42)"/><path class="b" d="M207.255,930.5h0L0,1345.01V1206.84Z" transform="translate(-10.475 -670.42)"/><path class="c" d="M373.627,930.5h0l-51.814,207.255H270Z" transform="translate(-176.848 -670.42)"/><path class="b" d="M196.78,930.5h0v855.886H-17Z" transform="translate(0 -670.42)"/><path class="c" d="M540,930.5h0l51.814,207.255H540Z" transform="translate(-343.22 -670.42)"/><path class="b" d="M540,930.5h0l207.255,414.51v414.51Z" transform="translate(-343.22 -670.42)"/><path class="c" d="M540,930.5h0l155.441,207.255H643.627Z" transform="translate(-343.22 -670.42)"/><path class="b" d="M540,930.5l207.255,155.441v120.9Z" transform="translate(-343.22 -670.42)"/></g></svg>