<svg xmlns="http://www.w3.org/2000/svg" width="274.848" height="45.072" viewBox="0 0 274.848 45.072"><defs><style>.a{fill:#226bb4;}</style></defs><path class="a" d="M38.1,17.568l1.872,2.448H49.86V18l-2.208-2.256H50.34v-7.2H42.276v-1.2H32.82l-3.792,5.712v6.96h7.536Zm22.752-.048,1.92,2.5H73V17.952l-2.16-2.208h2.64v-7.2H64.932v-1.2h-9.84L51.3,13.056v6.96h7.92ZM73.764,40.368H68.628V39.216H72.8V21.072H29.988V39.216h4.944v1.152H28.98v7.824h4.272l-.816,1.728v1.872H47.364l1.056-3.6h5.76v3.552H68.628V48.192h5.136Zm-14.256-14.3v1.008H43.284V26.064Zm0,4.752H43.284v-1.1H59.508ZM43.284,34.56V33.552H59.508V34.56Zm6.048,5.808V39.216H54.18v1.152Zm38.4-6.528H95.94V31.2l1.392,1.44h2.3v1.2h9.072V8.784h-6.576V7.152h-10.7l-3.7,4.08v8.64H86.58V28.56h1.152Zm31.92-16.56V15.264h1.056V17.28l1.344,1.776h8.928V11.184h-1.824V7.344h-18v3.5h-1.44v8.208h8.448ZM99.636,15.024v1.92l-.96-1.1H95.94v-.816Zm0,6.432h-3.7V19.3l1.248,1.3h2.448Zm21.6,4.464-1.344.768-1.3-.72h-8.688v2.64l1.536.912-1.728.96v3.312h8.64l1.776-1.488,1.968,1.488h9.12v-3.6l-2.256-1.3,1.632-1.1v-7.92H109.668V25.2h11.568Zm-22.56,1.872H95.94v-.816h3.7v1.68ZM130.164,42.72V34.8H87.78v7.92H86.532v9.168h44.832V42.72Zm-28.992-1.2v3.024H99.54V41.52Zm8.544,3.024h-1.68V41.52h1.68Zm8.64,0h-1.68V41.52h1.68ZM159.3,7.248H148.5l-4.176,5.616V51.6h21.168V11.328H159.3Zm21.456,2.3v-2.3H170.484l-3.5,4.8V22.416H176V40.608l-7.1,4.8v6.384h19.68V9.552ZM156.372,22.8v5.184h-2.544V22.8Zm18.192,17.664V24h-7.392V37.2l2.5,3.264Zm-20.736,1.488V36.576h2.544v5.376Zm90.192-.48,1.872-2.112V30.192H227.22V29.184h18.96V15.072h-4.128l-5.9,5.472h-1.536L244.4,11.52V8.208h-9.456l-7.776,7.2h-1.536l5.856-5.424V7.68H220.6l-4.56,4.224v8.16h3.216l-3.216,2.928v6.192h2.256l-2.256,2.3V43.92h1.632l2.352-2.208.96.912-4.992,4.656v4.56H228.9l2.928-3.264,3.456,3.264h11.184V43.632ZM214.884,16.224V7.872h-8.5L201.4,11.808V25.68h1.968ZM201.4,28.7V39.84h1.728V52.032h11.808V20.688h-3.744Zm28.368,8.784h4.848v.192l-2.256,2.256-2.592-2.3ZM289.62,8.928V6.96H273.78V8.928h-14.3v7.92h4.752l-4.368,2.4v8.4h6.288l3.12-2.832v2.832H285.54l2.112-1.584,1.968,1.584h13.728V23.28l-3.024-1.92,2.112-1.632V17.856H285.06l-2.3,1.824V16.848h21.072V8.928ZM259.812,51.792h12.336V36.96h3.072v1.056H273.3v3.456h7.824V36.96h1.152v4.512h8.112V38.016h-1.92V36.96h3.072v8.16l-1.056.672V42.576H273.3v7.632h13.632v1.584h16.56V28.7h-43.68Zm23.856-4.752h-3.552v-1.2h3.552Z" transform="translate(-28.98 -6.96)"/></svg>