<svg xmlns="http://www.w3.org/2000/svg" width="414.634" height="184.981" viewBox="0 0 414.634 184.981"><defs><style>.a{fill:#fff;}</style></defs><path class="a" d="M4.128,56H14.88C25.3,56,32.5,50.384,32.5,37.952S25.3,20.24,14.4,20.24H4.128Zm8.592-6.912V27.1h1.152c5.76,0,9.84,2.352,9.84,10.848s-4.08,11.136-9.84,11.136Zm40.512,7.584a17.625,17.625,0,0,0,9.744-3.12l-2.832-5.136a11.114,11.114,0,0,1-5.76,1.728c-3.456,0-6.048-1.536-6.816-5.28H63.6a16.007,16.007,0,0,0,.384-3.7c0-7.44-3.84-13.152-11.712-13.152-6.576,0-12.96,5.472-12.96,14.3C39.312,51.392,45.36,56.672,53.232,56.672ZM47.424,39.248c.576-3.216,2.64-4.7,4.992-4.7,3.12,0,4.32,2.016,4.32,4.7ZM80.016,56.672c7.44,0,11.376-3.888,11.376-8.928,0-4.944-3.792-6.912-7.2-8.208-2.832-1.008-5.184-1.632-5.184-3.264,0-1.3.912-1.968,2.88-1.968a10.4,10.4,0,0,1,5.664,2.3l3.792-5.088a15.612,15.612,0,0,0-9.744-3.5c-6.384,0-10.56,3.5-10.56,8.64,0,4.56,3.7,6.768,6.96,8.064,2.784,1.1,5.424,1.872,5.424,3.5,0,1.344-.96,2.16-3.216,2.16-2.16,0-4.416-1.008-6.912-2.88L69.5,52.832A17.652,17.652,0,0,0,80.016,56.672Zm30.768,0a13.817,13.817,0,0,0,9.024-3.216L116.5,47.84a7.831,7.831,0,0,1-4.752,1.92c-3.312,0-5.808-2.88-5.808-7.44,0-4.512,2.352-7.392,6.144-7.392a5.352,5.352,0,0,1,3.456,1.44l3.984-5.424a11.819,11.819,0,0,0-7.968-2.928c-7.632,0-14.352,5.28-14.352,14.3C97.2,51.392,103.1,56.672,110.784,56.672Zm26.928,0a17.625,17.625,0,0,0,9.744-3.12l-2.832-5.136a11.114,11.114,0,0,1-5.76,1.728c-3.456,0-6.048-1.536-6.816-5.28H148.08a16.006,16.006,0,0,0,.384-3.7c0-7.44-3.84-13.152-11.712-13.152-6.576,0-12.96,5.472-12.96,14.3C123.792,51.392,129.84,56.672,137.712,56.672ZM131.9,39.248c.576-3.216,2.64-4.7,4.992-4.7,3.12,0,4.32,2.016,4.32,4.7ZM156.336,56h8.544V37.76c1.632-1.584,2.784-2.448,4.7-2.448,2.16,0,3.168,1.056,3.168,4.848V56H181.3V39.1c0-6.816-2.544-11.088-8.5-11.088-3.7,0-6.48,1.872-8.736,4.08h-.144l-.624-3.408h-6.96Zm43.776.672a10.6,10.6,0,0,0,7.152-3.312h.192L208.08,56h6.96V17.648H206.5v9.12l.288,4.08a8.585,8.585,0,0,0-6.576-2.832c-5.664,0-11.28,5.376-11.28,14.3S193.3,56.672,200.112,56.672Zm2.256-7.008c-2.928,0-4.656-2.208-4.656-7.44,0-5.04,2.16-7.248,4.512-7.248a6.153,6.153,0,0,1,4.272,1.632V47.36A4.538,4.538,0,0,1,202.368,49.664Zm28.848,7.008a11.669,11.669,0,0,0,7.824-3.408h.24L239.856,56h6.96V40.5c0-8.544-3.984-12.48-11.04-12.48a22.713,22.713,0,0,0-11.76,3.6l2.976,5.616c2.736-1.536,4.992-2.4,7.152-2.4,2.784,0,3.936,1.3,4.128,3.5C227.616,39.488,223.1,42.608,223.1,48.368,223.1,52.928,226.176,56.672,231.216,56.672Zm2.928-6.624c-1.776,0-2.928-.768-2.928-2.352,0-1.92,1.728-3.5,7.056-4.176v4.368C237.024,49.232,235.872,50.048,234.144,50.048ZM255.792,56h8.544V37.76c1.632-1.584,2.784-2.448,4.7-2.448,2.16,0,3.168,1.056,3.168,4.848V56h8.544V39.1c0-6.816-2.544-11.088-8.5-11.088-3.7,0-6.48,1.872-8.736,4.08h-.144l-.624-3.408h-6.96Zm44.736.672a20.088,20.088,0,0,0,6.192-1.008l-1.344-6.192a7.941,7.941,0,0,1-2.5.528c-2.016,0-3.456-1.2-3.456-4.224V35.36h6.432V28.688h-6.432V21.44h-7.056l-.96,7.248-4.224.336V35.36h3.7V45.872C290.88,52.3,293.664,56.672,300.528,56.672Zm20.592,0c7.44,0,11.376-3.888,11.376-8.928,0-4.944-3.792-6.912-7.2-8.208-2.832-1.008-5.184-1.632-5.184-3.264,0-1.3.912-1.968,2.88-1.968a10.4,10.4,0,0,1,5.664,2.3l3.792-5.088a15.612,15.612,0,0,0-9.744-3.5c-6.384,0-10.56,3.5-10.56,8.64,0,4.56,3.7,6.768,6.96,8.064,2.784,1.1,5.424,1.872,5.424,3.5,0,1.344-.96,2.16-3.216,2.16-2.16,0-4.416-1.008-6.912-2.88l-3.792,5.328A17.652,17.652,0,0,0,321.12,56.672Zm43.968,0c6.912,0,13.344-5.28,13.344-14.352,0-9.024-6.432-14.3-13.344-14.3-6.96,0-13.392,5.28-13.392,14.3C351.7,51.392,358.128,56.672,365.088,56.672Zm0-6.912c-3.216,0-4.656-2.88-4.656-7.44,0-4.512,1.44-7.392,4.656-7.392,3.168,0,4.608,2.88,4.608,7.392C369.7,46.88,368.256,49.76,365.088,49.76ZM387.36,56H395.9V35.36h4.848V28.688H395.9v-1.3c0-2.736,1.152-3.744,3.024-3.744a7.056,7.056,0,0,1,2.784.576l1.536-6.336a16.853,16.853,0,0,0-5.568-.912c-7.584,0-10.32,4.9-10.32,10.656v1.1l-3.648.288V35.36h3.648ZM11.04,120h8.592V91.392h9.7V84.24H1.392v7.152H11.04Zm25.536,0H45.12V101.76c1.632-1.584,2.784-2.448,4.7-2.448,2.16,0,3.168,1.056,3.168,4.848V120h8.544V103.1c0-6.816-2.544-11.088-8.5-11.088a12.138,12.138,0,0,0-8.352,3.7l.432-4.848V81.648H36.576Zm46.368.672a17.625,17.625,0,0,0,9.744-3.12l-2.832-5.136a11.114,11.114,0,0,1-5.76,1.728c-3.456,0-6.048-1.536-6.816-5.28H93.312a16.007,16.007,0,0,0,.384-3.7c0-7.44-3.84-13.152-11.712-13.152-6.576,0-12.96,5.472-12.96,14.3C69.024,115.392,75.072,120.672,82.944,120.672Zm-5.808-17.424c.576-3.216,2.64-4.7,4.992-4.7,3.12,0,4.32,2.016,4.32,4.7Zm47.184-1.1c.912-3.552,1.872-7.728,2.736-11.472h.192c.96,3.648,1.872,7.92,2.832,11.472l.768,3.024h-7.3ZM111.12,120h8.736l2.064-8.208h10.56L134.544,120h9.024L132.48,84.24H122.208Zm52.512.672c5.856,0,11.472-5.376,11.472-14.832,0-8.352-4.176-13.824-10.7-13.824a10.754,10.754,0,0,0-7.056,2.928l.24-4.08V81.648H149.04V120h6.672l.672-2.928h.24A9.67,9.67,0,0,0,163.632,120.672Zm-2.016-7.008a5.78,5.78,0,0,1-4.032-1.584v-10.8c1.44-1.584,2.736-2.3,4.32-2.3,3.024,0,4.416,2.256,4.416,7.056C166.32,111.5,164.208,113.664,161.616,113.664Zm27.7,7.008a11.669,11.669,0,0,0,7.824-3.408h.24l.576,2.736h6.96V104.5c0-8.544-3.984-12.48-11.04-12.48a22.713,22.713,0,0,0-11.76,3.6l2.976,5.616c2.736-1.536,4.992-2.4,7.152-2.4,2.784,0,3.936,1.3,4.128,3.5-10.656,1.152-15.168,4.272-15.168,10.032C181.2,116.928,184.272,120.672,189.312,120.672Zm2.928-6.624c-1.776,0-2.928-.768-2.928-2.352,0-1.92,1.728-3.5,7.056-4.176v4.368C195.12,113.232,193.968,114.048,192.24,114.048Zm33.7,6.624a13.817,13.817,0,0,0,9.024-3.216l-3.312-5.616a7.831,7.831,0,0,1-4.752,1.92c-3.312,0-5.808-2.88-5.808-7.44,0-4.512,2.352-7.392,6.144-7.392a5.352,5.352,0,0,1,3.456,1.44l3.984-5.424a11.819,11.819,0,0,0-7.968-2.928c-7.632,0-14.352,5.28-14.352,14.3C212.352,115.392,218.256,120.672,225.936,120.672Zm24.384,0c3.7,0,6.24-1.728,8.5-4.416h.192l.624,3.744h6.96V92.688h-8.544v17.9c-1.44,2.016-2.64,2.784-4.56,2.784-2.16,0-3.168-1.1-3.168-4.848V92.688h-8.544v16.9C241.776,116.4,244.32,120.672,250.32,120.672Zm33.7,0c7.44,0,11.376-3.888,11.376-8.928,0-4.944-3.792-6.912-7.2-8.208-2.832-1.008-5.184-1.632-5.184-3.264,0-1.3.912-1.968,2.88-1.968a10.4,10.4,0,0,1,5.664,2.3l3.792-5.088a15.612,15.612,0,0,0-9.744-3.5c-6.384,0-10.56,3.5-10.56,8.64,0,4.56,3.7,6.768,6.96,8.064,2.784,1.1,5.424,1.872,5.424,3.5,0,1.344-.96,2.16-3.216,2.16-2.16,0-4.416-1.008-6.912-2.88l-3.792,5.328A17.652,17.652,0,0,0,284.016,120.672Z" transform="matrix(0.978, 0.208, -0.208, 0.978, 23.728, -16.894)"/></svg>