<svg xmlns="http://www.w3.org/2000/svg" width="208.726" height="31.994" viewBox="0 0 208.726 31.994"><defs><style>.a{fill:#226bb4;}</style></defs><path class="a" d="M48.64,6.018H42.35V4.862h-8.3V6.018H28.716V12.75H48.64ZM28,21.59v1.632l-1.054-1.258V20.74h1.224V13.294H26.948V11.662l.986-.68V5.508H17.53v6.6H19.4v1.19H17.428V20.74h1.734l-2.006,3.2v9.826h1.292l.952-1.734v4.658h7.548V30.26H28v6.426H35.04V27.3H41.7v5.066l-.748.646v-4.9H35.788v7.14h3.3v1.428h9.86V21.59Zm19.958-.782V13.566H29.09v7.242ZM36.23,16.864h4.284v1.02H36.23Zm2.754,15.47H37.9v-1.19h1.088Zm47.158-10.54H81.654v-5.27h4.182V7.582H81.654V5.2H74v2.38h-1.36v-1.7h-4.59L66.388,9.146v7.378h4.93v5.27H66.354v9.078h4.964v5.916H81.654V30.872h4.488ZM54.42,13.09V24.752h1.87V36.686h9.078V5.44H58.432ZM109.7,10.982h-.782V5.032h-4.59v5.95h-.816V5.61h-2.788V15.674h11.7V5.61H109.7Zm12.75,15.028,1.02-1.9V6.46h-4.012V5.134H114.94l-1.8,2.346v7.65h4.794v3.4l-1.36-2.414h-3.434V23.63l.986,1.734-1.258,1.768v9.69h3.876L118.2,34.34l1.326,2.482h4.046v-8.6ZM99.946,11.288V5.474h-5l-3.23,2.278v8.806h1.53Zm-8.228,7.446V26.52H92.7V36.856H99.98V13.43H98.518Zm9.01,2.414H112.39V16.49H100.728Zm.1,5.134h2.346v.884h-2.244v4.046h2.244v.918H100.8v4.624h11.322V32.13H110.18v-.918h1.9V27.166h-1.9v-1.19l2.04-.476V21.964H100.83ZM159.786,7.344l-.51-2.006h-7.514V7.344h-1.054V5H139.284V7.344h-9.656V14.96h10.166V31.45l-.918,1.02V24.718H132.11l-2.482,3.06v7.276h7.888v1.734h13.192V14.96h10.4V7.344Zm-20.91,16.49V15.776h-9.044v5.032l2.312,3.026ZM160.6,15.776h-9.01v8.058h6.7l2.312-3.026Zm-9.01,8.942V35.054h9.18V27.778l-2.448-3.06ZM198.138,7.48h-9.384V5.134H176.31V7.48H167.1V31.824h9.214v4.964h12.444V31.824h9.384ZM175.63,15.708h2.04V23.97h-2.04Zm13.8,8.262h-2.04V15.708h2.04ZM214.492,6.222V25.908h8.228l3.162-4.216V6.222Zm.2,21.692v8.228h10.336V27.914Z" transform="translate(-17.156 -4.862)"/></svg>