<svg xmlns="http://www.w3.org/2000/svg" width="221.806" height="22.386" viewBox="0 0 221.806 22.386"><defs><style>.a{fill:#226bb4;}</style></defs><path class="a" d="M40.949,27.092l3.146-3.12V15.158L41.469,12.87H34.293v-1.4h9.23V5.382H29.457L26.311,8.5v8.4l2.626,2.288h6.63v1.4H26.285v6.5ZM48.8,5.3V27.118h9.048V5.3Zm30.966.13h-17.5v7.514h4.446V27.04h8.606V12.948h4.446ZM92.923,19.266V13.39h9.334V5.408H87.7l-3.588,3.64V23.53L87.7,27.118h14.82V19.266ZM110.161,5.33l-3.2,3.458V23.712l3.2,3.432H123.6l3.2-3.432V8.814L123.6,5.33Zm4.992,15.184v-8.4h3.458v8.4ZM143.311,5.538V12.87h-.572L138.4,5.538h-6.89V27.014h7.7V19.656h.546l4.472,7.384h6.656V5.538Zm39.6-.676H167.673v7.826h8.294v.936l-8.528,8.554V27.17h17.732V20.228h-5.538v-.312l5.226-4.784V7.306Zm7.332,19.474,3.016,2.912h12.532l3.042-2.912V8.034L205.789,4.94H193.257l-3.016,3.094Zm7.774-12.116h3.042v7.9h-3.042Zm31.356-7.358H214.135v7.826h8.294v.936L213.9,22.178V27.17h17.732V20.228H226.1v-.312l5.226-4.784V7.306Zm10.92.182L236.5,8.58v5.174h2.132V27.066h9.464V5.044Z" transform="translate(-26.285 -4.862)"/></svg>