<svg xmlns="http://www.w3.org/2000/svg" width="167.918" height="66.964" viewBox="0 0 167.918 66.964"><defs><style>.a{fill:#226bb4;}</style></defs><path class="a" d="M32.538,7.48H23.154V5.134H10.71V7.48H1.5V31.824H10.71v4.964H23.154V31.824h9.384ZM10.03,15.708h2.04V23.97H10.03Zm13.8,8.262h-2.04V15.708h2.04Zm43.078-3.094H65.144V7.446h-8.4V4.964H45.322V7.446H36.958v13.43H35.122v8.3H38.93l-2.788,3.842v3.672h11.05l3.06-6.7h1.9l3.094,6.7H66.266V33.014l-2.788-3.842h3.434Zm-21.794-5.3h1.734v5.3H45.118Zm11.8,5.3h-1.7v-5.3h1.7Zm43.86-2.448H99.688V13.4h.918V5.576H81.94V13.4h1.224v5.032H81.94v8.058h1.224l-1.19,6.834v3.468h7.548l.986-10.3H91.9V36.754h7.786V26.486h1.088ZM69.7,13.022h2.618v.17l-3.366,5.814v10.71H70.04v6.9H81.158V17.2H78.812v-.136l2.346-4.046V5.95H69.7Zm20.808,5.406V13.4H91.9v5.032ZM75.99,30.668H75V23.63h.986Zm55.522-1.87V22.542h-11.22V21.318h-3.6l1.734-1.734V14.076h1.02v5.508l2.006,2.006h12.58V16.932h-7.82V14.076h1.02v1.938h7.718V6.358h-10.4v-1.5h-11.39v1.5h-9.928v9.656h7.446V14.076h1.02v2.856h-7.616V21.59h5.814v.952H104.04V29.41h3.366l-3.978,4.76v2.618h11.56L118.8,29.41h2.89v7.378h13.362V28.8Zm19.482-8.6h16.49V16.8h1.19V6.29h-5.61V4.862H154.8V6.29h-5.1V16.864h1.292ZM137.53,36.754h8.33V33.32h3.026V21.25l-1.088-1.7,1.088-2.38V5.712H137.53Zm6.324-24.684v5.678H142.9V12.07Zm18.122.918v1.054h-5.95V12.988Zm3.808,15.47-.612,1.36h-.748V27.54h4.25V21.148H149.736V27.54h1.632l-1.938,5.95v3.3H156.3l1.02-9.248h.782v9.248h10.676v-8.33Zm-21.93-.476H142.9V22.644h.952ZM.858,71.694H6.82l3.806-7.018h.748l3.916,7.018h5.9V67.162l-6.38-8.338V51.476H6.974v7.348L.858,67.162ZM36.894,52.422V51.146H29.062v1.276H22.836v6.226H43.142V52.422ZM42.416,62.63V59.2H35.332l-2.31,2.64L30.69,59.2H23.606V62.63l2.464,2.332-3.124,2.486V71.76h6.622l3.454-3.366,3.432,3.366h6.622V67.448l-3.124-2.486Zm19.976,2.838V60.144h2.354V54.226H62.392V51.278h-6.6v2.948H53.5v5.918h2.288v5.324H53.108v6.116H65.186V65.468ZM51.414,51.388H46.2V52.51H44.946v4.928h2.376v.154l-2.552,2.42v7.876h.968V71.8h5.94V67.888h.836V61.024l-.836-.7,1.166-1.078V52.51h-1.43ZM87.472,53.72l-6.2-2.6H72.754l-6.182,2.6v5.038h.572v5.258H86.856V58.758h.616Zm-9.79,1.21,1.21.462H75.13l1.21-.462ZM70.642,57.5l2-.836v.374h8.69v-.4l2.046.858Zm1.386,2.266h3.146v1.98h-.44V60.122H72.468v1.144l.44.484h-.88Zm9.878,1.98h-.88l.462-.484V60.122H79.2V61.75h-.418V59.77h3.124ZM67.518,71.738H86.5V64.5H67.518ZM80.542,66.7v.484h-7V66.7Zm-7,2.75v-.462h7v.462Zm23.32-13.53,1.32-.748V51.564H89.122v4.642h2.024v.858h-2.2v4.862H90.9L88.792,64.06v6.116h1.32L91.146,68.9v2.838h5.72v-2.97h1.3V64.456l-1.3-1.518V61.926h1.342V57.064H96.866Zm12.474,7.128h-.594V51.564H103.29v12.8l-.462.154v-4.8l-3.674-1.5h-.44v6.182l2.2.814-2.244.814v5.082h1.342l2.244-.748v1.452h6.49V68.218l.594-.2Zm-6.512-4.026V53.434l-3.41-1.452h-.7V57.5l3.652,1.518Zm18.194-4.532.924.528h1.606V53.566l-.638-.352.638-.33v-1.43h-1.606l-.924.506-.924-.506h-1.606v1.43l.638.33-.638.352v1.452H120.1Zm8.954,9.57h1.342v-4.6h-.484v-7.9H123.9V54.82h2.068v.44h-2v1.694h2v.418h-2v1.65h2v.44h-9.878v-.44h2.024v-1.65h-2.024v-.418h2.024V55.26h-2.024v-.44h.726l1.3-.352v-2.9h-6.864v7.9h-.484V64.1h.968v1.54h8.822v.11l-.946.352H110.88V69.56h6.93v.088l-1.672.946V71.76h8.932v-2.2h6.094V66.106H128l1.98-.836Zm-8.954-5.5.924.528h1.606V57.636l-.66-.352.66-.374V55.392h-1.606l-.924.506-.924-.506h-1.606V56.91l.66.374-.66.352v1.452H120.1Zm-5.346,4.532V62.63h10.846v.462Zm36.982.726v-5.1h.66V52.07h-3.256v-.924h-5.126v.924H141.7v5.588h-2.948V56.69l.682.528h1.8V53.1l-2.772-1.8h-3.036l-2.772,1.8v4.114h1.848l.7-.55v.99h-2.266V71.8h4.488l.814-1.056.9,1.034h2.6V66.854h-3.894v.814h-.726V66.326h4.62V58.714h.55V71.76h10.582V64.434H146.63v-.616ZM137.346,55.7l.7.484h-2.222l.66-.484Zm11.506.77v.616H145.9V56.47ZM148.346,61H146.63v-.748h1.716Zm-11.77-.594h1.848v.572h-1.848Zm0,2.948V62.74h1.848v.616Zm11.99,3.916v.792H146.63v-.792Z" transform="translate(-0.858 -4.862)"/></svg>