<svg xmlns="http://www.w3.org/2000/svg" width="135.21" height="27.15" viewBox="0 0 135.21 27.15"><defs><style>.a{fill:#226bb4;}</style></defs><path class="a" d="M1.5,28.08l3.48,3.36H19.44l3.51-3.36V9.27L19.44,5.7H4.98L1.5,9.27ZM10.47,14.1h3.51v9.12H10.47ZM31.89,31.35H50.25l2.94-2.82V17.64L50.25,15H40.41V13.29H52.65V5.64H31.95V21.66H43.68v1.83H31.89Zm30.54-.63v1.5h6.12L76.77,6.57V5.07H70.65ZM103.8,5.61H86.22v9.03h9.57v1.08l-9.84,9.87v5.76h20.46V23.34h-6.39v-.36l6.03-5.52V8.43Zm29.79.12H118.32L115.2,8.85V19.74l2.31,2.13H127.8v1.74h-12v7.8h17.01l3.9-3.66V8.85Zm-9.9,9.87V13.2h4.11v2.4Z" transform="translate(-1.5 -5.07)"/></svg>