<svg xmlns="http://www.w3.org/2000/svg" width="195.384" height="22.608" viewBox="0 0 195.384 22.608"><defs><style>.a{fill:#226bb4;}</style></defs><path class="a" d="M17.124,7.08l1.008.576h1.752V6.072l-.7-.384.7-.36V3.768H18.132l-1.008.552-1.008-.552H14.364v1.56l.7.36-.7.384V7.656h1.752Zm9.768,10.44h1.464V12.5h-.528V3.888h-7.56V7.44h2.256v.48H20.34V9.768h2.184v.456H20.34v1.8h2.184v.48H11.748v-.48h2.208v-1.8H11.748V9.768h2.208V7.92H11.748V7.44h.792l1.416-.384V3.888H6.468V12.5H5.94v5.064H7v1.68H16.62v.12l-1.032.384H6.06V23.52h7.56v.1L11.8,24.648V25.92H21.54v-2.4h6.648V19.752H24.732l2.16-.912Zm-9.768-6,1.008.576h1.752V10.512l-.72-.384.72-.408V8.064H18.132l-1.008.552-1.008-.552H14.364V9.72l.72.408-.72.384V12.1h1.752Zm-5.832,4.944v-.5H23.124v.5ZM50.508,19.9V18.12h6.024V12.912H50.508V11.3h6.36V5.5h-6.36V3.432h-7.8V5.5h-1.32V4.176H36.9l-2.04,2.76V11.3h7.032v1.608H35.364V18.12h6.528V19.9h-6.96v5.856h22.08V19.9ZM71.82,3.624H65.6v.96h-1.92v5.4h10.2v-5.4H71.82Zm14.232,5.76H83.844V3.648h-7.32V9.384H74.46v7.344h2.064v9.24h7.32v-9.24h2.208ZM73.716,10.536H63.828v3.48h9.888ZM63.828,17.9h9.888V14.568H63.828Zm-.1,7.968H73.86V18.5H63.732Zm4.128-4.08h1.8v.888h-1.8ZM96.9,8.784l.936,1.224h4.944V9l-1.1-1.128h1.344v-3.6H98.988v-.6H94.26l-1.9,2.856v3.48h3.768Zm11.376-.024.96,1.248h5.112V8.976l-1.08-1.1h1.32v-3.6h-4.272v-.6H105.4l-1.9,2.856v3.48h3.96Zm6.456,11.424h-2.568v-.576h2.088V10.536H92.844v9.072h2.472v.576H92.34V24.1h2.136l-.408.864V25.9h7.464l.528-1.8h2.88v1.776h7.224V24.1h2.568ZM107.6,13.032v.5H99.492v-.5Zm0,2.376H99.492v-.552H107.6ZM99.492,17.28v-.5H107.6v.5Zm3.024,2.9v-.576h2.424v.576ZM142.5,22.392l.792-1.032V19.008h-3.12l-.384.456-.624-.984h4.128V14.112h-.552l-.12-.528h.5V10.9h-1.008v-.12l1.008-1.416V7.224h-1.008V7.1l1.008-1.416V3.96h-2.88L138.8,6V3.576h-4.656V14.112H128.94V21.1l-.816,1.9V25.92h3.768l.552-1.248.6.84h.984V21.024l-.552-.984V18.888h.648V19.8l1.44,2.232-1.08,1.488V25.9h3.36l.768-.984.792,1.1h4.08V23.832Zm-14.16-1.776v-7.1l-.768-1.056v-.888h.84V5.592h-.84V3.72h-4.92V5.592h-1.368v5.976h1.272l-1.44,2.808v9.216h.984l.552-1.248V25.9h4.92v-5.28Zm5.328-9.72H132.66v-.12l1.008-1.416V7.224H132.66V7.1l1.008-1.416V3.96h-3.216l-1.536,2.232V9.264h.864v.072l-.864,1.224v3.024h4.752Zm5.856-1.632v.072l-.72,1.008V9.264Zm-.72,4.32h.84v.528h-.84Zm33.408,4.464h-5.568V16.776h4.92V11.568h-4.92v-1.08h5.232V4.752H158.46V3.744h-5.616l-2.328,3.1v3.648h8.28v1.08H151.26v6.48h-1.272v5.688H158.8v2.232h7.848V23.736h5.568Zm-15,0V16.776H158.8v1.272ZM201.324,6.24l-6.768-2.832h-9.288L178.524,6.24v5.5h.624v5.736h21.5V11.736h.672Zm-10.68,1.32,1.32.5h-4.1l1.32-.5Zm-7.68,2.808,2.184-.912v.408h9.48V9.432l2.232.936Zm1.512,2.472h3.432V15h-.48V13.224h-2.472v1.248l.48.528h-.96ZM195.252,15h-.96l.5-.528V13.224h-2.5V15h-.456V12.84h3.408Zm-15.7,10.9h20.712V18H179.556Zm14.208-5.5v.528h-7.632V20.4Zm-7.632,3v-.5h7.632v.5Z" transform="translate(-5.94 -3.408)"/></svg>